<?xml version="1.0" encoding="utf-8"?>
<!-- Generator: Adobe Illustrator 19.0.0, SVG Export Plug-In . SVG Version: 6.00 Build 0)  -->
<svg version="1.1" id="Layer_1" xmlns="http://www.w3.org/2000/svg" xmlns:xlink="http://www.w3.org/1999/xlink" x="0px" y="0px"
	 viewBox="0 0 360 270" style="enable-background:new 0 0 360 270;" xml:space="preserve">
<style type="text/css">
	.st0{fill:#FFFFFF;}
</style>
<g>
	<path class="st0" d="M1.1,1c120.1,0,240,0,359.9,0c0,90,0,179.9,0,269.9c-119.9,0-239.8,0-359.9,0C1.1,181,1.1,91.1,1.1,1z
		 M261.8,144.3l-0.2-0.1c3.5,0,6.9,0,10.7,0c1,3.6,3.7,8,2.4,10c-2.4,3.9-0.2,6.6,0.3,9.7c0.5,3.1,1.7,6.2,1.6,9.2
		c-0.2,4.5,1.4,6.1,5.8,5.6c1.1-0.2,2.3,0,3.5,0c5.4-0.1,8.4-2.8,8-8.3c-0.3-4.6-1.1-9.2-2.2-13.7c-1.8-7.7-3.8-15.4-2.1-24.1
		c7.2,1.1,13.4,4.2,19,8.1c10.1,7,19.9,14.5,29.6,22c5,3.9,9.8,5.2,15.8,1c-0.6-5.4-1.2-11.2-1.7-16.9c-0.5-6-0.8-11.9-1.4-17.9
		c-0.6-6.8-3-9-9.7-9.2c-2.6-0.1-5.2-0.6-7.9-0.7c-6.8-0.3-13.9-1.9-20.3-0.5c-7.6,1.7-11.6-3.4-17-5.9c-2-0.9-3.6-2.5-5.7-4.1
		c0.8-3.7-3.9-11.1-9.4-12.1c-8.2-1.5-16.5-3.3-24.7-3.2c-6.6,0.1-12.7-1.2-18.9-2.7c-2.6-0.6-5.5-1.8-7.7-1.1
		c-6.5,2-11.8-3.4-18.1-2.3c1.2-0.4,2.4-0.9,5-1.9c-2.8-1-4.2-1.6-6.5-2.4c3-0.9,5-1.5,7.1-2.1c-3-1.7-6-3.1-9-3
		c-7.2,0.1-14.3,0.8-21.5,1.1c-2.4,0.1-4.9,0.3-7.3,0c-10.9-1.3-21.7-2.9-32.5-4.2c-4.1-0.5-8.8-1.8-12.3-0.4
		c-5.1,2-10.1,3.1-15.4,3.4c-1,0.1-2.1,0-3.1,0c-0.1,0.3-0.2,0.6-0.2,0.9c1.6,0.7,3.3,1.4,4.9,2.1c-3.6,0.4-7.5,1.7-8.2-3.8
		c-0.1-0.8-1.8-1.8-2.9-2.1c-2.5-0.7-5.2-1-7.8-1.4c-3.8-0.6-6.4,0.4-7.1,4.8c-0.9,5.8-4.1,9.2-10.3,9.4c-0.8,0-1.7,0.5-2.1,0.6
		c1.2,1.8,2.1,3.4,3.1,4.9c-1.8,0.2-3.7,0.8-5.5,0.6c-8.9-0.8-17.9-1.6-26.7-2.8c-3.5-0.5-8.1,0.8-9.2-5.2c-0.8-4.8-2.8-9.4-4.4-14
		c-1.4-4.1-3.5-8.1-4.4-12.4c-0.8-3.7-0.7-7.9-5.2-8.3c-3.1-0.3-6.4,1.2-9.4,2.3c-0.9,0.3-1.4,2.6-1.4,3.9
		c0.5,7.2,1.4,14.5,1.8,21.7c0.1,1.2-1.8,3.5-2.6,3.5c-7-0.8-9.4,5-13.5,9c4.1,1.1,8.1,1.5,12,2.1c1.5,0.2,4.1,0.8,4.2,1.6
		c1.8,7.8,9.1,5.6,13.9,7.6c2.1,0.9,5.1-1,7.7-0.9c8.3,0.4,16.7,0.5,24.8,2c5.1,1,11.4-2.1,15.3,4c0.3,0.5,2.2,0.7,2.8,0.3
		c5.4-3.4,11.2-2.3,16.9-1.4c10.3,1.7,20.9,0.5,31.2,4.3c10,3.7,20.9,4.7,31.4,6.9c6.1,1.3,13.2,1,18.2,4.1
		c7.6,4.7,14.7,3.8,22.4,2.4c2.4-0.4,4.9-1,7.2-0.6c12.4,1.9,12.4,2,10,14.7c-3.8,20.4-11.2,39-25.7,54c0.9,2.4,1.6,4.6,2.6,6.6
		c3.5,6.9,6.8,13.9,10.8,20.5c2.1,3.4,6.5,2.2,8.1-1.6c0.7-1.5,1.6-2.9,2.6-4.2c13.9-16.9,20.8-36.8,25.5-57.7
		c0.5-2.3,2.4-4.4,3.6-6.6c0.3,0.1,0.6,0.3,0.9,0.4c0.1-2.1,0.3-4.2,0.4-6.6C255.6,144,258.7,144.2,261.8,144.3z"/>
	<path d="M261.8,144.3c-3.1-0.2-6.3-0.3-9.7-0.5c-0.2,2.4-0.3,4.5-0.4,6.6c-0.3-0.1-0.6-0.3-0.9-0.4c-1.2,2.2-3.1,4.2-3.6,6.6
		c-4.7,20.9-11.6,40.8-25.5,57.7c-1,1.3-2,2.7-2.6,4.2c-1.7,3.8-6,5.1-8.1,1.6c-4.1-6.6-7.3-13.6-10.8-20.5c-1-2-1.7-4.3-2.6-6.6
		c14.5-15,21.9-33.7,25.7-54c2.4-12.8,2.5-12.8-10-14.7c-2.3-0.4-4.8,0.2-7.2,0.6c-7.7,1.4-14.8,2.3-22.4-2.4
		c-5-3.1-12-2.8-18.2-4.1c-10.5-2.2-21.4-3.3-31.4-6.9c-10.3-3.8-20.8-2.7-31.2-4.3c-5.7-0.9-11.5-1.9-16.9,1.4
		c-0.7,0.4-2.5,0.3-2.8-0.3c-3.9-6.1-10.2-3-15.3-4c-8.1-1.6-16.5-1.6-24.8-2c-2.6-0.1-5.6,1.8-7.7,0.9c-4.8-2-12.1,0.2-13.9-7.6
		c-0.2-0.8-2.7-1.4-4.2-1.6c-4-0.6-8-0.9-12-2.1c4.1-4,6.5-9.8,13.5-9c0.8,0.1,2.7-2.3,2.6-3.5c-0.4-7.2-1.3-14.5-1.8-21.7
		c-0.1-1.3,0.5-3.5,1.4-3.9c3-1.2,6.3-2.6,9.4-2.3c4.5,0.4,4.5,4.6,5.2,8.3c0.9,4.2,3,8.2,4.4,12.4c1.6,4.6,3.6,9.2,4.4,14
		c1,6,5.7,4.7,9.2,5.2c8.9,1.2,17.8,2,26.7,2.8c1.8,0.2,3.6-0.4,5.5-0.6c-1-1.5-1.9-3-3.1-4.9c0.4-0.1,1.3-0.6,2.1-0.6
		c6.2-0.2,9.4-3.6,10.3-9.4c0.7-4.4,3.3-5.3,7.1-4.8c2.6,0.4,5.2,0.7,7.8,1.4c1.1,0.3,2.8,1.3,2.9,2.1c0.7,5.5,4.6,4.3,8.2,3.8
		c-1.6-0.7-3.3-1.4-4.9-2.1c0.1-0.3,0.2-0.6,0.2-0.9c1,0,2.1,0,3.1,0c5.3-0.3,10.3-1.3,15.4-3.4c3.5-1.4,8.2-0.1,12.3,0.4
		c10.9,1.3,21.7,2.8,32.5,4.2c2.4,0.3,4.9,0.1,7.3,0c7.2-0.4,14.3-1.1,21.5-1.1c3,0,6,1.3,9,3c-2.1,0.6-4.1,1.2-7.1,2.1
		c2.3,0.8,3.7,1.4,6.5,2.4c-2.6,1-3.8,1.4-5,1.9c6.2-1.1,11.5,4.3,18.1,2.3c2.2-0.7,5.2,0.5,7.7,1.1c6.2,1.5,12.3,2.8,18.9,2.7
		c8.2-0.1,16.5,1.7,24.7,3.2c5.5,1,10.3,8.4,9.4,12.1c2.1,1.5,3.7,3.2,5.7,4.1c5.4,2.5,9.4,7.6,17,5.9c6.4-1.4,13.5,0.2,20.3,0.5
		c2.6,0.1,5.2,0.6,7.9,0.7c6.7,0.2,9.1,2.4,9.7,9.2c0.5,6,0.8,11.9,1.4,17.9c0.5,5.7,1.1,11.4,1.7,16.9c-6,4.2-10.8,2.8-15.8-1
		c-9.7-7.5-19.5-15-29.6-22c-5.6-3.9-11.9-7-19-8.1c-1.7,8.6,0.3,16.3,2.1,24.1c1.1,4.5,1.9,9.1,2.2,13.7c0.3,5.5-2.6,8.2-8,8.3
		c-1.2,0-2.3-0.1-3.5,0c-4.3,0.6-5.9-1.1-5.8-5.6c0.1-3.1-1.1-6.1-1.6-9.2c-0.5-3.2-2.8-5.8-0.3-9.7c1.2-2-1.4-6.5-2.4-10
		c-3.8,0-7.3,0-10.7,0c1.7-0.5,3.4-1,5.1-1.4c-0.1-0.5-0.2-0.9-0.3-1.4c-1-0.1-2.1-0.2-2.7-0.2c0.2-3.5,0.4-6.7,0.5-9.9
		c-2.4-0.4-4.1-0.7-5.8-1C256.1,138.4,257,142.1,261.8,144.3z M36.3,98.2c0.1,0.7,0.3,1.5,0.4,2.2c15,1.3,30.1,2.5,45.1,3.8
		c0.2-0.6,0.5-1.1,0.7-1.7c-1.4-1.1-2.8-3-4.3-3.1c-10-1.1-20.1-2.1-30.1-2.6C44.1,96.5,40.2,97.6,36.3,98.2z M129,89.5
		c-8.4-1.1-16.5-2.2-24.5-3.3c-1.7,7.2,4.3,5.1,8,6.9c-2.4,0.4-3.9,0.6-5.3,0.9c0,0.5,0,1,0,1.5c4.8,1.9,9.8,1.8,14.9,0.9
		c0.1-0.4,0.2-0.9,0.3-1.3c-1.5-0.6-3.1-1.2-4.8-1.9c3.2,0.2,6.2,0.3,9.5,0.5C127.6,92.5,128.2,91.3,129,89.5z M128.8,105.7
		c-12.2-4.9-25-3.1-37.6-2.7C103.4,106.7,116.1,106.3,128.8,105.7z M214.9,95c2.9,1.2,4.9,2.7,7.2,3c12.4,1.5,24.8,2.7,37.2,4
		c1.2,0.1,2.3,0.3,3.5,0.5c1,0.1,2.1,0.2,3.2,0.2c0-0.3,0.1-0.6,0.1-1C249.4,99.6,232.8,97.4,214.9,95z M29.1,73.3
		c-1.6,7.2-1.2,7.5,7.4,5.9C34,77.2,31.5,75.2,29.1,73.3z M226.4,116c1.6,7.2,3.4,8.3,9.3,7C233.1,121,230,118.7,226.4,116z
		 M25.6,88.8c0.4-0.4,0.8-0.9,1.3-1.3c-1-1.1-1.9-2.9-2.9-3c-1.4-0.1-2.9,1.1-4.3,1.8c0.2,0.4,0.3,0.8,0.5,1.3
		C21.9,87.9,23.8,88.4,25.6,88.8z"/>
	<path class="st0" d="M36.3,98.2c3.9-0.5,7.9-1.6,11.8-1.4c10.1,0.5,20.1,1.5,30.1,2.6c1.5,0.2,2.9,2,4.3,3.1
		c-0.2,0.6-0.5,1.1-0.7,1.7c-15-1.3-30.1-2.5-45.1-3.8C36.5,99.7,36.4,98.9,36.3,98.2z"/>
	<path class="st0" d="M129,89.5c-0.8,1.8-1.4,3-1.9,4.1c-3.3-0.2-6.3-0.3-9.5-0.5c1.7,0.7,3.2,1.3,4.8,1.9c-0.1,0.4-0.2,0.9-0.3,1.3
		c-5.1,0.9-10,0.9-14.9-0.9c0-0.5,0-1,0-1.5c1.4-0.2,2.9-0.5,5.3-0.9c-3.7-1.8-9.7,0.3-8-6.9C112.5,87.3,120.6,88.4,129,89.5z"/>
	<path class="st0" d="M128.8,105.7c-12.7,0.6-25.4,1-37.6-2.7C103.8,102.6,116.6,100.8,128.8,105.7z"/>
	<path class="st0" d="M261.8,144.3c-4.8-2.3-5.7-5.9-3.4-14c1.7,0.3,3.5,0.6,5.8,1c-0.2,3.2-0.3,6.4-0.5,9.9c0.6,0,1.6,0.1,2.7,0.2
		c0.1,0.5,0.2,0.9,0.3,1.4c-1.7,0.5-3.4,1-5.1,1.4C261.7,144.3,261.8,144.3,261.8,144.3z"/>
	<path class="st0" d="M214.9,95c17.9,2.4,34.5,4.6,51,6.8c0,0.3-0.1,0.6-0.1,1c-1.1-0.1-2.1-0.1-3.2-0.2c-1.2-0.1-2.3-0.3-3.5-0.5
		c-12.4-1.3-24.8-2.5-37.2-4C219.8,97.8,217.8,96.3,214.9,95z"/>
	<path class="st0" d="M29.1,73.3c2.5,2,4.9,3.9,7.4,5.9C27.9,80.7,27.4,80.4,29.1,73.3z"/>
	<path class="st0" d="M226.4,116c3.6,2.7,6.7,5,9.3,7C229.8,124.3,228,123.2,226.4,116z"/>
	<path class="st0" d="M25.6,88.8c-1.8-0.4-3.7-0.8-5.5-1.3c-0.2-0.4-0.3-0.8-0.5-1.3c1.4-0.7,2.9-1.9,4.3-1.8c1.1,0.1,2,2,2.9,3
		C26.4,87.9,26,88.3,25.6,88.8z"/>
</g>
</svg>
