<?xml version="1.0" encoding="utf-8"?>
<!-- Generator: Adobe Illustrator 19.0.0, SVG Export Plug-In . SVG Version: 6.00 Build 0)  -->
<svg version="1.1" id="Layer_1" xmlns="http://www.w3.org/2000/svg" xmlns:xlink="http://www.w3.org/1999/xlink" x="0px" y="0px"
	 viewBox="0 0 360 270" style="enable-background:new 0 0 360 270;" xml:space="preserve">
<style type="text/css">
	.st0{fill:#FFFFFF;}
</style>
<g>
	<path class="st0" d="M1,58C1,39,1,20,1,1c120,0,240,0,360,0c0,90,0,180,0,270c-120,0-240,0-360,0c0-48.3,0-96.7,0-145
		c0.8,0,1.7-0.2,2.5,0c15.9,2.6,31.8,5.2,47.6,7.8c1.1,0.2,2.5,0.3,3.2,1.1c3.7,4.5,8.9,3.4,13.7,3.8c3.3,0.2,6.7-0.2,9.8,0.6
		c4.4,1.1,8.5,4.4,12.7,4.4c8.1,0.1,16.2,0.4,24.3,0.7c1.7,0.1,3.7,1.6,4.9,3c3.6,4.7,8,5.4,12.6,1.7c2.5-2,4.7-5.6,7.3-5.8
		c4.6-0.4,11.4-0.3,13.7,2.5c3.9,4.6,5.7,1.1,8.5,0.7c-0.2-1.3-0.7-2.6-0.4-2.9c0.9-0.7,2.2-1.3,3.2-1.2c8,1.4,15.9,3.4,23.9,4.4
		c9.1,1.1,16.5,5.1,23.3,10.9c3.7,3.1,8,6.4,12.5,7.6c5.2,1.4,7.2,3.8,6.7,8.9c-0.2,1.9-0.4,3.8-0.5,5.7c1.8,0.3,3.8,0.1,5.3,0.9
		c7.6,3.7,15.6,5.6,24,5.1c2.3-0.1,4.5-1.4,6.7-2.2c0.5-1.1,1.3-0.9,2.1-0.8c12.6,1.5,13.9,2.9,14.4,16.1c0,0.8,0,1.7,0.1,2.5
		c0.7,3.2,0.9,8.8,2.3,9c4.7,1,10.4,1.5,14.4-0.4c4.5-2.2,8.5-5.1,13.8-4.4c3.2,0.4,5-0.9,6.3-3.6c1.5-3,3-6,4.6-8.9
		c1.6,2.2,2.2,4.2,2.2,6.2c0.1,4.1,1.6,5.4,5.9,5.8c5.8,0.6,11.5,2.7,17,4.6c3.2,1.1,4.6,0.6,5.3-2.7c2.8-12.4,2.2-24.9,1.2-37.4
		c-0.7-8.4-2.2-16.1-12.9-16.8c-0.5,0-0.9-0.5-1.3-0.6c-10.7-2.4-20.9-9.3-32.6-4.1c-1.1,0.5-2.7,0.2-3.9-0.1
		c-4.2-1.1-8.4-2.2-12.4-3.6c-4-1.4-6.7-3.8-6.5-8.7c0.1-1.8-0.9-4.5-2.3-5.5c-3.6-2.4-7.5-4.7-11.7-5.9c-5.3-1.5-5.4-4.7-4.4-9
		c5.7,1.8,11.2,3.5,16.8,5.2c4,1.2,7.6,0.7,10.4-2.6c2.9-3.4,3.1-7.3,1.3-11.2c-0.5-1.2-2-2.8-3-2.8c-3.6-0.1-7.5-5.1-10.9,0.4
		c0,0.1-0.3,0-0.5-0.1c-2.7-1.2-5.4-2.4-8.4-3.8c0.7-0.7,1.4-1.3,2-1.9c-5.9-0.5-6.4-1.1-9.5-6.3c-1.1-1.9-3.4-4.1-5.3-4.3
		c-7.6-0.6-7.6-0.4-8.4-7.5c-0.1-0.5-0.2-0.9-0.5-2c-0.7,1-1.1,1.5-1.5,2.1c-2-4.4-2.9-4.6-8.6-1.9c-0.1,1.9-0.3,3.8-0.4,5.6
		c-3.2-0.3-6-0.5-8.7-0.9c-2.4-0.3-5.2-0.3-7.2-1.4c-2.5-1.5-4.4-4-6.6-6c-0.3-0.3-0.8-0.5-1.2-0.7c-0.2,1.1-0.4,2.1-0.9,4.8
		c-1.9-2.9-3.7-4.6-3.9-6.3c-0.4-4.5-2.7-6.3-6.7-7.4c-2.8-0.8-5.4-2.8-8.2-3.3c-3.6-0.5-7.7-1-10.8,0.4
		c-8.2,3.6-10.6,11.4-11.5,19.5c-0.7,6.3,4.5,13.8,9.3,15.1c10.1,2.7,20.2,4.4,30.8,3c10.4-1.4,10.4-0.8,9.4,10.6
		c-4.6,0.6-9.7,2.8-14.1,1.7c-24.7-5.8-49.2-12.3-73.7-18.7c-30.2-7.8-60.3-15.7-90.4-23.7C31.9,66.8,16.5,62.3,1,58z"/>
	<path d="M1,58c15.5,4.3,30.9,8.8,46.4,12.9c30.1,8,60.3,15.9,90.4,23.7c24.5,6.4,49.1,12.9,73.7,18.7c4.4,1,9.5-1.1,14.1-1.7
		c1.1-11.5,1-12-9.4-10.6c-10.7,1.4-20.7-0.3-30.8-3c-4.8-1.3-9.9-8.8-9.3-15.1c0.9-8.1,3.4-15.9,11.5-19.5
		c3.1-1.4,7.3-0.9,10.8-0.4c2.8,0.4,5.4,2.5,8.2,3.3c4,1.1,6.3,3,6.7,7.4c0.1,1.8,2,3.4,3.9,6.3c0.5-2.6,0.7-3.6,0.9-4.8
		c0.4,0.2,0.8,0.4,1.2,0.7c2.2,2,4.1,4.6,6.6,6c2,1.2,4.7,1.1,7.2,1.4c2.7,0.4,5.5,0.6,8.7,0.9c0.1-1.7,0.3-3.6,0.4-5.6
		c5.7-2.7,6.6-2.5,8.6,1.9c0.4-0.6,0.8-1.1,1.5-2.1c0.3,1,0.4,1.5,0.5,2c0.8,7.1,0.8,6.9,8.4,7.5c1.9,0.2,4.2,2.4,5.3,4.3
		c3.1,5.2,3.6,5.8,9.5,6.3c-0.6,0.6-1.3,1.2-2,1.9c3,1.3,5.7,2.6,8.4,3.8c0.1,0.1,0.4,0.1,0.5,0.1c3.4-5.4,7.3-0.4,10.9-0.4
		c1.1,0,2.5,1.6,3,2.8c1.8,3.9,1.6,7.8-1.3,11.2c-2.8,3.3-6.5,3.9-10.4,2.6c-5.5-1.7-11.1-3.5-16.8-5.2c-1.1,4.4-0.9,7.5,4.4,9
		c4.1,1.2,8.1,3.5,11.7,5.9c1.4,0.9,2.3,3.6,2.3,5.5c-0.2,4.9,2.5,7.3,6.5,8.7c4.1,1.4,8.3,2.5,12.4,3.6c1.3,0.3,2.8,0.6,3.9,0.1
		c11.7-5.2,21.9,1.7,32.6,4.1c0.5,0.1,0.9,0.6,1.3,0.6c10.7,0.7,12.2,8.3,12.9,16.8c1,12.5,1.6,25-1.2,37.4
		c-0.7,3.3-2.1,3.8-5.3,2.7c-5.5-2-11.2-4.1-17-4.6c-4.4-0.4-5.9-1.7-5.9-5.8c0-2-0.7-4-2.2-6.2c-1.5,3-3.1,5.9-4.6,8.9
		c-1.3,2.7-3.1,4-6.3,3.6c-5.3-0.7-9.2,2.2-13.8,4.4c-4,2-9.8,1.4-14.4,0.4c-1.3-0.3-1.6-5.9-2.3-9c-0.2-0.8-0.1-1.7-0.1-2.5
		c-0.6-13.2-1.8-14.6-14.4-16.1c-0.8-0.1-1.6-0.3-2.1,0.8c-2.2,0.8-4.5,2-6.7,2.2c-8.4,0.5-16.4-1.4-24-5.1
		c-1.5-0.7-3.5-0.6-5.3-0.9c0.2-1.9,0.4-3.8,0.5-5.7c0.5-5-1.5-7.4-6.7-8.9c-4.6-1.3-8.8-4.5-12.5-7.6c-6.9-5.8-14.2-9.8-23.3-10.9
		c-8-0.9-15.9-3-23.9-4.4c-1-0.2-2.3,0.5-3.2,1.2c-0.3,0.3,0.2,1.6,0.4,2.9c-2.8,0.4-4.7,3.9-8.5-0.7c-2.4-2.8-9.1-2.8-13.7-2.5
		c-2.6,0.2-4.8,3.8-7.3,5.8c-4.6,3.7-8.9,3-12.6-1.7c-1.1-1.4-3.2-2.9-4.9-3c-8.1-0.3-16.2-0.6-24.3-0.7c-4.3,0-8.4-3.3-12.7-4.4
		c-3.1-0.8-6.6-0.4-9.8-0.6c-4.8-0.3-10,0.7-13.7-3.8c-0.6-0.7-2.1-0.9-3.2-1.1c-15.9-2.6-31.8-5.2-47.6-7.8c-0.8-0.1-1.7,0-2.5,0
		c0-1,0-2,0-3c14.4,2.1,28.7,4.3,43.1,6.4c0.1-0.4,0.2-0.7,0.3-1.1c-1.2-0.6-2.4-1.2-3.5-1.7c0.1-0.3,0.2-0.5,0.4-0.8
		c2.8,1.2,5.6,2.4,8.9,3.7c1.1-0.4,3-1.2,4.9-2c-0.2-0.2-0.4-0.6-0.6-0.7c-0.8-0.3-1.6-0.6-2.4-0.6c-11.2-0.4-21.4-7.1-33.4-3.5
		c-5.2,1.6-11.7-1-17.5-1.7c0-0.3,0-0.7,0-1c0.3-1.6,0.8-3.2,0.8-4.8c0.1-4.3,3.5-8.8,6.3-7.9c3.6,1.1,7.1,2.6,10.6,3.9
		c0,0.1,0,0.3-0.1,0.4c-2.5-0.2-5-0.5-7.4-0.7c-0.2,0.4-0.4,0.8-0.6,1.2c1.6,1.1,3,2.7,4.7,3.3c3.4,1.2,6.9,2.2,10.4,2.8
		c17.3,3.2,34.7,6.3,52,9.4c0.4,0.1,0.8-0.4,1.4-0.7c-0.8-1.2-1.5-2.3-2.3-3.5c5-1.8,5,1.8,5.7,5c7.4-2.2,13.2,5.8,21.3,2.2
		c-1.3-0.9-2.2-1.5-4.2-2.9c2.7-0.6,4.8-1.7,6.4-1.2c4.6,1.4,5.2-0.8,5.1-4.5c-0.2-4.3-0.3-8.7,0-13c0.3-3.8-1.2-5.2-4.7-6
		C85,98.2,63.9,93.3,42.7,88.4C28.8,85.3,14.9,82.1,1,79C1,72,1,65,1,58z M294.3,165.2c0.6,6.1,0.9,12.1,1.8,18.1
		c0.3,2.1,1.6,4.3,3.1,6c0.8,0.9,3,1.3,4.2,0.9c1.2-0.4,2.8-2.1,2.8-3.3c0-4.4-0.1-9-1-13.3C304.1,168.3,299.7,165,294.3,165.2z
		 M203.3,77c-0.9-4.3-0.6-9.2-5.9-11.1c-3.9-1.4-9.1,1-12.3,5.6c-3.5,4.9-4.8,10.2-3.7,16.3c1.1,6,7,9.5,12.4,6.7
		C200.9,90.7,202.4,84,203.3,77z M82.4,81.6c-0.2,0.6-0.3,1.3-0.5,1.9c16.2,4.1,32.3,8.2,48.5,12.3c0.2-0.6,0.3-1.2,0.5-1.8
		C114.7,89.9,98.5,85.8,82.4,81.6z M244.1,110.1c-0.9,5.8-0.1,6.5,6.9,6.8c0-2.2,0-4.4,0-6.8C248.5,110.1,246.3,110.1,244.1,110.1z
		 M134.4,95c-0.1,0.5-0.3,0.9-0.4,1.4c5.5,1.4,11,2.8,16.5,4.2c0.1-0.5,0.2-0.9,0.3-1.4C145.4,97.8,139.9,96.4,134.4,95z
		 M89.4,134.5c-0.1,0.7-0.1,1.4-0.2,2c2.8,0.4,5.6,0.8,8.4,1.2c0.1-0.8,0.2-1.6,0.2-2.4C95.1,135.1,92.3,134.8,89.4,134.5z"/>
	<path class="st0" d="M1,79c13.9,3.1,27.8,6.3,41.7,9.4c21.2,4.8,42.3,9.8,63.6,14.5c3.6,0.8,5,2.2,4.7,6c-0.4,4.3-0.2,8.7,0,13
		c0.1,3.7-0.5,5.9-5.1,4.5c-1.6-0.5-3.6,0.6-6.4,1.2c2,1.4,2.9,2,4.2,2.9c-8,3.7-13.9-4.4-21.3-2.2c-0.6-3.1-0.7-6.7-5.7-5
		c0.8,1.3,1.5,2.3,2.3,3.5c-0.6,0.3-1,0.8-1.4,0.7c-17.3-3.1-34.7-6.2-52-9.4c-3.5-0.7-7-1.6-10.4-2.8c-1.7-0.6-3.1-2.2-4.7-3.3
		c0.2-0.4,0.4-0.8,0.6-1.2c2.5,0.2,5,0.5,7.4,0.7c0-0.1,0-0.3,0.1-0.4c-3.5-1.3-7-2.8-10.6-3.9c-2.8-0.9-6.3,3.6-6.3,7.9
		c0,1.6-0.5,3.2-0.8,4.8C1,106.3,1,92.7,1,79z"/>
	<path class="st0" d="M1,121c5.9,0.7,12.3,3.2,17.5,1.7c12-3.6,22.3,3,33.4,3.5c0.8,0,1.6,0.3,2.4,0.6c0.3,0.1,0.4,0.5,0.6,0.7
		c-1.9,0.8-3.8,1.6-4.9,2c-3.3-1.4-6.1-2.5-8.9-3.7c-0.1,0.3-0.2,0.5-0.4,0.8c1.2,0.6,2.4,1.2,3.5,1.7c-0.1,0.4-0.2,0.7-0.3,1.1
		c-14.4-2.1-28.7-4.3-43.1-6.4C1,122.3,1,121.7,1,121z"/>
	<path class="st0" d="M294.3,165.2c5.3-0.2,9.7,3.1,10.9,8.4c0.9,4.3,1,8.9,1,13.3c0,1.1-1.6,2.8-2.8,3.3c-1.2,0.4-3.4,0-4.2-0.9
		c-1.4-1.7-2.8-3.8-3.1-6C295.2,177.3,294.9,171.3,294.3,165.2z"/>
	<path class="st0" d="M203.4,77c-1,7-2.5,13.7-9.5,17.4c-5.4,2.9-11.4-0.7-12.4-6.7c-1.1-6.1,0.2-11.4,3.7-16.3
		c3.2-4.5,8.5-7,12.3-5.6C202.8,67.7,202.4,72.7,203.4,77z M200.9,78.5c0-4.9-3.1-8.6-7.1-8.6c-5.1,0.1-9.7,6-9.7,12.5
		c0,5.3,3.1,8.9,7.4,8.7C196.8,91,200.9,85.4,200.9,78.5z"/>
	<path class="st0" d="M82.4,81.6c16.2,4.1,32.3,8.3,48.5,12.4c-0.2,0.6-0.3,1.2-0.5,1.8c-16.2-4.1-32.3-8.2-48.5-12.3
		C82.1,82.9,82.2,82.3,82.4,81.6z"/>
	<path class="st0" d="M244.1,110.1c2.2,0,4.4,0,6.9,0c0,2.4,0,4.6,0,6.8C243.9,116.6,243.2,115.9,244.1,110.1z"/>
	<path class="st0" d="M134.4,95c5.5,1.4,11,2.8,16.4,4.2c-0.1,0.5-0.2,0.9-0.3,1.4c-5.5-1.4-11-2.8-16.5-4.2
		C134.1,95.9,134.3,95.4,134.4,95z"/>
	<path class="st0" d="M89.4,134.5c2.8,0.3,5.6,0.6,8.5,0.9c-0.1,0.8-0.2,1.6-0.2,2.4c-2.8-0.4-5.6-0.8-8.4-1.2
		C89.3,135.9,89.4,135.2,89.4,134.5z"/>
	<path d="M200.9,78.5c0,6.9-4.2,12.5-9.4,12.7c-4.4,0.1-7.4-3.5-7.4-8.7c0-6.5,4.6-12.5,9.7-12.5C197.9,69.9,200.9,73.6,200.9,78.5z
		"/>
</g>
</svg>
