<?xml version="1.0" encoding="utf-8"?>
<!-- Generator: Adobe Illustrator 19.0.0, SVG Export Plug-In . SVG Version: 6.00 Build 0)  -->
<svg version="1.1" id="Layer_1" xmlns="http://www.w3.org/2000/svg" xmlns:xlink="http://www.w3.org/1999/xlink" x="0px" y="0px"
	 viewBox="0 0 360 270" style="enable-background:new 0 0 360 270;" xml:space="preserve">
<style type="text/css">
	.st0{fill:#FFFFFF;}
</style>
<g>
	<path class="st0" d="M1,1c120,0,240,0,360,0c0,90,0,180,0,270c-120,0-240,0-360,0C1,181,1,91,1,1z M152.4,161c16.1,0,31.9,0,47.7,0
		c11.2,0,13,1.7,13.6,13.1c0.1,2.5-0.4,5-0.3,7.4c0.1,2.1,0,4.9,1.2,6.1c4.8,4.6,4.5,10,4,15.8c-0.3,2.6-0.6,6.7,0.7,7.6
		c4.5,2.9,3.5,7.2,3.8,11c0.3,3.8,2.1,5.3,5.3,6c7.9,1.8,15.5,0.6,22.6-3c10.5-5.3,21-10.9,30.9-17.1c2.7-1.7,5.5-6.4,5.1-9.3
		c-0.9-6.4-3.2-12.9-6-18.8c-6.7-13.9-12.4-28.1-11.8-43.8c0.4-10,1-20.8,14.2-24c2.3-0.6,4.8-4.2,5.4-6.7c0.7-3.8-0.7-7.9-0.4-11.8
		c0.6-7.7,0.3-14.9-7.5-19c-2-1-4.7-2.2-6.5-1.6c-5.7,1.8-11.5,1.9-17.2,1.3c-9.4-0.9-18.7-2.7-28.1-3.8c-6.4-0.7-12.9-0.5-19.3-1.4
		c-4.8-0.6-9.4-2.7-14.2-3.5c-25.6-3.8-51.2-7.5-76.8-11.2c-2.6-0.4-6-2.1-7.6-1c-5.3,3.7-9.4-1.1-14.1-1c1.2-0.1,2.5-0.3,5.1-0.6
		c-6.6-1-11.9-1.6-17-2.6c-1.5-0.3-3.5-1.7-3.8-2.9c-0.9-3.6-3.3-3.1-5.3-2c-4.5,2.5-9,5.3-13.2,8.4c-1.4,1.1-2.5,3.3-2.8,5.1
		c-0.6,4.1-0.8,8.2-0.9,12.3c-0.2,5.3,1.5,11.4-0.7,15.7c-4.8,9.5,3.6,24.8,13.9,25.2c22.1,0.8,44.1,2.7,66.2,4.1
		c8.7,0.6,15.4,7.3,15.1,15.9c-0.3,8.7-1.2,17.4-1.7,26.2C151.9,158.2,152.2,159.5,152.4,161z"/>
	<path d="M152.4,161c-0.2-1.5-0.5-2.7-0.4-4c0.5-8.7,1.4-17.4,1.7-26.2c0.3-8.6-6.5-15.3-15.1-15.9c-22.1-1.4-44.1-3.3-66.2-4.1
		C62,110.4,53.6,95.1,58.5,85.6c2.2-4.2,0.5-10.4,0.7-15.7c0.2-4.1,0.3-8.3,0.9-12.3c0.3-1.8,1.3-4.1,2.8-5.1
		c4.2-3.1,8.6-5.8,13.2-8.4c2-1.1,4.4-1.6,5.3,2c0.3,1.3,2.4,2.6,3.8,2.9c5.2,1,10.4,1.6,17,2.6c-2.6,0.3-3.8,0.4-5.1,0.6
		c4.7,0,8.8,4.7,14.1,1c1.6-1.1,5,0.6,7.6,1c25.6,3.7,51.2,7.3,76.8,11.2c4.8,0.7,9.4,2.8,14.2,3.5c6.4,0.9,12.9,0.6,19.3,1.4
		c9.4,1.1,18.7,2.9,28.1,3.8c5.7,0.5,11.5,0.5,17.2-1.3c1.8-0.6,4.6,0.6,6.5,1.6c7.8,4.2,8.1,11.4,7.5,19c-0.3,3.9,1.2,8.1,0.4,11.8
		c-0.5,2.6-3.1,6.2-5.4,6.7c-13.2,3.3-13.7,14.1-14.2,24c-0.7,15.6,5.1,29.9,11.8,43.8c2.8,5.9,5.1,12.4,6,18.8
		c0.4,2.9-2.4,7.6-5.1,9.3c-10,6.2-20.4,11.8-30.9,17.1c-7.1,3.6-14.7,4.7-22.6,3c-3.2-0.7-5.1-2.1-5.3-6c-0.3-3.8,0.7-8.1-3.8-11
		c-1.3-0.9-1-5-0.7-7.6c0.6-5.8,0.8-11.2-4-15.8c-1.2-1.2-1.1-4-1.2-6.1c-0.1-2.5,0.4-5,0.3-7.4c-0.6-11.4-2.5-13.1-13.6-13.1
		C184.3,161,168.5,161,152.4,161z M189.8,153.7c-0.4-0.5-0.8-0.9-1.2-1.4c0.7-1.1,1.1-2.6,2.1-3.3c7.8-5.6,8.6-17.6,4.3-25.7
		c-0.8-1.4-2.5-2.9-4-3.2c-18.1-3.3-19.5-2.1-19.3,16.6c0,0.2,0,0.3,0,0.5c0.8,17.5,15.3,19.7,28.6,16.1c0.8-0.2,1.6-0.6,2.4-0.9
		c-0.3-0.1-0.7-0.3-1-0.4C197.7,152.6,193.8,153.2,189.8,153.7z M143.2,60.1c0.1-0.4,0.1-0.8,0.2-1.2c-5.4-0.8-10.7-1.6-16.1-2.4
		c-0.1,0.5-0.1,1-0.2,1.5C132.4,58.7,137.8,59.4,143.2,60.1z"/>
	<path class="st0" d="M189.8,153.7c4-0.6,7.9-1.1,11.9-1.7c0.3,0.1,0.7,0.3,1,0.4c-0.8,0.3-1.6,0.7-2.4,0.9
		c-13.3,3.7-27.8,1.4-28.6-16.1c0-0.2,0-0.3,0-0.5c-0.2-18.7,1.2-19.9,19.3-16.6c1.5,0.3,3.2,1.8,4,3.2c4.4,8.1,3.6,20.1-4.3,25.7
		c-1,0.7-1.4,2.2-2.1,3.3C189,152.8,189.4,153.3,189.8,153.7z"/>
	<path class="st0" d="M143.2,60.1c-5.4-0.7-10.8-1.4-16.2-2c0.1-0.5,0.1-1,0.2-1.5c5.4,0.8,10.7,1.6,16.1,2.4
		C143.3,59.3,143.2,59.7,143.2,60.1z"/>
</g>
</svg>
