<?xml version="1.0" encoding="utf-8"?>
<!-- Generator: Adobe Illustrator 19.0.0, SVG Export Plug-In . SVG Version: 6.00 Build 0)  -->
<svg version="1.1" id="Layer_1" xmlns="http://www.w3.org/2000/svg" xmlns:xlink="http://www.w3.org/1999/xlink" x="0px" y="0px"
	 viewBox="0 0 360 270" style="enable-background:new 0 0 360 270;" xml:space="preserve">
<style type="text/css">
	.st0{fill:#FFFFFF;}
</style>
<g>
	<path class="st0" d="M361,301c-119.9,0-239.9,0-359.9,0c0-99.9,0-199.8,0-299.8c119.9,0,239.9,0,359.9,0C361,101,361,201,361,301z
		 M316,260.6c0.6-1.6,1.6-4,2.6-6.5c2.7-6.8,4.3-14.3,8.3-20.1c5.2-7.4,3.5-14,0.7-21c-3.1-8-6.8-15.7-10.1-23.6
		c-8.3-19.7-20.1-36.9-34.4-52.6c-3.2-3.5-6.7-5.6-11.5-6.1c-10.8-1.3-19.6-6.1-25.1-15.8c-2.2-3.8-3.3-8.2-5.3-12.2
		c-1.6-3.2-3.4-6.4-5.8-8.9c-2.5-2.5-5.5-5.9-9.7-2c-0.2,0.2-1.2-0.2-1.8-0.5c-7.2-3-14.4-6.1-21.6-9.1c-3.5-1.5-7.1-2.8-10.7-4.1
		c-12.6-4.3-25.4-7.4-38.8-8.4c-16.4-1.3-32.3,0.6-48.3,4.1c-13.3,2.9-23.8,10.6-35,17.3c-3.7,2.3-7.1,5.1-10.6,7.7
		c28.5-8.8,65.4-4.5,86.5,5.7c13.4,6.4,26,14.7,38.5,23c7.1,4.7,13.5,10.4,14.5,20.5c0.8,8.2,8,10.3,14.8,5.9c2.6-1.7,5.6-2.8,8.5-4
		c8-3.3,18.2-0.2,22.2,7.4c1.8,3.4,2.2,7.8,2.4,11.8c0.2,2.5,0.1,3.9,3.1,4.4c7.9,1.2,16.5,10.5,16.3,18.5c-0.1,5.9,1.4,9.3,7,11.8
		c6.3,2.8,7.1,11.4,3.4,17.3c-9.5,15.1-5.1,33.3,14,37.7C298.4,260.4,306.9,260,316,260.6z"/>
	<path d="M316,260.6c-9-0.6-17.6-0.2-25.6-2c-19.1-4.3-23.5-22.6-14-37.7c3.7-5.8,2.9-14.4-3.4-17.3c-5.6-2.5-7.1-5.9-7-11.8
		c0.2-8-8.4-17.3-16.3-18.5c-3-0.5-2.9-1.9-3.1-4.4c-0.3-4-0.6-8.4-2.4-11.8c-4-7.6-14.2-10.7-22.2-7.4c-2.9,1.2-5.9,2.3-8.5,4
		c-6.8,4.5-14,2.4-14.8-5.9c-1-10.1-7.4-15.7-14.5-20.5c-12.4-8.2-25-16.5-38.5-23C124.5,94.4,87.5,90,59,98.9
		c3.5-2.6,6.9-5.5,10.6-7.7c11.2-6.7,21.7-14.4,35-17.3c16-3.4,31.9-5.4,48.3-4.1c13.4,1,26.2,4.1,38.8,8.4
		c3.6,1.2,7.2,2.6,10.7,4.1c7.2,3,14.4,6.1,21.6,9.1c0.6,0.2,1.6,0.7,1.8,0.5c4.2-4,7.2-0.5,9.7,2c2.4,2.5,4.2,5.7,5.8,8.9
		c2,3.9,3.2,8.3,5.3,12.2c5.4,9.7,14.3,14.6,25.1,15.8c4.8,0.6,8.3,2.6,11.5,6.1c14.3,15.7,26.2,33,34.4,52.6
		c3.3,7.9,6.9,15.6,10.1,23.6c2.8,7,4.4,13.6-0.7,21c-4.1,5.8-5.6,13.3-8.3,20.1C317.6,256.6,316.6,259,316,260.6z M301.5,220.9
		c-9.5-0.3-16,4.8-21.1,11.7c-5.1,6.8-0.9,15.3,7.6,16.9c12.1,2.2,23.9-3.1,28.1-13.4c1.9-4.7,1.6-10.8-4-12.7
		C308.6,222.3,305,221.7,301.5,220.9z"/>
	<path class="st0" d="M301.5,220.9c3.5,0.8,7.1,1.4,10.6,2.5c5.6,1.8,5.9,8,4,12.7c-4.2,10.2-16,15.6-28.1,13.4
		c-8.6-1.6-12.7-10.1-7.6-16.9C285.5,225.7,292,220.6,301.5,220.9z"/>
</g>
</svg>
