<?xml version="1.0" encoding="utf-8"?>
<!-- Generator: Adobe Illustrator 19.0.0, SVG Export Plug-In . SVG Version: 6.00 Build 0)  -->
<svg version="1.1" id="Layer_1" xmlns="http://www.w3.org/2000/svg" xmlns:xlink="http://www.w3.org/1999/xlink" x="0px" y="0px"
	 viewBox="0 0 360 270" style="enable-background:new 0 0 360 270;" xml:space="preserve">
<style type="text/css">
	.st0{fill:#FFFFFF;}
</style>
<g>
	<path class="st0" d="M1,271C1,181,1,91,1,1c120,0,240,0,360,0c0,90,0,180,0,270C241,271,121,271,1,271z M299.2,185.6
		c-0.9-3.1-1.7-6-2.6-8.8c-3.6-11.4-7.5-22.7-10.7-34.2c-0.7-2.6-0.1-5.9,0.8-8.6c0.4-1.1,3.5-0.9,5-1.9c1.7-1.1,3.3-2.6,4.2-4.3
		c1-1.8,1.1-4,1.6-5.9c8.3,2.6,16.3,5,23.9,7.3c-0.5,2.3-1.2,5.1-1.9,8.3c3.1,0.2,5.1,0.3,6.1,0.3c3.2,3,5.9,5.3,8.3,7.9
		c3,3.3,5.8,3.7,9.5,0.5c0.4,0.8,0.6,1.6,1.1,2.2c1.5,2,3.2,3.9,4.8,5.8c1.7-2,4.3-3.6,5.1-5.9c3.3-9.8,6-19.6,2.8-30.3
		c-2-6.5-11.1-12.5-16.5-8.8c-2.9,2-5.1,2.1-8,1.8c-5.7-0.7-11.4-1.4-17.2-1.8c-4.9-0.3-9.9,0.2-14.8-0.4c-3.4-0.4-6.7-2-5.6-6.9
		c-2.7,0-5.3,0-8.2,0c-2.2-6.5-4.5-12.9-6.5-19.4c-1.2-3.9-3.4-5.7-7.7-5.6c-13.6,0.4-27.3,0.5-40.9,0.9c-6.8,0.2-8.7,2.2-9.3,9.1
		c-0.1,1-0.1,1.9-0.3,3.5c-21.2-2.3-42-4.6-63.1-6.9c-1-1.7-2.1-3.8-3.2-5.8c-3.4-6.1-6.8-12.1-10.3-18.1c-1.2-2.1-2.7-3.7-5.4-1.2
		c-1.4,1.3-3.9,1.5-5.9,2.2C133.6,71,133,81,132.2,92.7c-3.2-2.1-5.3-3.5-7.4-4.9c-2.3-1.6-4.4-4.3-6.9-4.7
		c-15.6-2.3-31.2-4.1-46.8-6c-19.4-2.3-38.8-4.6-58.2-6.7c-1.4-0.1-3.1,0.6-4.3,1.5c-6,4.6-5.7,19-3.1,24.2c1.1,2.2,3.9,4.9,6.1,5.1
		c17.2,1.5,34.4,2.5,51.6,3.7c11.7,0.8,23.5,1.6,35.2,2.8c4.7,0.5,9.3,2.5,14,2.7c5.7,0.1,11.5-1,17.2-1.6c0.3-0.5,0.5-0.9,0.8-1.4
		c-1.9-1.5-3.9-3.1-6.1-4.8c3.1,0.1,5.9,0.3,8.1,0.4c-0.4,2-1.4,5-1,5.2c3.2,1.8,6.9,4.4,10.1,4c6-0.8-1.5-5.4,2.2-8.7
		c2,1,6.5,1.8,6.9,3.5c1.6,7.4,6.8,9.3,12.9,9.9c19.3,1.9,38.6,3.5,57.9,5.1c3.5,0.3,5,1.8,4.9,5.3c-0.2,4.3,0,8.7-0.1,13
		c0,1.7-0.5,3.4-0.6,4.1c0.7,2.8,1.9,5,1.7,7.1c-1.5,15.4-3.2,30.8-4.9,46.5c8.8,2.7,18.1,8,29.9,7.4c2.3-17.2,4.5-34.3,6.8-51.9
		c1.5,0.1,3.4,0.5,5.3,0.4c5.4-0.1,7.6,3,8.1,7.9c0.2,1.8,0.2,3.7,0.8,5.3c2.6,7.7,5.4,15.3,8.5,24
		C287.5,192.4,293.1,188.8,299.2,185.6z"/>
	<path d="M299.2,185.6c-6,3.2-11.6,6.8-17.3,5.6c-3.1-8.7-5.9-16.3-8.5-24c-0.6-1.7-0.6-3.5-0.8-5.3c-0.5-4.9-2.7-8-8.1-7.9
		c-1.9,0-3.9-0.3-5.3-0.4c-2.3,17.5-4.6,34.7-6.8,51.9c-11.8,0.6-21.1-4.8-29.9-7.4c1.7-15.7,3.4-31.1,4.9-46.5
		c0.2-2.1-1-4.3-1.7-7.1c0.1-0.8,0.5-2.4,0.6-4.1c0.1-4.3-0.1-8.7,0.1-13c0.1-3.5-1.4-5.1-4.9-5.3c-19.3-1.6-38.6-3.3-57.9-5.1
		c-6.1-0.6-11.3-2.5-12.9-9.9c-0.4-1.7-4.8-2.5-6.9-3.5c-3.7,3.4,3.8,7.9-2.2,8.7c-3.1,0.4-6.9-2.3-10.1-4c-0.5-0.3,0.6-3.2,1-5.2
		c-2.2-0.1-5-0.2-8.1-0.4c2.2,1.7,4.1,3.3,6.1,4.8c-0.3,0.5-0.5,0.9-0.8,1.4c-5.7,0.6-11.5,1.7-17.2,1.6c-4.7-0.1-9.3-2.2-14-2.7
		c-11.7-1.2-23.5-1.9-35.2-2.8c-17.2-1.2-34.4-2.2-51.6-3.7c-2.2-0.2-5-2.9-6.1-5.1C2.8,90.9,2.6,76.6,8.6,72
		c1.2-0.9,2.9-1.7,4.3-1.5c19.4,2.1,38.8,4.4,58.2,6.7c15.6,1.9,31.2,3.7,46.8,6c2.5,0.4,4.6,3.1,6.9,4.7c2.1,1.4,4.3,2.8,7.4,4.9
		c0.8-11.8,1.5-21.8,2.2-31.9c2-0.7,4.5-0.9,5.9-2.2c2.7-2.5,4.2-0.9,5.4,1.2c3.5,6,6.9,12.1,10.3,18.1c1.1,2,2.3,4,3.2,5.8
		c21.1,2.3,41.9,4.6,63.1,6.9c0.1-1.6,0.2-2.5,0.3-3.5c0.6-6.9,2.5-8.9,9.3-9.1c13.6-0.4,27.3-0.5,40.9-0.9c4.2-0.1,6.4,1.7,7.7,5.6
		c2,6.5,4.3,12.9,6.5,19.4c2.9,0,5.5,0,8.2,0c-1.1,5,2.2,6.5,5.6,6.9c4.9,0.6,9.9,0.1,14.8,0.4c5.7,0.4,11.4,1.1,17.2,1.8
		c2.9,0.3,5.1,0.3,8-1.8c5.3-3.7,14.5,2.3,16.5,8.8c3.2,10.6,0.5,20.5-2.8,30.3c-0.8,2.3-3.3,4-5.1,5.9c-1.6-1.9-3.2-3.8-4.8-5.8
		c-0.5-0.6-0.7-1.4-1.1-2.2c-3.7,3.1-6.5,2.8-9.5-0.5c-2.4-2.6-5.1-4.9-8.3-7.9c-1-0.1-3-0.2-6.1-0.3c0.7-3.2,1.4-6,1.9-8.3
		c-7.6-2.3-15.6-4.8-23.9-7.3c-0.5,1.9-0.6,4.1-1.6,5.9c-0.9,1.7-2.5,3.2-4.2,4.3c-1.5,1-4.7,0.8-5,1.9c-0.9,2.6-1.5,5.9-0.8,8.6
		c3.3,11.5,7.1,22.8,10.7,34.2C297.5,179.7,298.2,182.5,299.2,185.6z M271.7,98.5c-0.6-5.5-4.3-10.6-8.8-11.5
		c-9.1-1.6-18.2-2.9-27.4-4.2c-1-0.1-2.7,0.7-3.1,1.5c-2.2,4.7,0.8,9.8,6.1,10.5c9.9,1.4,19.9,2.7,29.9,4
		C269.4,99,270.6,98.6,271.7,98.5z M151.4,85.7c-2.6-5.7-4.6-10.3-6.7-14.9c-0.7,0.1-1.5,0.3-2.2,0.4c-0.5,4.4-1.1,8.9-1.6,13.7
		C145,85.2,147.7,85.4,151.4,85.7z M263.6,151.8c-1.6-4.5,2.9-9.5-1.8-13.7C258,142.3,258.9,150.7,263.6,151.8z"/>
	<path class="st0" d="M271.7,98.5c-1.1,0.1-2.2,0.5-3.3,0.4c-10-1.3-19.9-2.6-29.9-4c-5.3-0.8-8.3-5.8-6.1-10.5
		c0.4-0.8,2.1-1.6,3.1-1.5c9.1,1.3,18.3,2.5,27.4,4.2C267.3,87.8,271,93,271.7,98.5z"/>
	<path class="st0" d="M151.4,85.7c-3.7-0.3-6.4-0.5-10.5-0.8c0.6-4.8,1.1-9.2,1.6-13.7c0.7-0.1,1.5-0.3,2.2-0.4
		C146.8,75.4,148.9,80,151.4,85.7z"/>
	<path class="st0" d="M263.6,151.8c-4.8-1.2-5.6-9.6-1.8-13.7C266.6,142.3,262,147.3,263.6,151.8z"/>
</g>
</svg>
