<?xml version="1.0" encoding="utf-8"?>
<!-- Generator: Adobe Illustrator 19.0.0, SVG Export Plug-In . SVG Version: 6.00 Build 0)  -->
<svg version="1.1" id="Layer_1" xmlns="http://www.w3.org/2000/svg" xmlns:xlink="http://www.w3.org/1999/xlink" x="0px" y="0px"
	 viewBox="0 0 360 270" style="enable-background:new 0 0 360 270;" xml:space="preserve">
<style type="text/css">
	.st0{fill:#FFFFFF;}
</style>
<g>
	<path class="st0" d="M361.5,296c-120.1,0-240.2,0-360.4,0C1,197.7,1,99.4,1,1.1c120.1,0,240.2,0,360.4,0
		C361.5,99.3,361.5,197.6,361.5,296z M233.4,207.1c1.1,0.6,1.9,1,2.7,1.5c14.1,9,28.1,18.1,42.3,27.1c5.2,3.3,10.8,5.9,15.9,9.3
		c9,6,17.9,12.2,26.5,18.7c3.7,2.8,5.4,1.3,7.4-1.6c4.1-5.8,8.4-11.6,12.5-17.5c4.1-5.9,4.1-6.1-2.3-9.9c-8.6-5.1-17.6-9.7-26-15.2
		c-8-5.3-15.2-11.6-23.1-17.1c-11.7-8.2-23.6-16-35.4-24c1.4-5.4,2-9.9,8.1-12.5c5.8-2.5,10.7-7.2,12.7-13.9c1.3-4.5,1.8-9-2.1-12.1
		c-3.6-2.8-8.3-3.1-12.5-0.8c-7.6,4.2-11.7,10.9-12.9,19.5c-0.3,2.5-1.7,4.9-2.8,7.7c-4.6-3.1-8.2-5.1-11.2-7.8
		c-3.2-3-5.9-2.2-9.1-0.3c-1.5,0.9-3.2,1.3-4.9,1.9c-0.3-0.5-0.7-1.1-1-1.6c1.7-1.5,3.4-3.1,5.6-5.1c-3.6-1.5-6.8-3.7-10-3.8
		c-2.7-0.1-5.5,2.3-9.3,4c0.7-2.9,1.4-6,2.3-9.8c-3.4-3.2-7.4-0.3-12.4,1.9c0.9-3.6,1.5-6.1,2.1-8.6c-4.3-3.2-4.7-3.2-10.4,0.8
		c2.3-0.6,3.6-1,5.7-1.6c-2.4,3.3-4.7,5.1-7.3,2.7c-3.9-3.5,0.9-5.9,1.9-8.7c-3.7-6.3-6.1,1.9-9.8,0.8c1.5-1.3,2.6-2.4,4.7-4.2
		c-2.8,1-4.4,1.6-6,2.2c-0.8,0.2-1.6,0.2-2.4,0.4c0-0.9-0.3-1.8,0.1-2.6c0.7-1.6,1.6-3,2.6-4.6c-5-2.8-9.2-1.7-13.3,1.6
		c-0.4-0.3-0.8-0.6-1.2-0.9c0.9-2.9,1.7-5.7,2.6-8.7c-4.2-5.3-8.2,1.1-13,0.4c0-1,0-2.1,0-3.2c-0.1-1.9,0.5-4.1-0.4-5.5
		c-1.3-2.2-3.6-2.2-5.8-0.5c-0.7,0.5-2.6,0.4-3.1-0.2c-0.6-0.8-0.3-2.3-0.6-3.5c-0.4-1.6-0.5-3.8-1.5-4.7c-2.2-1.7-4.9-2.8-7.5-4
		c-8.3-3.6-16.8-7-25.1-10.7c-21.5-9.6-43-19.3-64.6-28.9c-4.6-2-9.3-3.7-14-5.5c25.3,14.8,52.7,25.5,78,40.1
		C89.5,80,72.5,72.3,54.6,66.4c7,16.6,22.5,24.8,35.1,35.8c-3.6-1.6-6.7-3.9-9.9-6C67.7,88,58,77.5,48.9,66.1
		c-3.7-4.6-9.6-7.6-14.5-11.3c-0.6,0.4-1.1,0.9-1.7,1.3c0.9,2.5,1.1,5.4,2.7,7.3c4.3,5.1,9,9.9,13.7,14.6c3.1,3.1,6,6.5,10.9,6.8
		c1,0.1,2.1,1.9,2.7,3.2c1,2.1,1.7,4.5,2.5,6.7c0.5-0.1,1.1-0.3,1.6-0.4c0.3-1.1,0.7-2.2,1.1-3.5c4.8,3.2,10.5,5.2,10.9,12.1
		c0,0.8,1,1.6,1.7,2.3c4.5,4.5,10.6,5.6,15.8,7.1c1.1,2,1.7,4.1,3.1,5c2.7,1.8,5.9,2.7,8.6,4.4c4.2,2.6,9.5,4.8,12.1,8.7
		c3.5,5.3,7.5,7.4,12.1,7c3.3,3.1,5.7,5.9,8.6,8c4.4,3.1,9.5,4.5,13.7,8.7c4.2,4.2,11,5.7,17.1,8.5c-1,1.7-1.9,3.3-2.4,4.2
		c14.7,3.5,26.4,10.7,33.3,25.1c2.6-3.3,4.6-5.9,7.3-9.5c-0.2,1.9-0.1,2.4-0.2,2.8c-3.4,7.4-3.4,7.4,3.3,11.9
		c0.4,0.3,0.8,0.5,1.3,0.8c2.6,1.5,3.1,3.3,1.5,6c-3.3,5.6-6.1,11.5-9.6,17c-2.7,4.3,1,5.5,3.1,7.3c2.1,1.8,3.8,0.8,5.7-1.3
		C220.8,220.3,227.1,213.8,233.4,207.1z"/>
	<path d="M233.4,207.1c-6.3,6.7-12.6,13.2-18.5,20c-1.9,2.1-3.7,3.1-5.7,1.3c-2-1.8-5.7-3.1-3.1-7.3c3.4-5.5,6.2-11.4,9.6-17
		c1.6-2.7,1.2-4.5-1.5-6c-0.4-0.2-0.9-0.5-1.3-0.8c-6.8-4.5-6.8-4.5-3.3-11.9c0.2-0.4,0.1-0.9,0.2-2.8c-2.8,3.6-4.8,6.2-7.3,9.5
		c-6.9-14.5-18.6-21.7-33.3-25.1c0.6-1,1.5-2.6,2.4-4.2c-6.1-2.9-12.9-4.4-17.1-8.5c-4.2-4.2-9.3-5.6-13.7-8.7
		c-2.9-2.1-5.3-4.9-8.6-8c-4.6,0.4-8.5-1.7-12.1-7c-2.6-3.9-7.8-6-12.1-8.7c-2.7-1.7-6-2.6-8.6-4.4c-1.4-0.9-1.9-3.1-3.1-5
		c-5.2-1.5-11.3-2.6-15.8-7.1c-0.7-0.7-1.6-1.5-1.7-2.3c-0.4-6.9-6-9-10.9-12.1c-0.4,1.2-0.7,2.3-1.1,3.5c-0.5,0.1-1.1,0.3-1.6,0.4
		c-0.8-2.2-1.5-4.6-2.5-6.7c-0.6-1.3-1.7-3.1-2.7-3.2c-5-0.3-7.9-3.7-10.9-6.8c-4.7-4.7-9.4-9.5-13.7-14.6c-1.6-1.9-1.8-4.8-2.7-7.3
		c0.6-0.4,1.1-0.9,1.7-1.3c4.9,3.7,10.8,6.6,14.5,11.3C58,77.5,67.7,88,79.8,96.3c3.2,2.2,6.3,4.4,9.9,6
		C77.2,91.2,61.7,83,54.6,66.4c17.9,5.9,34.8,13.6,51.5,21.8C80.8,73.6,53.5,63,28.1,48.1c4.7,1.8,9.4,3.4,14,5.5
		c21.5,9.6,43,19.3,64.6,28.9c8.3,3.7,16.7,7.1,25.1,10.7c2.6,1.1,5.3,2.2,7.5,4c1.1,0.8,1.1,3.1,1.5,4.7c0.3,1.2-0.1,2.7,0.6,3.5
		c0.4,0.6,2.4,0.7,3.1,0.2c2.3-1.7,4.5-1.7,5.8,0.5c0.8,1.4,0.3,3.6,0.4,5.5c0,1.1,0,2.1,0,3.2c4.8,0.7,8.9-5.7,13-0.4
		c-0.9,2.9-1.7,5.8-2.6,8.7c0.4,0.3,0.8,0.6,1.2,0.9c4.1-3.3,8.3-4.4,13.3-1.6c-0.9,1.6-1.9,3.1-2.6,4.6c-0.3,0.7-0.1,1.7-0.1,2.6
		c0.8-0.1,1.7-0.1,2.4-0.4c1.6-0.5,3.2-1.1,6-2.2c-2.1,1.9-3.2,2.9-4.7,4.2c3.8,1.1,6.1-7.2,9.8-0.8c-1,2.8-5.8,5.1-1.9,8.7
		c2.6,2.4,5,0.6,7.3-2.7c-2.1,0.6-3.3,0.9-5.7,1.6c5.8-4,6.2-4,10.4-0.8c-0.6,2.6-1.3,5.1-2.1,8.6c5-2.1,9-5.1,12.4-1.9
		c-0.9,3.7-1.6,6.8-2.3,9.8c3.8-1.8,6.6-4.1,9.3-4c3.2,0.1,6.4,2.4,10,3.8c-2.3,2.1-3.9,3.6-5.6,5.1c0.3,0.5,0.7,1.1,1,1.6
		c1.6-0.6,3.4-1,4.9-1.9c3.2-1.9,5.8-2.7,9.1,0.3c3,2.7,6.6,4.7,11.2,7.8c1-2.8,2.4-5.2,2.8-7.7c1.2-8.7,5.3-15.3,12.9-19.5
		c4.2-2.3,8.9-2,12.5,0.8c3.9,3,3.4,7.6,2.1,12.1c-2,6.8-6.9,11.5-12.7,13.9c-6.1,2.6-6.8,7.1-8.1,12.5c11.8,8,23.7,15.8,35.4,24
		c7.8,5.5,15.1,11.9,23.1,17.1c8.4,5.5,17.4,10.1,26,15.2c6.4,3.8,6.4,4,2.3,9.9c-4.1,5.9-8.4,11.6-12.5,17.5
		c-2,2.9-3.7,4.4-7.4,1.6c-8.6-6.5-17.5-12.7-26.5-18.7c-5.1-3.4-10.7-6-15.9-9.3c-14.2-8.9-28.2-18-42.3-27.1
		C235.3,208.2,234.4,207.7,233.4,207.1z M253.6,162.2c9-1.3,15.1-8.9,15.2-19C260.7,142.1,251.6,153.5,253.6,162.2z M95.7,96.8
		c-0.1,2.6,6.1,8.7,8.8,8.3c3.6-0.5,6.4-2,6.4-6.4c0-2.8-6-8.8-9.1-8.9C98.9,89.8,95.8,93.3,95.7,96.8z M168,148.7
		c0.2-0.4,0.4-0.8,0.6-1.2c-7.3-4.8-14.7-9.7-22-14.5c-0.2,0.3-0.4,0.6-0.6,0.9C153.4,138.8,160.7,143.7,168,148.7z"/>
	<path class="st0" d="M253.6,162.2c-2-8.7,7.1-20.1,15.2-19C268.7,153.3,262.6,160.9,253.6,162.2z"/>
	<path class="st0" d="M95.7,96.8c0.1-3.5,3.2-7,6.2-6.9c3.1,0.1,9.1,6,9.1,8.9c0,4.4-2.8,5.9-6.4,6.4
		C101.7,105.5,95.6,99.4,95.7,96.8z"/>
	<path class="st0" d="M168,148.7c-7.3-4.9-14.6-9.9-22-14.8c0.2-0.3,0.4-0.6,0.6-0.9c7.3,4.8,14.7,9.7,22,14.5
		C168.4,147.9,168.2,148.3,168,148.7z"/>
</g>
</svg>
