<?xml version="1.0" encoding="utf-8"?>
<!-- Generator: Adobe Illustrator 19.0.0, SVG Export Plug-In . SVG Version: 6.00 Build 0)  -->
<svg version="1.1" id="Layer_1" xmlns="http://www.w3.org/2000/svg" xmlns:xlink="http://www.w3.org/1999/xlink" x="0px" y="0px"
	 viewBox="0 0 360 270" style="enable-background:new 0 0 360 270;" xml:space="preserve">
<style type="text/css">
	.st0{fill:#FFFFFF;}
</style>
<g>
	<path class="st0" d="M1,271C1,181,1,91,1,1c120,0,240,0,360,0c0,90,0,180,0,270C241,271,121,271,1,271z M98.4,104.6
		c3.4,1.7,6.3,3.6,9.4,4.6c3.4,1.1,8.3,0.3,10.3,2.4c4.3,4.5,9.6,4.7,14.8,6.2c29.9,8.5,59.7,17.1,89.6,25.5c2.4,0.7,6,1.4,7.5,0.2
		c4.6-3.5,9.1-2.8,14.1-1.7c11.3,2.5,23.2,3.8,28.8,16.3c0.1,0.3,0.3,0.6,0.6,0.8c6.2,6.1,13.4,4.6,15.9-3.4
		c0.3-0.8,0.7-1.6,1.2-2.8c7.3,6.7,8.8,15.2,10.1,23.9c2.2,0.4,4.5,1.7,6.3,1.1c7-2,10.6,2.4,14.7,6.6c8.3,8.4,16.8,16.5,26,25.6
		c2.1-3.1,4.5-5.2,4.8-7.6c1.1-8.3,2.2-16.8,1.9-25.1c-0.3-8.6-4.5-15.1-13.5-18.3c-8.7-3.1-17.1-7.3-25.6-11.2
		c-3-1.4-5.8-2.8-8.3,1.3c-5.5-6.8-10.8-13-15.6-19.5c-2.9-3.9-6-6.9-11-7.7c-2.7-0.4-5.2-1.7-8.4-2.8c1.6-1.9,2.7-3.1,4.7-5.4
		c-3.9,0.9-6.7,2.3-9.3,2c-4.3-0.4-8.6-1.9-12.9-2.9c-9.8-2.1-18.5-9.5-29.5-6.4c-0.5,0.2-1.3-0.3-1.9-0.5
		c-8.4-2.6-16.8-5.2-25.3-7.8c-47-14.4-93.9-29.1-141.1-43c-7.6-2.3-9.9-8-12.5-13.4c-2.9-6.1-9.5-8.7-15.4-4.8
		c-4.2,2.8-7.1,9.6-14.3,5.2c-1.7-1-5.9-0.5-6.9,0.9c-2.4,3.2-4.7,7.2-2.1,11.4c0.6,1,2.2,1.7,3.5,2.1c14.3,3.7,28.6,7.4,42.9,11.1
		c0.2,0.1,0.3,0.4,0.6,0.8c-1.2-0.2-2.3-0.3-3.3-0.5c-0.1,0.2-0.1,0.5-0.2,0.7c17.1,5,34.1,9.9,50.6,14.7c-2.3,2.7-5.3,4.7-5.8,7.3
		c-0.3,1.4,3.4,3.7,5.8,6c-0.2,0.4-0.8,1.6-1,1.9c-2.8-0.4-4.8-0.7-6.9-1c0.3,1.7,0.1,3.7,0.9,5C94.1,104.8,96.2,107.4,98.4,104.6z"
		/>
	<path d="M98.4,104.6c-2.2,2.8-4.2,0.2-5.8-2c-0.9-1.3-0.7-3.3-0.9-5c2,0.3,4.1,0.6,6.9,1c0.1-0.3,0.8-1.5,1-1.9
		c-2.4-2.3-6.1-4.6-5.8-6c0.6-2.6,3.5-4.6,5.8-7.3C83.1,78.7,66,73.8,48.9,68.8c0.1-0.2,0.1-0.5,0.2-0.7c1.1,0.1,2.1,0.3,3.3,0.5
		c-0.3-0.4-0.4-0.7-0.6-0.8C37.6,64.1,23.3,60.4,9,56.7c-1.3-0.3-2.9-1-3.5-2.1c-2.7-4.3-0.4-8.3,2.1-11.4c1-1.4,5.3-1.9,6.9-0.9
		c7.2,4.3,10.1-2.5,14.3-5.2c5.9-3.9,12.4-1.3,15.4,4.8C46.7,47.2,49,53,56.6,55.3c47.1,13.9,94.1,28.6,141.1,43
		c8.4,2.6,16.8,5.2,25.3,7.8c0.6,0.2,1.4,0.7,1.9,0.5c11-3.1,19.7,4.2,29.5,6.4c4.3,0.9,8.5,2.5,12.9,2.9c2.6,0.2,5.4-1.1,9.3-2
		c-2,2.3-3.1,3.5-4.7,5.4c3.2,1.1,5.8,2.4,8.4,2.8c5,0.8,8.1,3.8,11,7.7c4.8,6.5,10.1,12.7,15.6,19.5c2.5-4.2,5.3-2.7,8.3-1.3
		c8.5,3.9,16.8,8.1,25.6,11.2c9,3.2,13.2,9.7,13.5,18.3c0.3,8.3-0.8,16.8-1.9,25.1c-0.3,2.4-2.8,4.5-4.8,7.6
		c-9.2-9.1-17.7-17.2-26-25.6c-4.1-4.2-7.7-8.6-14.7-6.6c-1.8,0.5-4.1-0.7-6.3-1.1c-1.3-8.7-2.8-17.2-10.1-23.9
		c-0.5,1.2-1,2-1.2,2.8c-2.5,8-9.7,9.5-15.9,3.4c-0.2-0.2-0.4-0.5-0.6-0.8c-5.6-12.5-17.5-13.7-28.8-16.3c-5.1-1.1-9.5-1.9-14.1,1.7
		c-1.6,1.2-5.1,0.5-7.5-0.2c-29.9-8.4-59.7-17-89.6-25.5c-5.2-1.5-10.5-1.7-14.8-6.2c-2-2.1-6.9-1.3-10.3-2.4
		C104.7,108.2,101.8,106.3,98.4,104.6z M231.5,113c0.2-0.6,0.4-1.2,0.5-1.8c-13.2-3.9-26.3-7.8-39.5-11.6c-0.2,0.6-0.3,1.1-0.5,1.7
		C205.1,105.3,218.3,109.2,231.5,113z M280.4,159.6c0.6-0.1,1.2-0.2,1.9-0.2c0-2.2,0.3-4.5-0.1-6.6c-0.1-0.8-1.7-1.4-2.7-2
		c-0.5,0.9-1.5,2-1.3,2.8C278.6,155.6,279.6,157.6,280.4,159.6z"/>
	<path class="st0" d="M231.5,113c-13.2-3.9-26.3-7.8-39.5-11.7c0.2-0.6,0.3-1.1,0.5-1.7c13.2,3.9,26.3,7.8,39.5,11.6
		C231.8,111.9,231.6,112.5,231.5,113z"/>
	<path class="st0" d="M280.4,159.6c-0.8-2-1.8-4-2.3-6.1c-0.2-0.8,0.8-1.8,1.3-2.8c0.9,0.7,2.5,1.2,2.7,2c0.4,2.1,0.1,4.4,0.1,6.6
		C281.6,159.5,281,159.6,280.4,159.6z"/>
</g>
</svg>
