<?xml version="1.0" encoding="utf-8"?>
<!-- Generator: Adobe Illustrator 19.0.0, SVG Export Plug-In . SVG Version: 6.00 Build 0)  -->
<svg version="1.1" id="Layer_1" xmlns="http://www.w3.org/2000/svg" xmlns:xlink="http://www.w3.org/1999/xlink" x="0px" y="0px"
	 viewBox="0 0 360 270" style="enable-background:new 0 0 360 270;" xml:space="preserve">
<style type="text/css">
	.st0{fill:#FFFFFF;}
</style>
<g>
	<path class="st0" d="M361,271c-120,0-240,0-359.9,0C1,181,1,91,1,1C121,1,241,1,361,1C361,91,361,181,361,271z M163.3,178.4
		c9.8-1.7,12.1-0.5,17.4,7.2c7.7,11.3,17.9,19,31.6,22.5c9.8,2.5,19.4,1.6,29.1,1.7c8.9,0,15.5-4.2,22-10.6
		c4.5-4.4,11.2-10.2,19.3-4.9c0.6,0.4,1.6,0.6,2.4,0.6c18.3,0.5,36.6,1,54.9,1.3c7.9,0.1,13.2-5.5,13.2-13.5c0-17-0.3-33.9,0.1-50.9
		c0.2-11.4-2.6-12.3-11.4-13.9c-10.7-2-21.7-3-32.3-5.5c-13.4-3.2-27-4.9-40.5-7.5c-18.9-3.8-38.3-5.3-57.5-7.2
		c-5.3-0.5-6.3-3.1-6.8-7.5c-0.3-2.9-1.1-6-2.7-8.3c-2.4-3.5-5.8-6.3-8.6-9.6c-1-1.2-2.2-2.8-2-4.2c0.6-6-2.5-9.3-6.8-11
		c-0.4-4.1-0.3-7.8-1.2-11.2c-0.3-1-3.5-1.2-5.3-1.7c-1,4.8-5.1,2.6-7.8,3.3c0.1,4.6-6.2,9.9,3.3,13.9c-3.6,0.8-5.7,1.9-7.6,1.7
		c-6.1-0.7-12.2-2-18.2-3c-11.2-2-22.4-3.9-33.5-6.2c-1.7-0.3-3-2.6-4.4-4.1c-2.3-2.4-4.3-5-6.7-7.2c-0.4-0.4-2.1,0.7-4.4,1.6
		C96.7,39,99.4,33,96.8,26.6c-0.1-0.1-1.5-0.8-2.9-1.5c-0.8,1.2-1.5,2.9-2.1,2.9c-4.6-0.5-3.8,2.9-3.8,5.3c0,2.4,0.5,4.9,0.8,7.3
		c0.5,4.1-2.7,9.6-5.8,10.5c-2.7,0.8-5.7,1.8-7.8,3.7c-5.1,4.7-9.8,9.9-14.6,15.1c-0.9,1-1.7,2.5-1.9,3.8c-0.5,4.8-0.7,9.6-0.9,14.4
		c-0.1,4.5,0,8.9,0,13.6c-11.9-1.3-23.2-2.6-34.5-3.7c-1.3-0.1-3.3,0.4-3.8,1.2c-3.5,5.7-4,11.9-3.5,18.5c16,1.4,31.3,2.8,47.5,4.2
		c-0.3,0.8-0.7,2.7-1.7,4.3c-2.4,4-4.9,7.6-4.2,12.7c0.8,5.4,0.5,10.9,1,16.4c0.5,5.5,1.4,11,2.1,16.4c5.9,0.5,11,1,16.2,1.3
		c3.4,0.2,5.5-1,5.8-5c0.5-6.2,1.6-12.3,2.4-18.5c2.5,0.2,4.5,0.6,6.4,0.4c7.8-0.8,9.8,1.7,10.1,10.3c0.4,12.8,3.6,24.8,11.8,34.7
		c3.8,4.6,9.1,8.2,14.4,11.1c9.5,5.2,19.9,5.1,30.4,3.4c3.8-0.6,5.9-2.4,7.1-5.9C168.5,194.8,165.2,186.9,163.3,178.4z"/>
	<path d="M163.3,178.4c2,8.5,5.3,16.4,2.4,25c-1.2,3.5-3.3,5.3-7.1,5.9c-10.5,1.7-20.9,1.8-30.4-3.4c-5.3-2.9-10.6-6.5-14.4-11.1
		c-8.2-9.9-11.3-21.9-11.8-34.7c-0.3-8.6-2.3-11.1-10.1-10.3c-1.9,0.2-3.9-0.2-6.4-0.4c-0.8,6.2-1.9,12.3-2.4,18.5
		c-0.3,4-2.4,5.2-5.8,5c-5.1-0.3-10.2-0.8-16.2-1.3c-0.7-5.4-1.6-10.9-2.1-16.4c-0.5-5.4-0.2-11-1-16.4c-0.7-5.1,1.8-8.8,4.2-12.7
		c0.9-1.6,1.4-3.5,1.7-4.3c-16.2-1.4-31.5-2.8-47.5-4.2c-0.5-6.6,0-12.9,3.5-18.5c0.6-0.9,2.6-1.4,3.8-1.2
		c11.3,1.1,22.6,2.4,34.5,3.7c0-4.7-0.1-9.2,0-13.6c0.1-4.8,0.4-9.6,0.9-14.4c0.1-1.3,0.9-2.8,1.9-3.8c4.7-5.1,9.4-10.3,14.6-15.1
		c2-1.9,5-2.8,7.8-3.7c3.1-0.9,6.3-6.3,5.8-10.5c-0.3-2.4-0.9-4.9-0.8-7.3c0-2.4-0.8-5.8,3.8-5.3c0.5,0.1,1.2-1.7,2.1-2.9
		c1.4,0.7,2.8,1.5,2.9,1.5c2.5,6.4-0.1,12.3,1.7,17.6c2.3-0.9,4-2,4.4-1.6c2.4,2.2,4.5,4.8,6.7,7.2c1.4,1.5,2.7,3.7,4.4,4.1
		c11.1,2.3,22.3,4.2,33.5,6.2c6.1,1.1,12.1,2.3,18.2,3c1.9,0.2,4-0.8,7.6-1.7c-9.4-4-3.2-9.3-3.3-13.9c2.8-0.8,6.8,1.5,7.8-3.3
		c1.8,0.6,5,0.7,5.3,1.7c0.9,3.4,0.9,7,1.2,11.2c4.3,1.7,7.4,5,6.8,11c-0.1,1.3,1,3,2,4.2c2.8,3.3,6.2,6.1,8.6,9.6
		c1.6,2.3,2.3,5.4,2.7,8.3c0.5,4.4,1.5,7,6.8,7.5c19.2,2,38.6,3.5,57.5,7.2c13.5,2.7,27.1,4.3,40.5,7.5C320,115,331,116,341.7,118
		c8.8,1.6,11.7,2.5,11.4,13.9c-0.4,16.9-0.1,33.9-0.1,50.9c0,8-5.4,13.6-13.2,13.5c-18.3-0.3-36.6-0.8-54.9-1.3
		c-0.8,0-1.7-0.2-2.4-0.6c-8.2-5.3-14.8,0.6-19.3,4.9c-6.5,6.3-13.1,10.6-22,10.6c-9.7,0-19.4,0.8-29.1-1.7
		c-13.7-3.5-23.9-11.2-31.6-22.5C175.4,177.9,173.1,176.7,163.3,178.4z M105.9,119.1c-2,0-5.6-0.6-5.8,0c-1.2,3.7,2.1,3.6,4.3,4.2
		c1.3,0.4,2.7,0.4,5.6,0.8c-1.9-2.5-2.8-3.7-3.7-4.9c3.7,0.6,3.7,0.6,2.6-4.9C106.5,115,103.4,115.1,105.9,119.1z M240.1,165.6
		c0-1.7,0.1-3.3,0-5c-0.3-4.2-5.7-12-8.7-12.3c-7.3-0.7-14.5-1.4-21.8-1.6c-1.1,0-3.3,1.9-3.4,3.1c-0.9,8.3,0.6,16,8,21.2
		c4.9,3.4,10.1,6.3,15.2,9.3c0.8,0.5,2.2,0.4,3.2,0.1C238.9,178.3,240.3,175.7,240.1,165.6z M157.1,153.2
		C157.1,153.2,157.1,153.2,157.1,153.2c0-1.7,0.2-3.3-0.1-5c-0.6-4.2-2.8-7.4-6.9-8.9c-3.7-1.4-6.6-0.4-9,2.8
		c-1.1,1.5-3,2.6-4.8,3.4c-7.9,3.9-9.7,12-6.2,19.2c1.6,3.2,5.4,6.4,8.7,7.2c2,0.5,5.1-3.8,7.8-5.8c1.4-1,2.9-2.3,4.5-2.5
		c4.3-0.4,6.2-2.5,6-6.6C157.1,155.9,157.1,154.6,157.1,153.2z M64.4,112.7c0.3-0.4,0.5-0.9,0.8-1.3c-1.2-1.3-2.5-2.7-3.7-4
		c0.3-0.3,0.7-0.7,1.5-1.6c-5,0-9.4,0-13.5,0c-5.3-1.2-11.1-4.1-15.9-2.9c-3.2,0.8-4.1-1.5-6.4-1.2c0.3,1,0.7,1.9,1,3.1
		c-1.7,0-3.1,0-4.5,0C36.8,110.8,50.7,110.9,64.4,112.7z M110,91.5c0.4,0,0.8,0,1.3,0c0.4-1,1-2,1.1-3.1c0.3-3.7,2.3-4.7,5.7-4.2
		c12.5,1.9,25,3.7,37.6,5.6c2.8,0.4,4.1-0.4,3.3-3.6c-15.1-1.5-30-3-44.9-4.6c-3.2-0.3-4.2,1.5-4.4,4
		C109.4,87.6,109.8,89.6,110,91.5z M180.4,131.1c0-0.5,0.1-1,0.1-1.6c-20.4-2-40.9-4-61.3-6c-0.1,0.6-0.1,1.2-0.2,1.9
		C139.6,127.3,160,129.2,180.4,131.1z M188.7,75.5c-0.1-0.7-0.2-1.4-0.3-2c-3.8,0.2-7.7,0.4-11.5,0.7c-1,0.1-2,0.5-2.9,0.8
		c0.8,0.8,1.6,2.4,2.3,2.3C180.5,76.9,184.6,76.1,188.7,75.5z"/>
	<path class="st0" d="M240.1,165.6c0.1,10.1-1.2,12.7-7.6,14.7c-1,0.3-2.3,0.4-3.2-0.1c-5.1-3-10.4-5.9-15.2-9.3
		c-7.4-5.1-8.9-12.8-8-21.2c0.1-1.2,2.3-3.1,3.4-3.1c7.3,0.3,14.5,1,21.8,1.6c3,0.3,8.4,8,8.7,12.3
		C240.2,162.3,240.1,163.9,240.1,165.6z"/>
	<path class="st0" d="M157.1,153.2c0,1.3,0,2.7,0,4c0.1,4.2-1.8,6.3-6,6.6c-1.6,0.1-3.1,1.5-4.5,2.5c-2.7,2-5.7,6.2-7.8,5.8
		c-3.3-0.8-7.1-4-8.7-7.2c-3.6-7.3-1.8-15.4,6.2-19.2c1.7-0.9,3.6-1.9,4.8-3.4c2.4-3.3,5.3-4.2,9-2.8c4.1,1.5,6.3,4.6,6.9,8.9
		C157.3,149.9,157.1,151.6,157.1,153.2C157.1,153.2,157.1,153.2,157.1,153.2z"/>
	<path class="st0" d="M64.4,112.7c-13.7-1.8-27.6-2-40.6-7.9c1.4,0,2.8,0,4.5,0c-0.4-1.1-0.7-2.1-1-3.1c2.3-0.3,3.2,2,6.4,1.2
		c4.8-1.2,10.6,1.8,15.9,2.9c4.1,0,8.5,0,13.5,0c-0.8,0.9-1.3,1.4-1.5,1.6c1.2,1.3,2.5,2.6,3.7,4C64.9,111.9,64.6,112.3,64.4,112.7z
		"/>
	<path class="st0" d="M110,91.5c-0.2-1.9-0.5-3.9-0.4-5.8c0.2-2.6,1.2-4.4,4.4-4c14.9,1.6,29.9,3.1,44.9,4.6c0.8,3.2-0.5,4-3.3,3.6
		c-12.5-1.9-25-3.7-37.6-5.6c-3.4-0.5-5.4,0.5-5.7,4.2c-0.1,1.1-0.7,2.1-1.1,3.1C110.8,91.5,110.4,91.5,110,91.5z"/>
	<path class="st0" d="M180.4,131.1c-20.4-1.9-40.9-3.8-61.3-5.7c0.1-0.6,0.1-1.2,0.2-1.9c20.4,2,40.9,4,61.3,6
		C180.5,130.1,180.5,130.6,180.4,131.1z"/>
	<path class="st0" d="M106.4,119.3c0.9,1.2,1.9,2.5,3.7,4.9c-2.9-0.4-4.3-0.5-5.6-0.8c-2.3-0.6-5.6-0.6-4.3-4.2c0.2-0.6,3.8,0,5.8,0
		C106.1,119.1,106.2,119.2,106.4,119.3z"/>
	<path class="st0" d="M188.7,75.5c-4.1,0.6-8.3,1.4-12.4,1.8c-0.7,0.1-1.5-1.5-2.3-2.3c1-0.3,1.9-0.7,2.9-0.8
		c3.8-0.3,7.7-0.5,11.5-0.7C188.6,74.1,188.6,74.8,188.7,75.5z"/>
	<path class="st0" d="M106.4,119.3c-0.2-0.1-0.3-0.1-0.5-0.2c-2.5-4,0.6-4,3.1-4.7C110.1,119.8,110.1,119.8,106.4,119.3z"/>
</g>
</svg>
