<?xml version="1.0" encoding="utf-8"?>
<!-- Generator: Adobe Illustrator 19.0.0, SVG Export Plug-In . SVG Version: 6.00 Build 0)  -->
<svg version="1.1" id="Layer_1" xmlns="http://www.w3.org/2000/svg" xmlns:xlink="http://www.w3.org/1999/xlink" x="0px" y="0px"
	 viewBox="0 0 360 270" style="enable-background:new 0 0 360 270;" xml:space="preserve">
<style type="text/css">
	.st0{fill:#FFFFFF;}
</style>
<g>
	<path class="st0" d="M-2,1c120,0,240,0,360,0c0,90,0,180,0,270c-120,0-240,0-360,0C-2,181-2,91-2,1z M307.7,157.8
		c0.7-0.3,1.4-0.5,2.1-0.8c1.1,1.6,2.1,3.4,3.4,4.9c6.7,8.2,12.3,16.9,15.5,27.1c1.1,3.6,3.9,5.1,6.8,2.9c7-5.1,13.5-10.8,14.7-20.3
		c0.6-4.9,1.9-9.7,2.6-14.5c1.1-8.3-4.4-14.3-12-13.2c-1.4,0.2-2.9,0.8-4,1.7c-2.3,1.8-4.1,1.6-6.1-0.4c-4.3-4.1-9.1-7.8-12.9-12.3
		c-9.1-10.8-20.3-18.7-34-21.4c-24.7-4.7-49.6-8.1-74.4-12c-21.6-3.3-43.2-6.3-64.8-9.8c-40.3-6.7-80.6-13.7-120.9-20.6
		c-5.7-1-7.4-0.1-9.1,5.4c-0.4,1.3-0.8,2.5-1.1,3.8c-0.9,4.4,1.4,8.1,5.9,9.2c2.9,0.7,5.9,0.9,8.6,2.1c1.2,0.5,1.7,2.9,2.2,4.5
		c0.1,0.3-1.6,1.6-2.4,1.6c-6.9,0.1-10.6,3.6-10.6,10.4c0,4.7,0.6,9,6.8,9.5c1.5,0.1,3.8,1.3,4.3,2.6c3.2,8.7,10.3,11.7,18.4,12.6
		c30.5,3.2,61,6.1,91.5,9.1c7.5,0.8,14.5,0.3,19.9-6.1c1-1.2,3.6-1.7,5.4-1.5c13.7,1.4,27.3,3.1,41,4.8c1.2,0.1,2.9,0.7,3.3,1.6
		c2.8,6,7.6,6.4,13.3,5.5c3.2-0.5,6.6-0.7,9.9-0.4c12.2,1.2,23.9,4.2,34.3,10.9c4.9,3.2,9.8,6.5,14.4,10.1c2.5,1.9,4.1,5.1,6.8,6.7
		c7.6,4.4,16.7,0.7,18-6.7C304.9,162.4,306.6,160.2,307.7,157.8z"/>
	<path d="M307.7,157.8c-1.1,2.3-2.8,4.6-3.2,7c-1.3,7.4-10.4,11.1-18,6.7c-2.7-1.5-4.3-4.7-6.8-6.7c-4.7-3.6-9.5-6.9-14.4-10.1
		c-10.4-6.7-22.1-9.8-34.3-10.9c-3.3-0.3-6.6-0.1-9.9,0.4c-5.7,0.9-10.5,0.5-13.3-5.5c-0.4-0.9-2.1-1.4-3.3-1.6
		c-13.6-1.7-27.3-3.4-41-4.8c-1.8-0.2-4.4,0.3-5.4,1.5c-5.4,6.5-12.3,6.9-19.9,6.1c-30.5-3.1-61-5.9-91.5-9.1
		c-8.2-0.9-15.3-3.8-18.4-12.6c-0.5-1.2-2.8-2.4-4.3-2.6c-6.2-0.5-6.8-4.8-6.8-9.5c0-6.8,3.7-10.3,10.6-10.4c0.9,0,2.5-1.3,2.4-1.6
		c-0.5-1.6-1-4-2.2-4.5c-2.6-1.2-5.7-1.4-8.6-2.1c-4.5-1.1-6.8-4.8-5.9-9.2c0.3-1.3,0.7-2.5,1.1-3.8c1.7-5.5,3.4-6.4,9.1-5.4
		c40.3,6.9,80.6,13.9,120.9,20.6c21.5,3.6,43.2,6.5,64.8,9.8c24.8,3.8,49.8,7.3,74.4,12c13.7,2.6,24.9,10.6,34,21.4
		c3.8,4.5,8.6,8.2,12.9,12.3c2,1.9,3.8,2.1,6.1,0.4c1.1-0.9,2.6-1.5,4-1.7c7.6-1.1,13.1,4.9,12,13.2c-0.7,4.9-2,9.7-2.6,14.5
		c-1.2,9.5-7.7,15.2-14.7,20.3c-2.9,2.1-5.7,0.7-6.8-2.9c-3.2-10.2-8.8-18.9-15.5-27.1c-1.3-1.5-2.2-3.3-3.4-4.9
		C309.1,157.3,308.4,157.6,307.7,157.8z M296.9,168.1c-0.2-0.2-0.4-0.3-0.7-0.5c-0.3-3.2-0.2-6.5-1-9.6c-1-3.9-7.2-6-11.4-4.2
		c-2.9,1.2-4.1,5.3-1.7,9c1.9,2.9,4.8,5.3,7.7,7.3c2.6,1.7,5.9,1.5,7.9-1.4c1.9-2.7,3.3-5.6,0.6-8.8
		C298,162.7,297.5,165.4,296.9,168.1z"/>
	<path class="st0" d="M296.9,168.1c0.5-2.7,1.1-5.5,1.6-8.4c2.6,3.2,1.2,6.2-0.6,8.8c-2,2.9-5.3,3.1-7.9,1.4
		c-2.9-1.9-5.8-4.4-7.7-7.3c-2.4-3.7-1.2-7.8,1.7-9c4.1-1.7,10.4,0.4,11.4,4.2c0.8,3.1,0.7,6.4,1,9.6
		C296.5,167.8,296.7,168,296.9,168.1z"/>
</g>
</svg>
