<?xml version="1.0" encoding="utf-8"?>
<!-- Generator: Adobe Illustrator 19.0.0, SVG Export Plug-In . SVG Version: 6.00 Build 0)  -->
<svg version="1.1" id="Layer_1" xmlns="http://www.w3.org/2000/svg" xmlns:xlink="http://www.w3.org/1999/xlink" x="0px" y="0px"
	 viewBox="0 0 360 270" style="enable-background:new 0 0 360 270;" xml:space="preserve">
<style type="text/css">
	.st0{fill:#FFFFFF;}
</style>
<g>
	<path class="st0" d="M361,271c-120,0-240,0-360,0C1,181,1,91,1,1c120,0,240,0,360,0C361,91,361,181,361,271z M353.9,218.3
		c0-2.6,0.1-4.2,0-5.8c-0.1-1.8-0.6-3.6-0.7-5.4c-1.3-20.6-3.9-40.9-11.4-60.3c-2.3-5.9-0.2-10.2,5.5-13c2.3-1.2,4.4-2.8,6.5-4.1
		c-0.6-3.8-1.2-7.2-1.7-10.5c2-1,3.8-2,5-2.6c-5-10.4-9.8-20.3-14.4-29.7c-6.2,0.3-12.2,1.3-18.2,0.8c-13.5-1-27-2.6-40.4-4.2
		c-6.2-0.8-12.2-2.3-18.4-3.3c-7-1.1-14.1-2-21.1-2.9c-7.8-1-15.6-2-23.4-3c-0.1-2.3-0.2-4-0.3-5.5c-7.5-2.9-11.1-2.1-12.9,1.7
		c-2.6-1.5-5.1-3.9-8-4.4c-9.7-1.7-19.6-2.8-29.4-4.1C141.8,58,113,54.1,84.2,50.2c-21-2.8-42-5.3-62.8-8.5
		c-5.1-0.8-7.2,0.8-9.3,4.8c-5.1,9.7-4.7,20.1-3.7,30.5c0.4,3.9,1.6,8.5,7.1,9c17.1,1.7,34.2,3.3,51.3,5c24.7,2.4,49.4,4.7,74.1,7
		c19.3,1.8,38.5,3.5,59,5.3c0.6,5.8,1.1,11.7,1.7,17.6c14.2,1,28.1,2.1,42,3.1c8.8,0.6,8.8,0.6,11.5,9.2c2,6.3,3.8,12.8,6.3,18.9
		c0.9,2.2,3.5,5.2,5.6,5.3c11.3,0.9,22.7,3.2,33.9-1.5c0.2,0.7,0.4,1.3,0.5,1.9c2.9,16.6,5.8,33.3,8.5,50c0.5,3.4-0.3,7.1-0.4,10.7
		C323.3,218.3,338.2,218.3,353.9,218.3z"/>
	<path d="M353.9,218.3c-15.7,0-30.6,0-44.6,0c0.2-3.5,1-7.2,0.4-10.7c-2.6-16.7-5.6-33.3-8.5-50c-0.1-0.6-0.3-1.2-0.5-1.9
		c-11.3,4.7-22.7,2.4-33.9,1.5c-2-0.2-4.7-3.1-5.6-5.3c-2.5-6.1-4.3-12.6-6.3-18.9c-2.8-8.6-2.8-8.5-11.5-9.2c-13.9-1-27.8-2-42-3.1
		c-0.6-5.9-1.1-11.8-1.7-17.6c-20.4-1.8-39.7-3.5-59-5.3c-24.7-2.3-49.4-4.7-74.1-7c-17.1-1.6-34.2-3.3-51.3-5
		c-5.4-0.5-6.7-5.2-7.1-9c-1-10.3-1.4-20.8,3.7-30.5c2.1-4,4.2-5.6,9.3-4.8c20.9,3.3,41.9,5.7,62.8,8.5c28.8,3.9,57.6,7.8,86.3,11.7
		c9.8,1.3,19.7,2.4,29.4,4.1c2.9,0.5,5.4,2.9,8,4.4c1.8-3.9,5.4-4.6,12.9-1.7c0.1,1.5,0.2,3.2,0.3,5.5c7.8,1,15.6,2,23.4,3
		c7.1,0.9,14.1,1.8,21.1,2.9c6.1,1,12.2,2.5,18.4,3.3c13.5,1.6,26.9,3.2,40.4,4.2c6,0.5,12-0.5,18.2-0.8c4.6,9.5,9.4,19.4,14.4,29.7
		c-1.2,0.6-3,1.5-5,2.6c0.5,3.3,1.1,6.7,1.7,10.5c-2.1,1.3-4.2,2.9-6.5,4.1c-5.7,2.9-7.8,7.2-5.5,13c7.5,19.4,10.1,39.8,11.4,60.3
		c0.1,1.8,0.6,3.6,0.7,5.4C354,214.1,353.9,215.7,353.9,218.3z M278.3,151.3c1.4-1.1,2.5-1.6,3.1-2.4c4.4-5.3,3.4-11.1,1.6-17
		c-2.2-7.3-8.8-4.9-13.6-5.9c-3.7-0.8-4.7,1.7-4,4.8c1.6,6.8,3.1,13.6,5.2,20.2c0.5,1.7,2.8,3.8,4.3,3.9c5.2,0.3,10.4,0,15.6-0.6
		c5.9-0.7,8.9-4.5,8.8-10.4c0-1.5-0.7-3-0.5-4.4c0.2-1.6,0.9-3.1,1.4-4.8c-2.3-1.4-5.2-3.3-8.1-5.1c0.2-0.4,0.4-0.8,0.6-1.2
		c-1.1,0.2-2.3,0.4-3.4,0.6C293.3,141.4,288,152.9,278.3,151.3z"/>
	<path class="st0" d="M278.3,151.3c9.8,1.6,15-9.9,10.9-22.2c1.2-0.2,2.3-0.4,3.4-0.6c-0.2,0.4-0.4,0.8-0.6,1.2
		c2.9,1.8,5.8,3.6,8.1,5.1c-0.5,1.7-1.2,3.2-1.4,4.8c-0.1,1.4,0.5,2.9,0.5,4.4c0.1,5.9-2.9,9.7-8.8,10.4c-5.2,0.6-10.4,0.9-15.6,0.6
		c-1.5-0.1-3.8-2.3-4.3-3.9c-2-6.6-3.6-13.4-5.2-20.2c-0.7-3.2,0.3-5.7,4-4.8c4.9,1.1,11.4-1.4,13.6,5.9c1.8,5.9,2.8,11.7-1.6,17
		C280.7,149.7,279.7,150.2,278.3,151.3z"/>
</g>
</svg>
