<?xml version="1.0" encoding="utf-8"?>
<!-- Generator: Adobe Illustrator 19.0.0, SVG Export Plug-In . SVG Version: 6.00 Build 0)  -->
<svg version="1.1" id="Layer_1" xmlns="http://www.w3.org/2000/svg" xmlns:xlink="http://www.w3.org/1999/xlink" x="0px" y="0px"
	 viewBox="0 0 617 720" style="enable-background:new 0 0 617 720;" xml:space="preserve">
<style type="text/css">
	.st0{fill:#FFFFFF;}
</style>
<g id="XMLID_1_">
	<path id="XMLID_65_" d="M618,575c0,8.7,0,17.3,0,26c-0.3,0.6-0.8,1.1-0.9,1.7c-2.3,15.4-8.3,29.3-17.5,41.8
		c-17.1,23.1-40.6,37.5-66.4,48.5c-37.5,16-77.3,22.1-117.4,26.1c-6.3,0.6-12.5,1.3-18.7,2c-10.3,0-20.7,0-31,0
		c-1.8-0.3-3.5-0.7-5.3-0.9c-11-1.5-22.2-2-33-4.4c-51.7-11.7-89.9-42.4-117-87.1c-19.2-31.8-25.7-66.5-17.5-103
		c6.4-28.8,19.3-55,36.7-78.9c3.6-4.9,7.4-9.6,11.8-15.3c-4.2-0.6-7.4-1.5-10.6-1.3c-6.6,0.3-13.2,1.6-19.8,1.8
		c-3.7,0.1-5.9,1.7-6.2,5c-0.9,7.7-2,15.4-1.8,23.1c0.1,5.3-1.6,7.6-6.6,8.1c-7.3,0.8-14.6,1.4-21.7,2.7
		c-10.2,1.9-10.9,3.8-10.4,14.1c0.5,9.9,0.1,19.8,0.1,30.3c-28,2-55.8,6.1-84.2,4.6c-0.1-1.3-0.3-2.3-0.3-3.2
		c0.3-35.6-0.5-71.2-5.1-106.7c-3-23.4-7.5-46.4-14.6-69c-9.7-30.9-25.1-59.2-39.1-88.1C14.8,239.4,7.8,226.2,1,213c0-1.3,0-2.7,0-4
		c3.8-1.7,7.6-4.4,11.6-4.8c11.2-1.2,22.6-1.7,33.9-2.1c34.1-1.1,68.2-2,102.4-3.2c11-0.4,21.8-1.8,32.1-6.2
		c1.8-0.8,3.6-1.8,4.8-3.2c3-3.4,5.7-6.9,8.4-10.5c17.5-23.4,35.2-46.8,52.4-70.5c6.2-8.6,14.6-11.6,24.3-12.3
		c5.1-0.4,10.3,0.2,15.5,0.2c6.5,0,12.9-0.1,19.4-0.4c4.5-0.2,7-3.3,6.4-7.3c-0.6-4.3-2.1-8.8-4.5-12.3c-9.6-14-19.7-27.6-29.5-41.4
		c-4.7-6.6-3.1-12.1,4.3-15.2c4.7-1.9,9.8-3,14.6-4.8c7.7-2.9,14.7-1.8,21.3,2.8c5.8,4.1,11.2,8.8,17.1,12.9
		c7.1,5,13.3,4.5,19.1-1.9c3.3-3.6,6.1-7.9,8.7-12.1c4.1-6.6,9.4-9.8,17-7.8c5.7,1.5,10.9,4.5,16.3,7c5.4,2.5,10.6,5.4,16.2,7.4
		c4.6,1.7,8.8,0.9,12.3-3.7c5.3-7,12.6-11.8,20.9-14.8c4.3-1.5,8.8-2.6,13.2-3.9c4,0,8,0,12,0c5.3,1.7,11.6,2.3,15.7,5.5
		c8.1,6.3,16.8,8.3,26.6,8.3c1,0,2,0,3,0.3c4.3,1.1,8.6,2.3,13.6,3.6c-1.4,1.9-2,2.7-2.6,3.5c-11.6,14.3-23.8,28.3-34.7,43.1
		c-11.1,15-20,31.3-25.9,49.2c-3.1,9.5,0.5,15.6,10.2,17.6c5,1,10.1,2,15.1,3.1c14.5,3.1,27.5,9,36.3,21.6
		c3.7,5.2,5.9,10.9,3.9,17.3c-2.2,6.9-4.6,13.8-7.4,20.5c-3.7,9-3.8,17.3,2.4,25.3c1.4,1.8,2.3,4,3,6.2c4.7,14.4-2.2,35.1-14.5,43.9
		c-2.7,1.9-5.4,3.9-7.9,6.1c-2.3,2.1-3.2,4.5-1.9,8c2.9,7.5,1.7,14.7-3.4,21.1c-2.8,3.5-5.9,6.8-9,10.1c-8.4,8.9-13.9,19-13.5,31.6
		c0.1,3.3,1.1,5.7,4,8c35.6,27.9,66.9,59.9,91.5,98.1c20,31.2,34.2,64.7,39.7,101.5C616.1,561.3,617,568.1,618,575z M318.7,119
		c0,0,0-0.1,0-0.1c-15.7,0-31.3,0.2-47-0.1c-4.5-0.1-7.2,1.6-9.6,4.8c-19.1,25.3-38.1,50.7-57.5,75.7c-6.2,8-10.3,16-8.7,26.3
		c0.2,1-0.1,2-0.1,3c0.5,34.1,0.5,68.2,1.6,102.3c0.7,21.9,3.2,43.7,4.5,65.6c0.3,4.4,1.5,6.1,6,6.1c15.8,0.2,31.7,0.2,47.4,1.3
		c9,0.6,15.9-1,20.6-9.1c1-1.7,2.7-2.9,4.1-4.4c15.5-17.2,30.6-34.7,41.7-55.1c1.6-2.9,1.7-6.9,1.7-10.3c0.2-14.6-0.2-29.2,0.3-43.8
		c0.3-8.2,3.7-16.4-1.2-24.5c-1.5-2.5-1.6-6.1-1.4-9.2c0.5-10.6,1.2-21.2,2.3-31.7c0.5-4.5,1.5-9.3,3.7-13.1
		c3.3-5.7,7.9-10.6,12-15.9c5.9-7.8,12-15.5,20.6-20.8c8.9-5.5,10.8-5.4,18.6,1.6c7.3,6.5,14.4,13.4,21.8,19.7
		c8,6.9,17.3,11,28.2,10.5c7.9-0.4,11.6-6.2,8.6-13.3c-1-2.3-1.9-4.6-3.1-6.8c-10.3-17.2-20.9-34.3-30.9-51.6
		c-2.8-4.9-6.1-7.4-11.6-7.2c-1,0-2-0.1-3-0.1C365,119,341.8,119,318.7,119z M321.2,496.5c-11.9,3.8-19.2,12.4-19.2,25.1
		c0,3.6-1.3,4.9-4.7,6.3c-4.5,1.8-9.2,4.7-12.2,8.4c-4.4,5.5-4.7,12.6-4.2,19.6c0.7,8.9,4.1,16.7,10.7,22.3c7,5.9,16.3,5.8,24.7,5.5
		c12.4-0.5,24.7-3,37-4.4c24.5-2.6,48.9-5.2,73.4-7.4c10.4-1,20.9-1,31.4-1.8c9.4-0.8,18.8-2.3,28.2-3.2c3.4-0.3,7.1,0.9,10.3,0.2
		c8.4-1.9,13.8-7.8,17.1-15.5c4.5-10.7-0.7-29.8-9.8-37.1c-2-1.6-5.5-2.7-6.1-4.7c-1.5-5.5-4.4-6-8.8-3.5
		c-3.2-13-11.6-19.9-23.7-21.9c-1.5-4.5-2.5-8.8-4.4-12.7c-3.6-7.1-10.2-9.6-17.7-10.6c-5-0.6-10-1.2-14.9-2.4
		c-1.4-0.3-3.4-2.9-3.1-4.1c0.6-3.7-0.6-7.1-0.8-10.6c-0.4-6.9-2.9-12.8-6.8-17.9c-4.3-5.6-9.6-10.7-18-8.7c-2,0.5-4.2,0.1-7.1,0.1
		c0.7-3.2,1.5-5.9,1.8-8.5c0.8-7.9,4.4-14.1,10.7-18.9c2.7-2,5.6-4.4,3.1-9c-2.2,0.6-5,0.6-6.4,2c-9.4,9.7-15.2,21-13.9,35.4
		c-3.4,0.2-6.4,0.3-9.3,0.6c-6,0.7-11.4,3.4-14.3,8.6c-4.3,7.7-5.9,16.4-5.4,25.3c0.1,2.6,0,5.3,0,8.3c-7.1,2.9-14.4,5.7-21.4,9
		c-5.3,2.5-11.2,4.8-13,11.3C323.2,486.6,322.3,491.5,321.2,496.5z M488.7,574.4c-0.9,0-1.7-0.1-2.5,0c-24.7,2.2-49.4,4.2-74.1,6.6
		c-20,1.9-40.1,4-60.1,6.2c-5.3,0.6-10.4,2.1-15.7,2.7c-5.1,0.6-10.3,0.7-15.4,0.8c-3.5,0.1-3.4,2.1-2.5,4.3c1.9,4.4,4.2,8.6,6,13
		c6.9,16.3,14,32.6,20.6,49.1c3.8,9.7,4.8,10.7,13.9,9.8c13.7-1.4,27.5-2.6,41.2-3.8c21.7-1.8,43.4-3.3,65.1-5.2
		c1.7-0.2,4.3-2.2,4.8-3.8c2.8-10.6,5.2-21.3,7.6-32C481.4,606.2,485,590.5,488.7,574.4z M512.1,234.9c0.4-0.2,0.9-0.4,1.3-0.6
		c-2-4.2-3.5-8.8-6.2-12.5c-5.2-7.1-13.3-8.7-21.3-8.6c-11.1,0-22.2,1.1-33.3,1.8c-23.2,1.4-46.5,2.5-69.7,4.1
		c-11.5,0.8-22.6,3.4-33,8.6c-7.5,3.7-11.3,12.9-8.8,21.1c2.6,8.7,11.3,14.7,19.5,14.1c13.9-1.1,27.9-1.9,41.8-2.8
		c12.1-0.8,24.2-1.5,36.4-2.3c18.1-1.2,36.2-2.7,54.3-3.7C504.3,253.5,511.9,246.2,512.1,234.9z M461.9,277.6c0,0.1,0,0.3,0,0.4
		c-7.8,0.4-15.6,0.7-23.4,1.1c-25.9,1.3-51.8,2.7-77.8,3.8c-10,0.4-17.5,9.7-15,19.5c2.3,9.1,8.2,13.8,18.1,13.5
		c21-0.6,41.9-1.4,62.9-2.1c13.3-0.5,26.6-0.8,39.9-2c4.3-0.4,9.1-2.4,12.6-5c5.4-4.2,7.3-10.7,5.8-17.5c-1.4-6.2-6.4-9-12.2-10.3
		C469.2,278.2,465.5,278,461.9,277.6z M184,400.8c-0.2,0-0.3,0-0.5,0c0-10.8,0.3-21.7-0.1-32.5c-1-24.9-2.3-49.9-3.5-74.8
		c-1-19.3-1.9-38.5-3.1-57.8c-0.2-3.9-0.3-9.8-2.6-11.1c-3.5-2.1-8.9-1.6-13.3-1c-3.9,0.5-3,4.6-2.9,7.5
		c1.3,37.8,2.4,75.5,3.9,113.3c1.1,28.4,2.7,56.8,4,85.2c0.3,6.2,2.1,7.7,8.4,7.2c2-0.1,3.9-0.9,5.9-0.8c3.2,0.1,3.8-1.5,3.8-4.3
		C184,421.5,184,411.1,184,400.8z M363.3,371.8c0.1-0.3,0.1-0.6,0.2-0.9c15.8-0.7,31.6-1.3,47.4-2.1c11-0.5,21.9-1.2,32.9-1.8
		c8.9-0.5,13.9-5.3,14.2-13.9c0.3-7.8-4.5-14-12.2-14.9c-6.9-0.9-13.9-2-20.8-1.8c-20.6,0.6-41.3,1.5-61.8,3
		c-4.6,0.3-9.6,3-13.4,5.9c-8.4,6.5-7.3,19.7,1.7,23.8C355,370.6,359.3,370.9,363.3,371.8z M450.1,157.3
		c2.6,11.7,7.7,21.3,15.9,29.2c0.6,0.6,1.3,1.3,2,1.4c11,1.8,21.9,4.2,33.1,1.9c10.2-2.2,12.1-4.7,10.9-14.3
		c-1.1-9.1-5-15.7-14.9-17.9C481.4,154.1,466,157.1,450.1,157.3z"/>
	<path id="XMLID_64_" class="st0" d="M1,213c6.8,13.2,13.8,26.4,20.3,39.8c14,28.9,29.5,57.2,39.1,88.1c7.1,22.5,11.6,45.6,14.6,69
		c4.6,35.4,5.3,71,5.1,106.7c0,1,0.2,1.9,0.3,3.2c28.4,1.5,56.2-2.6,84.2-4.6c0-10.5,0.4-20.4-0.1-30.3
		c-0.6-10.3,0.2-12.3,10.4-14.1c7.2-1.3,14.5-1.9,21.7-2.7c5-0.6,6.7-2.9,6.6-8.1c-0.1-7.7,0.9-15.4,1.8-23.1c0.4-3.2,2.5-4.8,6.2-5
		c6.6-0.2,13.2-1.5,19.8-1.8c3.2-0.2,6.4,0.8,10.6,1.3c-4.4,5.7-8.2,10.4-11.8,15.3c-17.4,23.9-30.2,50.1-36.7,78.9
		c-8.2,36.5-1.7,71.3,17.5,103c27.1,44.7,65.2,75.3,117,87.1c10.8,2.4,22,3,33,4.4c1.8,0.2,3.5,0.6,5.3,0.9c-121.6,0-243.2,0-365,0
		C1,551.7,1,382.3,1,213z"/>
	<path id="XMLID_63_" class="st0" d="M459,1c-4.4,1.3-8.9,2.4-13.2,3.9c-8.3,3-15.6,7.7-20.9,14.8c-3.5,4.6-7.6,5.4-12.3,3.7
		c-5.6-2-10.8-5-16.2-7.4c-5.4-2.5-10.7-5.5-16.3-7c-7.6-2-12.9,1.1-17,7.8c-2.6,4.2-5.3,8.5-8.7,12.1c-5.8,6.4-12,6.9-19.1,1.9
		c-5.8-4.1-11.3-8.8-17.1-12.9c-6.5-4.6-13.6-5.7-21.3-2.8c-4.8,1.8-9.9,2.9-14.6,4.8c-7.4,3.1-9,8.6-4.3,15.2
		c9.8,13.9,19.9,27.4,29.5,41.4c2.4,3.5,3.8,8.1,4.5,12.3c0.6,4-1.9,7.1-6.4,7.3c-6.5,0.3-12.9,0.3-19.4,0.4
		c-5.2,0-10.3-0.5-15.5-0.2c-9.7,0.7-18.1,3.7-24.3,12.3c-17.2,23.7-34.9,47-52.4,70.5c-2.7,3.6-5.4,7.2-8.4,10.5
		c-1.2,1.4-3.1,2.4-4.8,3.2c-10.2,4.5-21.1,5.9-32.1,6.2c-34.1,1.1-68.2,2-102.4,3.2c-11.3,0.4-22.6,0.9-33.9,2.1
		c-4,0.4-7.7,3.2-11.6,4.8C1,139.7,1,70.4,1,1C153.7,1,306.3,1,459,1z"/>
	<path id="XMLID_62_" class="st0" d="M618,575c-1-6.9-1.9-13.7-2.9-20.6c-5.4-36.9-19.7-70.4-39.7-101.5
		c-24.5-38.2-55.9-70.2-91.5-98.1c-2.9-2.3-3.8-4.7-4-8c-0.5-12.7,5.1-22.7,13.5-31.6c3.1-3.3,6.2-6.6,9-10.1
		c5.1-6.3,6.3-13.5,3.4-21.1c-1.3-3.5-0.5-5.8,1.9-8c2.5-2.2,5.2-4.2,7.9-6.1c12.3-8.8,19.3-29.5,14.5-43.9c-0.7-2.2-1.6-4.4-3-6.2
		c-6.2-8-6.1-16.4-2.4-25.3c2.8-6.7,5.2-13.6,7.4-20.5c2-6.4-0.2-12.1-3.9-17.3c-8.8-12.7-21.8-18.5-36.3-21.6
		c-5-1.1-10.1-2-15.1-3.1c-9.7-1.9-13.3-8.1-10.2-17.6c5.8-17.8,14.8-34.2,25.9-49.2c11-14.8,23.1-28.8,34.7-43.1
		c0.6-0.8,1.2-1.6,2.6-3.5c-5-1.3-9.3-2.5-13.6-3.6c-1-0.2-2-0.3-3-0.3c-9.7,0.1-18.5-2-26.6-8.3C482.6,3.3,476.3,2.7,471,1
		c49,0,98,0,147,0C618,192.3,618,383.7,618,575z"/>
	<path id="XMLID_61_" class="st0" d="M397,721c6.2-0.7,12.5-1.3,18.7-2c40.2-4,80-10,117.4-26.1c25.8-11,49.3-25.4,66.4-48.5
		c9.2-12.5,15.2-26.4,17.5-41.8c0.1-0.6,0.6-1.1,0.9-1.7c0,40,0,80,0,120C544.3,721,470.7,721,397,721z"/>
	<path id="XMLID_60_" class="st0" d="M318.7,119c23.1,0,46.3,0,69.4,0c1,0,2,0.2,3,0.1c5.5-0.2,8.8,2.3,11.6,7.2
		c10,17.4,20.6,34.4,30.9,51.6c1.3,2.1,2.2,4.5,3.1,6.8c3,7-0.7,12.9-8.6,13.3c-10.9,0.5-20.2-3.6-28.2-10.5
		c-7.4-6.4-14.5-13.2-21.8-19.7c-7.8-7-9.7-7.1-18.6-1.6c-8.6,5.3-14.6,13-20.6,20.8c-4,5.3-8.6,10.2-12,15.9
		c-2.2,3.8-3.2,8.6-3.7,13.1c-1.1,10.5-1.8,21.1-2.3,31.7c-0.1,3.1-0.1,6.8,1.4,9.2c5,8.1,1.5,16.3,1.2,24.5
		c-0.5,14.6-0.1,29.2-0.3,43.8c0,3.5-0.1,7.4-1.7,10.3c-11.2,20.4-26.3,37.9-41.7,55.1c-1.3,1.5-3.1,2.7-4.1,4.4
		c-4.7,8.1-11.6,9.7-20.6,9.1c-15.8-1.1-31.6-1.1-47.4-1.3c-4.5-0.1-5.7-1.8-6-6.1c-1.3-21.9-3.8-43.7-4.5-65.6
		c-1.1-34.1-1.1-68.2-1.6-102.3c0-1,0.3-2,0.1-3c-1.6-10.3,2.6-18.4,8.7-26.3c19.4-25.1,38.4-50.5,57.5-75.7
		c2.4-3.2,5.1-4.9,9.6-4.8c15.6,0.4,31.3,0.1,47,0.1C318.7,118.9,318.7,119,318.7,119z"/>
	<path id="XMLID_59_" class="st0" d="M321.2,496.5c1.1-4.9,2-9.9,3.3-14.7c1.8-6.5,7.7-8.8,13-11.3c7-3.3,14.3-6,21.4-9
		c0-3.1,0.1-5.7,0-8.3c-0.5-8.9,1-17.6,5.4-25.3c2.9-5.2,8.2-7.9,14.3-8.6c3-0.3,5.9-0.4,9.3-0.6c-1.3-14.3,4.5-25.7,13.9-35.4
		c1.4-1.4,4.2-1.3,6.4-2c2.6,4.6-0.4,6.9-3.1,9c-6.3,4.8-9.9,11-10.7,18.9c-0.3,2.7-1.1,5.3-1.8,8.5c2.9,0,5.1,0.4,7.1-0.1
		c8.4-2,13.7,3.1,18,8.7c3.9,5.1,6.4,11,6.8,17.9c0.2,3.5,1.5,6.8,0.8,10.6c-0.2,1.2,1.8,3.8,3.1,4.1c4.9,1.2,9.9,1.7,14.9,2.4
		c7.5,0.9,14.1,3.5,17.7,10.6c1.9,3.8,2.9,8.2,4.4,12.7c12.1,2,20.5,8.8,23.7,21.9c4.4-2.5,7.3-2,8.8,3.5c0.5,2,4,3,6.1,4.7
		c9.1,7.3,14.3,26.4,9.8,37.1c-3.3,7.7-8.7,13.5-17.1,15.5c-3.2,0.8-6.9-0.5-10.3-0.2c-9.4,0.9-18.8,2.4-28.2,3.2
		c-10.4,0.9-20.9,0.9-31.4,1.8c-24.5,2.3-49,4.8-73.4,7.4c-12.4,1.3-24.7,3.8-37,4.4c-8.4,0.3-17.7,0.5-24.7-5.5
		c-6.6-5.6-10-13.4-10.7-22.3c-0.5-7-0.2-14.1,4.2-19.6c3-3.7,7.7-6.6,12.2-8.4c3.4-1.4,4.7-2.7,4.7-6.3
		C302.1,508.9,309.3,500.2,321.2,496.5z"/>
	<path id="XMLID_58_" class="st0" d="M488.7,574.4c-3.7,16.1-7.3,31.9-11,47.6c-2.5,10.7-4.8,21.4-7.6,32c-0.4,1.6-3,3.7-4.8,3.8
		c-21.7,1.9-43.4,3.5-65.1,5.2c-13.7,1.1-27.5,2.4-41.2,3.8c-9.1,0.9-10.1-0.1-13.9-9.8c-6.5-16.5-13.6-32.8-20.6-49.1
		c-1.9-4.4-4.2-8.6-6-13c-0.9-2.2-1-4.3,2.5-4.3c5.2-0.1,10.3-0.2,15.4-0.8c5.3-0.6,10.4-2.1,15.7-2.7c20-2.2,40-4.3,60.1-6.2
		c24.7-2.3,49.4-4.4,74.1-6.6C487,574.3,487.8,574.4,488.7,574.4z"/>
	<path id="XMLID_57_" class="st0" d="M512.1,234.9c-0.2,11.3-7.8,18.6-19.2,19.2c-18.1,1-36.2,2.5-54.3,3.7
		c-12.1,0.8-24.2,1.5-36.4,2.3c-13.9,0.9-27.9,1.7-41.8,2.8c-8.2,0.6-16.9-5.4-19.5-14.1c-2.5-8.2,1.3-17.3,8.8-21.1
		c10.4-5.2,21.5-7.8,33-8.6c23.2-1.6,46.5-2.8,69.7-4.1c11.1-0.6,22.2-1.8,33.3-1.8c8,0,16.2,1.6,21.3,8.6c2.7,3.7,4.2,8.3,6.2,12.5
		C513,234.5,512.5,234.7,512.1,234.9z"/>
	<path id="XMLID_56_" class="st0" d="M461.9,277.6c3.6,0.5,7.2,0.7,10.8,1.4c5.8,1.3,10.8,4,12.2,10.3c1.5,6.8-0.4,13.2-5.8,17.5
		c-3.5,2.7-8.2,4.7-12.6,5c-13.3,1.2-26.6,1.5-39.9,2c-21,0.8-41.9,1.6-62.9,2.1c-9.9,0.3-15.8-4.4-18.1-13.5
		c-2.4-9.8,5-19.1,15-19.5c25.9-1.1,51.8-2.5,77.8-3.8c7.8-0.4,15.6-0.8,23.4-1.1C461.9,277.9,461.9,277.7,461.9,277.6z"/>
	<path id="XMLID_55_" class="st0" d="M184,400.8c0,10.3-0.1,20.6,0,31c0,2.8-0.6,4.4-3.8,4.3c-2,0-3.9,0.7-5.9,0.8
		c-6.4,0.5-8.1-1.1-8.4-7.2c-1.4-28.4-2.9-56.8-4-85.2c-1.5-37.8-2.6-75.5-3.9-113.3c-0.1-2.9-0.9-6.9,2.9-7.5c4.4-0.6,9.9-1,13.3,1
		c2.3,1.3,2.3,7.2,2.6,11.1c1.2,19.2,2.2,38.5,3.1,57.8c1.2,24.9,2.5,49.8,3.5,74.8c0.4,10.8,0.1,21.6,0.1,32.5
		C183.7,400.8,183.9,400.8,184,400.8z"/>
	<path id="XMLID_54_" class="st0" d="M363.3,371.8c-4-0.9-8.3-1.1-11.9-2.8c-9-4.1-10-17.3-1.7-23.8c3.8-2.9,8.8-5.6,13.4-5.9
		c20.6-1.5,41.2-2.4,61.8-3c6.9-0.2,13.9,0.9,20.8,1.8c7.7,1,12.5,7.1,12.2,14.9c-0.3,8.6-5.3,13.5-14.2,13.9
		c-11,0.6-21.9,1.3-32.9,1.8c-15.8,0.7-31.6,1.4-47.4,2.1C363.4,371.2,363.3,371.5,363.3,371.8z"/>
	<path id="XMLID_53_" class="st0" d="M450.1,157.3c15.9-0.2,31.3-3.2,46.9,0.3c9.9,2.2,13.8,8.8,14.9,17.9
		c1.2,9.6-0.7,12.1-10.9,14.3c-11.2,2.4-22.1-0.1-33.1-1.9c-0.7-0.1-1.4-0.8-2-1.4C457.8,178.6,452.8,169,450.1,157.3z"/>
</g>
</svg>
