<?xml version="1.0" encoding="utf-8"?>
<!-- Generator: Adobe Illustrator 19.0.0, SVG Export Plug-In . SVG Version: 6.00 Build 0)  -->
<svg version="1.1" id="Layer_1" xmlns="http://www.w3.org/2000/svg" xmlns:xlink="http://www.w3.org/1999/xlink" x="0px" y="0px"
	 viewBox="0 0 300 300" style="enable-background:new 0 0 300 300;" xml:space="preserve">
<style type="text/css">
	.st0{fill:#FFFFFF;}
</style>
<g id="XMLID_1_">
	<path id="XMLID_127_" class="st0" d="M300.8,123.8c0,58.9,0,117.9,0,177c-57,0-114,0-171,0c1-0.7,1.9-1.5,2.9-2.1
		c39.5-22.5,79.1-45.1,118.7-67.5c2.9-1.7,3.8-3.5,3.8-6.7c-0.1-23.6,0-47.2-0.1-70.8c0-2.9,0.9-4.5,3.4-5.9
		C272.6,139.8,286.7,131.8,300.8,123.8z"/>
	<path id="XMLID_126_" class="st0" d="M0.8,91.5c0-30.2,0-60.4,0-90.8c63.2,0,126.5,0,189.8,0C181.3,21.4,172.1,42,162.7,63
		c-12.1-14.8-23.7-29.1-35.3-43.3c-1.1,0.6-1.8,0.9-2.4,1.3C93.2,39.1,61.5,57.2,29.7,75.3C20.1,80.8,10.4,86.1,0.8,91.5z"/>
	<path id="XMLID_125_" class="st0" d="M127.5,300.8c-42.3,0-84.5,0-126.8,0c0-69.3,0-138.5,0-207.8c11,13.4,22.2,26.7,33,40.2
		c1.6,1.9,2.6,4.9,2.6,7.4c0.2,34.7,0.1,69.4,0.1,104.2c0,2.7,0.9,4.2,3.2,5.6c23.4,13.2,46.7,26.5,69.9,39.8
		C115.7,293.5,121.6,297.2,127.5,300.8z"/>
	<path id="XMLID_124_" class="st0" d="M191.3,0.7c36.5,0,73,0,109.5,0c0,40.5,0,81,0,121.5c-0.7,0-1.5,0.1-2.2,0
		c-13.5-2.2-27.1-4.4-40.6-6.6c-0.8-0.1-1.5-0.5-2.6-0.8c0.7-1.5,1.2-2.8,1.7-4c8-18.1,16-36.3,24.1-54.3c1.3-2.8,0.8-4-1.9-5.5
		c-12.8-7.1-25.4-14.4-38.1-21.6C224.6,19.9,207.9,10.3,191.3,0.7z"/>
	<path id="XMLID_115_" d="M191.3,0.7c16.7,9.6,33.3,19.1,50,28.7c12.7,7.2,25.3,14.5,38.1,21.6c2.7,1.5,3.1,2.7,1.9,5.5
		c-8.1,18.1-16.1,36.2-24.1,54.3c-0.5,1.2-1.1,2.5-1.7,4c1,0.3,1.8,0.7,2.6,0.8c13.5,2.2,27.1,4.4,40.6,6.6c0.7,0.1,1.5,0,2.2,0
		c0,0.5,0,1,0,1.5c-14.1,8-28.1,16.1-42.3,24c-2.5,1.4-3.4,3-3.4,5.9c0.1,23.6,0,47.2,0.1,70.8c0,3.3-0.9,5.1-3.8,6.7
		c-39.6,22.4-79.2,45-118.7,67.5c-1,0.6-2,1.4-2.9,2.1c-0.8,0-1.5,0-2.3,0c-5.9-3.6-11.8-7.2-17.9-10.7
		c-23.3-13.3-46.6-26.6-69.9-39.8c-2.4-1.3-3.3-2.8-3.2-5.6c0.1-34.7,0.1-69.4-0.1-104.2c0-2.5-1.1-5.4-2.6-7.4
		c-10.9-13.5-22-26.8-33-40.2c0-0.5,0-1,0-1.5c9.7-5.4,19.4-10.7,29-16.2C61.5,57.2,93.2,39.1,125,21c0.6-0.4,1.3-0.7,2.4-1.3
		C139,33.9,150.6,48.2,162.7,63c9.4-21,18.6-41.6,27.8-62.2C190.8,0.8,191,0.8,191.3,0.7z M111.1,148.6c2.5,5.4,5,10.7,7.4,16.2
		c3.3,7.4,6.4,14.8,9.7,22.4c1.3-0.7,2.3-1.1,3.3-1.7c9.4-5.4,18.8-10.8,28.3-16c2.2-1.2,3-2.6,3-5.2c-0.1-31.6-0.1-63.2-0.1-94.9
		c0-1.2-0.1-2.4-0.2-4c-31.8,18.1-63.2,36-95,54.1c1.6,1,2.7,1.6,3.7,2.2c11.5,6.5,22.9,13.2,34.5,19.6c3.1,1.7,4.9,4,5.4,7.5
		c-1.7-2-3.1-4.5-5.2-5.8C78.1,126.9,50.1,111,22.2,95.1c-0.8-0.4-1.6-0.8-3-1.5c0.6,1.6,0.9,2.5,1.2,3.3
		c5.1,11.9,10.2,23.8,15.5,35.6c0.8,1.9,2.4,3.8,4.2,4.8c27.8,16,55.6,31.8,83.5,47.7c0.8,0.5,1.7,0.8,3.2,1.6
		c-5.1-11.9-10-23.2-14.8-34.5C111.6,151,111.4,149.7,111.1,148.6z M254.3,150.2c-1.7,0.9-2.7,1.4-3.6,2
		c-23.7,13.5-47.5,26.9-71.2,40.6c-3.9,2.2-7.4,2.6-11.6,1.8c-12.7-2.2-25.5-4.1-38.4-6.2c0,36.8,0,73.4,0,110.3
		c1.2-0.6,2-0.9,2.7-1.3c39.8-22.6,79.5-45.3,119.4-67.9c2.2-1.2,2.8-2.6,2.8-5c-0.1-23.5-0.1-47-0.1-70.4
		C254.3,153,254.3,151.9,254.3,150.2z M37.7,137.4c-0.1,1.3-0.2,2.2-0.2,3c0,34.7,0,69.5-0.1,104.2c0,2.7,1.3,3.7,3.2,4.8
		c28.1,15.9,56.2,31.9,84.3,47.9c0.9,0.5,1.9,1,3.2,1.6c0.1-0.9,0.2-1.5,0.2-2.1c0-35.1,0-70.2-0.1-105.3c0-1.3-1.3-3.2-2.5-3.9
		c-22.9-13.2-45.9-26.3-68.9-39.4C50.5,144.7,44.3,141.2,37.7,137.4z M16.8,90.8c2.1,1.1,3.2,1.6,4.2,2.2
		c14.2,8.1,28.4,16.1,42.6,24.3c2,1.1,3.4,1.1,5.4,0c19.4-11.1,38.8-22.2,58.2-33.2c11.6-6.6,23.2-13.2,35-20
		c-11.8-14.4-23.3-28.7-35-43C85.4,45,43.8,68.7,2,92.6c10.4,12.6,20.4,24.9,30.5,37.2c0.3-0.2,0.5-0.3,0.8-0.5
		C27.9,116.8,22.6,104.3,16.8,90.8z M190.8,2.1c-9.2,20.8-18.2,41.2-27.3,61.8c30.4,17.3,60.3,34.3,90.5,51.5
		c9.2-20.8,18.2-41.2,27.3-61.7C251.1,36.5,221.2,19.4,190.8,2.1z M163.9,167c29.9-17,59.3-33.7,89.2-50.8
		c-30-17-59.3-33.8-89.2-50.7C163.9,99.6,163.9,133,163.9,167z M131,187.1c1.8,0.4,2.7,0.7,3.6,0.9c11.6,1.9,23.2,3.5,34.7,5.6
		c3.6,0.7,6.4-0.1,9.4-1.9c38.4-21.9,76.9-43.8,115.4-65.7c1.1-0.6,2.2-1.3,3.4-2c-0.4-0.5-0.6-0.7-0.8-0.8
		c-12.9-2.1-25.9-4.2-38.8-6.1c-1.9-0.3-4.2,0.2-5.9,1.2c-25.3,14.3-50.5,28.7-75.8,43C161.5,169.8,146.6,178.2,131,187.1z"/>
	<path id="XMLID_109_" class="st0" d="M254.3,150.2c0,1.7,0,2.8,0,3.9c0,23.5,0,47,0.1,70.4c0,2.4-0.6,3.8-2.8,5
		c-39.8,22.6-79.6,45.2-119.4,67.9c-0.7,0.4-1.5,0.8-2.7,1.3c0-36.9,0-73.5,0-110.3c12.9,2.1,25.7,4,38.4,6.2
		c4.2,0.7,7.7,0.4,11.6-1.8c23.6-13.7,47.4-27.1,71.2-40.6C251.6,151.6,252.6,151.1,254.3,150.2z M178.9,231.6
		c2.7-2.4,4.7-4.1,6.7-5.9c6.4-5.6,6.2-13-0.7-18c-1.7-1.2-3.6-2.3-5.6-2.8c-10-2.6-18.9,0.1-27.1,6.4c1.7,3.3,3.3,6.4,4.9,9.7
		c1.5-1,2.4-1.9,3.5-2.3c4-1.4,8.1-2.8,12.3-3.9c0.9-0.2,2.8,1,3.2,1.9c0.3,0.8-0.6,2.5-1.4,3.4c-1.7,1.7-3.8,2.9-5.5,4.5
		c-4.4,4.2-3.7,9.3,1.5,12.3c5.3,3,9.2,2.3,15.4-2.7C184,233.3,182.1,232.6,178.9,231.6z M193.7,205.8c3-1.6,5.7-3.4,8.6-4.6
		c2.2-0.9,4.8-1.4,7.2-1.4c1.1,0,2.6,1.3,3.3,2.4c0.3,0.5-0.7,2.2-1.5,3c-1.7,1.6-3.7,2.9-5.5,4.5c-4.6,4.4-3.8,9.4,1.8,12.4
		c5.9,3.2,10.7,1,15.3-2.8c-2.2-0.8-4.3-1.5-7.3-2.6c2.1-1.9,3.5-3.3,5-4.5c3.6-2.9,7-6.1,6.2-11.2c-0.9-5.4-4.5-8.8-9.6-10.6
		c-10.6-3.7-19.7-0.4-28.4,5.9C190.6,199.8,192.2,202.8,193.7,205.8z M232.6,232.4c-0.1-3.8-3.6-7-7.7-7.1c-5.7,0-10.7,3.7-10.5,7.8
		c0.2,3.8,3.7,6.9,7.9,6.9C227.7,239.9,232.7,236.3,232.6,232.4z M186.4,254.7c1.3-0.4,3.4-1,5.4-1.9c2.5-1.2,4.3-3,4-6.1
		c-0.3-3.2-2-5.7-5.1-6c-2.7-0.3-5.7,0-8.2,0.9c-3.9,1.3-5.5,4.2-4.8,7.4C178.5,252.2,181.9,254.8,186.4,254.7z"/>
	<path id="XMLID_103_" class="st0" d="M37.7,137.4c6.6,3.8,12.9,7.3,19.1,10.8c23,13.1,46,26.2,68.9,39.4c1.2,0.7,2.5,2.5,2.5,3.9
		c0.1,35.1,0.1,70.2,0.1,105.3c0,0.6-0.1,1.2-0.2,2.1c-1.3-0.7-2.2-1.1-3.2-1.6c-28.1-16-56.2-32-84.3-47.9
		c-1.9-1.1-3.2-2.1-3.2-4.8c0.1-34.7,0.1-69.5,0.1-104.2C37.4,139.6,37.6,138.7,37.7,137.4z M104.4,228.6c3.9-0.8,6.9-1.4,9.9-2.1
		c5.1-1.2,9.6-3.3,10.8-8.9c1.2-5.9-1.2-10.6-6-13.9c-6.6-4.5-14-5.5-21.8-4.6c-1,0.1-2.4,0.8-2.6,1.6c-0.8,2.9-1.2,5.9-1.5,8
		c5.6,0.8,10.9,1.4,16,2.4c1,0.2,2.4,2.1,2.4,3.2c0,0.9-1.7,2.2-2.9,2.5c-3.2,0.9-6.6,1.1-9.8,2.1c-5.9,1.9-7.3,7.7-3.3,12.4
		c3.3,3.8,8.2,4.6,13,2C107.5,232.1,106.4,230.8,104.4,228.6z M64.1,224.7c4.3-1,7.9-1.7,11.4-2.6c4.5-1.2,8.2-3.5,9.2-8.3
		c1.1-5.3-0.5-9.9-4.9-13.3c-4.3-3.4-9.2-5.2-14.5-5.4c-13.4-0.4-10.1-1.4-12.5,9.9c0,0.1,0.1,0.2,0.2,0.6c1.3-0.1,2.7-0.3,4-0.2
		c3.9,0.4,7.9,0.7,11.7,1.6c1.2,0.3,2,2.2,2.9,3.4c-1.2,0.9-2.3,2.1-3.7,2.5c-2.7,0.8-5.7,0.9-8.4,1.6c-3,0.8-5.7,2.2-6.3,5.6
		c-0.6,3.7,0.7,7.2,3.9,8.6c3.4,1.5,7.4,1.5,11.2,2.1c0.1-0.4,0.2-0.8,0.3-1.2C67.3,228.3,66.1,226.9,64.1,224.7z M101.9,252.5
		c5.2-0.1,8.4-2.7,8.4-7c0-4.3-4.1-7.1-10.1-7c-5.2,0.1-8.2,2.7-8.1,7.2C92.1,250,95.8,252.6,101.9,252.5z M60.5,234.6
		c-5.7-0.1-8.8,2.2-8.9,6.7c-0.1,4.2,2.9,6.7,8.4,7c6,0.3,9.4-1.8,9.8-6.1C70.2,237.5,66.8,234.8,60.5,234.6z"/>
	<path id="XMLID_102_" class="st0" d="M16.8,90.8c5.8,13.5,11.2,26,16.5,38.5c-0.3,0.2-0.5,0.3-0.8,0.5
		C22.4,117.5,12.4,105.2,2,92.6C43.8,68.7,85.4,45,127.2,21.1c11.7,14.3,23.2,28.6,35,43c-11.9,6.8-23.4,13.4-35,20
		c-19.4,11.1-38.8,22.1-58.2,33.2c-2,1.1-3.4,1.2-5.4,0C49.4,109.1,35.2,101.1,21,93C19.9,92.4,18.9,91.9,16.8,90.8z"/>
	<path id="XMLID_101_" class="st0" d="M190.8,2.1c30.4,17.3,60.2,34.4,90.4,51.6c-9.1,20.5-18.1,40.9-27.3,61.7
		c-30.2-17.2-60.1-34.2-90.5-51.5C172.6,43.3,181.6,22.9,190.8,2.1z"/>
	<path id="XMLID_100_" class="st0" d="M111.2,148.7c-0.5-3.5-2.3-5.7-5.4-7.5c-11.6-6.4-23-13-34.5-19.6c-1.1-0.6-2.1-1.3-3.7-2.2
		c31.8-18.1,63.2-36,95-54.1c0.1,1.7,0.2,2.8,0.2,4c0,31.6,0,63.2,0.1,94.9c0,2.6-0.8,4-3,5.2c-9.5,5.3-18.9,10.7-28.3,16
		c-1,0.5-1.9,1-3.3,1.7c-3.3-7.6-6.5-15-9.7-22.4c-2.4-5.4-4.9-10.8-7.4-16.2L111.2,148.7z"/>
	<path id="XMLID_99_" class="st0" d="M163.9,167c0-34.1,0-67.4,0-101.5c29.8,17,59.2,33.7,89.2,50.7
		C223.1,133.3,193.7,150,163.9,167z"/>
	<path id="XMLID_98_" class="st0" d="M131,187.1c15.6-8.9,30.4-17.3,45.3-25.8c25.2-14.4,50.5-28.8,75.8-43c1.7-1,4-1.5,5.9-1.2
		c13,1.9,25.9,4,38.8,6.1c0.2,0,0.3,0.3,0.8,0.8c-1.2,0.7-2.3,1.4-3.4,2c-38.5,21.9-77,43.7-115.4,65.7c-3,1.7-5.8,2.6-9.4,1.9
		c-11.5-2.1-23.1-3.8-34.7-5.6C133.7,187.9,132.8,187.6,131,187.1z"/>
	<path id="XMLID_97_" class="st0" d="M111.1,148.6c0.3,1.2,0.4,2.4,0.9,3.5c4.8,11.3,9.7,22.5,14.8,34.5c-1.5-0.7-2.4-1.1-3.2-1.6
		c-27.8-15.9-55.7-31.7-83.5-47.7c-1.8-1-3.4-2.9-4.2-4.8c-5.3-11.8-10.4-23.7-15.5-35.6c-0.4-0.9-0.7-1.8-1.2-3.3
		c1.4,0.7,2.2,1.1,3,1.5c28,15.9,56,31.8,83.8,47.8c2.1,1.2,3.5,3.8,5.2,5.8C111.2,148.7,111.1,148.6,111.1,148.6z"/>
	<path id="XMLID_96_" d="M178.9,231.6c3.2,1.1,5.1,1.7,7.2,2.4c-6.2,5.1-10.1,5.7-15.4,2.7c-5.3-3-6-8.1-1.5-12.3
		c1.7-1.6,3.8-2.8,5.5-4.5c0.8-0.8,1.7-2.5,1.4-3.4c-0.4-1-2.3-2.2-3.2-1.9c-4.2,1-8.2,2.4-12.3,3.9c-1.1,0.4-2.1,1.3-3.5,2.3
		c-1.7-3.3-3.2-6.4-4.9-9.7c8.2-6.3,17.1-9,27.1-6.4c2,0.5,3.9,1.6,5.6,2.8c6.9,5.1,7.1,12.4,0.7,18
		C183.6,227.4,181.6,229.2,178.9,231.6z"/>
	<path id="XMLID_95_" d="M193.7,205.8c-1.5-3-3.1-6.1-4.8-9.5c8.7-6.3,17.9-9.6,28.4-5.9c5,1.7,8.7,5.1,9.6,10.6
		c0.8,5.1-2.5,8.3-6.2,11.2c-1.5,1.2-2.9,2.6-5,4.5c3,1.1,5.1,1.8,7.3,2.6c-4.6,3.9-9.4,6-15.3,2.8c-5.6-3-6.4-8.1-1.8-12.4
		c1.7-1.6,3.8-2.9,5.5-4.5c0.8-0.8,1.8-2.5,1.5-3c-0.7-1.1-2.2-2.4-3.3-2.4c-2.4,0-5,0.5-7.2,1.4
		C199.4,202.4,196.6,204.2,193.7,205.8z"/>
	<path id="XMLID_94_" d="M232.6,232.4c0.1,3.9-4.9,7.6-10.4,7.6c-4.2,0-7.7-3-7.9-6.9c-0.2-4.1,4.8-7.9,10.5-7.8
		C229.1,225.3,232.5,228.5,232.6,232.4z"/>
	<path id="XMLID_93_" d="M186.4,254.7c-4.5,0.1-8-2.5-8.7-5.8c-0.7-3.2,0.8-6,4.8-7.4c2.6-0.9,5.5-1.2,8.2-0.9
		c3.1,0.4,4.8,2.9,5.1,6c0.3,3.1-1.5,4.9-4,6.1C189.9,253.7,187.7,254.3,186.4,254.7z"/>
	<path id="XMLID_92_" d="M104.4,228.6c1.9,2.2,3.1,3.5,4.2,4.8c-4.8,2.5-9.7,1.7-13-2c-4-4.7-2.6-10.5,3.3-12.4
		c3.2-1,6.6-1.2,9.8-2.1c1.2-0.3,2.9-1.7,2.9-2.5c0-1.1-1.4-3-2.4-3.2c-5.2-1-10.4-1.6-16-2.4c0.4-2.1,0.8-5.1,1.5-8
		c0.2-0.7,1.7-1.5,2.6-1.6c7.8-0.9,15.2,0.1,21.8,4.6c4.8,3.3,7.2,8,6,13.9c-1.2,5.7-5.7,7.8-10.8,8.9
		C111.4,227.2,108.4,227.8,104.4,228.6z"/>
	<path id="XMLID_91_" d="M64.1,224.7c2,2.2,3.2,3.6,4.5,5c-0.1,0.4-0.2,0.8-0.3,1.2c-3.8-0.6-7.8-0.6-11.2-2.1
		c-3.2-1.4-4.5-4.9-3.9-8.6c0.6-3.5,3.3-4.9,6.3-5.6c2.8-0.7,5.7-0.9,8.4-1.6c1.4-0.4,2.5-1.7,3.7-2.5c-1-1.2-1.8-3.2-2.9-3.4
		c-3.8-0.9-7.8-1.2-11.7-1.6c-1.3-0.1-2.7,0.1-4,0.2c-0.1-0.4-0.2-0.5-0.2-0.6c2.5-11.3-0.8-10.3,12.5-9.9c5.3,0.1,10.2,2,14.5,5.4
		c4.3,3.4,6,8,4.9,13.3c-1,4.8-4.7,7.2-9.2,8.3C72,222.9,68.4,223.7,64.1,224.7z"/>
	<path id="XMLID_90_" d="M101.9,252.5c-6,0.1-9.7-2.5-9.8-6.8c-0.1-4.5,2.9-7.1,8.1-7.2c6-0.1,10.1,2.8,10.1,7
		C110.3,249.8,107,252.5,101.9,252.5z"/>
	<path id="XMLID_89_" d="M60.5,234.6c6.3,0.1,9.7,2.9,9.3,7.6c-0.4,4.3-3.8,6.4-9.8,6.1c-5.5-0.3-8.5-2.8-8.4-7
		C51.7,236.9,54.9,234.5,60.5,234.6z"/>
</g>
</svg>
