<?xml version="1.0" encoding="utf-8"?>
<!-- Generator: Adobe Illustrator 19.0.0, SVG Export Plug-In . SVG Version: 6.00 Build 0)  -->
<svg version="1.1" id="basket_xA0_Image_1_" xmlns="http://www.w3.org/2000/svg" xmlns:xlink="http://www.w3.org/1999/xlink"
	 x="0px" y="0px" viewBox="0 0 280 280" style="enable-background:new 0 0 280 280;" xml:space="preserve">
<style type="text/css">
	.st0{fill:#FFFFFF;}
</style>
<g>
	<path d="M281,38c0,14,0,28,0,42c-2.2,6.4-5.4,12.7-6.5,19.4c-3.1,19.2-5.3,38.6-8,57.9c-1.5,10.4-9.1,16.1-19.7,15.2
		c-3.6-0.3-7.3-0.4-11-0.4c-45.6-0.1-91.3-0.1-136.9-0.1c-1.7,0-3.6-0.3-4.9,0.4c-2.1,1.1-4.8,2.7-5.2,4.5c-0.5,2.1,0.4,5.9,2.1,7
		c3.1,2.1,7.2,3.8,10.8,3.8c33.2,0.2,66.3,0.1,99.5,0c10.8,0,21.7-0.4,32.5-0.3c6.7,0.1,12.7,1.8,16.5,8.4c3.2,5.7,2.5,10.8-0.8,16
		c-3.6,5.5-9.4,7-15.2,7c-50.8,0.2-101.6,0.1-152.4,0.1c-11,0-17.2-5.1-19-15.8c-4-23.6-7.9-47.3-11.6-70.9
		c-4.6-29.4-8.9-58.9-13.3-88.4c-1.1-7.4-4.6-11-12-10.5c-7.9,0.6-14.8-1-21.4-5.1c-0.9-0.6-2.2-0.7-3.3-1C1,18.3,1,9.7,1,1
		c19,0,38,0,57,0c0.7,2.4,1.4,4.7,2.1,7.1c1.2,3.9,2.9,7.8,3.4,11.7c1.2,9.4,4.3,12.4,14,12.4c58.1,0,116.1,0.1,174.2-0.3
		C262.1,31.8,271.8,33.1,281,38z M222.2,64c0,0,0-0.1,0-0.1c-6.2,0-12.3,0-18.5,0c-6.1,0-9.3,2.8-9.7,8.9c-0.2,4.2-0.2,8.3,0,12.5
		c0.3,5.5,3.1,8.3,8.6,8.4c11.3,0.1,22.6,0.1,34,0c5.1,0,8.7-2.7,10-7.5c1.2-4.3,1.9-8.8,2.3-13.3c0.5-5.9-2.3-8.8-8.1-8.9
		C234.6,63.9,228.4,64,222.2,64z M218.6,110c0,0.1,0,0.1,0,0.2c-3.3,0-6.7,0-10,0c-1.5,0-3-0.1-4.5-0.2c-6.2-0.2-9,1.9-9.7,8.2
		c-0.5,4.6-0.4,9.3-0.2,14c0.2,6.2,3.3,8.9,9.6,8.8c7.8-0.1,15.6,0,23.4-0.1c2.5-0.1,5.2-0.2,7.3-1.2c2-1,4.5-3,5-5
		c1.4-5.6,2.2-11.4,2.4-17.2c0.2-5.3-2.5-7.4-7.9-7.4C228.9,109.9,223.7,110,218.6,110z M95.5,63.9C95.5,63.9,95.5,63.9,95.5,63.9
		c-5.5,0.1-11-0.3-16.4,0.2c-2.4,0.3-5.5,1.9-6.7,3.9c-2.6,4.2,0.6,19.8,4.5,23c1.9,1.5,4.8,2.5,7.2,2.6c9.1,0.3,18.3,0.3,27.4,0.1
		c5.9-0.1,8.7-3.1,8.8-9.1c0.1-3.3,0-6.6,0.2-10c0.3-7-3-10.6-10-10.7C105.5,63.8,100.5,63.9,95.5,63.9z M157.1,110.5
		c0-0.1,0-0.3,0-0.4c-4,0-8-0.2-12,0c-6.6,0.4-9,2.7-9.3,9.3c-0.2,4.2,0.1,8.3,0,12.5c-0.2,4.9,2.1,8,6.8,8.2
		c10.1,0.3,20.2,0.2,30.3-0.1c3.6-0.1,5.8-2.7,5.9-6.3c0.2-5.3,0.3-10.7,0-16c-0.2-4.3-2.5-7.2-7.3-7.3
		C166.7,110.5,161.9,110.5,157.1,110.5z M157.6,64.1c-4.3,0-8.7-0.3-13,0.1c-6.8,0.5-9.4,3.7-9.1,10.5c0.1,3.2,0.1,6.3,0.1,9.5
		c0.1,6.1,2.1,9,8.1,9.2c9.3,0.4,18.6,0.2,27.9,0c4.9-0.1,7.1-3.3,7.3-7.8c0.2-4.3,0.2-8.7,0-13c-0.2-5.6-2.8-8.2-8.4-8.4
		C166.3,63.9,162,64.1,157.6,64.1z M120.2,126.6c0-2,0.1-4,0-6c-0.4-8.5-3.1-10.9-11.5-10.7c-7,0.1-14,0.1-21,0.1
		c-6.5,0-8.9,2.1-8.7,8.6c0.2,3.9,1.2,7.9,1.9,11.8c1.4,7.7,5.3,10.8,13.1,10.5c3.6-0.2,7.3-0.7,10.9-0.5
		C118.8,141.2,119.9,140.3,120.2,126.6z"/>
	<path class="st0" d="M1,27c1.1,0.3,2.4,0.4,3.3,1c6.5,4.2,13.5,5.7,21.4,5.1c7.4-0.5,10.9,3.1,12,10.5c4.5,29.5,8.8,59,13.3,88.4
		c3.7,23.7,7.6,47.3,11.6,70.9c1.8,10.7,8,15.8,19,15.8c50.8,0.1,101.6,0.1,152.4-0.1c5.9,0,11.6-1.5,15.2-7c3.3-5.1,4-10.3,0.8-16
		c-3.7-6.6-9.8-8.3-16.5-8.4c-10.8-0.1-21.6,0.3-32.5,0.3c-33.2,0.1-66.3,0.3-99.5,0c-3.7,0-7.7-1.8-10.8-3.8
		c-1.6-1.1-2.6-4.8-2.1-7c0.4-1.9,3.2-3.4,5.2-4.5c1.3-0.7,3.3-0.4,4.9-0.4c45.6,0,91.3,0,136.9,0.1c3.7,0,7.3,0.1,11,0.4
		c10.6,0.9,18.2-4.8,19.7-15.2c2.7-19.3,4.9-38.7,8-57.9c1.1-6.6,4.3-12.9,6.5-19.4c0,67,0,134,0,201c-13.3,0-26.7,0-40,0
		c1.8-2.8,3.3-5.7,5.4-8.2c8.3-9.7,7.6-24.2-1.7-32.4c-6.1-5.3-13-9.2-21.3-5.5c-18.3,8.1-18.8,29.6-8.3,39.2
		c1.8,1.7,2.6,4.5,3.9,6.9c-36,0-72,0-108,0c1.8-3.3,3.2-6.8,5.5-9.7c6.5-8.6,6.4-21.4-1.1-29.3c-7.6-8-16.5-12-27.7-4.1
		c-11.6,8.3-14.2,24-4.8,34.7c2.1,2.4,3.4,5.6,5.1,8.4c-29,0-57.9,0-87,0C1,196.3,1,111.7,1,27z"/>
	<path class="st0" d="M281,38c-9.2-4.9-18.9-6.2-29.3-6.1c-58.1,0.4-116.1,0.3-174.2,0.3c-9.7,0-12.7-3-14-12.4
		c-0.5-4-2.3-7.8-3.4-11.7C59.4,5.7,58.7,3.4,58,1c74.3,0,148.7,0,223,0C281,13.3,281,25.7,281,38z"/>
	<path d="M88,281c-1.7-2.8-3-6-5.1-8.4c-9.4-10.7-6.8-26.4,4.8-34.7c11.2-8,20.1-3.9,27.7,4.1c7.5,7.9,7.6,20.8,1.1,29.3
		c-2.2,2.9-3.7,6.5-5.5,9.7C103.3,281,95.7,281,88,281z"/>
	<path d="M219,281c-1.3-2.3-2-5.2-3.9-6.9c-10.5-9.6-10-31.2,8.3-39.2c8.3-3.7,15.2,0.2,21.3,5.5c9.4,8.1,10,22.6,1.7,32.4
		c-2.1,2.5-3.6,5.5-5.4,8.2C233.7,281,226.3,281,219,281z"/>
	<path class="st0" d="M222.2,64c6.2,0,12.3-0.1,18.5,0c5.9,0.1,8.6,3,8.1,8.9c-0.4,4.5-1.1,8.9-2.3,13.3c-1.3,4.8-4.9,7.5-10,7.5
		c-11.3,0.1-22.6,0.1-34,0c-5.4-0.1-8.3-2.9-8.6-8.4c-0.2-4.2-0.2-8.3,0-12.5c0.3-6.1,3.6-8.9,9.7-8.9c6.2,0,12.3,0,18.5,0
		C222.2,63.9,222.2,64,222.2,64z"/>
	<path class="st0" d="M218.6,110c5.2,0,10.3,0,15.5,0c5.4,0,8.1,2.1,7.9,7.4c-0.2,5.8-1.1,11.6-2.4,17.2c-0.5,2-3,4-5,5
		c-2.1,1-4.8,1.2-7.3,1.2c-7.8,0.2-15.6,0.1-23.4,0.1c-6.3,0.1-9.4-2.6-9.6-8.8c-0.2-4.6-0.3-9.3,0.2-14c0.7-6.3,3.5-8.3,9.7-8.2
		c1.5,0,3,0.2,4.5,0.2c3.3,0,6.7,0,10,0C218.6,110.1,218.6,110,218.6,110z"/>
	<path class="st0" d="M95.5,63.9c5,0,10-0.1,14.9,0c7,0.1,10.3,3.7,10,10.7c-0.1,3.3-0.1,6.6-0.2,10c-0.2,6-2.9,9-8.8,9.1
		c-9.1,0.2-18.3,0.2-27.4-0.1c-2.5-0.1-5.3-1.1-7.2-2.6c-3.9-3.2-7.1-18.8-4.5-23c1.2-2,4.3-3.6,6.7-3.9C84.5,63.6,90,64,95.5,63.9
		C95.5,63.9,95.5,63.9,95.5,63.9z"/>
	<path class="st0" d="M157.1,110.5c4.8,0,9.6,0,14.5,0c4.7,0.1,7,3,7.3,7.3c0.3,5.3,0.2,10.6,0,16c-0.1,3.6-2.3,6.2-5.9,6.3
		c-10.1,0.3-20.2,0.4-30.3,0.1c-4.6-0.2-6.9-3.3-6.8-8.2c0.1-4.2-0.2-8.3,0-12.5c0.3-6.6,2.6-8.9,9.3-9.3c4-0.2,8,0,12,0
		C157.1,110.3,157.1,110.4,157.1,110.5z"/>
	<path class="st0" d="M157.6,64.1c4.3,0,8.7-0.2,13,0c5.6,0.3,8.2,2.9,8.4,8.4c0.2,4.3,0.2,8.7,0,13c-0.2,4.6-2.4,7.7-7.3,7.8
		c-9.3,0.2-18.6,0.4-27.9,0c-6-0.3-8-3.2-8.1-9.2c0-3.2,0-6.3-0.1-9.5c-0.3-6.8,2.3-10,9.1-10.5C149,63.8,153.3,64.1,157.6,64.1z"/>
	<path class="st0" d="M120.2,126.6c-0.3,13.6-1.4,14.6-15.2,13.8c-3.6-0.2-7.3,0.3-10.9,0.5c-7.8,0.4-11.7-2.7-13.1-10.5
		c-0.7-3.9-1.7-7.8-1.9-11.8c-0.3-6.5,2.2-8.6,8.7-8.6c7,0,14,0.1,21-0.1c8.4-0.2,11.1,2.2,11.5,10.7
		C120.3,122.6,120.2,124.6,120.2,126.6z"/>
</g>
</svg>
