<?xml version="1.0" encoding="utf-8"?>
<!-- Generator: Adobe Illustrator 19.0.0, SVG Export Plug-In . SVG Version: 6.00 Build 0)  -->
<svg version="1.1" id="Layer_1" xmlns="http://www.w3.org/2000/svg" xmlns:xlink="http://www.w3.org/1999/xlink" x="0px" y="0px"
	 viewBox="0 0 300 300" style="enable-background:new 0 0 300 300;" xml:space="preserve">
<style type="text/css">
	.st0{fill:#FFFFFF;}
</style>
<g id="XMLID_1_">
	<path id="XMLID_40_" class="st0" d="M0.6,169.7c0-56.3,0-112.6,0-169.1c64,0,128,0,191.9,0c-1.9,0.2-3.7,0.3-5.6,0.6
		c-7.8,1.5-15.6,2.7-23.2,4.7c-15.5,4.2-29.9,10.5-41.4,22.4c-12.6,13.2-12.8,31.2,0,44.5c7.3,7.7,16.2,13.1,26,17.1
		c16.5,6.8,33.9,10,51.7,10.6c6.9,0.2,13.8-0.2,20.6-0.6c4.3-0.2,8.7-0.4,12.9-1.3c10-2,19.9-4.2,29.4-8c8.9-3.6,17.1-8.2,24.3-14.4
		c6.3-5.4,10.5-12.2,12.9-20.2c0,4.7,0,9.4,0,14c-0.9-1-1.3-0.6-1.7,0.5c-1.1,2.7-2.1,5.6-3.6,8c-6.1,9.5-15.1,15.8-25,20.7
		c-10,4.9-20.4,8.5-31.5,10c-7.7,1.1-15.4,2.4-23.1,2.8c-7.9,0.4-15.9,0-23.9-0.5c-6.4-0.4-12.8-1.1-19.1-2.5
		c-11.5-2.6-22.8-6.1-33.2-12c-8.3-4.7-15.7-10.5-20.9-18.6c-1.8-2.8-3-6.1-4.7-9.8c-0.2,1.7-0.5,2.8-0.5,4c0,6,0,12.1,0,18.1
		c0,0.9,0.2,1.9,0.4,2.8c1.1,6.4,4.5,11.5,8.7,16.2c3.2,3.5,6.4,6.7,11.6,7.8c12.7,2.7,24.9,7.2,36.2,13.9c2.3,1.4,4.5,3.5,6.9,3.9
		c7.2,1.2,14.5,2.1,21.7,2.4c7,0.3,14-0.2,20.9-0.5c4.7-0.2,9.5-0.4,14.1-1.3c10-2,19.9-4.2,29.5-8c8.9-3.6,17.1-8.2,24.3-14.4
		c6.3-5.4,10.5-12.2,12.9-20.2c0,4.7,0,9.4,0,14c-0.9-1-1.3-0.6-1.7,0.5c-1.1,2.7-2.1,5.6-3.6,8c-6.1,9.5-15.1,15.8-25,20.7
		c-16.3,8-33.9,11.7-51.9,12.9c-7.6,0.5-15.2,0.1-22.8,0.1c-1.4,0-2.8-0.3-4-0.4c2.2,4.4,4.6,8.3,6.2,12.5c1.6,4.3,2.4,8.9,3.6,13.9
		c5.8-0.3,11.9-0.5,18-0.9c4.8-0.3,9.7-0.4,14.4-1.3c10.1-1.9,20.1-4.2,29.7-8c8.9-3.5,17.1-8.2,24.3-14.4
		c6.3-5.4,10.5-12.2,12.9-20.2c0,4.7,0,9.4,0,14c-1.3-1.4-1.3,0-1.8,0.7c-2.3,4.1-4.1,8.7-7.1,12.3c-6.7,8.2-15.6,13.6-25.2,17.8
		c-17.4,7.6-35.6,11.1-54.4,11.3c-3.8,0-7.5,0-11.4,0c0,8.7,0,17.1,0,26c6.3-0.3,12.4-0.5,18.5-0.9c4.9-0.3,9.9-0.2,14.7-1.3
		c10-2.3,20-4.9,29.7-8.2c9-3,16.9-8,24.1-14.2c6.3-5.4,10.5-12.2,12.9-20.2c0,4.7,0,9.4,0,14c-1.3-1.4-1.3,0-1.8,0.7
		c-2.3,4.1-4.1,8.7-7.1,12.3c-6.7,8.2-15.6,13.6-25.2,17.8c-17.4,7.6-35.6,11.1-54.4,11.3c-3.8,0-7.5,0-11.4,0c0,8.7,0,17.1,0,26
		c6.3-0.3,12.4-0.5,18.5-0.9c4.9-0.3,9.9-0.2,14.7-1.3c10-2.3,20-4.9,29.7-8.2c9-3,16.9-8,24.1-14.2c6.3-5.4,10.5-12.2,12.9-20.2
		c0,31.6,0,63.2,0,94.8c-99.9,0-199.7,0-299.6,0c0-15,0-30,0-45.1c0.2,0.2,0.5,0.4,0.5,0.6c1.2,6.2,4.4,11.3,8.6,15.9
		C18.6,282,30,287.5,42.1,292c12.7,4.7,26,7.3,39.4,8c10.7,0.6,21.6,0.3,32.3-0.6c7.8-0.7,15.6-2.5,23.3-4.6
		c15.9-4.3,30.8-10.7,42.2-23.3c5.3-5.8,8.7-12.5,8.6-20.7c-0.1-5.4,0-10.7,0-16.1c0-1.1-0.3-2.2-0.4-3.3c-0.8,0.7-1.1,1.3-1.3,2
		c-2.2,6.3-5.9,11.7-10.7,16.1c-7.7,7.1-16.8,12.1-26.5,15.8c-15.7,6-32.1,8.7-48.8,9.5c-10.9,0.5-21.8-0.5-32.6-2.2
		c-15.6-2.5-30.5-7-44.1-15.3c-6.5-4-12.5-8.7-16.6-15.2c-1.9-2.9-3.1-6.3-4.5-9.5c-0.5-1-0.8-1.5-1.7-0.5c0-4.7,0-9.4,0-14
		c0.2,0.2,0.5,0.4,0.5,0.6c1.2,6.2,4.4,11.3,8.6,15.9c8.9,9.7,20.3,15.3,32.3,19.8c12.7,4.7,26,7.3,39.4,8
		c10.7,0.6,21.6,0.3,32.3-0.6c7.8-0.7,15.6-2.5,23.3-4.6c15.9-4.3,30.8-10.7,42.2-23.3c5.3-5.8,8.7-12.5,8.6-20.7
		c-0.1-5.4,0-10.7,0-16.1c0-1.1-0.3-2.2-0.4-3.3c-0.8,0.7-1.1,1.3-1.3,2c-2.2,6.3-5.9,11.7-10.7,16.1c-7.7,7.1-16.8,12.1-26.5,15.8
		c-15.7,6-32.1,8.7-48.8,9.5c-10.9,0.5-21.8-0.5-32.6-2.2c-15.6-2.5-30.5-7-44.1-15.3c-6.5-4-12.5-8.7-16.6-15.2
		c-1.9-2.9-3.1-6.3-4.5-9.5c-0.5-1-0.8-1.5-1.7-0.5c0-4.7,0-9.4,0-14c0.8,2.3,1.5,4.6,2.6,6.8c3.8,8.1,10.1,14,17.4,18.9
		c10.7,7.1,22.5,11.8,35,14.6c7.8,1.7,15.8,3.1,23.8,3.5c11.5,0.6,23.1,0.7,34.6-0.1c7.8-0.5,15.6-2.5,23.3-4.6
		c15.5-4.2,30-10.5,41.4-22.4c12.5-13.1,12.7-31,0-44.4c-7.4-7.8-16.4-13.2-26.2-17.3c-16.3-6.7-33.4-9.8-50.9-10.5
		c-6.7-0.3-13.4,0.2-20.1,0.5c-4.7,0.2-9.5,0.2-14.1,1.3c-10,2.4-20,5-29.7,8.2c-9,3-16.9,8-24.1,14.2C7.2,154.9,3,161.7,0.6,169.7z
		"/>
	<path id="XMLID_39_" d="M300.2,56.2c-2.4,8-6.6,14.8-12.9,20.2c-7.2,6.2-15.4,10.8-24.3,14.4c-9.5,3.8-19.5,6-29.4,8
		c-4.2,0.8-8.6,1-12.9,1.3c-6.9,0.3-13.8,0.8-20.6,0.6c-17.8-0.6-35.1-3.8-51.7-10.6c-9.8-4-18.6-9.4-26-17.1
		c-12.7-13.4-12.6-31.4,0-44.5c11.4-11.9,25.9-18.2,41.4-22.4c7.6-2.1,15.5-3.2,23.2-4.7c1.8-0.4,3.7-0.4,5.6-0.6
		c9.4,0,18.7,0,28.1,0c0.5,0.2,1,0.5,1.5,0.6c4.1,0.4,8.3,0.5,12.3,1.3C248.5,5,262.3,9,274.9,16c7.2,4,13.9,8.8,18.5,15.7
		c2.7,4.1,4.5,8.8,6.7,13.3C300.2,48.8,300.2,52.5,300.2,56.2z"/>
	<path id="XMLID_38_" d="M0.6,169.7c2.4-8,6.6-14.8,12.9-20.2c7.2-6.2,15.1-11.2,24.1-14.2c9.7-3.2,19.7-5.8,29.7-8.2
		c4.5-1.1,9.4-1.1,14.1-1.3c6.7-0.3,13.4-0.8,20.1-0.5c17.5,0.7,34.6,3.8,50.9,10.5c9.8,4.1,18.8,9.5,26.2,17.3
		c12.6,13.3,12.5,31.2,0,44.4c-11.4,12-25.9,18.2-41.4,22.4c-7.6,2.1-15.4,4-23.3,4.6c-11.5,0.8-23.1,0.7-34.6,0.1
		c-8-0.4-16-1.8-23.8-3.5c-12.5-2.8-24.3-7.5-35-14.6c-7.3-4.9-13.6-10.8-17.4-18.9c-1-2.2-1.7-4.5-2.6-6.8
		C0.6,177.1,0.6,173.4,0.6,169.7z"/>
	<path id="XMLID_37_" d="M0.6,194.9c0.9-1,1.3-0.6,1.7,0.5c1.4,3.2,2.7,6.6,4.5,9.5c4.2,6.5,10.1,11.2,16.6,15.2
		c13.6,8.2,28.4,12.8,44.1,15.3c10.8,1.7,21.7,2.7,32.6,2.2c16.7-0.8,33.1-3.5,48.8-9.5c9.7-3.7,18.8-8.6,26.5-15.8
		c4.8-4.5,8.5-9.8,10.7-16.1c0.2-0.7,0.5-1.4,1.3-2c0.2,1.1,0.4,2.2,0.4,3.3c0,5.4,0,10.7,0,16.1c0.1,8.2-3.3,14.9-8.6,20.7
		c-11.4,12.6-26.3,19-42.2,23.3c-7.6,2.1-15.4,3.9-23.3,4.6c-10.7,0.9-21.6,1.2-32.3,0.6c-13.5-0.7-26.7-3.3-39.4-8
		c-12-4.5-23.4-10-32.3-19.8c-4.2-4.6-7.4-9.7-8.6-15.9c0-0.2-0.4-0.4-0.5-0.6C0.6,210.5,0.6,202.7,0.6,194.9z"/>
	<path id="XMLID_36_" d="M0.6,232.3c0.9-1,1.3-0.6,1.7,0.5c1.4,3.2,2.7,6.6,4.5,9.5c4.2,6.5,10.1,11.2,16.6,15.2
		c13.6,8.2,28.4,12.8,44.1,15.3c10.8,1.7,21.7,2.7,32.6,2.2c16.7-0.8,33.1-3.5,48.8-9.5c9.7-3.7,18.8-8.6,26.5-15.8
		c4.8-4.5,8.5-9.8,10.7-16.1c0.2-0.7,0.5-1.4,1.3-2c0.2,1.1,0.4,2.2,0.4,3.3c0,5.4,0,10.7,0,16.1c0.1,8.2-3.3,14.9-8.6,20.7
		c-11.4,12.6-26.3,19-42.2,23.3c-7.6,2.1-15.4,3.9-23.3,4.6c-10.7,0.9-21.6,1.2-32.3,0.6c-13.5-0.7-26.7-3.3-39.4-8
		c-12-4.5-23.4-10-32.3-19.8c-4.2-4.6-7.4-9.7-8.6-15.9c0-0.2-0.4-0.4-0.5-0.6C0.6,247.9,0.6,240.1,0.6,232.3z"/>
	<path id="XMLID_35_" d="M300.2,93.6c-2.4,8-6.6,14.8-12.9,20.2c-7.3,6.2-15.4,10.8-24.3,14.4c-9.5,3.8-19.5,6.1-29.5,8
		c-4.6,0.9-9.4,1-14.1,1.3c-7,0.3-14,0.8-20.9,0.5c-7.3-0.3-14.6-1.2-21.7-2.4c-2.5-0.4-4.7-2.5-6.9-3.9
		c-11.3-6.7-23.4-11.2-36.2-13.9c-5.2-1.1-8.5-4.3-11.6-7.8c-4.2-4.6-7.6-9.8-8.7-16.2c-0.2-0.9-0.4-1.9-0.4-2.8c0-6,0-12.1,0-18.1
		c0-1.1,0.3-2.2,0.5-4c1.8,3.7,2.9,7,4.7,9.8c5.3,8,12.6,13.8,20.9,18.6c10.4,5.9,21.6,9.5,33.2,12c6.2,1.4,12.7,2.1,19.1,2.5
		c7.9,0.5,15.9,0.9,23.9,0.5c7.7-0.4,15.4-1.7,23.1-2.8c11-1.6,21.5-5.2,31.5-10c9.9-4.9,18.9-11.2,25-20.7c1.6-2.4,2.5-5.3,3.6-8
		c0.4-1.1,0.8-1.5,1.7-0.5C300.2,78,300.2,85.8,300.2,93.6z"/>
	<path id="XMLID_34_" d="M300.2,131.1c-2.4,8-6.6,14.8-12.9,20.2c-7.3,6.2-15.4,10.8-24.3,14.4c-9.6,3.8-19.6,6.1-29.7,8
		c-4.7,0.9-9.6,1-14.4,1.3c-6.1,0.4-12.2,0.6-18,0.9c-1.2-5-2-9.6-3.6-13.9c-1.6-4.2-4-8.2-6.2-12.5c1.2,0.1,2.6,0.4,4,0.4
		c7.6,0,15.2,0.4,22.8-0.1c18.1-1.2,35.6-4.9,51.9-12.9c9.9-4.9,18.9-11.2,25-20.7c1.6-2.4,2.5-5.3,3.6-8c0.4-1.1,0.8-1.5,1.7-0.5
		C300.2,115.5,300.2,123.3,300.2,131.1z"/>
	<path id="XMLID_33_" d="M300.2,168.5c-2.4,8-6.6,14.8-12.9,20.2c-7.2,6.2-15.1,11.2-24.1,14.2c-9.7,3.2-19.7,5.8-29.7,8.2
		c-4.7,1.1-9.8,1-14.7,1.3c-6.1,0.4-12.2,0.6-18.5,0.9c0-8.9,0-17.3,0-26c3.8,0,7.6,0,11.4,0c18.9-0.2,37.1-3.8,54.4-11.3
		c9.6-4.2,18.5-9.6,25.2-17.8c3-3.6,4.8-8.1,7.1-12.3c0.4-0.8,0.5-2.1,1.8-0.7C300.2,152.9,300.2,160.7,300.2,168.5z"/>
	<path id="XMLID_32_" d="M300.2,206c-2.4,8-6.6,14.8-12.9,20.2c-7.2,6.2-15.1,11.2-24.1,14.2c-9.7,3.2-19.7,5.8-29.7,8.2
		c-4.7,1.1-9.8,1-14.7,1.3c-6.1,0.4-12.2,0.6-18.5,0.9c0-8.9,0-17.3,0-26c3.8,0,7.6,0,11.4,0c18.9-0.2,37.1-3.8,54.4-11.3
		c9.6-4.2,18.5-9.6,25.2-17.8c3-3.6,4.8-8.1,7.1-12.3c0.4-0.8,0.5-2.1,1.8-0.7C300.2,190.4,300.2,198.2,300.2,206z"/>
	<path id="XMLID_31_" class="st0" d="M300.2,45.1c-2.2-4.5-4-9.2-6.7-13.3c-4.6-6.9-11.3-11.7-18.5-15.7C262.3,9,248.5,5,234.4,2.4
		c-4.1-0.7-8.2-0.8-12.3-1.3c-0.5-0.1-1-0.4-1.5-0.6c26.5,0,53.1,0,79.6,0C300.2,15.4,300.2,30.2,300.2,45.1z"/>
</g>
</svg>
