<?xml version="1.0" encoding="utf-8"?>
<!-- Generator: Adobe Illustrator 19.0.0, SVG Export Plug-In . SVG Version: 6.00 Build 0)  -->
<svg version="1.1" id="Layer_1" xmlns="http://www.w3.org/2000/svg" xmlns:xlink="http://www.w3.org/1999/xlink" x="0px" y="0px"
	 viewBox="0 0 220 220" style="enable-background:new 0 0 220 220;" xml:space="preserve">
<style type="text/css">
	.st0{fill:#FFFFFF;}
</style>
<g id="XMLID_2_">
	<path id="XMLID_47_" d="M0.9,201.1c0-36.7,0-73.3,0-110c3.7-4.5,7-9.5,11.2-13.5c7.8-7.4,15.7-14.7,24.2-21.3
		c23.9-18.7,48-37,72.1-55.5c1.7,0,3.4,0,5.2,0c1.3,0.9,2.6,1.7,3.9,2.6c23.9,18.5,47.9,36.8,71.5,55.6c11.8,9.4,23.8,18.9,32,32
		c0,36.7,0,73.3,0,110c-2,3.6-3.4,8-6.3,10.8c-3.9,3.7-8.9,6.1-13.5,9c-60.2,0-120.3,0-180.5,0c-3.6-2-8-3.4-10.8-6.3
		C6.2,210.7,3.8,205.6,0.9,201.1z M43.2,106.8c-11.4-4.5-22.1-8.7-32.9-12.9c-0.1,0.2-0.2,0.4-0.3,0.6c21,16.4,41.9,32.7,63.1,49.2
		c-16.9,17.3-33.5,34.4-50.2,51.4C43,181.9,62.5,168,81.8,154c2.4-1.7,4-1.8,6.3-0.1c6.5,4.5,13.2,8.5,19.7,13
		c2.3,1.6,3.8,1.5,6.1-0.1c6.4-4.4,13-8.3,19.3-12.8c2.7-1.9,4.5-1.6,7.1,0.3c18.1,13.1,36.3,26,54.4,39c1.2,0.8,2.4,1.6,3.7,2.4
		c0.1-0.2,0.2-0.4,0.4-0.5c-16.7-17.1-33.3-34.1-50.2-51.5c21.2-16.6,42.2-32.9,63.2-49.3c-0.1-0.2-0.2-0.4-0.3-0.6
		c-10.8,4.3-21.6,8.5-33,13c0-15.9,0-31.1,0-46.5c-45.2,0-90,0-135.3,0C43.2,75.8,43.2,91,43.2,106.8z"/>
	<path id="XMLID_46_" class="st0" d="M108.3,0.9c-24,18.5-48.2,36.8-72.1,55.5C27.8,63,19.8,70.2,12,77.6c-4.2,4-7.5,8.9-11.2,13.5
		c0-30,0-60,0-90.2C36.7,0.9,72.5,0.9,108.3,0.9z"/>
	<path id="XMLID_45_" class="st0" d="M220.9,91.1c-8.3-13.1-20.2-22.6-32-32C165.2,40.3,141.2,22,117.3,3.5c-1.2-1-2.6-1.8-3.9-2.6
		c35.8,0,71.6,0,107.4,0C220.9,30.9,220.9,61,220.9,91.1z"/>
	<path id="XMLID_44_" class="st0" d="M0.9,201.1c2.9,4.5,5.3,9.6,9,13.5c2.7,2.9,7.1,4.2,10.8,6.3c-6.6,0-13.2,0-19.8,0
		C0.9,214.3,0.9,207.7,0.9,201.1z"/>
	<path id="XMLID_43_" class="st0" d="M201.1,220.9c4.5-2.9,9.6-5.3,13.5-9c2.9-2.7,4.2-7.1,6.3-10.8c0,6.6,0,13.2,0,19.8
		C214.3,220.9,207.7,220.9,201.1,220.9z"/>
	<path id="XMLID_39_" class="st0" d="M43.2,106.8c0-15.8,0-31,0-46.5c45.3,0,90,0,135.3,0c0,15.4,0,30.6,0,46.5
		c11.4-4.5,22.2-8.8,33-13c0.1,0.2,0.2,0.4,0.3,0.6c-21,16.4-41.9,32.7-63.2,49.3c16.9,17.3,33.5,34.4,50.2,51.5
		c-0.1,0.2-0.2,0.4-0.4,0.5c-1.2-0.8-2.5-1.5-3.7-2.4c-18.2-13-36.4-25.9-54.4-39c-2.6-1.9-4.3-2.2-7.1-0.3
		c-6.3,4.5-13,8.4-19.3,12.8c-2.2,1.5-3.8,1.6-6.1,0.1c-6.5-4.5-13.2-8.5-19.7-13c-2.4-1.7-4-1.6-6.3,0.1
		C62.5,168,43,181.9,23,195.2c16.6-17.1,33.3-34.1,50.2-51.4C52,127.2,31,110.9,10,94.5c0.1-0.2,0.2-0.4,0.3-0.6
		C21.1,98.1,31.8,102.4,43.2,106.8z M153,77.2c-28.4,0-56.2,0-84.2,0c0,5.7,0,11,0,16.5c28.2,0,56.1,0,84.2,0
		C153,88,153,82.7,153,77.2z M127.6,119.3c0-5.8,0-11.3,0-16.7c-19.8,0-39.2,0-58.6,0c0,5.7,0,11.2,0,16.7
		C88.6,119.3,107.9,119.3,127.6,119.3z"/>
	<path id="XMLID_38_" d="M153,77.2c0,5.6,0,10.8,0,16.5c-28,0-55.9,0-84.2,0c0-5.4,0-10.8,0-16.5C96.8,77.2,124.6,77.2,153,77.2z"/>
	<path id="XMLID_37_" d="M127.6,119.3c-19.7,0-39,0-58.6,0c0-5.6,0-11,0-16.7c19.5,0,38.9,0,58.6,0
		C127.6,108,127.6,113.4,127.6,119.3z"/>
</g>
</svg>
