<?xml version="1.0" encoding="utf-8"?>
<!-- Generator: Adobe Illustrator 19.0.0, SVG Export Plug-In . SVG Version: 6.00 Build 0)  -->
<svg version="1.1" id="Layer_1" xmlns="http://www.w3.org/2000/svg" xmlns:xlink="http://www.w3.org/1999/xlink" x="0px" y="0px"
	 viewBox="0 0 50 50" style="enable-background:new 0 0 50 50;" xml:space="preserve">
<style type="text/css">
	.st0{fill:#FFFFFF;}
</style>
<g id="XMLID_1_">
	<path id="XMLID_35_" class="st0" d="M50,50c-16.7,0-33.3,0-50,0C0,33.4,0,16.7,0,0c16.7,0,33.3,0,50,0C50,16.7,50,33.4,50,50z
		 M12.4,10.9c-0.1,0-0.1,0-0.2,0c-2.6,0-5.1,0-7.7,0c-0.2,0-0.5,0-0.7,0.1c-1.1,0.2-2.1,1.3-2.1,2.5c0,1.3,0,2.5,0,3.8
		c0,0.2,0,0.4,0,0.7c0.1,1,0.4,1.9,0.9,2.8c0.9,1.7,2.1,3.1,3.6,4.3c1.7,1.3,3.6,2.2,5.7,2.9c1.6,0.5,3.1,0.8,4.8,0.8
		c0.1,0,0.1,0,0.2,0.1c0.7,0.9,1.5,1.7,2.4,2.4c0.7,0.6,1.3,1.3,1.6,2.1c0.3,0.7,0.4,1.4,0.4,2.1c0,0.7,0,1.3-0.2,1.9
		c-0.3,0.7-0.7,1.3-1.4,1.6c-0.5,0.3-1.1,0.4-1.6,0.4c-0.4,0-0.8,0-1.2,0.1c-1.3,0.2-2.4,0.7-3.4,1.7c-0.6,0.6-1,1.4-1.1,2.3
		c0,0.7,0,1.5,0,2.2c0,0.3,0.1,0.5,0.4,0.7c0.2,0.1,0.4,0.2,0.6,0.2c5,0,10,0,15,0c2.7,0,5.4,0,8,0c0.1,0,0.3,0,0.4,0
		c0.4-0.1,0.6-0.4,0.6-0.9c0-0.6,0-1.1,0-1.7c0-0.5-0.1-1-0.3-1.4c-0.3-0.7-0.7-1.3-1.3-1.7c-1-0.8-2.1-1.3-3.4-1.3
		c-0.5,0-0.9,0-1.4-0.1c-0.5-0.1-1-0.3-1.4-0.6c-0.7-0.6-1-1.4-1.1-2.2c-0.1-0.7,0-1.4,0.1-2.1c0.2-1.3,0.8-2.3,1.8-3.2
		c0.9-0.8,1.8-1.6,2.5-2.5c0,0,0.1-0.1,0.2-0.1c0.9-0.1,1.7-0.1,2.6-0.3c1.3-0.2,2.6-0.6,3.8-1.1c1.6-0.7,3.1-1.5,4.5-2.6
		c1.3-1.1,2.4-2.4,3.2-4c0.6-1.2,0.9-2.4,0.9-3.7c0-1.1,0-2.3,0-3.4c0-0.9-0.4-1.6-1.1-2.2c-0.5-0.4-1.1-0.5-1.7-0.5
		c-2.6,0-5.2,0-7.7,0c-0.1,0-0.1,0-0.2,0c0-0.1,0-0.1,0-0.2c0-0.8,0-1.6,0-2.4c0-0.6-0.1-1.3-0.4-1.8c-0.8-1.7-2.2-2.7-4.2-2.7
		c-5.3,0-10.6,0-15.9,0c-0.6,0-1.1,0.1-1.7,0.3C14,4.5,12.4,6,12.4,8.2c0,0.8,0,1.7,0,2.5C12.4,10.8,12.4,10.8,12.4,10.9z"/>
	<path id="XMLID_31_" d="M12.4,10.9c0-0.1,0-0.1,0-0.2c0-0.8,0-1.7,0-2.5C12.4,6,14,4.5,15.3,4c0.5-0.2,1.1-0.3,1.7-0.3
		c5.3,0,10.6,0,15.9,0c2,0,3.3,1,4.2,2.7c0.3,0.6,0.4,1.2,0.4,1.8c0,0.8,0,1.6,0,2.4c0,0.1,0,0.1,0,0.2c0.1,0,0.1,0,0.2,0
		c2.6,0,5.2,0,7.7,0c0.6,0,1.2,0.1,1.7,0.5c0.7,0.5,1.1,1.3,1.1,2.2c0,1.1,0,2.3,0,3.4c0,1.3-0.3,2.5-0.9,3.7
		c-0.8,1.5-1.9,2.8-3.2,4c-1.3,1.1-2.9,2-4.5,2.6c-1.2,0.5-2.5,0.9-3.8,1.1c-0.9,0.2-1.7,0.3-2.6,0.3c-0.1,0-0.1,0-0.2,0.1
		c-0.7,0.9-1.6,1.8-2.5,2.5c-1,0.8-1.6,1.9-1.8,3.2c-0.1,0.7-0.2,1.4-0.1,2.1c0.1,0.9,0.5,1.6,1.1,2.2c0.4,0.4,0.9,0.5,1.4,0.6
		c0.4,0.1,0.9,0.1,1.4,0.1c1.3,0.1,2.4,0.5,3.4,1.3c0.6,0.5,1,1,1.3,1.7c0.2,0.5,0.2,0.9,0.3,1.4c0,0.6,0,1.1,0,1.7
		c0,0.5-0.2,0.8-0.6,0.9c-0.1,0-0.2,0-0.4,0c-2.7,0-5.4,0-8,0c-5,0-10,0-15,0c-0.2,0-0.4,0-0.6-0.2c-0.2-0.2-0.4-0.4-0.4-0.7
		c0-0.7,0-1.5,0-2.2c0.1-0.9,0.4-1.7,1.1-2.3c0.9-0.9,2-1.5,3.4-1.7c0.4-0.1,0.8-0.1,1.2-0.1c0.6,0,1.1-0.1,1.6-0.4
		c0.7-0.4,1.1-0.9,1.4-1.6c0.2-0.6,0.3-1.3,0.2-1.9c0-0.7-0.1-1.4-0.4-2.1c-0.3-0.9-0.9-1.6-1.6-2.1c-0.9-0.7-1.7-1.5-2.4-2.4
		c-0.1-0.1-0.1-0.1-0.2-0.1c-1.6-0.1-3.2-0.4-4.8-0.8c-2-0.7-4-1.6-5.7-2.9c-1.5-1.2-2.8-2.6-3.6-4.3c-0.5-0.9-0.8-1.8-0.9-2.8
		c0-0.2,0-0.4,0-0.7c0-1.3,0-2.5,0-3.8c0-1.2,0.9-2.2,2.1-2.5c0.2,0,0.5-0.1,0.7-0.1c2.6,0,5.1,0,7.7,0
		C12.3,10.9,12.4,10.9,12.4,10.9z M35.4,24.8C35.4,24.8,35.4,24.8,35.4,24.8c0.5-0.1,1-0.2,1.5-0.4c1.7-0.5,3.2-1.3,4.6-2.4
		c0.9-0.7,1.7-1.5,2.3-2.5c0.5-0.8,0.8-1.7,0.8-2.6c0-0.8,0-1.5,0-2.3c0,0,0-0.1,0-0.1c-2.4,0-4.8,0-7.1,0c0,1.8-0.1,3.5-0.5,5.3
		C36.6,21.5,36.1,23.2,35.4,24.8z M14.5,24.8c-1.5-3.3-2.1-6.8-2.1-10.3c-2.4,0-4.8,0-7.1,0c0,0,0,0.1,0,0.1c0,0.9,0,1.7,0,2.6
		c0,0.1,0,0.2,0,0.3c0.1,0.7,0.3,1.3,0.7,2c0.6,1,1.4,1.8,2.3,2.5c1.6,1.3,3.4,2.1,5.4,2.7C13.9,24.7,14.2,24.7,14.5,24.8z"/>
	<path id="XMLID_30_" class="st0" d="M35.4,24.8c0.7-1.6,1.2-3.3,1.6-5c0.3-1.7,0.5-3.5,0.5-5.3c2.4,0,4.8,0,7.1,0c0,0,0,0.1,0,0.1
		c0,0.8,0,1.5,0,2.3c0,1-0.3,1.8-0.8,2.6c-0.6,1-1.4,1.8-2.3,2.5c-1.4,1.1-2.9,1.9-4.6,2.4C36.4,24.6,35.9,24.7,35.4,24.8
		C35.4,24.8,35.4,24.8,35.4,24.8z"/>
	<path id="XMLID_29_" class="st0" d="M14.5,24.8c-0.3-0.1-0.6-0.1-0.8-0.2c-2-0.5-3.8-1.3-5.4-2.7c-0.9-0.7-1.7-1.6-2.3-2.5
		c-0.4-0.6-0.6-1.2-0.7-2c0-0.1,0-0.2,0-0.3c0-0.9,0-1.7,0-2.6c0,0,0-0.1,0-0.1c2.4,0,4.7,0,7.1,0C12.4,18,13,21.5,14.5,24.8z"/>
</g>
</svg>
