<?xml version="1.0" encoding="utf-8"?>
<!-- Generator: Adobe Illustrator 19.0.0, SVG Export Plug-In . SVG Version: 6.00 Build 0)  -->
<svg version="1.1" id="Layer_1" xmlns="http://www.w3.org/2000/svg" xmlns:xlink="http://www.w3.org/1999/xlink" x="0px" y="0px"
	 viewBox="0 0 50 50" style="enable-background:new 0 0 50 50;" xml:space="preserve">
<style type="text/css">
	.st0{fill:#FFFFFF;}
</style>
<g id="XMLID_2_">
	<path id="XMLID_67_" class="st0" d="M23.2,50.2c-7.7,0-15.3,0-23,0c0-16.7,0-33.3,0-50c8.3,0,16.5,0,24.8,0
		c-0.1,0.1-0.2,0.1-0.2,0.2c-7,2.5-13.9,5-20.9,7.5C3.4,8,3.1,8.4,2.7,8.7c0.4,0.4,0.7,0.9,1.1,1.1c1.3,0.6,2.6,1.1,3.9,1.6
		c5.4,2.2,10.8,4.4,16.2,6.7c0.9,0.4,1.8,0.4,2.8,0c4.2-1.8,8.3-3.5,12.5-5.2c2.6-1.1,5.1-2.2,7.7-3.3c0.3-0.1,0.7-0.5,0.7-0.8
		c0-0.3-0.4-0.7-0.7-1c-0.2-0.2-0.5-0.2-0.7-0.3c-3.3-1.2-6.5-2.3-9.8-3.5c-3.7-1.3-7.3-2.6-11-3.9c8.3,0,16.5,0,24.8,0
		c0,16.7,0,33.3,0,50c-7.6,0-15.2,0-22.9,0c0.3-0.2,0.6-0.4,0.9-0.6c6.5-3.5,13-7,19.6-10.5c1.2-0.6,1.6-1.5,1.6-2.8
		c0-7.6,0-15.2,0-22.8c0-1.6-0.3-1.8-1.8-1.2c-6.3,2.7-12.6,5.4-19,7.9c-1.8,0.7-2.5,1.7-2.5,3.7c0.1,8.4,0,16.9,0,25.3
		c0,0.4,0.2,0.7,0.3,1.1c-0.9,0-1.8,0-2.7,0c0.1-0.5,0.4-0.9,0.4-1.4c0-8.5,0-17.1,0-25.6c0-1.3-0.5-2.1-1.7-2.6
		c-3.9-1.6-7.8-3.3-11.8-5c-2.8-1.2-5.7-2.4-8.6-3.5c-0.9-0.4-1.1-0.2-1.2,0.7c0,0.1,0,0.2,0,0.3C1.1,21.1,1,29,1.1,37
		c0,0.6,0.6,1.3,1.1,1.8c0.4,0.4,0.9,0.6,1.4,0.8C10.1,43.1,16.7,46.7,23.2,50.2z"/>
	<path id="XMLID_63_" d="M26.6,50.2c-0.1-0.4-0.3-0.7-0.3-1.1c0-8.4,0-16.9,0-25.3c0-1.9,0.7-2.9,2.5-3.7c6.4-2.6,12.6-5.3,19-7.9
		c1.5-0.6,1.8-0.4,1.8,1.2c0,7.6,0,15.2,0,22.8c0,1.3-0.4,2.2-1.6,2.8c-6.5,3.5-13.1,7-19.6,10.5c-0.3,0.2-0.6,0.4-0.9,0.6
		C27.1,50.2,26.8,50.2,26.6,50.2z M35.2,23.6c-0.1,0-0.3,0-0.5,0c-2.1,0.5-4,4-3.2,6.1c0.5,1.2,1.5,1.7,2.7,1.3
		c2.1-0.7,3.7-3.7,3.2-5.8C37.1,24.2,36.4,23.6,35.2,23.6z M42.9,29.1c-0.6,0.3-1.3,0.6-1.8,1c-1.3,1.2-2,2.7-1.9,4.5
		c0.1,1.8,1.7,2.6,3.2,1.7c1.7-1,2.5-2.6,2.6-4.6C45.1,30.3,44.2,29.3,42.9,29.1z"/>
	<path id="XMLID_58_" d="M23.2,50.2c-6.6-3.5-13.1-7.1-19.7-10.6c-0.5-0.3-1.1-0.4-1.4-0.8c-0.5-0.5-1.1-1.2-1.1-1.8
		c0-7.9,0-15.9,0-23.8c0-0.1,0-0.2,0-0.3c0.1-1,0.2-1.1,1.2-0.7c2.9,1.2,5.7,2.3,8.6,3.5c3.9,1.6,7.8,3.3,11.8,5
		c1.2,0.5,1.7,1.3,1.7,2.6c0,8.5,0,17.1,0,25.6c0,0.5-0.3,0.9-0.4,1.4C23.6,50.2,23.4,50.2,23.2,50.2z M15.6,24.1
		c0.1,2,1,3.5,2.7,4.6c1.7,1.1,3.6,0.1,3.6-2c0.1-2-0.8-3.6-2.4-4.7c-0.8-0.6-1.7-0.8-2.7-0.3C15.8,22.2,15.6,23.1,15.6,24.1z
		 M15.1,31.3C15,29.5,14.2,28,12.8,27c-0.7-0.5-1.6-0.9-2.5-0.4c-0.9,0.5-1.3,1.4-1.3,2.4c0.1,1.7,0.8,3.2,2.1,4.3
		c0.8,0.6,1.7,1,2.7,0.5C14.9,33.2,15.1,32.3,15.1,31.3z M8.7,35.8c-0.2-1.9-1-3.6-2.8-4.6c-1.4-0.7-2.7,0-2.9,1.5
		c-0.3,2,0.4,3.7,2,5c0.7,0.6,1.6,0.9,2.4,0.5C8.5,37.8,8.7,36.9,8.7,35.8z"/>
	<path id="XMLID_55_" d="M25.4,0.2c3.7,1.3,7.3,2.6,11,3.9c3.3,1.2,6.5,2.3,9.8,3.5c0.2,0.1,0.5,0.1,0.7,0.3c0.3,0.3,0.6,0.6,0.7,1
		c0,0.2-0.4,0.7-0.7,0.8c-2.6,1.1-5.1,2.2-7.7,3.3c-4.2,1.7-8.4,3.4-12.5,5.2c-1,0.4-1.9,0.4-2.8,0c-5.4-2.2-10.8-4.4-16.2-6.7
		c-1.3-0.5-2.6-1-3.9-1.6C3.4,9.6,3.1,9.1,2.7,8.7C3.1,8.4,3.4,8,3.8,7.8c7-2.5,13.9-5,20.9-7.5c0.1,0,0.2-0.1,0.2-0.2
		C25.1,0.2,25.3,0.2,25.4,0.2z M25.1,6.6c-1.1,0.3-2.2,0.5-3.2,0.9C21.5,7.7,21,8.3,21,8.7c0,0.4,0.5,1,0.9,1.2
		c2.1,0.9,4.3,0.9,6.4,0c0.4-0.2,1-0.8,0.9-1.2c0-0.5-0.5-1.1-1-1.3C27.3,7,26.2,6.9,25.1,6.6z"/>
	<path id="XMLID_54_" class="st0" d="M35.2,23.6c1.1,0,1.9,0.6,2.2,1.6c0.6,2.2-1,5.2-3.2,5.8c-1.2,0.4-2.3-0.1-2.7-1.3
		c-0.8-2,1.1-5.6,3.2-6.1C34.9,23.6,35.1,23.6,35.2,23.6z"/>
	<path id="XMLID_53_" class="st0" d="M42.9,29.1c1.3,0.2,2.2,1.2,2.1,2.6c-0.1,1.9-0.9,3.5-2.6,4.6c-1.5,1-3.1,0.1-3.2-1.7
		c-0.1-1.8,0.5-3.3,1.9-4.5C41.6,29.7,42.3,29.4,42.9,29.1z"/>
	<path id="XMLID_52_" class="st0" d="M15.6,24.1c0-1,0.3-1.9,1.2-2.4c0.9-0.5,1.8-0.3,2.7,0.3c1.6,1.2,2.5,2.7,2.4,4.7
		c-0.1,2.1-1.9,3.1-3.6,2C16.6,27.6,15.7,26.1,15.6,24.1z"/>
	<path id="XMLID_51_" class="st0" d="M15.1,31.3c0.1,1-0.2,1.9-1.1,2.4c-1,0.5-1.9,0.1-2.7-0.5c-1.4-1.1-2.1-2.6-2.1-4.3
		c0-1,0.3-1.9,1.3-2.4c0.9-0.4,1.7-0.1,2.5,0.4C14.2,28,15,29.5,15.1,31.3z"/>
	<path id="XMLID_50_" class="st0" d="M8.7,35.8c-0.1,1-0.3,1.9-1.2,2.4c-0.9,0.4-1.7,0.1-2.4-0.5c-1.6-1.3-2.3-3-2-5
		c0.2-1.5,1.5-2.2,2.9-1.5C7.8,32.3,8.5,33.9,8.7,35.8z"/>
	<path id="XMLID_49_" class="st0" d="M25.1,6.6c1.1,0.3,2.2,0.4,3.2,0.8c0.4,0.2,0.9,0.8,1,1.3c0,0.4-0.5,1-0.9,1.2
		c-2.1,0.9-4.3,0.9-6.4,0C21.5,9.7,21,9.1,21,8.7c0-0.4,0.5-1,0.9-1.2C22.9,7.1,24,6.9,25.1,6.6z"/>
</g>
</svg>
