<?xml version="1.0" encoding="utf-8"?>
<!-- Generator: Adobe Illustrator 19.0.0, SVG Export Plug-In . SVG Version: 6.00 Build 0)  -->
<svg version="1.1" id="Layer_1" xmlns="http://www.w3.org/2000/svg" xmlns:xlink="http://www.w3.org/1999/xlink" x="0px" y="0px"
	 viewBox="0 0 220 220" style="enable-background:new 0 0 220 220;" xml:space="preserve">
<style type="text/css">
	.st0{fill:#FFFFFF;}
</style>
<g>
	<path class="st0" d="M106.6,0.1c37.9,0,75.8,0,113.6,0c0,73.4,0,146.7,0,220.1c-73.4,0-146.7,0-220.1,0c0-47.3,0-94.7,0-142
		c0,0.1,0.1,0.3,0.1,0.4c0.1,1.2,0.2,2.4,0.4,3.7c0.4,3.4,1.3,6.7,2.6,10c1,2.6,2.3,5.2,3.9,7.5c1,1.5,2.1,2.9,3.3,4.3
		c1,1.2,2.3,2.2,3.4,3.3c1.3,1.2,2.7,2.2,4.2,3c0.5,0.3,0.8,0.6,0.8,1.3c0,13.2,0,26.4,0,39.6c0,0.2,0,0.4,0,0.7
		c1.2-1.5,2.4-3.1,3.5-4.6c1.1-1.5,2.3-3,3.4-4.5c1.1-1.5,2.2-3,3.3-4.5c1-1.3,1.9-2.7,2.9-4c0.8-1.1,1.6-2.1,2.4-3.2
		c0.8-1.1,1.6-2.2,2.5-3.3c0.9-1.3,1.8-2.5,2.8-3.8c1.1-1.5,2.3-3,3.4-4.5c1-1.3,1.9-2.6,2.9-3.9c0.6-0.8,1-1.6,1-2.7
		c0-12.1,0-24.3,0-36.4c0-4.1,0.3-8.3,1-12.4c0.7-4.6,1.9-9.1,3.6-13.4c1.2-3.1,2.6-6.2,4.2-9.1c1.4-2.4,2.9-4.7,4.6-7
		c1.8-2.4,3.8-4.7,6-6.7c1.3-1.2,2.6-2.2,4-3.3c1.8-1.5,3.8-2.7,5.9-3.9c1.1-0.6,2.3-1.2,3.5-1.7c1.6-0.7,3.1-1.3,4.8-1.8
		c1.5-0.5,3-0.8,4.6-1.2c1.2-0.3,2.5-0.4,3.8-0.5c0.9-0.1,1.9-0.1,2.9-0.1c11.1,0,22.2,0,33.3,0c0.2,0,0.4,0,0.7,0
		c-0.2-0.3-0.3-0.5-0.4-0.7c-1-1.3-1.9-2.6-2.9-3.9c-1-1.1-2-2.2-3.1-3.2c-1.1-1-2.3-1.8-3.4-2.6c-1.5-1.1-3.2-1.9-4.9-2.7
		c-1.1-0.5-2.3-0.9-3.5-1.2c-1.1-0.3-2.3-0.5-3.5-0.7C107.2,0.2,106.9,0.2,106.6,0.1z M197.4,219.9c0,0,0.1,0,0.1,0
		c0-0.2,0-0.5,0-0.7c0-15.8,0-31.5,0-47.3c0-0.2,0-0.3,0-0.5c0.1-0.2,0.1-0.4,0.3-0.5c0.8-0.5,1.7-1,2.5-1.6c1-0.7,2.1-1.3,2.9-2.1
		c1.6-1.4,3.1-2.9,4.6-4.5c1.8-1.9,3.3-4,4.7-6.3c1.9-3.1,3.4-6.4,4.6-9.9c1.8-5.2,2.8-10.6,2.8-16.2c0-18.2,0-36.3,0-54.5
		c0-4.3-0.5-8.6-1.5-12.8c-0.8-3.3-1.8-6.4-3.3-9.4c-0.9-1.7-1.7-3.5-2.8-5.1c-1-1.6-2.1-3.1-3.3-4.5c-1.3-1.6-2.7-3-4.2-4.5
		c-1-1-2.2-1.8-3.3-2.7c-1.7-1.3-3.5-2.3-5.4-3.2c-1.4-0.7-2.9-1.3-4.4-1.7c-1.9-0.5-3.9-0.9-5.9-1.2c-1.2-0.2-2.3-0.1-3.5-0.1
		c-28.7,0-57.4,0-86.1,0c-1.4,0-2.8,0.1-4.2,0.3c-1.2,0.1-2.4,0.4-3.6,0.6c-0.7,0.1-1.4,0.4-2.1,0.6c-1.6,0.4-3.1,1-4.6,1.8
		c-1.3,0.7-2.6,1.3-3.8,2.1c-1.7,1.2-3.3,2.4-4.7,3.8c-1.5,1.4-3,2.9-4.3,4.5c-1.4,1.8-2.6,3.7-3.8,5.7c-2,3.3-3.4,6.8-4.5,10.5
		c-1.5,5.1-2.2,10.3-2.2,15.7c0,17.5,0,35.1,0,52.6c0,2.7,0.3,5.5,0.6,8.2c0.4,3.5,1.3,7,2.5,10.3c0.9,2.4,1.8,4.7,3.1,6.9
		c0.9,1.5,1.8,3.1,2.8,4.5c0.8,1.2,1.7,2.3,2.6,3.3c0.7,0.8,1.5,1.6,2.3,2.4c1,1,2.1,1.9,3.2,2.8c0.9,0.7,1.8,1.4,2.8,2
		c1.5,0.9,3,1.8,4.6,2.6c0.9,0.5,1.8,0.8,2.8,1.1c1.6,0.5,3.2,1,4.9,1.2c1.8,0.3,3.6,0.4,5.4,0.4c22.6,0,45.3,0,67.9,0
		c0.2,0,0.3,0,0.5,0c0.2,0,0.4,0.1,0.5,0.3c0.9,1.2,1.8,2.5,2.7,3.7c1.1,1.5,2.2,3,3.3,4.5c0.9,1.3,1.8,2.6,2.7,3.8
		c1.1,1.5,2.2,3,3.3,4.5c1.2,1.7,2.4,3.4,3.6,5c1.1,1.5,2.2,3,3.3,4.5c0.9,1.3,1.8,2.6,2.7,3.8c1.1,1.5,2.2,3,3.3,4.5
		c1.2,1.7,2.4,3.4,3.6,5C194.8,216.4,196.1,218.2,197.4,219.9z"/>
	<path d="M106.6,0.1c0.3,0,0.6,0.1,1,0.1c1.2,0.2,2.3,0.4,3.5,0.7c1.2,0.3,2.4,0.7,3.5,1.2c1.7,0.7,3.4,1.5,4.9,2.7
		c1.1,0.9,2.3,1.7,3.4,2.6c1.1,1,2.1,2.1,3.1,3.2c1,1.2,2,2.6,2.9,3.9c0.1,0.2,0.2,0.4,0.4,0.7c-0.3,0-0.5,0-0.7,0
		c-11.1,0-22.2,0-33.3,0c-1,0-1.9,0-2.9,0.1c-1.3,0.1-2.5,0.3-3.8,0.5C87,16.2,85.5,16.5,84,17c-1.6,0.5-3.2,1.1-4.8,1.8
		c-1.2,0.5-2.3,1.1-3.5,1.7c-2,1.2-4.1,2.4-5.9,3.9c-1.3,1.1-2.7,2.2-4,3.3c-2.2,2.1-4.2,4.3-6,6.7c-1.7,2.2-3.2,4.5-4.6,7
		c-1.6,2.9-3,5.9-4.2,9.1c-1.6,4.4-2.8,8.8-3.6,13.4c-0.7,4.1-1,8.2-1,12.4c0,12.1,0,24.3,0,36.4c0,1.1-0.4,1.9-1,2.7
		c-1,1.3-1.9,2.6-2.9,3.9c-1.1,1.5-2.3,3-3.4,4.5c-0.9,1.3-1.8,2.5-2.8,3.8c-0.8,1.1-1.6,2.2-2.5,3.3c-0.8,1.1-1.6,2.1-2.4,3.2
		c-1,1.3-1.9,2.7-2.9,4c-1.1,1.5-2.2,3-3.3,4.5c-1.1,1.5-2.3,3-3.4,4.5c-1.1,1.5-2.2,3.1-3.5,4.6c0-0.2,0-0.4,0-0.7
		c0-13.2,0-26.4,0-39.6c0-0.7-0.3-1-0.8-1.3c-1.5-0.8-3-1.8-4.2-3c-1.2-1.1-2.4-2.1-3.4-3.3c-1.2-1.4-2.3-2.8-3.3-4.3
		c-1.6-2.3-2.8-4.9-3.9-7.5C1.9,89,1,85.7,0.6,82.3c-0.2-1.2-0.2-2.4-0.4-3.7c0-0.1-0.1-0.3-0.1-0.4c0-14.2,0-28.3,0-42.5
		c0-0.2,0.1-0.3,0.1-0.5c0.1-2.7,0.5-5.4,1.2-8c0.7-2.8,1.6-5.6,2.9-8.2c1-1.9,2.1-3.8,3.2-5.7c0.9-1.3,1.9-2.5,2.9-3.7
		c0.9-1,1.9-1.9,2.9-2.7c1.1-0.9,2.2-1.8,3.4-2.6c1.3-0.8,2.7-1.4,4-2.1c1.4-0.7,2.9-1.1,4.4-1.5c1.3-0.3,2.6-0.4,3.9-0.6
		c0.1,0,0.2,0,0.3-0.1C55,0.1,80.8,0.1,106.6,0.1z"/>
	<path class="st0" d="M29.3,0.1c-0.1,0-0.2,0.1-0.3,0.1c-1.3,0.2-2.6,0.3-3.9,0.6c-1.5,0.4-3,0.8-4.4,1.5c-1.3,0.7-2.7,1.3-4,2.1
		c-1.2,0.8-2.3,1.7-3.4,2.6c-1,0.9-2,1.8-2.9,2.7c-1,1.2-2.1,2.4-2.9,3.7c-1.2,1.8-2.2,3.7-3.2,5.7c-1.3,2.6-2.2,5.4-2.9,8.2
		c-0.6,2.6-1,5.3-1.2,8c0,0.2-0.1,0.3-0.1,0.5c0-11.9,0-23.8,0-35.6C9.8,0.1,19.5,0.1,29.3,0.1z"/>
	<path d="M197.4,219.9c-1.3-1.8-2.6-3.5-3.9-5.3c-1.2-1.7-2.4-3.4-3.6-5c-1.1-1.5-2.2-3-3.3-4.5c-0.9-1.3-1.8-2.6-2.7-3.8
		c-1.1-1.5-2.2-3-3.3-4.5c-1.2-1.7-2.4-3.4-3.6-5c-1.1-1.5-2.2-3-3.3-4.5c-0.9-1.3-1.8-2.6-2.7-3.8c-1.1-1.5-2.2-3-3.3-4.5
		c-0.9-1.2-1.8-2.5-2.7-3.7c-0.1-0.1-0.3-0.2-0.5-0.3c-0.2,0-0.3,0-0.5,0c-22.6,0-45.3,0-67.9,0c-1.8,0-3.6-0.1-5.4-0.4
		c-1.6-0.2-3.3-0.7-4.9-1.2c-1-0.3-1.9-0.7-2.8-1.1c-1.6-0.8-3.1-1.7-4.6-2.6c-1-0.6-1.9-1.3-2.8-2c-1.1-0.9-2.2-1.9-3.2-2.8
		c-0.8-0.8-1.5-1.6-2.3-2.4c-0.9-1.1-1.8-2.2-2.6-3.3c-1-1.5-1.9-3-2.8-4.5c-1.3-2.2-2.2-4.5-3.1-6.9c-1.2-3.3-2.1-6.8-2.5-10.3
		c-0.3-2.7-0.6-5.4-0.6-8.2c-0.1-17.5,0-35.1,0-52.6c0-5.3,0.7-10.6,2.2-15.7c1.1-3.7,2.5-7.2,4.5-10.5c1.2-1.9,2.4-3.9,3.8-5.7
		c1.3-1.6,2.7-3.1,4.3-4.5c1.5-1.4,3.1-2.6,4.7-3.8c1.2-0.8,2.5-1.4,3.8-2.1c1.4-0.8,3-1.4,4.6-1.8c0.7-0.2,1.4-0.4,2.1-0.6
		c1.2-0.2,2.4-0.5,3.6-0.6c1.4-0.2,2.8-0.3,4.2-0.3c28.7,0,57.4,0,86.1,0c1.2,0,2.4,0,3.5,0.1c2,0.3,4,0.7,5.9,1.2
		c1.5,0.4,3,1,4.4,1.7c1.9,0.9,3.7,1.9,5.4,3.2c1.1,0.9,2.3,1.7,3.3,2.7c1.5,1.4,2.9,2.9,4.2,4.5c1.2,1.4,2.3,3,3.3,4.5
		c1,1.6,1.9,3.4,2.8,5.1c1.5,3,2.5,6.2,3.3,9.4c1,4.2,1.5,8.5,1.5,12.8c0,18.2,0,36.3,0,54.5c0,5.5-1,10.9-2.8,16.2
		c-1.2,3.5-2.7,6.8-4.6,9.9c-1.4,2.2-2.9,4.4-4.7,6.3c-1.5,1.5-3,3-4.6,4.5c-0.9,0.8-1.9,1.4-2.9,2.1c-0.8,0.5-1.7,1-2.5,1.6
		c-0.1,0.1-0.2,0.3-0.3,0.5c0,0.2,0,0.3,0,0.5c0,15.8,0,31.5,0,47.3c0,0.2,0,0.5,0,0.7C197.4,219.9,197.4,219.9,197.4,219.9z
		 M110.8,89.9c4.9,0,9.9,0,14.9,0c0-0.2,0-0.5,0-0.7c0-2.3,0-4.5,0.1-6.8c0.1-2.9,0.5-5.8,1.6-8.5c1-2.3,2.5-4.2,4.6-5.5
		c1.2-0.7,2.6-1.3,4-1.7c2.4-0.6,4.9-0.6,7.4,0.2c1.8,0.5,3.3,1.4,4.7,2.6c1.3,1.1,2.3,2.4,2.9,4c1.2,3.2,1.2,6.4,0.2,9.6
		c-0.6,2-1.6,3.8-3.2,5.2c-0.7,0.6-1.4,1.2-2.1,1.8c-1.8,1.5-3.6,3-5.3,4.5c-1.4,1.2-2.8,2.4-4.1,3.7c-1.1,1.1-1.9,2.5-2.5,3.9
		c-1.2,2.7-1.5,5.5-1.5,8.4c0,6.8,0,13.6,0,20.5c0,0.2,0,0.4,0,0.6c5.1-0.1,10.1-0.1,15.2-0.2c0-0.3,0-0.6,0-0.8c0-4.6,0-9.2,0-13.7
		c0-4.5,2-8.1,5.5-10.8c1.5-1.2,3.1-2.4,4.6-3.6c1.2-1,2.4-2.1,3.4-3.3c1.5-1.7,2.7-3.6,3.7-5.6c1.8-3.6,2.7-7.4,3-11.3
		c0.3-5.1-0.4-10.2-2.2-15c-1-2.6-2.3-5-3.8-7.3c-1.3-1.8-2.8-3.5-4.4-5.1c-1.5-1.4-3.1-2.7-4.9-3.8c-1.2-0.7-2.5-1.4-3.8-1.8
		c-1.6-0.5-3.4-1-5.1-1.2c-3.2-0.4-6.5-0.5-9.7,0.2c-1.3,0.3-2.5,0.6-3.7,1c-0.6,0.2-1.1,0.4-1.7,0.7c-1.5,0.8-3.1,1.6-4.4,2.7
		c-1,0.9-2.1,1.7-3,2.7c-1.8,1.9-3.2,4-4.6,6.2c-2.2,3.5-3.6,7.2-4.5,11.3c-0.7,3.4-1,6.8-1.1,10.3
		C110.7,85.3,110.8,87.6,110.8,89.9z M147.5,138.8c-5.1,0-10.1,0-15.1,0c0,6.4,0,12.7,0,19c5.1,0,10.1,0,15.1,0
		C147.5,151.4,147.5,145.1,147.5,138.8z"/>
	<path class="st0" d="M110.8,89.9c0-2.3-0.1-4.6,0-6.8c0.1-3.4,0.4-6.9,1.1-10.3c0.8-4,2.3-7.8,4.5-11.3c1.4-2.2,2.9-4.3,4.6-6.2
		c0.9-1,2-1.8,3-2.7c1.3-1.1,2.9-1.9,4.4-2.7c0.5-0.3,1.1-0.5,1.7-0.7c1.2-0.4,2.5-0.7,3.7-1c3.2-0.7,6.5-0.6,9.7-0.2
		c1.7,0.2,3.4,0.7,5.1,1.2c1.3,0.4,2.6,1.1,3.8,1.8c1.8,1.1,3.4,2.3,4.9,3.8c1.6,1.5,3.1,3.2,4.4,5.1c1.6,2.3,2.9,4.7,3.8,7.3
		c1.8,4.8,2.5,9.8,2.2,15c-0.3,4-1.2,7.7-3,11.3c-1,2-2.3,3.9-3.7,5.6c-1,1.2-2.2,2.3-3.4,3.3c-1.5,1.3-3,2.4-4.6,3.6
		c-3.5,2.8-5.5,6.3-5.5,10.8c0,4.6,0,9.2,0,13.7c0,0.2,0,0.5,0,0.8c-5.1,0.1-10.1,0.1-15.2,0.2c0-0.2,0-0.4,0-0.6
		c0-6.8,0-13.6,0-20.5c0-2.9,0.3-5.7,1.5-8.4c0.6-1.4,1.4-2.8,2.5-3.9c1.3-1.3,2.7-2.5,4.1-3.7c1.8-1.5,3.5-3,5.3-4.5
		c0.7-0.6,1.4-1.2,2.1-1.8c1.6-1.4,2.6-3.2,3.2-5.2c1-3.2,1-6.4-0.2-9.6c-0.6-1.6-1.6-2.9-2.9-4c-1.4-1.2-3-2-4.7-2.6
		c-2.5-0.8-5-0.7-7.4-0.2c-1.4,0.3-2.7,1-4,1.7c-2.2,1.3-3.7,3.2-4.6,5.5c-1.1,2.7-1.5,5.6-1.6,8.5c-0.1,2.3-0.1,4.5-0.1,6.8
		c0,0.2,0,0.4,0,0.7C120.6,89.9,115.7,89.9,110.8,89.9z"/>
	<path class="st0" d="M147.5,138.8c0,6.4,0,12.7,0,19c-5.1,0-10.1,0-15.1,0c0-6.3,0-12.7,0-19C137.4,138.8,142.5,138.8,147.5,138.8z
		"/>
</g>
</svg>
