<?xml version="1.0" encoding="utf-8"?>
<!-- Generator: Adobe Illustrator 19.0.0, SVG Export Plug-In . SVG Version: 6.00 Build 0)  -->
<svg version="1.1" id="Layer_1" xmlns="http://www.w3.org/2000/svg" xmlns:xlink="http://www.w3.org/1999/xlink" x="0px" y="0px"
	 viewBox="0 0 300 300" style="enable-background:new 0 0 300 300;" xml:space="preserve">
<style type="text/css">
	.st0{fill:#3C589E;}
	.st1{fill:#FEFEFF;}
	.st2{fill:#FCFCFE;}
</style>
<g id="XMLID_2_">
	<path id="XMLID_19_" class="st0" d="M0.3,285.6c0-90.1,0-180.2,0-270.3c0.1-0.4,0.2-0.8,0.3-1.2c0.8-4.5,3.1-8,6.7-10.7
		c2.3-1.7,5-2.4,7.6-3.1c90.2,0,180.4,0,270.6,0c0.2,0.1,0.3,0.3,0.5,0.3c8.4,1.3,14.1,8.1,14.1,16.7c0,88.6,0,177.3,0,265.9
		c0,1.5-0.2,3-0.6,4.5c-2,7.7-8.5,12.6-16.5,12.6c-24.7,0-49.5,0-74.2,0c-1.3,0-1.6-0.3-1.6-1.6c0-37.7,0-75.4,0-113.1
		c0-1.3,0.3-1.6,1.6-1.6c11.9,0.1,23.9,0,35.8,0c1,0,1.6-0.1,1.7-1.3c1.8-14,3.6-28,5.4-42c0.3-2,0.6-1.9-1.7-1.9
		c-13.7,0-27.4,0-41.1,0c-1.4,0-1.7-0.4-1.7-1.7c0.1-8.8,0-17.6,0-26.4c0-2.2,0.1-4.4,0.3-6.6c0.8-8,4.5-12.9,11.6-15
		c1.9-0.6,3.9-1,6-1.1c9-0.5,18-0.1,27-0.2c1.1,0,1.4-0.2,1.4-1.4c0-12.6,0-25.2,0-37.8c0-1.2-0.4-1.5-1.5-1.6
		c-8.7-0.9-17.5-1.2-26.2-1.4c-8-0.2-16-0.1-23.9,1.8c-15.6,3.7-27.6,12.2-34.9,26.6c-4.8,9.4-6.6,19.6-6.7,30.1c-0.1,11,0,22,0,33
		c0,1.4-0.3,1.7-1.7,1.7c-12-0.1-24.1,0-36.1-0.1c-1.2,0-1.6,0.3-1.6,1.6c0,14.1,0,28.1,0,42.2c0,1.3,0.4,1.5,1.6,1.5
		c12,0,24.1,0,36.1-0.1c1.4,0,1.7,0.3,1.7,1.7c0,37.6,0,75.2,0,112.8c0,1.6-0.4,1.8-1.9,1.8c-43.7,0-87.5,0-131.2,0
		c-3.5,0-7.1,0.1-10.6,0c-6-0.2-10.6-2.8-14-7.8C1.5,290.4,0.9,288,0.3,285.6z"/>
	<path id="XMLID_18_" class="st1" d="M0.3,285.6c0.6,2.4,1.2,4.8,2.6,6.9c3.3,5,8,7.6,14,7.8c3.5,0.1,7.1,0,10.6,0
		c43.7,0,87.5,0,131.2,0c1.5,0,1.9-0.3,1.9-1.8c-0.1-37.6,0-75.2,0-112.8c0-1.4-0.3-1.7-1.7-1.7c-12,0.1-24.1,0-36.1,0.1
		c-1.2,0-1.6-0.2-1.6-1.5c0.1-14.1,0-28.1,0-42.2c0-1.2,0.3-1.6,1.6-1.6c12,0,24.1,0,36.1,0.1c1.4,0,1.7-0.3,1.7-1.7
		c-0.1-11-0.1-22,0-33c0.1-10.5,1.9-20.6,6.7-30.1c7.4-14.5,19.3-22.9,34.9-26.6c7.9-1.9,15.9-2,23.9-1.8c8.7,0.2,17.5,0.6,26.2,1.4
		c1.1,0.1,1.5,0.4,1.5,1.6c0,12.6,0,25.2,0,37.8c0,1.1-0.3,1.4-1.4,1.4c-9,0.1-18-0.3-27,0.2c-2,0.1-4,0.5-6,1.1
		c-7.1,2.1-10.8,7-11.6,15c-0.2,2.2-0.3,4.4-0.3,6.6c0,8.8,0,17.6,0,26.4c0,1.3,0.2,1.7,1.7,1.7c13.7-0.1,27.4,0,41.1,0
		c2.3,0,2-0.1,1.7,1.9c-1.8,14-3.6,28-5.4,42c-0.2,1.3-0.7,1.3-1.7,1.3c-11.9,0-23.9,0-35.8,0c-1.3,0-1.6,0.3-1.6,1.6
		c0,37.7,0,75.4,0,113.1c0,1.3,0.4,1.6,1.6,1.6c24.7,0,49.5,0,74.2,0c8,0,14.4-4.9,16.5-12.6c0.4-1.5,0.6-2.9,0.6-4.5
		c0-88.6,0-177.3,0-265.9c0-8.6-5.8-15.4-14.1-16.7c-0.2,0-0.4-0.2-0.5-0.3c4.7,0,9.4,0,14.1,0c0.8,0,1.1,0.2,0.9,1
		c0,0.2,0,0.3,0,0.5c0,99.2,0,198.3,0,297.5c0,1.2-0.3,1.4-1.4,1.4c-99.2,0-198.3,0-297.5,0c-1.2,0-1.5-0.3-1.4-1.4
		C0.4,294.7,0.3,290.2,0.3,285.6z"/>
	<path id="XMLID_17_" class="st2" d="M15,0.3C12.3,1,9.7,1.7,7.4,3.4C3.7,6.1,1.4,9.7,0.6,14.1c-0.1,0.4-0.2,0.8-0.3,1.2
		c0-5,0-10,0-15C5.2,0.3,10.1,0.3,15,0.3z"/>
</g>
</svg>
