<?xml version="1.0" encoding="utf-8"?>
<!-- Generator: Adobe Illustrator 19.0.0, SVG Export Plug-In . SVG Version: 6.00 Build 0)  -->
<svg version="1.1" id="Layer_1" xmlns="http://www.w3.org/2000/svg" xmlns:xlink="http://www.w3.org/1999/xlink" x="0px" y="0px"
	 viewBox="0 0 617 720" style="enable-background:new 0 0 617 720;" xml:space="preserve">
<style type="text/css">
	.st0{fill:#FFFFFF;}
</style>
<g>
	<path class="st0" d="M617.3,669.3c-206,0-412,0-618,0c0-206,0-412,0-618c206,0,412,0,618,0C617.3,257.3,617.3,463.3,617.3,669.3z
		 M510.8,337.3c-0.1,0.7-0.1,1.1-0.1,1.5c-0.8,5.9-1.6,11.8-2.3,17.7c-1,7.6-1.9,15.2-2.9,22.8c-1,7.6-2,15.2-3,22.8
		c-1,7.8-2,15.6-3,23.4c-0.3,2.2-0.3,2.2-2.5,2.2c-15.7,0-31.4,0-47.1,0c-8.7,0-17.4,0-26.1,0c-1.6,0-2.1,0.5-2,2
		c0.1,2.5,0,4.9,0,7.4c0,73,0,145.9,0,218.9c0,2.3,0,2.3,1.8,2.3c50.1,0,100.1,0.1,150.2,0c11.9,0,21-5.4,27.5-15.2
		c3.8-5.8,5.1-12.3,5.1-19.2c0-175.7,0-351.4,0-527.2c0-0.5,0-0.9,0-1.4c-0.1-11.9-5.1-21.2-15-27.9c-5.9-4-12.6-5.3-19.6-5.3
		c-175.7,0-351.3,0-527,0c-1,0-2.1,0-3.1,0c-9.7,0.4-17.7,4.4-23.9,11.7c-5.3,6.3-7.6,13.6-7.6,21.8c0.1,42,0,84,0,126.1
		c0,134,0,268,0,402c0,2.6,0.1,5.3,0.5,7.8c2.7,15,16.2,26.7,32.8,26.7c94.2-0.1,188.4,0,282.6,0c2.2,0,2.2,0,2.2-2.3
		c0-75.3,0-150.7,0-226c0-2.3,0-2.3-2.4-2.3c-24.4,0-48.8,0-73.2,0c-2,0-2,0-2-2c0-28.8,0-57.6,0-86.4c0-0.6,0-1.2,0-1.9
		c0.9,0,1.7,0,2.4,0c24.4,0,48.8,0,73.2,0c2,0,2,0,2-2c0-20.8-0.1-41.6,0.1-62.4c0.1-8,0.7-16,1.5-24c1.1-11.2,4-22.1,8.3-32.6
		c10.1-24.5,27.1-42.5,51.2-53.5c14.9-6.8,30.7-10.3,47-10.7c14.1-0.4,28.2,0.2,42.3,0.6c8.7,0.3,17.3,1.1,26,1.7c3,0.2,6,0.6,9,0.9
		c0,27,0,53.8,0,80.8c-0.8,0-1.4,0-2.1,0c-14.7,0-29.5,0-44.2,0c-7.3,0-14.6,0.4-21.7,2.5c-10.5,3-18,9.2-21.4,19.9
		c-1.6,5-2.5,10.2-2.5,15.5c-0.1,20.4-0.1,40.8-0.1,61.2c0,2.1,0,2.1,2.2,2.1c28.2,0,56.3,0,84.5,0
		C509.2,337.3,509.9,337.3,510.8,337.3z"/>
	<path d="M510.8,337.3c-0.9,0-1.6,0-2.3,0c-28.2,0-56.3,0-84.5,0c-2.2,0-2.2,0-2.2-2.1c0-20.4,0-40.8,0.1-61.2
		c0-5.2,0.9-10.4,2.5-15.5c3.5-10.6,10.9-16.9,21.4-19.9c7.1-2,14.4-2.4,21.7-2.5c14.7-0.1,29.5,0,44.2,0c0.7,0,1.3,0,2.1,0
		c0-27,0-53.8,0-80.8c-3-0.3-6-0.7-9-0.9c-8.7-0.6-17.3-1.5-26-1.7c-14.1-0.4-28.2-1-42.3-0.6c-16.3,0.4-32.1,3.8-47,10.7
		c-24.2,11-41.1,29-51.2,53.5c-4.3,10.5-7.2,21.3-8.3,32.6c-0.8,8-1.4,16-1.5,24c-0.2,20.8-0.1,41.6-0.1,62.4c0,2,0,2-2,2
		c-24.4,0-48.8,0-73.2,0c-0.7,0-1.4,0-2.4,0c0,0.7,0,1.3,0,1.9c0,28.8,0,57.6,0,86.4c0,2,0,2,2,2c24.4,0,48.8,0,73.2,0
		c2.4,0,2.4,0,2.4,2.3c0,75.3,0,150.7,0,226c0,2.3,0,2.3-2.2,2.3c-94.2,0-188.4-0.1-282.6,0c-16.6,0-30.1-11.7-32.8-26.7
		c-0.5-2.6-0.5-5.2-0.5-7.8c0-134,0-268,0-402c0-42,0-84,0-126.1c0-8.2,2.3-15.5,7.6-21.8c6.2-7.4,14.2-11.4,23.9-11.7
		c1,0,2.1,0,3.1,0c175.7,0,351.3,0,527,0c7.1,0,13.7,1.3,19.6,5.3c9.9,6.6,14.8,16,15,27.9c0,0.5,0,0.9,0,1.4
		c0,175.7,0,351.4,0,527.2c0,6.9-1.3,13.4-5.1,19.2c-6.5,9.8-15.7,15.2-27.5,15.2c-50.1,0.1-100.1,0-150.2,0c-1.8,0-1.8,0-1.8-2.3
		c0-73,0-145.9,0-218.9c0-2.5,0.1-4.9,0-7.4c-0.1-1.5,0.4-2,2-2c8.7,0.1,17.4,0,26.1,0c15.7,0,31.4,0,47.1,0c2.2,0,2.2,0,2.5-2.2
		c1-7.8,2-15.6,3-23.4c1-7.6,2-15.2,3-22.8c1-7.6,1.9-15.2,2.9-22.8c0.8-5.9,1.5-11.8,2.3-17.7C510.7,338.4,510.7,338,510.8,337.3z"
		/>
</g>
</svg>
