<?xml version="1.0" encoding="utf-8"?>
<!-- Generator: Adobe Illustrator 19.0.0, SVG Export Plug-In . SVG Version: 6.00 Build 0)  -->
<svg version="1.1" id="Layer_1" xmlns="http://www.w3.org/2000/svg" xmlns:xlink="http://www.w3.org/1999/xlink" x="0px" y="0px"
	 viewBox="0 0 220 220" style="enable-background:new 0 0 220 220;" xml:space="preserve">
<style type="text/css">
	.st0{fill:#FFFFFF;}
</style>
<g>
	<path class="st0" d="M0.5,221c0-73.5,0-147,0-220.5c73.5,0,147,0,220.5,0c0,73.5,0,147,0,220.5C147.5,221,74,221,0.5,221z
		 M163.9,72.6c-5.1-2.2-9.5-5.7-15.3-5.7c-9.9,0-19.8-0.2-29.7-0.2c-2.2,0-3.8-0.9-5.5-2.2c-3.7-3-7.5-6.2-11.8-8.1
		c-14.3-6.4-32.6-6.2-45,7.7c-0.3,0.4-0.9,0.8-1.2,0.8c-2.3-0.4-2.2,1.1-2,2.5c0.2,2.2-0.8,2.7-2.8,2.2c-0.7-0.2-1.4-0.3-2-0.2
		c-2,0.2-2.6,1.5-1.8,3.4c1.4,3.5,3.5,6.9,2.4,11c-0.3,1.1-0.1,2.4-0.1,3.6c0,9,2.7,17.5,4.7,26.1c1.4,6.1,2.3,12.1,0.6,18.3
		c-0.8,2.7-1.1,5.6-1.7,8.3c-0.6,2.6,0.2,4.7,2.1,6.5c2.2,2.1,4.3,4.2,6.5,6.3c6.1,5.8,12.4,11.2,20.2,14.6
		c9.5,4.2,18.7,4.1,27.5-1.9c2.9-2,3.6-3.7,2.8-7.1c-0.2-0.8-0.4-1.5-0.6-2.2c-0.7-2.1-0.3-3.9,1.6-5.2c4.6-3.4,6.8-8.2,8.4-13.5
		c1.4-4.7,3.1-9.3,4.9-13.8c1.7-4.3,2.7-8.6,1.3-13.1c-1.5-5-1-9.6,0.9-14.3c1.2-3,1.3-6,0.3-9.1c-0.6-1.9-1.2-3.8-1.9-5.6
		c-0.9-2.6-0.8-2.8,2-2.8c6.5,0,12.9-0.3,19.3,0.1C154.1,79.6,158.7,75.7,163.9,72.6z M175.3,71.2c0,0,0-0.1,0-0.1
		c-1.5-0.1-2.9-0.2-4.4-0.2c-1.2,0-2.5-0.3-2.4,1.6c0.1,1.5-0.1,3.2,2.2,3.2c3.1,0,6.2,0.1,9.2,0.3c2.1,0.2,2.7-0.7,2.5-2.7
		c-0.2-1.5-0.8-2.2-2.2-2.1C178.5,71.3,176.9,71.2,175.3,71.2z M168.2,77.2c-0.9,1.4-1.6,2.4-2.4,3.5c1.6,1.6,3.1,3,4.6,4.5
		c1.4,1.4,2.8,2.8,4.2,4.2c0.3-0.1,0.7-0.1,1-0.2c0.2-1.5,1.2-3.6,0.6-4.3C173.9,82.2,171.1,79.9,168.2,77.2z M167.6,69.4
		c0.5-0.3,0.9-0.4,1.1-0.6c2-1.9,3.9-3.8,5.9-5.8c1.2-1.3,0.2-2.1-0.6-3c-0.9-0.9-1.8-1.3-2.8-0.3c-1.8,1.7-3.6,3.4-5.3,5.3
		c-0.4,0.4-0.6,1.5-0.4,2C166,67.9,166.9,68.6,167.6,69.4z M168,87.5c-0.8-1.7-1.5-2.9-2.1-4.2c-0.6-1.2-1-2.4-2.8-1.4
		c-1.6,0.9-2.3,1.9-1,3.6c0.7,1,1.1,2.1,1.8,3.1c0.4,0.5,1.3,1,1.7,0.8C166.4,89,167.2,88.2,168,87.5z M159.3,62.9
		c4,2.9,4.3,2.9,6-1.4c0.1-0.2,0.1-0.3,0.2-0.5c0.8-1.5,0.2-2.3-1.2-3.1c-1.4-0.8-2.2-0.3-2.8,1C160.9,60.4,160.1,61.6,159.3,62.9z"
		/>
	<path d="M163.9,72.6c-5.2,3.1-9.7,6.9-16.3,6.4c-6.4-0.5-12.9-0.1-19.3-0.1c-2.8,0-2.9,0.2-2,2.8c0.7,1.9,1.2,3.8,1.9,5.6
		c1,3.1,1,6.1-0.3,9.1c-2,4.7-2.4,9.4-0.9,14.3c1.4,4.5,0.4,8.8-1.3,13.1c-1.8,4.5-3.4,9.1-4.9,13.8c-1.6,5.3-3.8,10.1-8.4,13.5
		c-1.9,1.4-2.3,3.1-1.6,5.2c0.2,0.7,0.5,1.5,0.6,2.2c0.8,3.3,0.1,5.1-2.8,7.1c-8.8,6-18,6.2-27.5,1.9c-7.7-3.4-14.1-8.9-20.2-14.6
		c-2.2-2.1-4.3-4.2-6.5-6.3c-1.9-1.8-2.7-3.9-2.1-6.5c0.6-2.8,1-5.6,1.7-8.3c1.7-6.2,0.9-12.2-0.6-18.3c-2-8.6-4.6-17.1-4.7-26.1
		c0-1.2-0.2-2.5,0.1-3.6c1.1-4.1-1-7.5-2.4-11c-0.8-1.9-0.2-3.2,1.8-3.4c0.7-0.1,1.4,0.1,2,0.2c1.9,0.5,3,0,2.8-2.2
		c-0.1-1.4-0.2-2.9,2-2.5c0.4,0.1,0.9-0.4,1.2-0.8c12.5-13.9,30.7-14.1,45-7.7c4.3,1.9,8,5.2,11.8,8.1c1.7,1.4,3.3,2.2,5.5,2.2
		c9.9,0,19.8,0.2,29.7,0.2C154.3,67,158.8,70.4,163.9,72.6z M58.5,75.8c0,0.2,0,0.4,0.1,0.7c1.3,0.3,2.6,0.8,3.9,0.9
		c2.2,0.2,3.2,1.2,3.2,3.4c0,0.7,0.5,2,0.7,2c2.4-0.3,1.9,1.7,2.3,2.9c0.5,1.5,0.9,3,1.4,4.8c0.8-0.4,1.3-0.6,1.6-0.9
		c1.9-2.3,3.6-1.8,5.6,0c2.7,2.5,2.9,2.4,5.1-0.5c1.1-1.5,2.2-2.6,4.3-1.9c2.2,0.7,3.1-0.2,2.8-2.4c-0.3-1.8,0.7-2.4,2.3-2.6
		c1.3-0.1,2.6-0.4,3.8-0.6c0.2-0.4,0.4-0.8,0.6-1.2c-1.5-0.8-3-1.7-4.5-2.5c0.1-0.4,0.1-0.8,0.2-1.2c0.7-0.4,1.4-0.7,2-1.3
		c3.1-2.7,3.1-2.8-0.5-5c-2.3-1.5-5-2.6-5.4-5.8c-0.4-2.5-1.7-2.9-4-2.5c-4.4,0.9-4.4,0.8-5.8-3.5c-0.8,1.1-1.6,2-2.2,3
		c-0.7,1.1-1.5,1.4-2.8,0.8c-2.5-1.3-3.1-1-3.4,1.8c-0.2,2.4-1.5,2.7-3.5,2.5c-4.8-0.4-4.9-0.3-2.9,4c0.8,1.7,0.3,2.5-1.3,3.1
		C60.9,74.6,59.7,75.2,58.5,75.8z M100.4,92.2c-3.4-0.1-6.3,0.7-8.7,2.8c-2.3,2-2.4,4.5-0.3,6.8c3.8,4.1,12.5,4,16.2-0.1
		c1.9-2.1,1.8-4.7-0.2-6.7C105.4,93,102.9,92.1,100.4,92.2z M114.1,126.5c-5.6-0.4-8.3,0.2-11.5,2.6c-0.7,0.5-1.3,2-1,2.6
		c2.4,4.6,12.1,7.1,16.6,4.5c2.4-1.4,3.5-4.4,2.7-7.4c-0.7-2.7-2.9-2.2-4.8-2.3C115.4,126.5,114.8,126.5,114.1,126.5z M124.6,106.4
		c0.7-3.5,1.3-6.9,2-10.4c-3.4-0.8-7.1,1.7-7.6,5C118.4,103.8,121,106.2,124.6,106.4z"/>
	<path d="M175.3,71.2c1.6,0,3.2,0,4.9,0c1.5,0,2.1,0.7,2.2,2.1c0.2,2-0.3,2.8-2.5,2.7c-3.1-0.2-6.2-0.3-9.2-0.3
		c-2.4,0-2.2-1.7-2.2-3.2c-0.1-1.9,1.3-1.7,2.4-1.6c1.5,0.1,2.9,0.2,4.4,0.2C175.3,71.2,175.3,71.2,175.3,71.2z"/>
	<path d="M168.2,77.2c2.9,2.7,5.7,5,8,7.7c0.6,0.7-0.3,2.8-0.6,4.3c-0.3,0.1-0.7,0.1-1,0.2c-1.4-1.4-2.8-2.8-4.2-4.2
		c-1.5-1.4-2.9-2.9-4.6-4.5C166.5,79.6,167.2,78.6,168.2,77.2z"/>
	<path d="M167.6,69.4c-0.7-0.8-1.6-1.5-2.1-2.4c-0.3-0.5,0-1.6,0.4-2c1.7-1.8,3.5-3.5,5.3-5.3c1.1-1,2-0.7,2.8,0.3
		c0.8,0.9,1.8,1.8,0.6,3c-1.9,1.9-3.9,3.9-5.9,5.8C168.5,69,168.2,69.1,167.6,69.4z"/>
	<path d="M168,87.5c-0.8,0.6-1.5,1.5-2.4,1.9c-0.4,0.2-1.4-0.4-1.7-0.8c-0.7-0.9-1.1-2.1-1.8-3.1c-1.3-1.7-0.6-2.7,1-3.6
		c1.8-1,2.2,0.2,2.8,1.4C166.5,84.6,167.1,85.9,168,87.5z"/>
	<path d="M159.3,62.9c0.8-1.4,1.6-2.6,2.2-3.8c0.6-1.3,1.4-1.8,2.8-1c1.3,0.7,1.9,1.6,1.2,3.1c-0.1,0.2-0.2,0.3-0.2,0.5
		C163.6,65.8,163.3,65.9,159.3,62.9z"/>
	<path class="st0" d="M58.5,75.8c1.2-0.6,2.4-1.2,3.6-1.7c1.6-0.6,2.1-1.4,1.3-3.1c-2-4.3-1.9-4.4,2.9-4c2,0.2,3.2-0.1,3.5-2.5
		c0.3-2.8,0.9-3.1,3.4-1.8c1.3,0.7,2,0.4,2.8-0.8c0.6-1,1.4-1.9,2.2-3c1.4,4.2,1.5,4.3,5.8,3.5c2.3-0.5,3.7,0,4,2.5
		c0.5,3.2,3.1,4.3,5.4,5.8c3.5,2.3,3.5,2.3,0.5,5c-0.6,0.5-1.3,0.8-2,1.3c-0.1,0.4-0.1,0.8-0.2,1.2c1.5,0.8,3,1.7,4.5,2.5
		c-0.2,0.4-0.4,0.8-0.6,1.2c-1.3,0.2-2.6,0.5-3.8,0.6c-1.6,0.1-2.6,0.7-2.3,2.6c0.3,2.2-0.6,3.1-2.8,2.4c-2.1-0.7-3.2,0.4-4.3,1.9
		c-2.2,3-2.4,3-5.1,0.5c-2-1.8-3.7-2.4-5.6,0c-0.3,0.4-0.8,0.5-1.6,0.9c-0.5-1.7-0.9-3.3-1.4-4.8c-0.4-1.2,0.1-3.2-2.3-2.9
		c-0.2,0-0.7-1.3-0.7-2c0-2.2-1-3.3-3.2-3.4c-1.3-0.1-2.6-0.6-3.9-0.9C58.5,76.2,58.5,76,58.5,75.8z"/>
	<path class="st0" d="M100.4,92.2c2.5-0.1,4.9,0.8,6.9,2.7c2,2,2.1,4.6,0.2,6.7c-3.7,4.1-12.4,4.2-16.2,0.1c-2.1-2.2-2-4.8,0.3-6.8
		C94.1,92.9,97,92.2,100.4,92.2z"/>
	<path class="st0" d="M114.1,126.5c0.7,0,1.4,0,2.1,0c1.9,0.1,4.1-0.5,4.8,2.3c0.7,3-0.4,6.1-2.7,7.4c-4.5,2.6-14.2,0.1-16.6-4.5
		c-0.3-0.5,0.4-2.1,1-2.6C105.7,126.7,108.5,126.2,114.1,126.5z"/>
	<path class="st0" d="M124.6,106.4c-3.6-0.2-6.1-2.6-5.7-5.3c0.6-3.4,4.2-5.8,7.6-5C125.9,99.5,125.2,102.9,124.6,106.4z"/>
</g>
</svg>
