<?xml version="1.0" encoding="utf-8"?>
<!-- Generator: Adobe Illustrator 19.0.0, SVG Export Plug-In . SVG Version: 6.00 Build 0)  -->
<svg version="1.1" id="Layer_1" xmlns="http://www.w3.org/2000/svg" xmlns:xlink="http://www.w3.org/1999/xlink" x="0px" y="0px"
	 viewBox="0 0 300 300" style="enable-background:new 0 0 300 300;" xml:space="preserve">
<style type="text/css">
	.st0{fill:#FFFFFF;}
</style>
<g id="XMLID_1_">
	<path id="XMLID_25_" class="st0" d="M302.3,302.3c-100.4,0-200.8,0-301.1,0c0-100.5,0-201,0-301.4c100.4,0,200.8,0,301.1,0
		C302.3,101.4,302.3,201.9,302.3,302.3z M133.5,108.4c-9.6-8.1-18.2-16.5-27.8-23.3C94,77,82.3,68.3,69.3,63.2
		c-22.9-9-42.1,8-41.4,28.8c0.5,15.2-2.7,29.9-9.6,43.6c-3.4,6.7-4.1,13.9-2.2,21.1c3.6,13.8,16.5,23.3,33.1,22.5
		c13.1-0.6,26.4-2.7,39.2-5.6c14.9-3.3,29.5-8.2,45.3-12.8c-3.2,3-5.8,5.3-8.2,7.8c-12.3,13.3-25.2,26.2-36.7,40.2
		c-6,7.4-11.2,16.3-14,25.3c-5.8,18.3,6.1,36.3,23.8,37.4c16.6,1.1,32.1,4.9,46.9,12.8c14.9,7.9,30.9,1.8,38.6-13.2
		c5-9.8,5.7-20.4,3.8-30.9c-4.2-22.6-9.1-45-13.7-67.5c-0.3-1.3-0.4-2.7-0.7-5.1c6.7,4.9,12.3,9.1,18,13.1
		c5.9,4.2,11.6,8.8,17.9,12.2c12.1,6.5,24.2,13.9,37.2,17.9c21,6.5,39.9-9,37.7-29.3c-1.6-15-0.4-29.5,4.4-43.9
		c1.8-5.3,2.3-11.7,1.2-17.1c-3.1-15-18.8-24.8-35.2-21.7c-13.3,2.6-26.4,6.6-39.4,10.5c-6.5,1.9-12.7,4.9-19,7.3
		c2.5-4.4,5.5-8,8.5-11.6c11.2-13.8,22.3-27.8,29.2-44.4c10.1-24.4-3.6-47.6-29.9-46.3c-14.6,0.7-28.5-2.4-42.1-8.2
		c-20.9-8.9-39.5,1.7-43.4,24.2c-2.4,13.7,1.1,26.8,4.3,39.9C125.7,82.9,129.7,95.3,133.5,108.4z M181.5,185.3
		c9.9,15.9,18.6,31.4,28.8,45.8c16.9,23.7,37.1,44.3,62.5,59.1c11.9,6.9,20.3,4.3,27.1-7.6c3.5-6.1,1.1-12-4.9-15.4
		c-18.1-10.2-37-19.5-53.7-31.7C220.8,220.4,202.1,202.8,181.5,185.3z"/>
	<path id="XMLID_24_" d="M133.5,108.4c-3.8-13.1-7.8-25.5-10.9-38.1c-3.2-13-6.7-26.2-4.3-39.9c4-22.5,22.6-33.1,43.4-24.2
		c13.5,5.8,27.4,9,42.1,8.2c26.3-1.3,40.1,21.9,29.9,46.3c-6.9,16.6-18.1,30.5-29.2,44.4c-2.9,3.6-6,7.2-8.5,11.6
		c6.3-2.5,12.5-5.4,19-7.3c13-3.8,26.1-7.9,39.4-10.5c16.4-3.2,32.2,6.7,35.2,21.7c1.1,5.4,0.6,11.8-1.2,17.1
		c-4.8,14.4-6,28.9-4.4,43.9c2.2,20.3-16.7,35.8-37.7,29.3c-13-4-25-11.4-37.2-17.9c-6.3-3.4-12-8-17.9-12.2
		c-5.7-4-11.3-8.2-18-13.1c0.3,2.4,0.5,3.7,0.7,5.1c4.6,22.5,9.6,45,13.7,67.5c1.9,10.4,1.2,21-3.8,30.9c-7.7,15-23.7,21-38.6,13.2
		c-14.8-7.8-30.3-11.7-46.9-12.8c-17.7-1.1-29.5-19.2-23.8-37.4c2.9-9.1,8-17.9,14-25.3c11.5-14,24.3-26.9,36.7-40.2
		c2.3-2.5,5-4.8,8.2-7.8c-15.8,4.5-30.4,9.4-45.3,12.8c-12.9,2.9-26.1,5-39.2,5.6c-16.5,0.8-29.5-8.8-33.1-22.5
		c-1.9-7.2-1.2-14.4,2.2-21.1c6.9-13.7,10.1-28.3,9.6-43.6c-0.7-20.9,18.5-37.8,41.4-28.8c13,5.1,24.8,13.8,36.3,21.9
		C115.3,91.9,123.9,100.3,133.5,108.4z"/>
	<path id="XMLID_23_" d="M181.5,185.3c20.6,17.5,39.3,35.1,59.8,50.1c16.7,12.2,35.6,21.5,53.7,31.7c6,3.4,8.4,9.3,4.9,15.4
		c-6.9,12-15.3,14.5-27.1,7.6c-25.4-14.8-45.6-35.3-62.5-59.1C200.1,216.7,191.4,201.2,181.5,185.3z"/>
</g>
</svg>
