<?xml version="1.0" encoding="utf-8"?>
<!-- Generator: Adobe Illustrator 19.0.0, SVG Export Plug-In . SVG Version: 6.00 Build 0)  -->
<svg version="1.1" id="Layer_1" xmlns="http://www.w3.org/2000/svg" xmlns:xlink="http://www.w3.org/1999/xlink" x="0px" y="0px"
	 viewBox="0 0 50 50" style="enable-background:new 0 0 50 50;" xml:space="preserve">
<style type="text/css">
	.st0{fill:#FFFFFF;}
</style>
<g id="XMLID_2_">
	<path id="XMLID_65_" class="st0" d="M52.4,53.4c-18.1,0-36.2,0-54.3,0C-2,35.2-2,17.1-2-1c18.1,0,36.2,0,54.3,0
		C52.4,17.1,52.4,35.3,52.4,53.4z M23.3,19.9C23.3,19.9,23.3,19.9,23.3,19.9c-1.1-0.8-2.1-1.5-3.2-2.3c0,0-0.1,0-0.1,0
		c-0.8,0.1-1.5,0.1-2.3,0.2c-1.4,0.1-2.8,0.2-4.1,0.4c-0.1,0-0.1,0.1-0.2,0.1c-0.5,0.7-0.7,1.4-0.7,2.2c0,0.8,0.1,1.5,0.4,2.2
		c0,0.1,0,0.1,0,0.2c-0.3,0.4-0.6,0.8-0.8,1.2c-0.4,0.7-0.6,1.4-0.6,2.2c0,1.1,0.3,2,0.8,2.9c0.7,1,1.6,1.8,2.6,2.4
		c0.1,0.1,0.1,0.1,0.1,0.2c0.1,0.7,0.2,1.3,0.3,2c0.2,1,0.4,2.1,0.6,3.1c0.2,1.1,0.5,2.2,0.9,3.2c0.3,0.7,0.6,1.4,1.1,2
		c0.3,0.4,0.6,0.6,1.1,0.8c1,0.3,2.1,0.6,3.1,0.8c1.1,0.2,2.3,0.4,3.4,0.6c0.8,0.1,1.6,0.2,2.5,0.3c1,0.1,1.9,0.1,2.9,0.2
		c1.4,0,2.8,0,4.2-0.1c0.8-0.1,1.5-0.1,2.3-0.2c0.7-0.1,1.4-0.2,2.1-0.3c0.8-0.1,1.6-0.3,2.3-0.6c0.4-0.2,0.9-0.3,1.2-0.7
		c0.4-0.3,0.7-0.8,0.9-1.3c0.4-0.9,0.7-1.8,0.9-2.7c0.3-1.2,0.6-2.3,0.8-3.5c0.2-1.2,0.4-2.3,0.6-3.5c0-0.1,0.1-0.1,0.1-0.2
		c0.6-0.4,1.1-1,1.4-1.6c0.6-1.1,0.8-2.3,0.9-3.5c0-0.1,0-0.2,0.1-0.3c0.2-0.3,0.3-0.6,0.5-0.9c0.4-0.8,0.5-1.7,0.3-2.6
		c-0.2-0.8-0.6-1.4-1.2-2c-0.1-0.1-0.1-0.2-0.1-0.3c0.1-0.6,0.2-1.2,0.1-1.7c-0.2-1.1-0.7-1.9-1.7-2.5c-0.1,0-0.1-0.1-0.1-0.2
		c0.1-0.4,0.1-0.9,0-1.3c-0.2-1-0.7-1.8-1.5-2.4c-0.6-0.5-1.3-0.8-2.1-1c-0.1,0-0.2-0.1-0.2-0.2C42.8,10.5,42.4,9.7,42,9
		c-0.8-1.1-1.9-1.9-3.3-2.1c-0.7-0.1-1.4-0.1-2,0c0,0-0.1,0-0.1,0c-0.3-0.5-0.8-0.7-1.3-0.8c-0.8-0.1-1.5-0.1-2.3,0
		c-0.1,0-0.2,0-0.3,0c-0.6-0.3-1.2-0.6-1.8-0.7c-0.9-0.2-1.8-0.2-2.7,0.2c-0.8,0.3-1.5,0.9-2,1.7c-0.1,0.1-0.2,0.1-0.3,0.1
		c-0.9-0.2-1.7-0.2-2.6,0c-1.1,0.3-2,0.9-2.8,1.7c-0.8,0.9-1.4,1.9-1.8,3c0,0.1-0.1,0.1-0.2,0.1c-0.3,0.1-0.5,0.1-0.8,0.2
		c-0.3,0.1-0.5,0.2-0.8,0.4c1.3,0,2.6,0,4-0.1c0,0,0,0,0,0.1c-0.3,1.5-0.5,3-0.8,4.5c0,0.1,0,0.2,0.1,0.2c1.4,0.6,2.9,1.2,4.3,1.7
		c1,0.4,2.1,0.7,3.1,1c0.3,0.1,0.5,0.1,0.8-0.2c0.2-0.1,0.3-0.3,0.5-0.3c0.2-0.1,0.4,0,0.5,0.2c0.1,0.2,0.1,0.4,0.1,0.7
		c0,0.6-0.3,1.1-0.7,1.6c-0.2,0.2-0.4,0.4-0.7,0.3c-0.3,0-0.7-0.1-1-0.2c-0.3-0.1-0.5-0.2-0.8-0.3c0,0,0,0.1,0,0.1
		c0.3,0.6,0.4,1.2,0.3,1.9c-0.3,1.6-1.7,2.8-3.3,2.8c-0.3,0-0.6-0.1-0.7-0.4c-0.1-0.2-0.2-0.4-0.3-0.6c-0.3-0.7-0.7-1.2-1.3-1.4
		c-0.2-0.1-0.4-0.2-0.6-0.3c-0.2-0.2-0.3-0.4-0.3-0.6c0-1.2,0.6-2.1,1.5-2.8C22.2,20.1,22.7,20,23.3,19.9z M15.4,17.1
		c0.1,0,0.2,0,0.3,0c0.1,0,0.1,0,0.1,0.1c0,0.1,0.1,0.2,0.2,0.2c0.1,0,0.1,0,0.2,0c0.3,0,0.4-0.1,0.3-0.3c0-0.1,0-0.1,0.1-0.1
		c0.9,0,1.8-0.1,2.6-0.1c0.1,0,0.1,0,0.1-0.1c0.2-1,0.3-1.9,0.5-2.9c0-0.1,0-0.2,0-0.3c-0.1,0-0.1,0-0.2,0c-2,0.1-4.1,0.2-6.1,0.3
		c-0.8,0-1.7,0-2.5,0.2C10.4,14,9.6,14,8.9,13.9c-0.1,0-0.2-0.1-0.3-0.1c-1,0-2,0.1-3,0.1c-0.1,0-0.3,0-0.4,0
		c-0.5-0.1-1-0.1-1.5-0.2c-0.1,0-0.2,0-0.3,0.1c-0.1,0.1-0.2,0.2-0.3,0.2c-0.1,0-0.1,0-0.1,0.1c0,0.3-0.1,0.6-0.1,0.9
		c0,0.1,0,0.1,0,0.2c0,0,0,0,0,0c0-0.1,0-0.2-0.1-0.3c0-0.1,0-0.2-0.2-0.2c-0.1,0-0.2,0.1-0.2,0.2c-0.1,0.2-0.2,0.2-0.4,0.2
		c0,0-0.1,0-0.1,0c-0.2-0.1-0.5,0-0.6,0.2c-0.1,0.2,0,0.5,0.2,0.6C1.7,15.9,2,15.9,2.2,16c0.1,0,0.1,0,0.1,0.1
		c0.1,0.2,0.3,0.4,0.2,0.7c0,0.1-0.1,0.2-0.2,0.2c-0.4,0.3-0.9,0.3-1.3,0.1c-0.3-0.1-0.5-0.3-0.7-0.5c-0.2,0.1-0.2,0.1,0,0.3
		c0.4,0.6,0.9,1,1.6,1.2c0.3,0.1,0.5,0.2,0.7,0.5c0.3,0.4,0.2,1.2-0.1,1.6c0,0.1-0.1,0.1-0.2,0.2c-0.1,0.3-0.3,0.6-0.4,0.9
		c0.1,0,0.2,0,0.3,0c0,0,0,0.1,0,0.1c-0.4,1-0.7,2.1-1.1,3.1c-0.1,0.4-0.2,0.8-0.4,1.2c0,0.1,0,0.2,0.1,0.2C2.5,26,4,26.2,5.6,26.4
		c0.1,0,0.2,0,0.2-0.1c0.4-1.7,0.9-3.4,1.3-5.1c0.1-0.2,0.2-0.4,0.4-0.6c0.1-0.1,0.3-0.2,0.4-0.3c0,0,0.1-0.1,0.1-0.1
		c0.1,0,0.1-0.1,0.2-0.1c0.3,0,0.6,0,0.9,0c0.5,0,1.1,0,1.6-0.1c0.4,0,0.6-0.3,0.8-0.6c0.1-0.3,0.2-0.7,0.1-1c0-0.3,0-0.5,0.2-0.8
		c0.1-0.1,0.1-0.1,0.2-0.1c0.1,0,0.3,0,0.4,0c0.1,0,0.1,0,0.1-0.1c0-0.2,0-0.2,0.2-0.2c0,0,0.1,0,0.1,0c0.1,0,0.1,0,0.1,0.1
		c0,0,0,0.1,0.1,0.1c0.1,0,0.3,0,0.4,0c0,0,0-0.2,0-0.2c0,0,0,0,0,0c0.1,0,0.3,0,0.4,0c0,0.3,0,0.3,0.3,0.3c0,0,0.1,0,0.1,0
		c0.1,0,0.1,0,0.1-0.1c0-0.2,0-0.2,0.2-0.2c0.1,0,0.1,0,0.2,0c0.1,0.3,0.1,0.3,0.4,0.3C15.5,17.4,15.3,17.2,15.4,17.1z"/>
	<path id="XMLID_62_" d="M23.3,19.9c-0.6,0-1.1,0.2-1.6,0.5c-1,0.7-1.5,1.6-1.5,2.8c0,0.3,0.1,0.5,0.3,0.6c0.2,0.1,0.4,0.3,0.6,0.3
		c0.7,0.3,1.1,0.8,1.3,1.4c0.1,0.2,0.2,0.4,0.3,0.6c0.2,0.2,0.4,0.4,0.7,0.4c1.7,0,3.1-1.2,3.3-2.8c0.1-0.7,0-1.3-0.3-1.9
		c0,0,0-0.1,0-0.1c0.3,0.1,0.5,0.2,0.8,0.3c0.3,0.1,0.7,0.2,1,0.2c0.3,0,0.5-0.1,0.7-0.3c0.4-0.5,0.7-1,0.7-1.6c0-0.2,0-0.5-0.1-0.7
		c-0.1-0.3-0.3-0.3-0.5-0.2c-0.2,0.1-0.4,0.2-0.5,0.3c-0.2,0.2-0.5,0.2-0.8,0.2c-1-0.3-2.1-0.6-3.1-1c-1.5-0.5-2.9-1.1-4.3-1.7
		c-0.1,0-0.1-0.1-0.1-0.2c0.3-1.5,0.5-3,0.8-4.5c0,0,0,0,0-0.1c-1.3,0-2.6,0-4,0.1c0.2-0.2,0.5-0.3,0.8-0.4c0.3-0.1,0.5-0.1,0.8-0.2
		c0.1,0,0.1,0,0.2-0.1c0.4-1.1,1-2.1,1.8-3c0.8-0.8,1.7-1.4,2.8-1.7c0.9-0.2,1.7-0.2,2.6,0c0.1,0,0.2,0,0.3-0.1
		c0.5-0.7,1.2-1.3,2-1.7c0.9-0.4,1.8-0.4,2.7-0.2c0.6,0.2,1.2,0.4,1.8,0.7c0.1,0,0.2,0.1,0.3,0c0.8-0.1,1.5-0.2,2.3,0
		c0.6,0.1,1,0.3,1.3,0.8c0,0,0.1,0,0.1,0c0.7-0.1,1.3-0.1,2,0c1.4,0.2,2.4,1,3.3,2.1c0.5,0.7,0.8,1.4,1.1,2.2c0,0.1,0.1,0.2,0.2,0.2
		c0.7,0.2,1.5,0.5,2.1,1c0.8,0.6,1.3,1.4,1.5,2.4c0.1,0.4,0.1,0.9,0,1.3c0,0.1,0,0.1,0.1,0.2c1,0.5,1.5,1.4,1.7,2.5
		c0.1,0.6,0,1.2-0.1,1.7c0,0.1,0,0.2,0.1,0.3c0.6,0.5,1,1.2,1.2,2c0.2,0.9,0.1,1.8-0.3,2.6c-0.1,0.3-0.3,0.6-0.5,0.9
		c0,0.1-0.1,0.2-0.1,0.3c-0.1,1.2-0.3,2.4-0.9,3.5c-0.4,0.7-0.8,1.2-1.4,1.6c-0.1,0-0.1,0.1-0.1,0.2c-0.2,1.2-0.4,2.3-0.6,3.5
		c-0.2,1.2-0.5,2.3-0.8,3.5c-0.2,0.9-0.5,1.9-0.9,2.7c-0.2,0.5-0.5,0.9-0.9,1.3c-0.4,0.3-0.8,0.5-1.2,0.7c-0.8,0.3-1.5,0.5-2.3,0.6
		c-0.7,0.1-1.4,0.2-2.1,0.3c-0.7,0.1-1.5,0.2-2.3,0.2c-1.4,0.1-2.8,0.1-4.2,0.1c-1,0-1.9-0.1-2.9-0.2c-0.8-0.1-1.6-0.1-2.5-0.3
		c-1.1-0.2-2.3-0.4-3.4-0.6c-1.1-0.2-2.1-0.5-3.1-0.8c-0.5-0.1-0.8-0.4-1.1-0.8c-0.5-0.6-0.8-1.3-1.1-2c-0.4-1-0.7-2.1-0.9-3.2
		c-0.2-1-0.4-2.1-0.6-3.1c-0.1-0.7-0.2-1.3-0.3-2c0-0.1-0.1-0.2-0.1-0.2c-1-0.6-1.9-1.4-2.6-2.4c-0.6-0.9-0.9-1.8-0.8-2.9
		c0-0.8,0.3-1.5,0.6-2.2c0.2-0.4,0.5-0.8,0.8-1.2c0-0.1,0-0.1,0-0.2c-0.3-0.7-0.4-1.4-0.4-2.2c0-0.8,0.2-1.5,0.7-2.2
		c0-0.1,0.1-0.1,0.2-0.1c1.4-0.1,2.8-0.2,4.1-0.4c0.8-0.1,1.5-0.1,2.3-0.2c0,0,0.1,0,0.1,0C21.2,18.4,22.2,19.2,23.3,19.9
		C23.3,19.9,23.3,19.9,23.3,19.9z M43.8,16.8c-0.2,0.1-0.5,0.2-0.7,0.3c-1.5,0.6-3.1,1.2-4.6,1.7c-1.2,0.4-2.4,0.8-3.6,1.1
		c-0.4,0.1-0.7,0.1-0.9-0.2c-0.1-0.1-0.3-0.3-0.5-0.3c-0.2-0.1-0.4,0-0.4,0.2c-0.1,0.2-0.2,0.5-0.1,0.8c0,0.6,0.3,1.1,0.7,1.6
		c0.1,0.1,0.2,0.2,0.4,0.3c0.3,0.1,0.6,0,0.9-0.1c0.2-0.1,0.4-0.1,0.6-0.2c-0.1,0.3-0.2,0.7-0.2,1c0,0.2-0.1,0.5,0.1,0.7
		c0.1,0.1,0.2,0.3,0.4,0.4c0.3,0.2,0.7,0.3,1,0.5c0.4,0.2,0.6,0.4,0.7,0.8c0.1,0.1,0.1,0.3,0.2,0.4c0.1,0.2,0.1,0.4,0.2,0.5
		c0.1,0.2,0.3,0.4,0.6,0.4c0.3,0,0.6,0,0.9-0.1c1.6-0.4,2.7-1.9,2.6-3.6c-0.1-1.4-1.1-2.6-2.4-2.9c-0.1,0-0.2,0-0.3-0.1
		C40.7,19,42.3,17.9,43.8,16.8z"/>
	<path id="XMLID_55_" d="M15.4,17.1c0,0.1,0.1,0.3-0.2,0.3c-0.3,0-0.3,0-0.4-0.3c-0.1,0-0.1,0-0.2,0c-0.2,0-0.2,0-0.2,0.2
		c0,0.1,0,0.1-0.1,0.1c0,0-0.1,0-0.1,0c-0.3,0-0.3,0-0.3-0.3c-0.1,0-0.3,0-0.4,0c0,0,0,0,0,0c0,0.1,0,0.2,0,0.2c-0.1,0-0.3,0-0.4,0
		c0,0-0.1-0.1-0.1-0.1c0-0.1,0-0.2-0.1-0.1c0,0-0.1,0-0.1,0c-0.2,0-0.2,0-0.2,0.2c0,0.1,0,0.1-0.1,0.1c-0.1,0-0.3,0-0.4,0
		c-0.1,0-0.2,0-0.2,0.1c-0.2,0.2-0.2,0.5-0.2,0.8c0,0.3,0,0.7-0.1,1c-0.1,0.3-0.4,0.6-0.8,0.6c-0.5,0-1.1,0-1.6,0.1
		c-0.3,0-0.6,0-0.9,0c-0.1,0-0.1,0-0.2,0.1c0,0-0.1,0.1-0.1,0.1c-0.1,0.1-0.3,0.2-0.4,0.3c-0.2,0.2-0.3,0.3-0.4,0.6
		c-0.4,1.7-0.9,3.4-1.3,5.1c0,0.1-0.1,0.2-0.2,0.1C4,26.2,2.5,26,0.9,25.9c-0.1,0-0.2-0.1-0.1-0.2c0.1-0.4,0.2-0.8,0.4-1.2
		c0.4-1,0.7-2.1,1.1-3.1c0,0,0-0.1,0-0.1c-0.1,0-0.2,0-0.3,0c0.1-0.3,0.2-0.6,0.4-0.9c0-0.1,0.1-0.1,0.2-0.2
		c0.3-0.3,0.3-1.2,0.1-1.6c-0.2-0.2-0.4-0.4-0.7-0.5c-0.7-0.2-1.3-0.6-1.6-1.2c-0.1-0.2-0.1-0.2,0-0.3C0.5,16.8,0.7,17,1,17.1
		c0.5,0.2,0.9,0.2,1.3-0.1c0.1-0.1,0.1-0.1,0.2-0.2c0.1-0.3,0-0.5-0.2-0.7c0,0-0.1-0.1-0.1-0.1c-0.2-0.1-0.4-0.1-0.6-0.2
		c-0.2-0.1-0.3-0.4-0.2-0.6c0.1-0.2,0.3-0.3,0.6-0.2c0,0,0.1,0,0.1,0c0.2,0.1,0.3,0,0.4-0.2c0-0.1,0.1-0.2,0.2-0.2
		c0.1,0,0.1,0.1,0.2,0.2c0,0.1,0,0.2,0.1,0.3c0,0,0,0,0,0c0-0.1,0-0.1,0-0.2c0-0.3,0.1-0.6,0.1-0.9c0-0.1,0-0.1,0.1-0.1
		c0.2,0,0.3-0.1,0.3-0.2c0.1-0.1,0.1-0.2,0.3-0.1c0.5,0.1,1,0.2,1.5,0.2c0.1,0,0.3,0,0.4,0c1,0,2-0.1,3-0.1c0.1,0,0.2,0,0.3,0.1
		c0.8,0.1,1.5,0.1,2.2-0.1c0.8-0.2,1.7-0.1,2.5-0.2c2-0.1,4.1-0.2,6.1-0.3c0,0,0.1,0,0.2,0c0,0.1,0,0.2,0,0.3
		c-0.2,1-0.3,1.9-0.5,2.9c0,0.1-0.1,0.1-0.1,0.1c-0.9,0-1.8,0.1-2.6,0.1c-0.1,0-0.2,0-0.1,0.1c0,0.2-0.1,0.4-0.3,0.3
		c-0.1,0-0.1,0-0.2,0c-0.1,0-0.2,0-0.2-0.2c0-0.1,0-0.1-0.1-0.1C15.6,17,15.5,17,15.4,17.1z M10.2,19.7
		C10.2,19.7,10.2,19.7,10.2,19.7c0.1,0,0.2,0,0.3,0c0.3,0,0.5-0.1,0.6-0.3c0.3-0.4,0.3-1.2-0.1-1.6c-0.2-0.2-0.4-0.3-0.6-0.2
		c-0.2,0-0.4,0-0.6,0c-0.1,0-0.1,0-0.2,0.1C9.1,18.1,9,19,9.6,19.6c0.1,0.1,0.3,0.2,0.5,0.2C10.1,19.7,10.2,19.7,10.2,19.7z
		 M1.8,15.2c-0.2,0-0.3,0.1-0.3,0.3c0,0.2,0.1,0.3,0.2,0.3c0.2,0,0.3,0.1,0.5,0.1c0.2,0,0.3-0.1,0.3-0.2c0-0.1,0-0.3-0.2-0.3
		C2.1,15.2,1.9,15.2,1.8,15.2z M8.8,18.4c0.1,0,0.2-0.1,0.2-0.2c0-0.1-0.1-0.2-0.2-0.2c-0.1,0-0.2,0.1-0.2,0.2
		C8.5,18.3,8.6,18.4,8.8,18.4z M8.7,19c0.1,0,0.2-0.1,0.2-0.2c0-0.1-0.1-0.2-0.2-0.2c-0.1,0-0.2,0.1-0.2,0.2C8.4,18.9,8.6,19,8.7,19
		z M8.9,19.6c0.1,0,0.2-0.1,0.2-0.3c0-0.1-0.1-0.2-0.2-0.2c-0.1,0-0.2,0.1-0.2,0.2C8.6,19.5,8.7,19.6,8.9,19.6z"/>
	<path id="XMLID_54_" class="st0" d="M43.8,16.8C42.3,17.9,40.7,19,39,20c0.1,0,0.2,0.1,0.3,0.1c1.3,0.4,2.3,1.5,2.4,2.9
		c0.1,1.7-0.9,3.2-2.6,3.6c-0.3,0.1-0.6,0.1-0.9,0.1c-0.3,0-0.5-0.1-0.6-0.4c-0.1-0.2-0.2-0.4-0.2-0.5c-0.1-0.1-0.1-0.3-0.2-0.4
		c-0.1-0.4-0.4-0.6-0.7-0.8c-0.3-0.2-0.7-0.3-1-0.5c-0.1-0.1-0.3-0.2-0.4-0.4c-0.1-0.2-0.1-0.5-0.1-0.7c0.1-0.3,0.2-0.7,0.2-1
		C35.2,21.9,35,22,34.8,22c-0.3,0.1-0.6,0.1-0.9,0.1c-0.2,0-0.3-0.1-0.4-0.3c-0.4-0.5-0.6-1-0.7-1.6c0-0.3,0-0.5,0.1-0.8
		c0.1-0.2,0.3-0.3,0.4-0.2c0.2,0.1,0.4,0.2,0.5,0.3c0.3,0.3,0.6,0.3,0.9,0.2c1.2-0.3,2.4-0.7,3.6-1.1c1.6-0.5,3.1-1.1,4.6-1.7
		C43.3,17,43.6,16.9,43.8,16.8z"/>
	<path id="XMLID_53_" class="st0" d="M10.2,19.7c-0.1,0-0.1,0-0.2,0c-0.2,0-0.3,0-0.5-0.2C9,19,9.1,18.1,9.7,17.7
		c0,0,0.1-0.1,0.2-0.1c0.2,0,0.4,0,0.6,0c0.2,0,0.4,0.1,0.6,0.2c0.4,0.4,0.4,1.2,0.1,1.6c-0.2,0.2-0.4,0.3-0.6,0.3
		C10.4,19.7,10.3,19.7,10.2,19.7C10.2,19.7,10.2,19.7,10.2,19.7z"/>
	<path id="XMLID_52_" class="st0" d="M1.8,15.2c0.2,0,0.3,0.1,0.5,0.1c0.1,0,0.2,0.2,0.2,0.3c0,0.2-0.2,0.3-0.3,0.2
		c-0.2,0-0.3-0.1-0.5-0.1c-0.2,0-0.2-0.2-0.2-0.3C1.5,15.3,1.6,15.1,1.8,15.2z"/>
	<path id="XMLID_51_" class="st0" d="M8.8,18.4c-0.1,0-0.2-0.1-0.2-0.2c0-0.1,0.1-0.2,0.2-0.2C8.9,17.9,9,18,9,18.2
		C9,18.3,8.9,18.4,8.8,18.4z"/>
	<path id="XMLID_50_" class="st0" d="M8.7,19c-0.1,0-0.2-0.1-0.2-0.2c0-0.1,0.1-0.2,0.2-0.2c0.1,0,0.2,0.1,0.2,0.2
		C8.9,18.9,8.8,19,8.7,19z"/>
	<path id="XMLID_49_" class="st0" d="M8.9,19.6c-0.1,0-0.2-0.1-0.2-0.2c0-0.1,0.1-0.2,0.2-0.2c0.1,0,0.2,0.1,0.2,0.2
		C9.1,19.5,9,19.6,8.9,19.6z"/>
</g>
</svg>
