<?xml version="1.0" encoding="utf-8"?>
<!-- Generator: Adobe Illustrator 19.0.0, SVG Export Plug-In . SVG Version: 6.00 Build 0)  -->
<svg version="1.1" id="Layer_1" xmlns="http://www.w3.org/2000/svg" xmlns:xlink="http://www.w3.org/1999/xlink" x="0px" y="0px"
	 viewBox="0 0 403 235" style="enable-background:new 0 0 403 235;" xml:space="preserve">
<style type="text/css">
	.st0{fill:#FFFFFF;}
</style>
<g>
	<path class="st0" d="M92.5,1.2c101.9,0,203.7,0,305.6,0c0,78.7,0,157.5,0,236.2c-129.9,0-259.8,0-389.6,0c0-38.2,0-76.3,0-114.5
		c1.2,3.6,1.8,7.6,3.7,10.8c3,5.1,6.7,9.7,10.4,14.4c1.7,2.2,4.7,3.6,5.6,6c10.2,25.6,20.2,51.2,30.2,76.9c1.5,4,3.9,5.6,8.2,5.2
		c10.9-1.1,21.8-1.8,32.7-2.7c18.8-1.6,37.6-3.1,56.4-4.9c1.6-0.1,3.8-1.8,4.2-3.2c0.5-1.7-0.4-4-1.3-5.7c-0.9-1.7-2.8-2.9-4.1-4.5
		c-14.7-17-17.8-37.3-15.8-58.7c2.3-25.2,15.3-42.7,38.9-51.8c4.6-1.8,6.8-4.4,7.6-9c1.7-9.8-1.8-17.7-10.7-22.4
		c-3.5-1.9-7.3-3.1-11-4.6c2.5-16.9-3.7-29.9-24.7-25.8c-8.2,1.6-15.7-2.3-21-8.7c-3.7-4.5-6.7-9.6-9.3-14.9
		C104.9,11.8,100.3,5.1,92.5,1.2z M340.8,114.3c-15.9-0.1-26.8,10.3-26.8,25.7c0,15.2,10.1,25.2,25.7,25.3
		c15.3,0.2,26.5-10.5,26.7-25.3C366.5,124,356.9,114.4,340.8,114.3z M305.4,136.4c-8.1,0-15.5,0-23,0c0,3.3,0,6.3,0,9.5
		c3.7,0.2,7.1,0.3,11.9,0.5c-1.5,2.9-2.6,6.4-3.5,6.4c-4.7-0.1-9.8-0.2-13.8-2.2c-4.3-2.1-5.4-10.8-3.5-16.2c1.8-4.8,5.2-8,10.5-7.7
		c5.4,0.3,10.7,1.4,16.4,2.2c1.2-3.1,2.5-6.8,4-10.5c-8.6-4.7-17.3-4.8-25.9-3.7c-11.3,1.4-19.6,10.8-20.5,22.3
		c-1,13.3,4.7,23.4,16.1,26.7c9.6,2.9,19.3,2,28.5-2.1c1.3-0.6,2.6-2.6,2.6-4C305.5,150.8,305.4,144,305.4,136.4z M170.2,187.9
		c0.5-0.1,1-0.1,1.6-0.2c1.6,6,3.7,11.9,4.6,18c0.8,5.2,3.7,5.3,7.6,5.2c3.8-0.1,7.5,0.7,8.4-5c0.9-6,3-11.7,4.5-17.6
		c0.5,0.1,1.1,0.2,1.6,0.3c0,7.2,0,14.5,0,22c4,0,7.5,0,10.4,0c0-12.9,0-25.4,0-38.5c-4.1,0-7.4,0.3-10.5-0.1c-5.4-0.5-8,1.4-8.9,7
		c-1,6.3-3,12.3-4.5,18.5c-2.6-7-4.1-13.9-6.1-20.6c-0.5-1.7-2.3-4.2-3.8-4.3c-4.7-0.6-9.5-0.2-15.1-0.2c0,13.3,0,25.7,0,38.1
		c3.4,0,6.6,0,10.2,0C170.2,202.8,170.2,195.3,170.2,187.9z M246.5,129.7c0.4-1.5,0.7-3.1,1.3-4.6c2-5.3,0.3-8.8-5.4-9.4
		c-6.6-0.7-13.3-1.5-19.9-1c-7.4,0.6-12.4,6.2-13.1,13.1c-0.7,7.2,2.7,12.3,10.4,15.1c4.4,1.6,9,2.5,13.3,4.1
		c1.2,0.4,2.4,2.1,2.6,3.4c0.1,0.6-1.8,2.2-3,2.4c-2.6,0.4-5.3,0.7-7.8,0.2c-4.7-0.8-9.2-2.2-14-3.4c-0.8,3.8-1.5,7.3-2.3,11
		c9.7,4.9,19.4,5.6,29.4,3.3c7.4-1.7,12-7.8,12.1-14.9c0.1-6.5-3.2-10.7-10.9-13.5c-3-1.1-6.3-1.6-9.3-2.7c-2.1-0.8-4-2-6.3-3.2
		C228.5,125.2,229.3,125.2,246.5,129.7z M202.4,117.8c-14.9-6.8-31.3-3.9-38.6,6.3c-6.7,9.3-6,25.5,1.4,33.5
		c7.4,8.1,25.8,10.1,36.5,3.7c-1-3.9-2-7.9-3.1-12c-7.9,2.8-15.4,6.1-21.7-1.4c-3.3-3.9-2.9-12.7,0-16.7c3.8-5.2,10-5.6,20.9-1.3
		C199.4,125.9,200.9,122,202.4,117.8z M386,191.3c-0.4,0.1-0.8,0.2-1.2,0.3c-2.8-4.2-5.6-8.4-8.4-12.6c-5-7.6-7.8-8.5-16.9-5.8
		c0,12.5,0,25,0,37.6c3.6,0,6.8,0,10.6,0c0-6.6,0-12.9,0-19.3c0.8,0,1.1-0.1,1.2,0c2.8,4.2,5.7,8.4,8.4,12.6c5.6,8.6,6.4,9,16.8,6.7
		c0-12.6,0-25.3,0-38.1c-3.6,0-6.9,0-10.6,0C386,179.3,386,185.3,386,191.3z M242,172.4c0,7.4,0,14,0,20.7c0,4.3-0.2,8.7-5.9,8.7
		c-5.4,0-6.2-4.1-6.2-8.6c0.1-6.8,0-13.6,0-20.7c-4.5,0-8.2,0-12,0c-0.2,1.2-0.4,2-0.4,2.8c0,7.1-0.2,14.2,0.1,21.3
		c0.3,9.2,5.6,14.5,14.8,15.3c12.3,1,20.4-3.2,21.5-12.7c1-8.7,0.2-17.6,0.2-26.7C250,172.4,246.5,172.4,242,172.4z M263.5,172.5
		c0,13,0,25.6,0,38.1c4,0,7.6,0,11.7,0c0-4.8,0-9.1,0-14.1c5,0,9.4,0,14,0c0-3,0-5.3,0-8.4c-4.8,0-9.4,0-14.2,0c0-2.6,0-4.5,0-7
		c6,0,11.6,0,17.2,0c0-3.2,0-5.7,0-8.6C282.4,172.5,273,172.5,263.5,172.5z M300.6,210.7c4.1,0,7.5,0,11.3,0c0.2-4.7,0.4-9,0.6-14.1
		c4.8,0,9.1,0,13.7,0c0-3.1,0-5.5,0-8.6c-4.8,0-9.4,0-14,0c0-2.6,0-4.4,0-6.9c6,0,11.6,0,17.4,0c0-3.1,0-5.7,0-8.6
		c-9.7,0-19.1,0-28.9,0C300.6,185.4,300.6,197.8,300.6,210.7z M337.8,172.5c0,13.2,0,25.7,0,38.1c4.1,0,7.9,0,11.5,0
		c0-13,0-25.4,0-38.1C345.2,172.5,341.7,172.5,337.8,172.5z"/>
	<path d="M92.5,1.2c7.8,3.9,12.4,10.6,16.1,18.1c2.6,5.2,5.6,10.4,9.3,14.9c5.3,6.4,12.8,10.3,21,8.7c21-4.1,27.2,8.9,24.7,25.8
		c3.6,1.5,7.5,2.7,11,4.6c8.9,4.7,12.4,12.6,10.7,22.4c-0.8,4.6-3,7.2-7.6,9c-23.6,9.2-36.6,26.7-38.9,51.8
		c-2,21.5,1.1,41.7,15.8,58.7c1.3,1.5,3.1,2.7,4.1,4.5c0.9,1.7,1.8,4,1.3,5.7c-0.4,1.4-2.6,3.1-4.2,3.2c-18.8,1.8-37.6,3.3-56.4,4.9
		c-10.9,0.9-21.8,1.6-32.7,2.7c-4.4,0.4-6.7-1.3-8.2-5.2c-10-25.7-19.9-51.3-30.2-76.9c-1-2.4-4-3.8-5.6-6
		c-3.6-4.7-7.4-9.3-10.4-14.4c-1.9-3.2-2.5-7.2-3.7-10.8c0-3.2,0-6.5,0-9.7c3.9-16.6,15.7-26.3,30.3-33.1c-5.4-11.1-3.7-18.2,6-25
		c3.6-2.5,7.8-4.2,11.6-6.5c8.3-5,16.8-9.7,24.7-15.3c5.9-4.2,8.3-10.8,8.5-18.1c0.1-3.8-1.9-5.3-5.4-4.4c-2.8,0.8-5.4,2.2-8.1,3.4
		c-0.4-0.5-0.8-1-1.2-1.6C79.6,8.9,84.2,5,88.9,1.2C90.1,1.2,91.3,1.2,92.5,1.2z"/>
	<path class="st0" d="M88.9,1.2C84.2,5,79.6,8.9,75,12.7c0.4,0.5,0.8,1,1.2,1.6c2.7-1.1,5.3-2.6,8.1-3.4c3.5-1,5.4,0.6,5.4,4.4
		c-0.2,7.3-2.5,13.9-8.5,18.1c-7.9,5.6-16.4,10.3-24.7,15.3c-3.8,2.3-8,4-11.6,6.5c-9.7,6.8-11.4,13.9-6,25
		c-14.6,6.8-26.3,16.5-30.3,33.1c0-37.2,0-74.4,0-112C35.3,1.2,62.1,1.2,88.9,1.2z"/>
	<path d="M340.8,114.3c16.1,0.1,25.7,9.7,25.6,25.7c-0.1,14.9-11.4,25.5-26.7,25.3c-15.6-0.2-25.7-10.1-25.7-25.3
		C314,124.6,324.9,114.2,340.8,114.3z M350.9,140.4c0.1-9.7-4.1-15.1-11.4-14.6c-6.5,0.4-10.8,6.5-10.3,14.7
		c0.5,8.2,4.8,13.2,11.5,13C347.2,153.4,350.8,148.8,350.9,140.4z"/>
	<path d="M305.4,136.4c0,7.6,0.1,14.4-0.1,21.3c-0.1,1.4-1.4,3.4-2.6,4c-9.2,4.1-18.9,5-28.5,2.1c-11.4-3.4-17.2-13.5-16.1-26.7
		c0.9-11.5,9.2-21,20.5-22.3c8.7-1,17.4-1,25.9,3.7c-1.4,3.7-2.8,7.4-4,10.5c-5.8-0.8-11.1-1.9-16.4-2.2c-5.2-0.3-8.7,2.9-10.5,7.7
		c-2,5.4-0.8,14.1,3.5,16.2c4,2,9.1,2.1,13.8,2.2c0.9,0,2-3.5,3.5-6.4c-4.8-0.2-8.2-0.4-11.9-0.5c0-3.2,0-6.2,0-9.5
		C289.9,136.4,297.3,136.4,305.4,136.4z"/>
	<path d="M170.2,187.9c0,7.4,0,14.9,0,22.6c-3.7,0-6.8,0-10.2,0c0-12.4,0-24.8,0-38.1c5.6,0,10.4-0.3,15.1,0.2
		c1.4,0.2,3.3,2.6,3.8,4.3c2,6.8,3.5,13.7,6.1,20.6c1.5-6.2,3.6-12.3,4.5-18.5c0.9-5.6,3.5-7.5,8.9-7c3.2,0.3,6.4,0.1,10.5,0.1
		c0,13.1,0,25.6,0,38.5c-2.9,0-6.4,0-10.4,0c0-7.5,0-14.7,0-22c-0.5-0.1-1.1-0.2-1.6-0.3c-1.6,5.9-3.6,11.6-4.5,17.6
		c-0.9,5.7-4.6,4.9-8.4,5c-3.9,0.1-6.8,0-7.6-5.2c-0.9-6.1-3-12-4.6-18C171.2,187.8,170.7,187.8,170.2,187.9z"/>
	<path d="M246.5,129.7c-17.2-4.5-18-4.5-23,0c2.3,1.2,4.2,2.5,6.3,3.2c3,1.1,6.3,1.7,9.3,2.7c7.8,2.8,11.1,7,10.9,13.5
		c-0.1,7.1-4.7,13.2-12.1,14.9c-9.9,2.3-19.7,1.5-29.4-3.3c0.8-3.7,1.5-7.2,2.3-11c4.8,1.2,9.4,2.6,14,3.4c2.5,0.5,5.3,0.2,7.8-0.2
		c1.2-0.2,3.1-1.8,3-2.4c-0.3-1.3-1.4-3-2.6-3.4c-4.4-1.6-8.9-2.6-13.3-4.1c-7.7-2.8-11.1-8-10.4-15.1c0.7-6.9,5.6-12.5,13.1-13.1
		c6.6-0.5,13.3,0.3,19.9,1c5.7,0.6,7.3,4,5.4,9.4C247.2,126.6,246.9,128.2,246.5,129.7z"/>
	<path d="M202.4,117.8c-1.5,4.2-3,8.1-4.5,12.1c-11-4.3-17.1-3.9-20.9,1.3c-3,4-3.4,12.8,0,16.7c6.3,7.5,13.8,4.1,21.7,1.4
		c1.1,4.2,2.1,8.2,3.1,12c-10.7,6.4-29.1,4.4-36.5-3.7c-7.4-8.1-8-24.2-1.4-33.5C171.1,114,187.6,111.1,202.4,117.8z"/>
	<path d="M386,191.3c0-6,0-12,0-18.6c3.7,0,6.9,0,10.6,0c0,12.7,0,25.4,0,38.1c-10.4,2.3-11.2,1.9-16.8-6.7
		c-2.8-4.2-5.6-8.4-8.4-12.6c-0.1-0.1-0.4,0-1.2,0c0,6.3,0,12.7,0,19.3c-3.8,0-7,0-10.6,0c0-12.6,0-25,0-37.6
		c9.1-2.8,11.8-1.8,16.9,5.8c2.8,4.2,5.6,8.4,8.4,12.6C385.2,191.5,385.6,191.4,386,191.3z"/>
	<path d="M242,172.4c4.4,0,8,0,12.1,0c0,9.1,0.8,18-0.2,26.7c-1.1,9.5-9.2,13.7-21.5,12.7c-9.1-0.7-14.4-6-14.8-15.3
		c-0.3-7.1-0.1-14.2-0.1-21.3c0-0.8,0.2-1.6,0.4-2.8c3.8,0,7.5,0,12,0c0,7,0,13.9,0,20.7c0,4.4,0.8,8.6,6.2,8.6
		c5.7,0,5.9-4.4,5.9-8.7C242,186.5,242,179.8,242,172.4z"/>
	<path d="M263.5,172.5c9.5,0,18.9,0,28.7,0c0,2.8,0,5.4,0,8.6c-5.6,0-11.2,0-17.2,0c0,2.5,0,4.4,0,7c4.9,0,9.4,0,14.2,0
		c0,3.1,0,5.4,0,8.4c-4.6,0-9,0-14,0c0,5,0,9.3,0,14.1c-4.2,0-7.7,0-11.7,0C263.5,198.1,263.5,185.5,263.5,172.5z"/>
	<path d="M300.6,210.7c0-12.9,0-25.3,0-38.2c9.8,0,19.2,0,28.9,0c0,2.9,0,5.4,0,8.6c-5.7,0-11.3,0-17.4,0c0,2.4,0,4.3,0,6.9
		c4.7,0,9.2,0,14,0c0,3.1,0,5.5,0,8.6c-4.5,0-8.9,0-13.7,0c-0.2,5.1-0.4,9.4-0.6,14.1C308.1,210.7,304.8,210.7,300.6,210.7z"/>
	<path d="M337.8,172.5c3.9,0,7.5,0,11.5,0c0,12.7,0,25.1,0,38.1c-3.6,0-7.3,0-11.5,0C337.8,198.1,337.8,185.7,337.8,172.5z"/>
	<path class="st0" d="M350.9,140.4c-0.1,8.4-3.7,13-10.2,13.1c-6.6,0.1-11-4.8-11.5-13c-0.5-8.2,3.8-14.3,10.3-14.7
		C346.8,125.3,351,130.7,350.9,140.4z"/>
</g>
</svg>
