<?xml version="1.0" encoding="utf-8"?>
<!-- Generator: Adobe Illustrator 19.0.0, SVG Export Plug-In . SVG Version: 6.00 Build 0)  -->
<svg version="1.1" id="Layer_1" xmlns="http://www.w3.org/2000/svg" xmlns:xlink="http://www.w3.org/1999/xlink" x="0px" y="0px"
	 viewBox="0 0 300 300" style="enable-background:new 0 0 300 300;" xml:space="preserve">
<style type="text/css">
	.st0{fill:#FFFFFF;}
	.st1{fill:#363736;}
	.st2{fill:#585756;}
	.st3{fill:#5A6CB3;}
	.st4{fill:#A4672E;}
	.st5{fill:#76461C;}
</style>
<g id="XMLID_1_">
	<g id="XMLID_15_">
		<path id="XMLID_43_" class="st0" d="M-90.4,29.7c24.5,0,48.9,0,73.4,0c0.8,0,1,0.1,1,1c0,31.5,0,62.9,0,94.4
			c0,0.8-0.2,0.9-0.9,0.9c-31.5,0-62.9,0-94.4,0c-0.7,0-0.9-0.1-0.9-0.9c0-31.5,0-63,0-94.5c0-0.7,0.2-0.9,0.9-0.9
			c6.4,0,12.9,0,19.3,0c0.5,0.4,0,0.6-0.2,0.8c-0.6,0.5-0.6,1-0.3,1.7c1.3,2.5,1.9,5.2,3.1,7.7c0.3,0.6,0.3,1-0.5,1.2
			c-0.8,0.2-1.3,1-1.5,1.8c-0.2,0.7,0.2,1.2,0.7,1.5c0.5,0.3,0.8-0.3,1.1-0.6c0.3-0.2,0.3-0.8,0.8-1c0.9,1.7,1.6,3.5,2.3,5.2
			c0.5,1.2,1,1.3,1.9,0.6l0,0c0.1-0.1,0.1-0.1,0.2-0.2c0.5-0.8,1-1.7,0.7-2.7c-0.5-1.3-1-2.6-1.6-3.9c-0.5-1-0.9-1.9,0.2-2.8
			c0.4-0.3,0.5-0.9,0.1-1.3c-0.4-0.5-0.7,0.1-1,0.3c-0.9,0.8-1.2,0.4-1.6-0.5c-0.9-2.4-1.8-4.8-2.9-7.2
			C-90.6,30.2-90.6,29.9-90.4,29.7z M-85.9,62c0,0.6,0,1.2,0.5,1.6c0.2,0.4,0.6,0.5,1,0.5c0.1,0,0.2,0.1,0.2,0.1
			c0.3,0.6,0.9,0.5,1.5,0.5c0.2,0,0.3,0,0.5,0c0.3,0,0.6,0,1,0c0.3,0,0.6,0,0.9,0c0.3,0,0.5,0,0.8,0c0.2,0,0.5,0,0.7,0
			c0.5,0,1,0.1,1.3-0.5c0.1,0,0.2,0,0.2-0.1c0.4,0,0.8-0.1,1-0.5c0.4-0.2,0.5-0.5,0.5-0.9c0.2-0.2,0.2-0.5,0.1-0.8
			c0-0.3,0.1-0.6,0.1-0.8c0.3-0.5,0.3-1,0.2-1.6l0-0.1c0,0,0-0.1,0-0.1c0.3-1.6,0.6-3.3,0.9-4.9c0-0.3,0.2-0.6-0.1-0.8
			c-0.3-0.2-0.5,0.1-0.7,0.3c-2.3,1.4-4.7,1.8-7.4,1.4c-1.6-0.2-3-1-4.6-1.8c0.4,2.4,0.6,4.6,1.2,6.7c0,0.1,0,0.2,0.1,0.3
			C-86.2,61.2-86.1,61.6-85.9,62z M-81,54.7c2.4,0,4.4-0.9,6.2-2.1c0.6-0.4,0.5-0.8,0.3-1.4c-0.3-0.7-0.8-1.3-0.9-2.1
			c-0.1-0.9-0.7-1.4-1.4-1.9c-1-0.7-2-1.4-2.4-2.6c-0.4-1-1.3-1-1.9-0.9c-0.5,0.1-1.2,0.7-0.8,1.6c0.1,0.3,0.1,0.7-0.2,0.7
			c-0.9,0-0.9,0.8-1.1,1.3c-0.5,1.5-1,2.9-3,2.8c-0.9,0-1,1-1.2,1.6c-0.2,0.6,0.2,0.9,0.6,1.1C-85,54-83,54.7-81,54.7z"/>
		<path id="XMLID_42_" class="st1" d="M-90.4,29.7c-0.2,0.2-0.2,0.4-0.1,0.7c1.1,2.3,2.1,4.7,2.9,7.2c0.3,0.9,0.7,1.3,1.6,0.5
			c0.2-0.2,0.6-0.8,1-0.3c0.4,0.4,0.3,1-0.1,1.3c-1.2,0.9-0.8,1.8-0.2,2.8c0.6,1.2,1.1,2.6,1.6,3.9c0.4,1-0.1,1.9-0.7,2.7
			c-0.1,0.1-0.1,0.1-0.2,0.2c0,0,0,0,0,0c-0.4,0-0.9,0.2-1.1-0.3c-0.4-1-0.9-2-1-3c-0.1-1.5-1.5-2-2.2-3c-0.3-0.4-0.6-0.7-0.3-1
			c1.2-1.4,0.2-2.6-0.5-3.5c-0.9-1.3-1.2-2.7-1.6-4c-0.4-1.2-1.1-2.6,0.1-3.8c0,0,0-0.2,0-0.2C-91.1,29.7-90.7,29.7-90.4,29.7z"/>
		<path id="XMLID_41_" class="st2" d="M-91.4,29.7c0,0.1,0,0.2,0,0.2c-1.1,1.2-0.4,2.6-0.1,3.8c0.4,1.4,0.7,2.8,1.6,4
			c0.7,0.9,1.7,2.2,0.5,3.5c-0.2,0.3,0,0.6,0.3,1c0.7,1,2.1,1.5,2.2,3c0.1,1,0.6,2,1,3c0.2,0.5,0.7,0.3,1.1,0.3
			c-0.9,0.8-1.4,0.6-1.9-0.6c-0.7-1.8-1.4-3.5-2.3-5.2c-0.5,0.2-0.5,0.7-0.8,1c-0.3,0.2-0.6,0.9-1.1,0.6c-0.5-0.3-0.9-0.9-0.7-1.5
			c0.2-0.8,0.6-1.5,1.5-1.8c0.8-0.2,0.8-0.6,0.5-1.2c-1.1-2.5-1.8-5.2-3.1-7.7c-0.3-0.6-0.3-1.2,0.3-1.7c0.2-0.2,0.7-0.4,0.2-0.8
			C-91.9,29.7-91.6,29.7-91.4,29.7z"/>
		<path id="XMLID_40_" class="st3" d="M-81,54.7c-2,0-4-0.7-5.9-1.8c-0.4-0.3-0.8-0.6-0.6-1.1c0.3-0.6,0.3-1.6,1.2-1.6
			c2,0,2.5-1.4,3-2.8c0.2-0.6,0.1-1.3,1.1-1.3c0.3,0,0.3-0.4,0.2-0.7c-0.3-0.9,0.3-1.5,0.8-1.6c0.6-0.1,1.6-0.1,1.9,0.9
			c0.4,1.2,1.4,2,2.4,2.6c0.7,0.5,1.3,1,1.4,1.9c0.1,0.8,0.6,1.4,0.9,2.1c0.2,0.5,0.3,1-0.3,1.4C-76.6,53.8-78.6,54.6-81,54.7z"/>
		<path id="XMLID_39_" class="st4" d="M-86.2,60.4c-0.6-2.2-0.8-4.4-1.2-6.7c1.6,0.8,3,1.5,4.6,1.8c2.6,0.4,5.1-0.1,7.4-1.4
			c0.2-0.1,0.4-0.4,0.7-0.3c0.3,0.2,0.1,0.5,0.1,0.8c-0.3,1.6-0.6,3.3-0.9,4.9c0-0.9,0-1.8-0.1-2.7c0-0.2,0.1-0.6-0.3-0.6
			c-0.3,0-0.3,0.3-0.4,0.5c-0.2,2.1-0.3,4.2-0.5,6.2c0,0.3,0,0.6,0.3,0.8c-0.2,0.4-0.6,0.5-1,0.5c0.2-2.1,0.3-4.3,0.4-6.4
			c0-0.3,0.2-1-0.3-1c-0.6,0-0.4,0.7-0.4,1.1c-0.2,1.4-0.4,2.7-0.4,4.1c0,0.8-0.5,1.7,0.5,2.3c-0.3,0.6-0.8,0.5-1.3,0.5
			c0.4-2.5,0.2-5,0-7.5c-0.6,2.5-0.7,5-0.7,7.5c-0.3,0-0.5,0-0.8,0c0-2.6,0.1-5.2-0.5-7.7c-0.7,2.5-0.3,5.1-0.4,7.7
			c-0.3,0-0.6,0-1,0c0-2.5,0.2-5-0.6-7.5c-0.1,2.5-0.4,5,0.1,7.5c-0.5,0-1.1,0.1-1.5-0.5c0.6-0.2,0.5-0.7,0.5-1.2
			c0-1.8,0-3.7-0.2-5.5c0-0.3,0.1-0.9-0.4-0.8c-0.5,0-0.3,0.6-0.3,0.9c0,2.2-0.2,4.4,0.2,6.5c-0.4,0-0.8-0.1-1-0.5
			c0.5-0.5,0.3-1.2,0.3-1.8c0-2-0.2-4-0.7-6C-86.3,57.3-85.9,58.9-86.2,60.4z"/>
		<path id="XMLID_38_" class="st5" d="M-81.3,64.7c0.1-2.6-0.3-5.2,0.4-7.7c0.6,2.6,0.5,5.1,0.5,7.7C-80.7,64.7-81,64.7-81.3,64.7z"
			/>
		<path id="XMLID_37_" class="st5" d="M-84.4,64.2c-0.4-2.2-0.2-4.4-0.2-6.5c0-0.3-0.2-0.9,0.3-0.9c0.5,0,0.3,0.5,0.4,0.8
			c0.3,1.8,0.2,3.6,0.2,5.5c0,0.5,0.1,1-0.5,1.2C-84.3,64.2-84.4,64.2-84.4,64.2z"/>
		<path id="XMLID_36_" class="st5" d="M-77.6,64.2c-1-0.6-0.5-1.5-0.5-2.3c0.1-1.4,0.3-2.8,0.4-4.1c0-0.4-0.2-1.1,0.4-1.1
			c0.5,0,0.3,0.7,0.3,1c-0.1,2.1-0.3,4.3-0.4,6.4C-77.5,64.2-77.6,64.2-77.6,64.2z"/>
		<path id="XMLID_35_" class="st5" d="M-79.6,64.7c0-2.5,0.2-5,0.7-7.5c0.2,2.5,0.4,5,0,7.5C-79.1,64.7-79.4,64.7-79.6,64.7z"/>
		<path id="XMLID_22_" class="st5" d="M-76.4,63.7c-0.3-0.2-0.4-0.5-0.3-0.8c0.2-2.1,0.3-4.2,0.5-6.2c0-0.3,0.1-0.5,0.4-0.5
			c0.4,0,0.3,0.4,0.3,0.6c0,0.9,0,1.8,0.1,2.7c0,0,0,0.1,0,0.1s0,0.1,0,0.1c-0.5,0.5-0.3,1-0.2,1.6c0,0.3-0.1,0.6-0.1,0.8
			c-0.3,0.2-0.2,0.5-0.1,0.8C-75.9,63.1-76,63.5-76.4,63.7z"/>
		<path id="XMLID_21_" class="st5" d="M-86.2,60.4c0.3-1.5-0.1-3,0.3-4.5c0.5,2,0.7,4,0.7,6c0,0.6,0.3,1.3-0.3,1.8
			c-0.5-0.4-0.5-1-0.5-1.6c0.1-0.5,0.2-0.9-0.2-1.3C-86.1,60.6-86.2,60.5-86.2,60.4z"/>
		<path id="XMLID_20_" class="st5" d="M-82.7,64.7c-0.5-2.5-0.1-5-0.1-7.5c0.7,2.5,0.6,5,0.6,7.5C-82.4,64.7-82.6,64.7-82.7,64.7z"
			/>
		<path id="XMLID_19_" class="st4" d="M-75.7,61.1c0-0.5-0.3-1.1,0.2-1.6C-75.4,60-75.5,60.6-75.7,61.1z"/>
		<path id="XMLID_18_" class="st4" d="M-86.1,60.7c0.4,0.4,0.2,0.9,0.2,1.3C-86.1,61.6-86.2,61.2-86.1,60.7z"/>
		<path id="XMLID_17_" class="st4" d="M-76,62.7c-0.1-0.3-0.1-0.6,0.1-0.8C-75.7,62.2-75.8,62.5-76,62.7z"/>
		<path id="XMLID_16_" class="st2" d="M-84.7,48.6c0.1-0.1,0.1-0.1,0.2-0.2C-84.6,48.5-84.6,48.6-84.7,48.6z"/>
	</g>
</g>
</svg>
