<?xml version="1.0" encoding="utf-8"?>
<!-- Generator: Adobe Illustrator 19.0.0, SVG Export Plug-In . SVG Version: 6.00 Build 0)  -->
<svg version="1.1" id="Layer_1" xmlns="http://www.w3.org/2000/svg" xmlns:xlink="http://www.w3.org/1999/xlink" x="0px" y="0px"
	 viewBox="0 0 300 300" style="enable-background:new 0 0 300 300;" xml:space="preserve">
<style type="text/css">
	.st0{fill:#FFFFFF;}
</style>
<g id="XMLID_1_">
	<g id="XMLID_28_">
		<path id="XMLID_38_" class="st0" d="M-120.6,134.1c0-32.1,0-64.1,0-96.2c32.1,0,64.1,0,96.2,0c0,32.1,0,64.1,0,96.2
			C-56.4,134.1-88.5,134.1-120.6,134.1z M-77.9,68.4c0.1,0,0.2,0,0.3-0.1c0.4,2.2,0.8,4.4,1.2,6.5c0.1,0.8,0.3,1.5,1.4,1.5
			c1.2,0,1.5-0.5,1.6-1.5c0.1-0.6,0.2-1.2,0.3-1.8c0.3-1.6,0.6-3.2,0.9-4.9c0.3,2.4,0.3,4.7,0.2,7c0,0.9,0.2,1.3,1.2,1.3
			c1,0,1.1-0.5,1.1-1.3c-0.1-3.6-0.2-7.2-0.3-10.8c0-0.6,0-1.4-0.9-1.2c-0.9,0.2-2.2-0.7-2.5,1c-0.4,2.2-0.8,4.5-1.2,6.7
			c-0.1,0.4-0.2,0.7-0.3,1.1c-0.7-2.6-1.1-5.1-1.6-7.7c-0.2-1.2-0.4-1.3-2.5-1.2c-1,0-1,0.7-1,1.4c-0.1,3.5-0.1,7-0.2,10.6
			c0,0.7-0.1,1.4,1,1.4c1,0,1.2-0.5,1.2-1.3C-77.9,72.9-77.9,70.6-77.9,68.4z M-38.6,68.9c0.1,0,0.2,0,0.3,0
			c0.1,0.1,0.2,0.3,0.2,0.4c0.9,2.2,1.8,4.3,2.7,6.5c0.4,1.1,1.4,0.8,2.1,0.7c0.2,0,0.5-0.8,0.5-1.2c0.1-2,0-4.1,0-6.1
			c0-1.9,0-3.9,0-5.8c-1.9-0.5-2.1-0.3-2.1,1.4c0,2,0,3.9,0,5.9c-0.3-0.2-0.5-0.4-0.6-0.6c-0.9-2-1.7-4-2.5-6.1
			c-0.4-1.1-1.3-0.8-2.1-0.8c-0.3,0-0.7,0.6-0.7,0.9c0,3.8,0,7.6,0,11.4c0,0.7,0.3,1,1,1c0.9,0,1.2-0.4,1.2-1.2
			C-38.6,73.2-38.6,71-38.6,68.9z M-95.5,66.8c0.1-0.5,0.2-1,0.4-1.5c0.4-1.1,0-1.6-1-2c-2.5-1-4.8-0.2-5.9,2.3
			c-1.2,2.8-1.2,5.7,0,8.5c1,2.4,3.3,3.3,5.8,2.4c1.1-0.4,1.8-1,1.6-2.3c-0.1-0.7,0-1.5,0-2.3c-0.1-3.5,0.6-2.9-3-3
			c-1,0-1.3,0.4-1.2,1.3c0.1,0.8-0.2,1.7,1.1,1.6c0.6,0,1,0,1,0.8c0,0.7-0.2,1.2-0.9,1.3c-1.1,0.2-2-0.3-2.3-1.3c-0.3-1-0.5-2-0.5-3
			c0.1-3.3,1.8-4.3,4.6-2.7C-95.9,66.8-95.8,66.8-95.5,66.8z M-68.4,68.2C-68.4,68.2-68.4,68.2-68.4,68.2c0,1.3-0.1,2.6,0.1,3.8
			c0.1,1,0.4,2,0.7,2.9c0.5,1.2,1.6,1.8,3,1.9c1.4,0,2.4-0.5,3-1.7c0.4-0.8,0.7-1.6,0.8-2.5c0.1-2.7,0.1-5.4,0.2-8.1
			c0-0.8-0.2-1.2-1.1-1.3c-1,0-1.2,0.4-1.2,1.3c0,2.2,0,4.4,0,6.6c0,0.6-0.1,1.3-0.3,1.9c-0.2,0.4-0.8,0.8-1.2,0.8
			c-0.4,0-1-0.4-1.2-0.7c-0.3-0.6-0.4-1.3-0.4-2c0-2.2,0-4.5,0-6.7c0-0.9-0.4-1.1-1.2-1.1c-0.8,0-1.2,0.2-1.2,1.1
			C-68.4,65.6-68.4,66.9-68.4,68.2z M-104.4,66.7c0.8-1.7,0.8-2.6-0.2-3.1c-2.4-1.3-5.5-0.8-5.8,2.9c-0.2,2.3,0.7,3.7,2.7,4.7
			c0.3,0.1,0.5,0.2,0.8,0.3c0.6,0.4,1.3,0.8,0.9,1.6c-0.3,0.4-1.1,0.7-1.7,0.6c-0.8-0.1-1.5-0.5-2.6-1c0.1,1.2-0.2,2.4,0.3,3.1
			c0.8,1.2,3.8,1.2,5,0.3c1.9-1.6,2.2-6.2-0.8-7.5c-0.6-0.2-1.2-0.5-1.7-0.9c-0.3-0.3-0.6-0.9-0.4-1.2c0.1-0.3,0.7-0.6,1.1-0.6
			C-106.1,66.1-105.3,66.4-104.4,66.7z M-111.8,66.8c0.2-0.7,0.3-1.2,0.5-1.7c0.3-0.9,0-1.4-0.9-1.8c-1.9-0.8-3.8-0.3-5,1.3
			c-1.9,2.6-2,7.8-0.2,10.5c1.2,1.7,3.6,2.3,5.4,1.3c0.3-0.2,0.7-0.6,0.7-0.9c0-0.8-0.2-1.6-0.3-2.6c-0.5,0.3-0.8,0.5-1,0.6
			c-1.3,0.7-2.6,0.3-3.2-0.9c-0.8-1.8-0.8-3.6,0-5.3c0.6-1.2,1.7-1.5,2.9-1C-112.5,66.3-112.3,66.5-111.8,66.8z M-59.3,69.8
			c0,1.8,0,3.7,0,5.5c0,0.9,0.3,1.2,1.2,1.2c0.9,0,1.2-0.4,1.1-1.2c0-0.7,0-1.4,0-2.2c0-1.5,0-1.5,1.6-1.6c0.5,0,1.3-0.1,1.4-0.3
			c0.2-0.7,0.2-1.5,0-2.2c-0.1-0.2-0.9-0.3-1.3-0.4c-0.3-0.1-0.6,0-1,0c-0.2,0-0.6-0.2-0.6-0.4c-0.6-1.1,0-2.1,1.3-2.1
			c0.5,0,1,0,1.6,0c1.1,0.1,1.1-0.6,1.1-1.4c0-0.7,0.2-1.6-1-1.6c-1.4,0-2.8,0-4.2,0c-0.8,0-1.1,0.3-1.1,1.1
			C-59.3,66.2-59.3,68-59.3,69.8z M-52,69.9C-52,69.9-52,69.9-52,69.9c0,1.7,0,3.4,0,5.2c0,0.8-0.1,1.5,1.1,1.5
			c1.1,0,1.2-0.6,1.2-1.4c0-0.8,0-1.7,0-2.5c0-0.7,0.3-1,1-1c0.5,0,1,0.1,1.4,0c0.3,0,0.6-0.2,0.7-0.5c0.6-1.5,0-2.4-1.6-2.4
			c-0.2,0-0.3,0-0.5,0c-1,0.1-1.1-0.5-1.1-1.2c0-0.8,0.1-1.3,1.1-1.3c0.6,0.1,1.3,0,1.9,0c1,0.1,1-0.6,1-1.3c0-0.7,0.3-1.6-1-1.6
			c-1.4,0-2.8,0-4.2,0c-0.9,0-1.1,0.3-1.1,1.2C-52,66.2-52,68-52,69.9z M-42.4,69.8c0-1.8,0-3.6,0-5.4c0-0.9-0.3-1.3-1.2-1.3
			c-0.9,0-1.1,0.4-1.1,1.2c0,3.6,0,7.3,0,10.9c0,0.9,0.3,1.2,1.2,1.2c0.9,0,1.2-0.3,1.2-1.2C-42.4,73.5-42.4,71.7-42.4,69.8z"/>
		<path id="XMLID_37_" d="M-77.9,68.4c0,2.3,0,4.6,0,6.8c0,0.8-0.1,1.4-1.2,1.3c-1.1,0-1-0.7-1-1.4c0.1-3.5,0.2-7,0.2-10.6
			c0-0.7-0.1-1.4,1-1.4c2-0.1,2.2,0,2.5,1.2c0.5,2.5,0.9,5.1,1.6,7.7c0.1-0.4,0.2-0.7,0.3-1.1c0.4-2.2,0.8-4.5,1.2-6.7
			c0.3-1.7,1.6-0.8,2.5-1c0.9-0.2,0.9,0.6,0.9,1.2c0.1,3.6,0.2,7.2,0.3,10.8c0,0.8-0.1,1.3-1.1,1.3c-1,0-1.2-0.5-1.2-1.3
			c0-2.3,0-4.6-0.2-7c-0.3,1.6-0.6,3.2-0.9,4.9c-0.1,0.6-0.3,1.2-0.3,1.8c-0.1,1-0.4,1.5-1.6,1.5c-1.1,0-1.3-0.6-1.4-1.5
			c-0.4-2.2-0.8-4.4-1.2-6.5C-77.7,68.3-77.8,68.3-77.9,68.4z"/>
		<path id="XMLID_36_" d="M-38.6,68.9c0,2.1,0,4.3,0,6.4c0,0.8-0.2,1.3-1.2,1.2c-0.7,0-1-0.3-1-1c0-3.8,0-7.6,0-11.4
			c0-0.3,0.4-0.9,0.7-0.9c0.8-0.1,1.7-0.4,2.1,0.8c0.8,2,1.7,4.1,2.5,6.1c0.1,0.2,0.2,0.5,0.6,0.6c0-2,0-3.9,0-5.9
			c0-1.7,0.3-1.9,2.1-1.4c0,1.9,0,3.9,0,5.8c0,2,0,4.1,0,6.1c0,0.4-0.3,1.2-0.5,1.2c-0.8,0.1-1.7,0.5-2.1-0.7
			c-0.9-2.2-1.8-4.4-2.7-6.5c-0.1-0.1-0.1-0.3-0.2-0.4C-38.4,68.9-38.5,68.9-38.6,68.9z"/>
		<path id="XMLID_35_" d="M-95.5,66.8c-0.3,0-0.3,0-0.3,0c-2.8-1.5-4.6-0.5-4.6,2.7c0,1,0.2,2.1,0.5,3c0.3,1,1.2,1.4,2.3,1.3
			c0.7-0.1,1-0.6,0.9-1.3c0-0.8-0.5-0.8-1-0.8c-1.3,0.1-1-0.9-1.1-1.6c-0.1-0.9,0.2-1.3,1.2-1.3c3.6,0.1,3-0.5,3,3
			c0,0.8-0.1,1.5,0,2.3c0.2,1.3-0.5,1.9-1.6,2.3c-2.5,0.9-4.7,0-5.8-2.4c-1.2-2.8-1.2-5.7,0-8.5c1.1-2.5,3.4-3.3,5.9-2.3
			c1,0.4,1.4,1,1,2C-95.3,65.8-95.4,66.3-95.5,66.8z"/>
		<path id="XMLID_34_" d="M-68.4,68.2c0-1.3,0-2.6,0-4c0-0.9,0.4-1.1,1.2-1.1c0.8,0,1.2,0.2,1.2,1.1c0,2.2,0,4.5,0,6.7
			c0,0.7,0.1,1.4,0.4,2c0.2,0.4,0.8,0.7,1.2,0.7c0.4,0,1-0.4,1.2-0.8c0.3-0.5,0.3-1.2,0.3-1.9c0-2.2,0-4.4,0-6.6
			c0-0.9,0.3-1.3,1.2-1.3c0.9,0,1.2,0.4,1.1,1.3c-0.1,2.7,0,5.4-0.2,8.1c0,0.8-0.4,1.7-0.8,2.5c-0.6,1.2-1.7,1.7-3,1.7
			c-1.4,0-2.4-0.6-3-1.9C-68,74-68.3,73-68.4,72C-68.5,70.8-68.4,69.5-68.4,68.2C-68.4,68.2-68.4,68.2-68.4,68.2z"/>
		<path id="XMLID_33_" d="M-104.4,66.7c-0.9-0.3-1.7-0.6-2.5-0.7c-0.4,0-1,0.3-1.1,0.6c-0.1,0.3,0.1,0.9,0.4,1.2
			c0.5,0.4,1.1,0.6,1.7,0.9c3,1.3,2.7,5.9,0.8,7.5c-1.2,0.9-4.2,0.9-5-0.3c-0.5-0.7-0.2-1.9-0.3-3.1c1.1,0.4,1.9,0.9,2.6,1
			c0.6,0.1,1.4-0.2,1.7-0.6c0.5-0.7-0.3-1.2-0.9-1.6c-0.2-0.1-0.5-0.2-0.8-0.3c-2.1-0.9-3-2.4-2.7-4.7c0.4-3.8,3.4-4.3,5.8-2.9
			C-103.6,64.1-103.6,65-104.4,66.7z"/>
		<path id="XMLID_32_" d="M-111.8,66.8c-0.5-0.3-0.7-0.4-1-0.6c-1.2-0.6-2.4-0.2-2.9,1c-0.9,1.8-0.8,3.6,0,5.3
			c0.6,1.3,1.9,1.6,3.2,0.9c0.3-0.1,0.5-0.3,1-0.6c0.1,1,0.3,1.8,0.3,2.6c0,0.3-0.4,0.7-0.7,0.9c-1.8,1.1-4.2,0.5-5.4-1.3
			c-1.9-2.7-1.8-7.8,0.2-10.5c1.2-1.6,3.2-2.1,5-1.3c0.9,0.4,1.2,0.9,0.9,1.8C-111.5,65.6-111.6,66.1-111.8,66.8z"/>
		<path id="XMLID_31_" d="M-59.3,69.8c0-1.8,0-3.7,0-5.5c0-0.8,0.3-1.2,1.1-1.1c1.4,0,2.8,0,4.2,0c1.3,0,1,0.8,1,1.6
			c0,0.8,0.1,1.5-1.1,1.4c-0.5,0-1,0-1.6,0c-1.3,0-1.9,0.9-1.3,2.1c0.1,0.2,0.4,0.3,0.6,0.4c0.3,0.1,0.6,0,1,0
			c0.5,0.1,1.3,0.2,1.3,0.4c0.2,0.7,0.2,1.5,0,2.2c-0.1,0.2-0.9,0.3-1.4,0.3c-1.6,0-1.6,0-1.6,1.6c0,0.7,0,1.4,0,2.2
			c0,0.8-0.2,1.2-1.1,1.2c-0.9,0-1.2-0.3-1.2-1.2C-59.3,73.5-59.3,71.7-59.3,69.8z"/>
		<path id="XMLID_30_" d="M-52,69.9c0-1.8,0-3.7,0-5.5c0-0.8,0.3-1.2,1.1-1.2c1.4,0,2.8,0,4.2,0c1.3,0,0.9,0.9,1,1.6
			c0,0.7,0,1.4-1,1.3c-0.6,0-1.3,0-1.9,0c-1-0.1-1.1,0.5-1.1,1.3c0,0.8,0.1,1.4,1.1,1.2c0.2,0,0.3,0,0.5,0c1.6,0,2.2,1,1.6,2.4
			c-0.1,0.2-0.5,0.4-0.7,0.5c-0.5,0.1-1,0.1-1.4,0c-0.7,0-1,0.3-1,1c0,0.8,0,1.7,0,2.5c0,0.8,0,1.5-1.2,1.4c-1.2,0-1.1-0.7-1.1-1.5
			C-52,73.3-52,71.6-52,69.9C-52,69.9-52,69.9-52,69.9z"/>
		<path id="XMLID_29_" d="M-42.4,69.8c0,1.8,0,3.7,0,5.5c0,0.9-0.3,1.2-1.2,1.2c-0.9,0-1.2-0.4-1.2-1.2c0-3.6,0-7.3,0-10.9
			c0-0.8,0.2-1.2,1.1-1.2c1,0,1.3,0.4,1.2,1.3C-42.4,66.2-42.4,68-42.4,69.8z"/>
	</g>
</g>
</svg>
