<?xml version="1.0" encoding="utf-8"?>
<!-- Generator: Adobe Illustrator 19.0.0, SVG Export Plug-In . SVG Version: 6.00 Build 0)  -->
<svg version="1.1" id="Layer_1" xmlns="http://www.w3.org/2000/svg" xmlns:xlink="http://www.w3.org/1999/xlink" x="0px" y="0px"
	 viewBox="0 0 617 720" style="enable-background:new 0 0 617 720;" xml:space="preserve">
<style type="text/css">
	.st0{fill:#FFFFFF;}
</style>
<g>
	<path class="st0" d="M37.5,145.7c0-7,0-14,0-21c180.7,0,361.4,0,542.1,0c0,180.7,0,361.4,0,542.1c-180.7,0-361.4,0-542.1,0
		c0-43.4,0-86.8,0-130.3c9.6,7.6,18.4,17,29.1,22.7c53.7,28.6,107.9,56.2,162,84.1c38.9,20.2,41.9,18.4,41.9-24.6
		c0-24.9,0-49.8,0-76.4c39.1,0,74.7,0.4,110.3-0.1c24.2-0.3,33-9,33.7-33c0.6-20.3,0.2-40.6,0.2-60.9c0-24.9,0-49.8,0-74.7
		c-19.2,0-35.1,0-53.2,0c0,32.3-0.2,63.6,0.1,95c0.1,12.2-3.4,21.1-17.1,21.4c-23.6,0.4-47.2,0.1-73.2,0.1c0-9.6,0-17.1,0-24.6
		c0-60.9-0.6-121.8,0.3-182.8c0.3-22.3-7.4-36.5-28.1-46.2c-32.6-15.2-64.1-32.7-96.1-49.3c66.4-3.8,131.8-4.2,197.2-2.9
		c5.7,0.1,14.8,11.4,16.1,18.6c2.6,14,0.8,28.8,0.8,43.8c18.8,0,34.6,0,53.2,0c0-25.3,0.1-49.6,0-73.9c-0.1-34.6-7.5-42.2-41.8-42.2
		c-98-0.1-196.1-0.6-294.1,0.6C64.9,131.3,51.2,140.6,37.5,145.7z M475.8,337.9c1.1,2,2.1,4,3.2,6.1c-10.3,9.3-21.2,18-30.8,27.9
		c-14.4,14.7-15.9,31.8-3.8,42.4c14.7,12.8,28.4,8.1,40.8-4.1c26.3-26.1,52.8-52.2,78.6-78.8c15.5-16,15.7-28,0.4-43.7
		c-26.3-27.2-53.1-53.9-80.2-80.2c-14.4-14-30.3-14.8-40.7-2.7c-11.7,13.7-8.3,27.4,3.2,39.3c10.5,10.8,21.8,20.8,32.8,31.2
		c-9.1,4.8-15.8,4.8-22.4,4.8c-39.9,0-79.8-0.3-119.7,0.2c-17.8,0.2-29.8,9.3-30.3,27.8c-0.6,18.7,11.2,27.7,28.8,29.5
		c6.9,0.7,14,0.3,21,0.3C396.3,337.9,436,337.9,475.8,337.9z"/>
	<path d="M37.5,145.7c13.7-5.1,27.4-14.3,41.2-14.5c98-1.3,196.1-0.7,294.1-0.6c34.3,0,41.7,7.6,41.8,42.2c0.1,24.3,0,48.6,0,73.9
		c-18.6,0-34.4,0-53.2,0c0-15.1,1.8-29.9-0.8-43.8c-1.3-7.2-10.4-18.5-16.1-18.6c-65.4-1.3-130.9-0.8-197.2,2.9
		c32,16.5,63.5,34.1,96.1,49.3c20.7,9.7,28.4,23.9,28.1,46.2c-0.8,60.9-0.3,121.8-0.3,182.8c0,7.5,0,15,0,24.6
		c26,0,49.6,0.3,73.2-0.1c13.6-0.2,17.2-9.2,17.1-21.4c-0.3-31.3-0.1-62.6-0.1-95c18.1,0,34,0,53.2,0c0,24.9,0,49.8,0,74.7
		c0,20.3,0.5,40.6-0.2,60.9c-0.7,23.9-9.5,32.6-33.7,33c-35.6,0.5-71.2,0.1-110.3,0.1c0,26.6,0,51.5,0,76.4c0,43-3,44.7-41.9,24.6
		c-54-28-108.2-55.6-162-84.1c-10.7-5.7-19.4-15-29.1-22.7C37.5,406.2,37.5,275.9,37.5,145.7z"/>
	<path d="M475.8,337.9c-39.7,0-79.5,0-119.2,0c-7,0-14.1,0.4-21-0.3c-17.6-1.8-29.3-10.8-28.8-29.5c0.6-18.6,12.5-27.6,30.3-27.8
		c39.9-0.4,79.8-0.2,119.7-0.2c6.7,0,13.3,0,22.4-4.8c-11-10.4-22.3-20.4-32.8-31.2c-11.6-11.9-14.9-25.6-3.2-39.3
		c10.4-12.1,26.3-11.3,40.7,2.7c27.1,26.3,53.9,53,80.2,80.2c15.2,15.7,15.1,27.8-0.4,43.7c-25.8,26.6-52.3,52.7-78.6,78.8
		c-12.3,12.2-26.1,16.9-40.8,4.1c-12.1-10.6-10.7-27.7,3.8-42.4c9.7-9.9,20.5-18.7,30.8-27.9C477.9,341.9,476.8,339.9,475.8,337.9z"
		/>
</g>
</svg>
