<?xml version="1.0" encoding="utf-8"?>
<!-- Generator: Adobe Illustrator 19.0.0, SVG Export Plug-In . SVG Version: 6.00 Build 0)  -->
<svg version="1.1" id="Layer_1" xmlns="http://www.w3.org/2000/svg" xmlns:xlink="http://www.w3.org/1999/xlink" x="0px" y="0px"
	 viewBox="0 0 50 50" style="enable-background:new 0 0 50 50;" xml:space="preserve">
<style type="text/css">
	.st0{fill:#FFFFFF;}
	.st1{fill:#F1D33D;}
	.st2{fill:#F1D43E;}
</style>
<g id="XMLID_2_">
	<path id="XMLID_25_" class="st0" d="M25,49.9c-8,0-16.1,0-24.1,0C0.2,50,0,49.9,0,49.1C0,32.9,0,16.8,0,0.6C0,0,0.1-0.3,0.9-0.3
		c16.1,0,32.1,0,48.2,0c0.7,0,0.9,0.1,0.9,0.9c0,16.1,0,32.3,0,48.4c0,0.9-0.3,0.9-1,0.9C41,49.9,33,49.9,25,49.9z M39,32.5
		c0.7,0,1.9-0.6,2.4-1.3c1.3-1.7,1.3-5.3-0.6-6.6c-1.1-0.8-2.2-1.5-2.6-3c-0.2-0.6-0.9-1.1-1.6-1.3c-0.8-0.2-1.2-0.8-1.3-1.5
		c-0.2-1.6-1.2-2.2-2.6-2.5c-0.7-0.2-1.3-0.4-2-0.5c-0.5-0.1-0.8-0.4-0.6-0.9c0.3-0.7,0-1.4-0.1-2.1c-0.2-2.1-1.4-3.3-3.5-3.5
		c-0.7,0-0.7-0.4-0.6-0.9c0.3-1.3,0.9-2.5,2.2-3.3c0.3-0.2,0.8-0.6,0.4-1c-0.3-0.3-0.7-0.1-1.1,0.2c-1.2,1.1-2.1,2.4-2.2,4
		c-0.1,0.9-0.4,1-1.1,0.9c-1.4-0.1-2.3,0.5-2.9,1.8c-0.5,1-0.7,2.1-0.7,3.2c0,0.3,0.2,0.9-0.3,1c-0.7,0.1-1.3,0.7-2,0.8
		c-1.7,0.4-3.3,1-3.5,3.2c0,0.5-0.4,0.8-0.9,1c-1.5,0.5-2.3,1.6-2.5,3.2c-0.1,0.5-0.2,0.8-0.8,0.9c-2.1,0.5-3,2.1-2.7,4.7
		c0.2,1.9,1.6,3.3,3.4,3.6c2.3,0.3,4.5,0.1,6.8,0.1C24.9,32.4,32,32.5,39,32.5z M38,33.5c-0.3,0-0.5,0-0.6,0c-7.9,0-15.9,0-23.8,0.3
		c-0.9,0-0.9,0.3-0.6,1c1.2,3.1,2.2,6.3,3.1,9.5c0.3,1,0.7,1.2,1.6,1.2c4.8,0,9.7-0.1,14.5,0c1.4,0,2.2-0.3,2.4-1.8
		c0.1-0.6,0.4-1.2,0.6-1.7C36.1,39.1,37,36.3,38,33.5z"/>
	<path id="XMLID_24_" class="st1" d="M39,32.5c-7,0-14-0.1-21.1,0c-2.3,0-4.5,0.2-6.8-0.1c-1.8-0.2-3.3-1.7-3.4-3.6
		c-0.3-2.6,0.6-4.1,2.7-4.7c0.6-0.1,0.7-0.4,0.8-0.9c0.2-1.6,1-2.7,2.5-3.2c0.5-0.2,0.9-0.5,0.9-1c0.2-2.1,1.8-2.8,3.5-3.2
		c0.8-0.2,1.3-0.7,2-0.8c0.5-0.1,0.3-0.6,0.3-1c0-1.1,0.3-2.2,0.7-3.2c0.6-1.3,1.6-1.8,2.9-1.8c0.7,0,1.1,0,1.1-0.9
		c0.1-1.6,1-2.9,2.2-4c0.4-0.3,0.8-0.5,1.1-0.2c0.4,0.4-0.1,0.8-0.4,1c-1.3,0.7-1.8,1.9-2.2,3.3c-0.1,0.5-0.1,0.8,0.6,0.9
		c2.1,0.1,3.4,1.4,3.5,3.5c0.1,0.7,0.3,1.4,0.1,2.1c-0.1,0.4,0.1,0.8,0.6,0.9c0.7,0.1,1.3,0.3,2,0.5c1.4,0.3,2.4,0.9,2.6,2.5
		c0.1,0.7,0.4,1.3,1.3,1.5c0.7,0.2,1.4,0.7,1.6,1.3c0.4,1.5,1.5,2.2,2.6,3c1.9,1.3,2,4.9,0.6,6.6C40.9,31.8,39.7,32.5,39,32.5z"/>
	<path id="XMLID_23_" class="st2" d="M38,33.5c-0.9,2.9-1.9,5.7-2.8,8.5c-0.2,0.6-0.5,1.1-0.6,1.7c-0.1,1.5-0.9,1.8-2.4,1.8
		c-4.8-0.1-9.7-0.1-14.5,0c-0.9,0-1.4-0.2-1.6-1.2c-0.9-3.2-1.9-6.4-3.1-9.5c-0.3-0.7-0.3-1,0.6-1c7.9-0.3,15.9-0.3,23.8-0.3
		C37.5,33.4,37.7,33.5,38,33.5z"/>
</g>
</svg>
