<?xml version="1.0" encoding="utf-8"?>
<!-- Generator: Adobe Illustrator 19.0.0, SVG Export Plug-In . SVG Version: 6.00 Build 0)  -->
<svg version="1.1" id="Layer_1" xmlns="http://www.w3.org/2000/svg" xmlns:xlink="http://www.w3.org/1999/xlink" x="0px" y="0px"
	 viewBox="0 0 50 50" style="enable-background:new 0 0 50 50;" xml:space="preserve">
<style type="text/css">
	.st0{fill:#FFFFFF;}
</style>
<g id="XMLID_1_">
	<path id="XMLID_25_" class="st0" d="M50.1,50.1c-16.7,0-33.3,0-50,0c0-16.7,0-33.3,0-50c16.7,0,33.3,0,50,0
		C50.1,16.8,50.1,33.4,50.1,50.1z M11.5,34.7c0,0.2,0,0.4,0,0.5c0,4,0,8,0,12.1c0,1.6,0.8,2.4,2.4,2.4c7.4,0,14.8,0,22.2,0
		c1.5,0,2.4-0.9,2.4-2.4c0-3.8,0-7.6,0-11.4c0-0.4,0-0.8,0-1.3c0.2,0,0.3,0,0.4,0.1c1.4,0.4,2.9,0.8,4.3,1.3c1.2,0.4,2.1,0,2.7-1
		c1.1-2,2.3-4,3.4-6c0.6-1.1,0.1-2.7-1-3.2c-3.4-1.6-6.8-3.2-10.2-4.9c-0.8-0.4-1.6-0.7-2.6-0.6c-0.5,0-1,0-1.5,0
		c-0.3,0-0.6,0.1-0.8,0.3c-3.1,2.3-6.5,3.3-10.4,2.7c-2.3-0.4-4.4-1.3-6.3-2.7c-0.2-0.1-0.5-0.3-0.7-0.3c-0.9,0-1.7,0-2.6,0
		c-0.3,0-0.6,0.1-0.8,0.2C11,21.2,9.6,22,8.2,22.7c-2.1,1.1-4.2,2.1-6.4,3.2c-1.1,0.6-1.6,1.7-1.1,2.7c1.1,2.2,2.1,4.3,3.2,6.5
		c0.4,0.8,1.4,1.2,2.2,1c0.9-0.2,1.8-0.5,2.6-0.7C9.7,35.2,10.6,34.9,11.5,34.7z M15.4,10.1c-0.1,5.1,4.1,9.4,9.3,9.5
		c5,0.1,9.4-4.2,9.5-9.2c0.1-5.3-4-9.7-9.2-9.7C19.7,0.5,15.5,4.7,15.4,10.1z"/>
	<path id="XMLID_24_" d="M11.5,34.7c-0.9,0.2-1.8,0.5-2.7,0.7c-0.9,0.2-1.8,0.5-2.6,0.7c-0.9,0.2-1.8-0.2-2.2-1
		c-1.1-2.2-2.1-4.3-3.2-6.5c-0.5-1-0.1-2.1,1.1-2.7c2.1-1.1,4.2-2.1,6.4-3.2c1.4-0.7,2.8-1.4,4.2-2.1c0.3-0.1,0.6-0.2,0.8-0.2
		c0.9,0,1.7,0,2.6,0c0.2,0,0.5,0.1,0.7,0.3c1.9,1.4,4,2.4,6.3,2.7c3.9,0.6,7.3-0.4,10.4-2.7c0.2-0.2,0.5-0.3,0.8-0.3
		c0.5,0,1,0,1.5,0c0.9-0.1,1.7,0.2,2.6,0.6c3.4,1.6,6.8,3.3,10.2,4.9c1.2,0.6,1.7,2.1,1,3.2c-1.1,2-2.3,4-3.4,6
		c-0.6,1.1-1.5,1.4-2.7,1c-1.4-0.4-2.9-0.9-4.3-1.3c-0.1,0-0.2,0-0.4-0.1c0,0.4,0,0.9,0,1.3c0,3.8,0,7.6,0,11.4
		c0,1.5-0.9,2.4-2.4,2.4c-7.4,0-14.8,0-22.2,0c-1.6,0-2.4-0.8-2.4-2.4c0-4,0-8,0-12.1C11.5,35.1,11.5,34.9,11.5,34.7z"/>
	<path id="XMLID_23_" d="M15.4,10.1c0.1-5.3,4.3-9.5,9.5-9.5c5.2,0.1,9.3,4.4,9.2,9.7c-0.1,5-4.5,9.3-9.5,9.2
		C19.6,19.5,15.3,15.2,15.4,10.1z"/>
</g>
</svg>
