<?xml version="1.0" encoding="utf-8"?>
<!-- Generator: Adobe Illustrator 19.0.0, SVG Export Plug-In . SVG Version: 6.00 Build 0)  -->
<svg version="1.1" id="Layer_1" xmlns="http://www.w3.org/2000/svg" xmlns:xlink="http://www.w3.org/1999/xlink" x="0px" y="0px"
	 viewBox="0 0 220 220" style="enable-background:new 0 0 220 220;" xml:space="preserve">
<style type="text/css">
	.st0{fill:#FFFFFF;}
</style>
<g>
	<path class="st0" d="M220.8,220.8c-73.3,0-146.7,0-219.9,0c0-73.3,0-146.7,0-219.9c73.3,0,146.7,0,219.9,0
		C220.8,74.2,220.8,147.5,220.8,220.8z M53.2,177.9c0.2,0,0.5,0.1,0.7,0.1c0,4,0.1,8-0.1,12c-0.1,2.5,0.8,3.7,3.2,4.1
		c10.2,1.9,20.4,4.5,30.7,5.6c13.9,1.5,27.7-0.4,40.9-5.3c2.6-1,3.9-2.2,3.7-5.2c-0.3-6.4,0-12.9-0.1-19.3
		c-0.3-16.5-10.7-28.4-27-30c-8.5-0.8-17.2-0.7-25.7,0.2c-11.9,1.1-20.2,8-23.8,19.3C53.9,165.3,54,171.7,53.2,177.9z M63.3,116.2
		c-7.9,0-16.9-0.8-25.6,0.2c-12.3,1.4-22.9,12.8-23.8,24.8c-0.6,8.5-0.4,17.2-0.3,25.7c0,1,0.9,2.7,1.7,2.9
		c10.6,3.3,21.4,5.7,33,6.2c-1.1-19.3,6.2-33.4,23.7-40.2C69.1,129.4,66.3,123,63.3,116.2z M175.6,153c11-0.3,20.9-2.2,30.3-6.2
		c1.1-0.5,2.2-2.3,2.2-3.4c0.1-8,0.2-16-0.2-24c-0.6-11.4-8.5-22.4-19.7-24.8c-8.8-1.9-18.1-1.4-27.2-1.8c-0.6,0-1.8,1.1-1.8,1.8
		c-0.6,6.8-3.8,12.5-8.3,17.7C169.6,119.4,176.8,133.5,175.6,153z M137.6,176.2c11.1-0.3,21.2-2.2,30.9-6.4c0.9-0.4,1.7-2.2,1.7-3.4
		c0.1-7.7,0.1-15.4-0.1-23.2c-0.1-5.9-2.3-11.2-5.9-15.8c-8.4-10.8-28.3-15.8-41.3-11.4c-3.2,7.2-6,13.4-8.9,19.7
		C131.8,142.8,139,156.8,137.6,176.2z M91.9,71.4c13.7,0,24.9-11.1,25-24.7c0.1-13.6-11.1-24.9-24.7-25.1
		C78.4,21.4,66.9,32.9,67,46.6C67,60.3,78.2,71.4,91.9,71.4z M93.1,137.8c12.7,0,22.9-10.3,22.9-23c0-12.6-10.4-22.9-23-22.9
		c-12.7,0-22.9,10.3-22.8,23C70.2,127.6,80.4,137.8,93.1,137.8z M29.8,91.2c0.1,16.4,16.8,27.5,31.7,21c1.8-0.8,3.1-2.9,4.2-4.7
		c2.7-4.3,5.4-8.6,7.8-13.1c1-1.8,2.1-4.1,1.9-6c-1.2-11.8-12.2-21.1-23.6-20.3C39,69.1,29.7,78.8,29.8,91.2z M154,91
		c-0.1-12.2-9-21.7-21.7-22.8c-10.9-1-21.6,7.5-23.8,18.7c-0.5,2.4-0.2,4.3,2.1,5.9c5.4,4,8.8,9.3,10,15.9c0.5,2.9,2.3,4,4.8,4.6
		C139.9,117.1,154.1,106.1,154,91z M192,68c0-12.4-9.3-22.1-22-23c-11.2-0.8-22,8-23.5,19.4c-0.2,1.6,0.8,3.9,2,4.9
		c5.1,4.3,8.8,9.4,10,16c0.5,2.9,2.1,4,4.6,4.7C177.6,94,191.9,83.1,192,68z M108.2,73.8c-11,0-21.9,0-32.6,0
		c1.8,5.4,3.4,10.4,5.1,15.6c7.2-3.8,15-3.7,22.5-1.1C104.9,83.4,106.5,78.9,108.2,73.8z"/>
	<path d="M53.2,177.9c0.8-6.2,0.7-12.7,2.6-18.5c3.6-11.3,11.9-18.2,23.8-19.3c8.5-0.8,17.2-1,25.7-0.2c16.4,1.5,26.7,13.5,27,30
		c0.1,6.4-0.2,12.9,0.1,19.3c0.1,3-1.1,4.3-3.7,5.2c-13.3,4.9-27,6.8-40.9,5.3c-10.3-1.1-20.5-3.7-30.7-5.6
		c-2.4-0.4-3.3-1.6-3.2-4.1c0.2-4,0.1-8,0.1-12C53.6,178,53.4,178,53.2,177.9z"/>
	<path d="M63.3,116.2c3,6.7,5.9,13.2,8.8,19.6c-17.6,6.8-24.8,20.9-23.7,40.2c-11.6-0.5-22.4-2.9-33-6.2c-0.8-0.2-1.7-1.9-1.7-2.9
		c0-8.6-0.3-17.2,0.3-25.7c0.9-12,11.4-23.4,23.8-24.8C46.4,115.4,55.3,116.2,63.3,116.2z"/>
	<path d="M175.6,153c1.3-19.6-6-33.6-24.6-40.8c4.5-5.2,7.7-10.9,8.3-17.7c0.1-0.7,1.2-1.8,1.8-1.8c9.1,0.4,18.4-0.1,27.2,1.8
		c11.2,2.4,19.1,13.4,19.7,24.8c0.4,8,0.3,16,0.2,24c0,1.2-1.2,3-2.2,3.4C196.5,150.9,186.6,152.8,175.6,153z"/>
	<path d="M137.6,176.2c1.4-19.4-5.9-33.4-23.6-40.4c2.8-6.3,5.6-12.5,8.9-19.7c13-4.5,32.9,0.6,41.3,11.4c3.6,4.6,5.8,9.9,5.9,15.8
		c0.2,7.7,0.2,15.4,0.1,23.2c0,1.2-0.8,3-1.7,3.4C158.9,174,148.7,175.9,137.6,176.2z"/>
	<path d="M91.9,71.4C78.2,71.4,67,60.3,67,46.6c-0.1-13.8,11.4-25.2,25.1-25.1c13.6,0.2,24.8,11.5,24.7,25.1
		C116.8,60.3,105.6,71.4,91.9,71.4z"/>
	<path d="M93.1,137.8c-12.7,0-22.9-10.1-23-22.9c0-12.7,10.2-23,22.8-23c12.6,0,23,10.3,23,22.9C116,127.4,105.8,137.8,93.1,137.8z"
		/>
	<path d="M29.8,91.2c-0.1-12.3,9.2-22.1,21.9-23c11.4-0.9,22.5,8.4,23.6,20.3c0.2,1.9-0.9,4.2-1.9,6c-2.4,4.4-5.1,8.8-7.8,13.1
		c-1.1,1.8-2.4,3.9-4.2,4.7C46.5,118.7,29.8,107.5,29.8,91.2z"/>
	<path d="M154,91c0.1,15.1-14,26.1-28.6,22.4c-2.5-0.6-4.3-1.7-4.8-4.6c-1.2-6.6-4.6-12-10-15.9c-2.2-1.6-2.5-3.5-2.1-5.9
		c2.2-11.2,12.9-19.7,23.8-18.7C145,69.3,153.9,78.8,154,91z"/>
	<path d="M192,68c0,15.1-14.3,26-28.9,22.1c-2.6-0.7-4.1-1.9-4.6-4.7c-1.2-6.6-4.9-11.7-10-16c-1.2-1-2.2-3.4-2-4.9
		C148,53.1,158.8,44.3,170,45C182.7,45.9,192,55.7,192,68z"/>
	<path d="M108.2,73.8c-1.8,5.1-3.4,9.7-5,14.5c-7.5-2.6-15.2-2.7-22.5,1.1c-1.7-5.2-3.3-10.1-5.1-15.6
		C86.4,73.8,97.2,73.8,108.2,73.8z"/>
</g>
</svg>
