<?xml version="1.0" encoding="utf-8"?>
<!-- Generator: Adobe Illustrator 19.0.0, SVG Export Plug-In . SVG Version: 6.00 Build 0)  -->
<svg version="1.1" id="Layer_1" xmlns="http://www.w3.org/2000/svg" xmlns:xlink="http://www.w3.org/1999/xlink" x="0px" y="0px"
	 viewBox="0 0 50 50" style="enable-background:new 0 0 50 50;" xml:space="preserve">
<style type="text/css">
	.st0{fill:#FFFFFF;}
</style>
<g id="XMLID_1_">
	<path id="XMLID_25_" d="M10.6,49.8C10.6,49.8,10.6,49.8,10.6,49.8c-0.1-0.1-0.1-0.1-0.2-0.2c-3.3-3.3-6.6-6.6-9.9-9.9
		c-0.1-0.1-0.1-0.1-0.2-0.2c4.8-4.8,9.7-9.7,14.5-14.5C10,20.2,5.1,15.4,0.3,10.6C3.8,7.2,7.2,3.7,10.6,0.3
		c4.8,4.8,9.6,9.6,14.5,14.5c4.8-4.8,9.7-9.7,14.5-14.5c0.1,0.1,0.1,0.2,0.2,0.2c3.3,3.3,6.6,6.6,9.9,9.9c0,0,0.1,0.1,0.1,0.1
		c0,0,0,0.1,0,0.1c-0.1,0.1-0.2,0.1-0.2,0.2c-4.7,4.7-9.4,9.4-14.1,14.1c-0.1,0.1-0.1,0.1-0.2,0.2c0.1,0.1,0.2,0.1,0.2,0.2
		c4.7,4.7,9.4,9.4,14.1,14.1c0.1,0.1,0.1,0.1,0.2,0.2c0,0,0,0,0,0c-0.1,0.1-0.1,0.1-0.2,0.2c-3.3,3.3-6.5,6.5-9.8,9.8
		c-0.1,0.1-0.1,0.1-0.2,0.2c0,0,0,0,0,0c0,0-0.1-0.1-0.1-0.1c-4.7-4.7-9.5-9.5-14.2-14.2c0,0-0.1-0.1-0.1-0.1
		c-0.1,0.1-0.1,0.1-0.2,0.2c-4.7,4.7-9.4,9.4-14.2,14.2C10.7,49.7,10.6,49.8,10.6,49.8z"/>
	<path id="XMLID_24_" class="st0" d="M49.8,10.5c0,0-0.1-0.1-0.1-0.1c-3.3-3.3-6.6-6.6-9.9-9.9c-0.1-0.1-0.1-0.1-0.2-0.2
		c-4.9,4.9-9.7,9.7-14.5,14.5c-4.8-4.8-9.7-9.7-14.5-14.5C7.2,3.7,3.8,7.2,0.3,10.6c4.8,4.8,9.6,9.6,14.5,14.5
		C10,29.9,5.1,34.7,0.3,39.5c0.1,0.1,0.1,0.1,0.2,0.2c3.3,3.3,6.6,6.6,9.9,9.9c0.1,0.1,0.1,0.1,0.2,0.2c-3.4,0-6.9,0-10.3,0
		c0-16.5,0-33,0-49.5c16.5,0,33,0,49.5,0C49.8,3.7,49.8,7.1,49.8,10.5z"/>
	<path id="XMLID_23_" class="st0" d="M10.6,49.8c0-0.1,0.1-0.1,0.1-0.2c4.7-4.7,9.4-9.4,14.2-14.2c0.1-0.1,0.1-0.1,0.2-0.2
		c0.1,0,0.1,0.1,0.1,0.1c4.7,4.7,9.5,9.5,14.2,14.2c0,0,0.1,0.1,0.1,0.1C29.9,49.8,20.2,49.8,10.6,49.8z"/>
	<path id="XMLID_22_" class="st0" d="M49.8,39.5c-0.1-0.1-0.1-0.1-0.2-0.2c-4.7-4.7-9.4-9.4-14.1-14.1c-0.1-0.1-0.1-0.1-0.2-0.2
		c0.1-0.1,0.2-0.2,0.2-0.2c4.7-4.7,9.4-9.4,14.1-14.1c0.1-0.1,0.1-0.1,0.2-0.2C49.8,20.2,49.8,29.9,49.8,39.5z"/>
	<path id="XMLID_21_" class="st0" d="M39.6,49.8c0.1-0.1,0.1-0.1,0.2-0.2c3.3-3.3,6.5-6.5,9.8-9.8c0.1-0.1,0.1-0.1,0.2-0.2
		c0,3.4,0,6.8,0,10.2C46.4,49.8,43,49.8,39.6,49.8z"/>
</g>
</svg>
