<?xml version="1.0" encoding="utf-8"?>
<!-- Generator: Adobe Illustrator 19.0.0, SVG Export Plug-In . SVG Version: 6.00 Build 0)  -->
<svg version="1.1" id="Layer_1" xmlns="http://www.w3.org/2000/svg" xmlns:xlink="http://www.w3.org/1999/xlink" x="0px" y="0px"
	 viewBox="0 0 300 300" style="enable-background:new 0 0 300 300;" xml:space="preserve">
<style type="text/css">
	.st0{fill:#FFFFFF;}
</style>
<g id="XMLID_1_">
	<path id="XMLID_224_" d="M0.6,160.5c0-6.6,0-13.3,0-19.9c0.4-3.6,0.8-7.1,1.4-10.7c4.3-29.5,16-55.6,35.8-78
		C61.8,24.6,91.9,8,128,2.3c4.2-0.7,8.4-1.2,12.7-1.7c6.6,0,13.3,0,19.9,0c3.6,0.4,7.1,0.8,10.7,1.4c39.6,6,72.1,24.4,97,55.7
		c26.3,33.2,36.6,71.3,31,113.3c-5.4,40.1-24.5,72.9-56.4,97.8c-33.2,25.9-71.2,35.9-112.9,30.4c-29.5-3.9-55.5-15.9-77.8-35.6
		c-27.4-24.1-44-54.2-49.7-90.3C1.7,169,1.2,164.8,0.6,160.5z M150.7,22.4c-70.3-0.3-127.9,57.1-128.3,128
		c-0.4,70.3,57.6,128.4,128.2,128.4c70.5,0,128-57.5,128.2-128.1C278.9,80.2,221.5,22.7,150.7,22.4z"/>
	<path id="XMLID_223_" class="st0" d="M0.6,160.5c0.6,4.2,1.1,8.5,1.7,12.7C8,209.3,24.7,239.4,52,263.5
		c22.3,19.7,48.4,31.7,77.8,35.6c41.7,5.5,79.7-4.4,112.9-30.4c31.9-24.9,51-57.7,56.4-97.8c5.7-41.9-4.7-80-31-113.3
		c-24.8-31.4-57.4-49.8-97-55.7c-3.5-0.5-7.1-0.9-10.7-1.4c46.9,0,93.7,0,140.6,0c0,100.2,0,200.4,0,300.6c-100.2,0-200.4,0-300.6,0
		C0.6,254.3,0.6,207.4,0.6,160.5z"/>
	<path id="XMLID_222_" class="st0" d="M140.6,0.6c-4.2,0.6-8.5,1.1-12.7,1.7C91.9,8,61.8,24.6,37.7,52C18,74.3,6.2,100.5,1.9,129.9
		c-0.5,3.5-0.9,7.1-1.4,10.7c0-46.6,0-93.3,0-140C47.3,0.6,93.9,0.6,140.6,0.6z"/>
	<path id="XMLID_201_" class="st0" d="M150.7,22.4c70.7,0.3,128.2,57.9,128.1,128.3c-0.2,70.6-57.7,128.2-128.2,128.1
		c-70.6,0-128.7-58.1-128.2-128.4C22.8,79.5,80.4,22.1,150.7,22.4z M143.6,132.3c-5.2,4.2-8.2,7.5-8,11.7c0.3,5.8-2.7,7.7-7.5,8.7
		c-0.9,0.2-1.8,0.9-2.7,0.9c-1,0.1-2.3,0-3.1-0.5c-3.8-2.7-8.5-2.9-12-0.4c-3.5,2.5-5.2,7-4,11.1c1.2,4.1,5,7.1,9.3,7.3
		c4.3,0.2,8.9-2.5,9.7-6.9c0.7-3.8,2.9-4.7,5.9-5.6c1.5-0.4,3-1,4.4-1.6c1.4-0.7,2.2-0.4,3.1,0.9c2.6,3.6,6.4,6.6,10.7,6.3
		c6.5-0.4,7.6,3.6,8.9,8.1c0.2,0.7,0.4,1.3,0.7,1.9c0.8,1.6,0.8,2.8-0.6,4.3c-2.8,2.9-3,7.6-1.1,11.2c2,3.5,5.9,5.5,9.8,5.1
		c5-0.6,8.8-4.5,9.2-9.5c0.3-4.5-3-8.8-7.6-10.2c-1-0.3-2.4-0.8-2.8-1.6c-1.6-3.7-2.9-7.6-4.3-11.4c5.6-4.1,8.4-9.4,7.9-16.2
		c0-0.6,0.9-1.6,1.6-1.9c3.1-1.3,6.2-2.5,9.3-3.4c1-0.3,2.5,0,3.3,0.6c3.8,2.9,8.7,3.3,12.5,0.7c3.6-2.5,5.1-7.3,3.7-11.4
		c-1.5-4.5-5.5-7.1-10.4-6.8c-4.5,0.3-8,3.5-9.1,8.2c-0.2,0.8-0.8,1.8-1.5,2.1c-3.9,1.6-7.8,2.9-11.8,4.4c-4-5.5-9.1-8.4-16-8.2
		c-0.6,0-1.6-0.9-1.9-1.6c-1.2-2.9-2.4-5.8-3.3-8.7c-0.3-0.9,0.1-2.2,0.6-3c2.7-3.9,2.9-8.7,0.2-12.3c-2.8-3.7-7.5-5.1-11.8-3.4
		c-4.1,1.6-6.7,5.8-6.3,10.2c0.4,4.7,3.7,8.1,8.5,9.2c1.1,0.2,2.3,1.3,2.8,2.3C141.3,125.7,142.4,128.9,143.6,132.3z M65.6,230.5
		c4.2,8.9,10.8,14.4,20.1,17c2.7-6.8,5.3-13.3,7.8-19.4c-3.6-3.1-6.9-5.9-10.2-8.7C77.5,223,71.7,226.7,65.6,230.5z M264.1,184.1
		c5.6-8,7.1-16.5,4.6-25.9c-7.1,1-14,2-20.6,3c-0.9,4.1-1.7,7.9-2.4,11.7c-0.1,0.6,0.7,1.8,1.3,2.1
		C252.6,178.1,258.2,181,264.1,184.1z M143.8,247c-2.1,6.6-4.2,13.1-6.4,19.8c8.9,4.2,17.4,4.2,26.3,0.1c-2.2-6.8-4.4-13.4-6.5-19.9
		C152.7,247,148.4,247,143.8,247z M100,44.4c4.4,5.6,8.7,11.1,12.9,16.4c4.3-1.6,8.4-3,12-4.3c0-7.1,0-14,0-21.1
		C115,34.6,106.9,37.6,100,44.4z M179.7,57c3.4,1.3,6.9,2.8,10.4,4.1c0.6,0.2,1.8,0.1,2.2-0.4c4.1-5.2,8.2-10.4,12.3-15.7
		c-6.9-6.9-15-9.8-24.9-9.1C179.7,43.1,179.7,50,179.7,57z M57.3,79.4c-8,5.7-12.3,13.1-13.2,22.8c7,1.5,13.9,2.9,20.4,4.3
		c2.3-4,4.5-7.7,6.8-11.5C66.7,89.9,62.1,84.7,57.3,79.4z M239.2,108.1c6-1.3,12.1-2.6,18.3-3.9c0.6-0.1,1.3-0.4,1.9-0.6
		c0.6-8.4-7-20.1-13.1-22.4c-4.6,5.2-9.3,10.4-13.6,15.3C234.9,100.6,237,104.2,239.2,108.1z M215.8,248.6c9.5-2.7,16.1-8.2,20.1-17
		c-6.2-3.9-12.1-7.5-17.7-11c-3.5,2.9-6.8,5.6-10.3,8.5C210.5,235.4,213.1,241.9,215.8,248.6z M34,156.4c-2.5,9.5-1,18,4.5,26
		c6-3.2,11.7-6.3,17.4-9.4c0.5-0.3,1-1.3,0.9-2c-0.6-3.8-1.4-7.6-2.2-11.7C48,158.4,41.2,157.5,34,156.4z M264.7,116.4
		c-6.9,3.7-13.6,7.3-19.7,10.6c0.6,4.3,1.1,8.1,1.8,11.9c0.2,1,1,2.6,1.7,2.7c6.5,1.1,13.1,1.9,19.6,2.7c0.6,0.1,1.6-0.6,1.8-1.1
		C272.5,133.5,270.7,124.7,264.7,116.4z M110.9,237.4c-4.6,5.9-9.2,11.8-13.8,17.7c7.5,7.8,16.3,10.8,27.1,9.7c0-7.7,0-15.2,0-22.4
		C119.9,240.7,115.6,239.1,110.9,237.4z M219.5,81.8c6.2-3.9,12.6-7.9,19-11.9c-4.5-9.8-11.6-15.8-21.9-18.3
		c-2.9,7.3-5.7,14.3-8.4,20.8C212.1,75.5,215.6,78.5,219.5,81.8z M138.1,32.6c2.4,7.4,4.7,14.5,7,21.5c4.9,0,9.6,0,14.6,0
		c2.3-7,4.6-14.2,6.9-21.4C156.9,28,147.7,28.2,138.1,32.6z M56.5,220.3c5.2-5.8,10.2-11.4,15.1-16.9c-1.5-2.3-3-4.4-4.4-6.7
		c-1.1-1.8-1.7-4.7-3.3-5.4c-1.7-0.7-4.3,0.5-6.5,1c-5.1,1.1-10.2,2.2-15.3,3.3C43.2,206.3,47.8,214.4,56.5,220.3z M245.4,221.7
		c8.8-5.3,15.3-16.9,13.9-24.7c-7.3-1.5-14.6-3.1-21.4-4.5c-2.5,4.4-4.9,8.5-7.4,12.7C235.4,210.6,240.3,216.1,245.4,221.7z
		 M84.9,80.6c3.8-3.2,7.4-6.3,11.2-9.4c-2.8-6.8-5.6-13.8-8.5-20.8c-10.3,2.7-17.5,8.7-21.8,18.3C72.3,72.8,78.7,76.7,84.9,80.6z
		 M55.7,139.7c0.9-5.1,1.8-9.6,2.7-14.4c-6.5-3.5-13.2-7-19.9-10.5c-6.2,8.8-7.9,17.9-4.9,28.1C41.2,141.7,48.6,140.7,55.7,139.7z
		 M204.2,255.7c-4.8-6.1-9.4-12-13.8-17.5c-4.3,1.4-8.1,2.8-12,3.9c-1.4,0.4-2,1-1.9,2.6c0.3,4.2,0.3,8.4,0.5,12.6
		c0.1,2.7,0.3,5.4,0.4,8.2C188.1,266.5,196.8,263.3,204.2,255.7z"/>
	<path id="XMLID_200_" d="M143.6,132.3c-1.2-3.3-2.2-6.6-3.6-9.7c-0.4-1-1.7-2.1-2.8-2.3c-4.8-1.1-8-4.4-8.5-9.2
		c-0.4-4.4,2.2-8.6,6.3-10.2c4.2-1.6,9-0.3,11.8,3.4c2.7,3.6,2.6,8.3-0.2,12.3c-0.6,0.8-0.9,2.2-0.6,3c0.9,3,2,5.9,3.3,8.7
		c0.3,0.7,1.3,1.7,1.9,1.6c6.8-0.2,12,2.7,16,8.2c4-1.5,7.9-2.8,11.8-4.4c0.7-0.3,1.3-1.3,1.5-2.1c1.1-4.7,4.6-7.9,9.1-8.2
		c4.9-0.3,8.9,2.3,10.4,6.8c1.4,4.2-0.1,8.9-3.7,11.4c-3.8,2.6-8.7,2.3-12.5-0.7c-0.8-0.6-2.3-0.9-3.3-0.6c-3.2,0.9-6.3,2.1-9.3,3.4
		c-0.7,0.3-1.7,1.3-1.6,1.9c0.5,6.9-2.3,12.1-7.9,16.2c1.4,3.8,2.7,7.7,4.3,11.4c0.3,0.8,1.7,1.3,2.8,1.6c4.6,1.4,7.9,5.8,7.6,10.2
		c-0.4,5-4.2,8.9-9.2,9.5c-3.9,0.4-7.8-1.6-9.8-5.1c-2-3.5-1.7-8.2,1.1-11.2c1.4-1.5,1.5-2.7,0.6-4.3c-0.3-0.6-0.5-1.3-0.7-1.9
		c-1.3-4.5-2.4-8.5-8.9-8.1c-4.3,0.3-8.1-2.7-10.7-6.3c-0.9-1.3-1.7-1.6-3.1-0.9c-1.4,0.7-2.9,1.2-4.4,1.6c-2.9,0.9-5.1,1.9-5.9,5.6
		c-0.8,4.4-5.4,7.1-9.7,6.9c-4.2-0.2-8.1-3.2-9.3-7.3c-1.2-4.1,0.4-8.6,4-11.1c3.6-2.5,8.2-2.2,12,0.4c0.8,0.5,2,0.6,3.1,0.5
		c0.9-0.1,1.8-0.7,2.7-0.9c4.7-1,7.7-2.9,7.5-8.7C135.4,139.8,138.4,136.5,143.6,132.3z"/>
	<path id="XMLID_199_" d="M65.6,230.5c6.1-3.8,11.9-7.5,17.7-11.1c3.3,2.8,6.5,5.6,10.2,8.7c-2.4,6.1-5,12.6-7.8,19.4
		C76.4,244.8,69.8,239.3,65.6,230.5z"/>
	<path id="XMLID_198_" d="M264.1,184.1c-5.9-3.1-11.5-6-17.1-9.1c-0.7-0.4-1.4-1.5-1.3-2.1c0.6-3.8,1.5-7.6,2.4-11.7
		c6.6-1,13.5-2,20.6-3C271.2,167.6,269.6,176.1,264.1,184.1z"/>
	<path id="XMLID_197_" d="M143.8,247c4.6,0,8.8,0,13.4,0c2.1,6.4,4.3,13.1,6.5,19.9c-8.9,4.1-17.4,4.1-26.3-0.1
		C139.6,260.1,141.7,253.6,143.8,247z"/>
	<path id="XMLID_196_" d="M100,44.4c6.9-6.8,15-9.7,24.9-9c0,7.1,0,14,0,21.1c-3.6,1.3-7.7,2.8-12,4.3C108.7,55.5,104.4,50,100,44.4
		z"/>
	<path id="XMLID_195_" d="M179.7,57c0-7,0-13.9,0-21c9.9-0.7,18,2.2,24.9,9.1c-4.1,5.3-8.1,10.5-12.3,15.7c-0.4,0.4-1.5,0.6-2.2,0.4
		C186.6,59.8,183.1,58.3,179.7,57z"/>
	<path id="XMLID_194_" d="M57.3,79.4c4.8,5.3,9.4,10.5,14,15.5c-2.2,3.8-4.4,7.6-6.8,11.5c-6.6-1.4-13.4-2.8-20.4-4.3
		C45,92.5,49.3,85.1,57.3,79.4z"/>
	<path id="XMLID_193_" d="M239.2,108.1c-2.2-3.9-4.3-7.5-6.6-11.6c4.4-4.9,9-10.1,13.6-15.3c6.1,2.4,13.7,14,13.1,22.4
		c-0.6,0.2-1.2,0.4-1.9,0.6C251.3,105.5,245.2,106.8,239.2,108.1z"/>
	<path id="XMLID_192_" d="M215.8,248.6c-2.7-6.7-5.3-13.1-7.9-19.4c3.5-2.9,6.8-5.6,10.3-8.5c5.6,3.5,11.5,7.1,17.7,11
		C232,240.4,225.3,245.8,215.8,248.6z"/>
	<path id="XMLID_191_" d="M34,156.4c7.2,1,14,2,20.6,2.9c0.8,4.1,1.6,7.9,2.2,11.7c0.1,0.6-0.4,1.7-0.9,2
		c-5.7,3.2-11.4,6.2-17.4,9.4C33,174.4,31.5,165.9,34,156.4z"/>
	<path id="XMLID_188_" d="M264.7,116.4c6,8.3,7.8,17.1,5.3,26.7c-0.1,0.5-1.2,1.2-1.8,1.1c-6.6-0.8-13.1-1.6-19.6-2.7
		c-0.7-0.1-1.6-1.7-1.7-2.7c-0.7-3.8-1.2-7.6-1.8-11.9C251.1,123.7,257.7,120.2,264.7,116.4z M268.3,142.4
		c1.8-8.6,0.8-16.3-4.2-23.5c-5.3,2.8-10.5,5.6-15.7,8.5c-0.6,0.4-1.1,1.7-1,2.5c0.3,2.7,0.8,5.4,1.5,8c0.2,0.8,1.1,1.9,1.8,2
		C256.4,140.9,262.2,141.6,268.3,142.4z"/>
	<path id="XMLID_185_" d="M110.9,237.4c4.7,1.8,9,3.4,13.3,5c0,7.2,0,14.7,0,22.4c-10.8,1.1-19.7-1.9-27.1-9.7
		C101.7,249.1,106.3,243.2,110.9,237.4z M122.6,263.1c0-6.2,0-12-0.1-17.9c0-0.7-0.6-1.8-1.1-2c-3.2-1.2-6.5-2.3-10-3.4
		c-3.8,4.9-7.8,10-11.7,15.1C106,261,113.3,263.4,122.6,263.1z"/>
	<path id="XMLID_182_" d="M219.5,81.8c-3.9-3.2-7.5-6.2-11.3-9.4c2.6-6.6,5.5-13.6,8.4-20.8c10.3,2.5,17.3,8.6,21.9,18.3
		C232.2,73.8,225.8,77.8,219.5,81.8z M219.8,79.3c5.3-3.3,10.8-6.7,16.3-10.2c-4.1-7.8-9.9-12.9-18.3-15.3
		c-2.3,5.7-4.5,11.1-6.6,16.7c-0.2,0.6,0.2,1.8,0.8,2.3C214.4,75,217,77,219.8,79.3z"/>
	<path id="XMLID_179_" d="M138.1,32.6c9.6-4.5,18.9-4.7,28.5,0c-2.3,7.3-4.7,14.4-6.9,21.4c-5,0-9.7,0-14.6,0
		C142.8,47.2,140.5,40,138.1,32.6z M140.4,33.8c2.1,6.2,4.1,12.3,6.1,18.4c3.5,0,6.6,0.1,9.7,0c0.8,0,2.2-0.4,2.4-1
		c2-5.7,3.8-11.6,5.7-17.5C156.2,30.1,148.4,30.2,140.4,33.8z"/>
	<path id="XMLID_176_" d="M56.5,220.3c-8.8-5.9-13.4-14-14.3-24.7c5.1-1.1,10.2-2.2,15.3-3.3c2.2-0.5,4.8-1.7,6.5-1
		c1.6,0.7,2.2,3.6,3.3,5.4c1.4,2.2,2.9,4.4,4.4,6.7C66.8,208.9,61.7,214.5,56.5,220.3z M69.1,203.4c-1.8-3.2-3.4-6.2-5.1-9.1
		c-0.3-0.5-1.4-1.1-2-0.9c-5.8,1.1-11.6,2.4-17.6,3.7c1.1,8.7,4.8,15.4,11.9,20.6C60.7,212.8,64.9,208,69.1,203.4z"/>
	<path id="XMLID_173_" d="M245.4,221.7c-5.1-5.6-10-11.1-14.9-16.5c2.4-4.2,4.8-8.3,7.4-12.7c6.9,1.4,14.2,3,21.4,4.5
		C260.7,204.8,254.2,216.4,245.4,221.7z M257.8,198.7c-6.3-1.3-12.6-2.7-18.9-4c-2,3.5-4,6.9-6,10.3c4.2,4.7,8.5,9.5,12.9,14.3
		C252.8,214.1,256.6,207.3,257.8,198.7z"/>
	<path id="XMLID_170_" d="M84.9,80.6c-6.2-3.8-12.5-7.8-19.1-11.9c4.4-9.7,11.5-15.6,21.8-18.3c2.8,7,5.7,14,8.5,20.8
		C92.3,74.3,88.7,77.4,84.9,80.6z M68.3,68c5.3,3.3,10.2,6.4,15.2,9.4c0.6,0.3,1.7,0.3,2.2,0c2.7-2.2,5.3-4.5,8-6.9
		c-2.4-5.8-4.8-11.7-7.2-17.7C78.2,55.2,72.2,60.1,68.3,68z"/>
	<path id="XMLID_167_" d="M55.7,139.7c-7.1,1-14.5,2.1-22.1,3.2c-2.9-10.2-1.3-19.3,4.9-28.1c6.7,3.5,13.3,7.1,19.9,10.5
		C57.5,130,56.7,134.6,55.7,139.7z M56.1,126.2c-5.5-2.9-11.1-5.9-16.9-9c-4.6,7.4-6.3,15-4,23.5c6-0.8,11.8-1.6,17.5-2.5
		c0.7-0.1,1.7-1,1.8-1.7C55.1,133.1,55.5,129.8,56.1,126.2z"/>
	<path id="XMLID_164_" d="M204.2,255.7c-7.4,7.6-16,10.9-26.8,9.8c-0.1-2.8-0.3-5.5-0.4-8.2c-0.2-4.2-0.2-8.4-0.5-12.6
		c-0.1-1.6,0.5-2.2,1.9-2.6c3.9-1.2,7.7-2.5,12-3.9C194.7,243.6,199.4,249.6,204.2,255.7z M201.7,255.6c-4.1-5.3-8.1-10.3-11.9-15.1
		c-3.5,1.2-6.7,2.2-9.9,3.4c-0.6,0.2-1.3,1.2-1.3,1.9c0.1,5.9,0.3,11.8,0.6,17.9C188,264.4,195.1,261.3,201.7,255.6z"/>
	<path id="XMLID_163_" class="st0" d="M268.3,142.4c-6.1-0.8-11.9-1.5-17.6-2.5c-0.7-0.1-1.6-1.2-1.8-2c-0.7-2.6-1.2-5.3-1.5-8
		c-0.1-0.8,0.4-2.2,1-2.5c5.1-2.9,10.4-5.6,15.7-8.5C269,126.2,270.1,133.9,268.3,142.4z"/>
	<path id="XMLID_162_" class="st0" d="M122.6,263.1c-9.3,0.3-16.6-2.1-22.9-8.2c4-5.1,7.9-10.2,11.7-15.1c3.5,1.2,6.8,2.2,10,3.4
		c0.6,0.2,1.1,1.3,1.1,2C122.6,251.1,122.6,256.9,122.6,263.1z"/>
	<path id="XMLID_161_" class="st0" d="M219.8,79.3c-2.8-2.3-5.4-4.3-7.9-6.5c-0.5-0.5-1-1.7-0.8-2.3c2.1-5.5,4.3-11,6.6-16.7
		c8.3,2.4,14.2,7.5,18.3,15.3C230.6,72.6,225.1,76,219.8,79.3z"/>
	<path id="XMLID_160_" class="st0" d="M140.4,33.8c8-3.5,15.8-3.6,23.8-0.1c-1.9,5.9-3.7,11.7-5.7,17.5c-0.2,0.5-1.5,0.9-2.4,1
		c-3.1,0.1-6.2,0-9.7,0C144.5,46.1,142.5,40,140.4,33.8z"/>
	<path id="XMLID_159_" class="st0" d="M69.1,203.4c-4.1,4.6-8.4,9.4-12.8,14.3c-7.1-5.2-10.8-12-11.9-20.6c6-1.3,11.8-2.6,17.6-3.7
		c0.6-0.1,1.7,0.4,2,0.9C65.7,197.2,67.3,200.2,69.1,203.4z"/>
	<path id="XMLID_158_" class="st0" d="M257.8,198.7c-1.1,8.7-5,15.4-12,20.6c-4.3-4.8-8.6-9.6-12.9-14.3c2-3.5,3.9-6.8,6-10.3
		C245.1,196,251.4,197.3,257.8,198.7z"/>
	<path id="XMLID_157_" class="st0" d="M68.3,68c4-7.9,9.9-12.8,18.3-15.3c2.4,6,4.8,11.9,7.2,17.7c-2.7,2.4-5.3,4.7-8,6.9
		c-0.5,0.4-1.7,0.4-2.2,0C78.5,74.4,73.5,71.3,68.3,68z"/>
	<path id="XMLID_156_" class="st0" d="M56.1,126.2c-0.5,3.6-1,6.9-1.6,10.2c-0.1,0.7-1.1,1.6-1.8,1.7c-5.7,0.9-11.5,1.7-17.5,2.5
		c-2.3-8.5-0.6-16.1,4-23.5C45,120.3,50.6,123.3,56.1,126.2z"/>
	<path id="XMLID_155_" class="st0" d="M201.7,255.6c-6.5,5.7-13.6,8.8-22.4,8c-0.2-6-0.5-12-0.6-17.9c0-0.6,0.7-1.6,1.3-1.9
		c3.2-1.2,6.4-2.2,9.9-3.4C193.6,245.3,197.6,250.3,201.7,255.6z"/>
</g>
</svg>
