<?xml version="1.0" encoding="utf-8"?>
<!-- Generator: Adobe Illustrator 19.0.0, SVG Export Plug-In . SVG Version: 6.00 Build 0)  -->
<svg version="1.1" id="Search_icon_xA0_Image_1_" xmlns="http://www.w3.org/2000/svg" xmlns:xlink="http://www.w3.org/1999/xlink"
	 x="0px" y="0px" viewBox="0 0 250 250" style="enable-background:new 0 0 250 250;" xml:space="preserve">
<g>
	<path d="M251,210c0,12.8-0.1,25.7,0.1,38.5c0,2.2-0.4,2.6-2.6,2.6c-12.8-0.1-25.7-0.1-38.5-0.1c0.1-3.6-2.2-5.8-4.5-8
		c-17.5-17.5-35.1-35.1-52.6-52.6c-5.5-5.5-10.2-6.2-16.2-1c-4.7,4.1-9.9,5-15.6,5.5c-3.6,0.3-7.3,0.6-10.9,1.3
		c-8.8,1.7-17.5,2.4-26.2-0.1c-2.1-0.6-4.3-1.2-6.4-1c-15,2.1-25.4-8-37.1-14.2c-5.7-3-10-8.4-14.2-13.3
		c-7.5-8.8-17.1-16.1-19.9-28.2c-0.6-2.6-2.7-4.1-5.5-4.4c0-25,0-50,0-75c3.3-0.4,4.8-2.8,5.9-5.5c2.9-6.6,6.3-13,10.8-18.4
		C28.2,23.4,40.2,12.4,55.7,6c2.4-1,3.2-2.7,3.3-5c25.7,0,51.3,0,77,0c0.3,3.3,2.8,4.4,5.5,5.8c7.9,3.9,15.5,8.3,22,14.3
		c8.2,7.6,15,16.2,20.7,25.9c4.6,7.9,7.6,16.5,11.5,24.7c1.5,3.1,1.4,6.8,0.8,10.3c-0.3,2-0.4,4-0.3,6c1,16.8,1.7,33.6-7.8,48.8
		c-0.9,1.4-1.2,3.1-1.7,4.7c-1.5,5.1-0.6,9.4,3.3,13.2c5.5,5.3,10.6,11,16.3,16.1c13.1,11.5,25.8,23.5,38,35.9
		C246.3,208.5,248.4,209.7,251,210z M98.5,44.8c-4.6,0.5-9.6-1.2-13.4,1c-8.2,4.9-17.6,7.8-24.6,15c-4.7,4.9-7.9,10.5-11.3,16.2
		c-5.3,8.9-6.3,18.3-5,27.9c1.3,9.6,7.6,17.4,11.4,26.2c0.1,0.1,0.2,0.2,0.3,0.4c6.3,7.1,15.3,10.5,22.3,16.7
		c0.8,0.7,2.2,0.8,3.3,0.9c10.6,0.8,21.2,1,31.9-0.1c1.8-0.2,3.8-0.6,5.2-1.6c5.4-3.9,10.5-8.1,15.8-12.1c6.7-5.1,9.3-12.7,13-19.7
		c2.6-5,4.5-10,4.6-15.6c0.3-13.6-5.7-25-13.9-34.7C127.9,53.2,115.3,44.4,98.5,44.8z"/>
</g>
</svg>
