<?xml version="1.0" encoding="utf-8"?>
<!-- Generator: Adobe Illustrator 19.0.0, SVG Export Plug-In . SVG Version: 6.00 Build 0)  -->
<svg version="1.1" id="Layer_1" xmlns="http://www.w3.org/2000/svg" xmlns:xlink="http://www.w3.org/1999/xlink" x="0px" y="0px"
	 viewBox="0 0 50 50" style="enable-background:new 0 0 50 50;" xml:space="preserve">
<style type="text/css">
	.st0{fill:#FFFFFF;}
</style>
<g>
	<path d="M0.2,22.9c0-6.2,0-12.4,0-18.6c0.7-2.1,2-3.4,4.1-4.1c13.9,0,27.9,0,41.8,0c2.1,0.7,3.4,2,4.1,4.1c0,13.9,0,27.9,0,41.8
		c-0.7,2.1-2,3.4-4.1,4.1c-13.9,0-27.9,0-41.8,0c-2.1-0.7-3.4-2-4.1-4.1c0-4.6,0-9.1,0-13.7c0.3,0.1,0.6,0.1,0.8,0.2
		c3,1.2,6,2.4,9,3.6c0.6,0.2,1,0.6,1.2,1.2c1.1,3.2,4.2,5.3,7.6,5.1c3.3-0.2,6.1-2.7,6.8-6c0.1-0.5,0.5-1,0.8-1.3
		c2.4-1.8,4.8-3.5,7.2-5.3c1-0.8,2-1.2,3.3-1.4c5.2-0.8,8.9-5.5,8.5-10.7c-0.4-5.2-4.9-9.3-10.2-9.3c-5.3,0-9.6,4.1-10,9.3
		c0,0.4-0.2,0.8-0.4,1.2c-1.8,2.7-3.7,5.3-5.5,7.9c-0.2,0.3-0.6,0.4-1,0.5c-1.2,0.3-2.3,0.5-3.5,0.8c-0.4,0.1-0.8,0.2-1.1,0
		C9.3,26.5,4.7,24.7,0.2,22.9z"/>
	<path class="st0" d="M0.2,22.9c4.6,1.8,9.1,3.7,13.7,5.5c0.3,0.1,0.7,0,1.1,0c1.2-0.2,2.3-0.5,3.5-0.8c0.4-0.1,0.8-0.3,1-0.5
		c1.9-2.6,3.7-5.3,5.5-7.9c0.2-0.3,0.4-0.8,0.4-1.2c0.4-5.3,4.7-9.3,10-9.3c5.3,0,9.8,4,10.2,9.3c0.4,5.2-3.3,9.9-8.5,10.7
		c-1.3,0.2-2.3,0.6-3.3,1.4c-2.4,1.8-4.8,3.5-7.2,5.3c-0.4,0.3-0.7,0.8-0.8,1.3c-0.7,3.3-3.5,5.8-6.8,6c-3.4,0.2-6.5-1.8-7.6-5.1
		c-0.2-0.7-0.6-1-1.2-1.2c-3-1.2-6-2.4-9-3.6c-0.3-0.1-0.6-0.2-0.8-0.2C0.2,29.2,0.2,26,0.2,22.9z M28.7,18.7c0,3.8,3.1,6.8,6.9,6.7
		c3.7,0,6.7-3.1,6.7-6.9c0-3.7-3.1-6.7-6.8-6.7C31.6,11.9,28.6,14.9,28.7,18.7z M13.4,37.6c1.5,2.7,4.6,3.7,7.2,2.4
		c2.7-1.2,3.9-4.3,2.8-7c-1-2.5-3.7-4-6.2-3.3c0.8,0.3,1.4,0.6,2,0.8c2.3,1,3.4,3.5,2.5,5.7c-0.9,2.3-3.4,3.3-5.8,2.4
		C15.2,38.4,14.4,38,13.4,37.6z"/>
	<path class="st0" d="M4.3,0.2c-2.1,0.7-3.4,2-4.1,4.1c0-1.4,0-2.7,0-4.1C1.6,0.2,2.9,0.2,4.3,0.2z"/>
	<path class="st0" d="M50.2,4.3c-0.7-2.1-2-3.4-4.1-4.1c1.4,0,2.7,0,4.1,0C50.2,1.6,50.2,2.9,50.2,4.3z"/>
	<path class="st0" d="M0.2,46.1c0.7,2.1,2,3.4,4.1,4.1c-1.4,0-2.7,0-4.1,0C0.2,48.8,0.2,47.5,0.2,46.1z"/>
	<path class="st0" d="M46.1,50.2c2.1-0.7,3.4-2,4.1-4.1c0,1.4,0,2.7,0,4.1C48.8,50.2,47.5,50.2,46.1,50.2z"/>
	<path d="M28.7,18.7c0-3.8,2.9-6.8,6.7-6.8c3.8,0,6.8,2.9,6.8,6.7c0,3.8-2.9,6.8-6.7,6.9C31.7,25.4,28.7,22.5,28.7,18.7z M35.5,13.2
		c-3,0-5.4,2.3-5.5,5.3c0,3,2.4,5.4,5.4,5.4c2.9,0,5.4-2.4,5.4-5.3C40.9,15.7,38.5,13.3,35.5,13.2z"/>
	<path d="M13.4,37.6c1,0.4,1.8,0.7,2.6,1c2.4,0.9,4.9-0.1,5.8-2.4c0.9-2.2-0.2-4.7-2.5-5.7c-0.6-0.3-1.3-0.5-2-0.8
		c2.4-0.7,5.2,0.8,6.2,3.3c1.1,2.8-0.2,5.8-2.8,7C18,41.3,14.9,40.3,13.4,37.6z"/>
	<path class="st0" d="M35.5,13.2c3,0,5.4,2.4,5.3,5.5c0,2.9-2.5,5.3-5.4,5.3c-3,0-5.4-2.5-5.4-5.4C30.1,15.6,32.5,13.2,35.5,13.2z"
		/>
</g>
</svg>
