<?xml version="1.0" encoding="utf-8"?>
<!-- Generator: Adobe Illustrator 19.0.0, SVG Export Plug-In . SVG Version: 6.00 Build 0)  -->
<svg version="1.1" id="Layer_1" xmlns="http://www.w3.org/2000/svg" xmlns:xlink="http://www.w3.org/1999/xlink" x="0px" y="0px"
	 viewBox="0 0 50 50" style="enable-background:new 0 0 50 50;" xml:space="preserve">
<style type="text/css">
	.st0{fill:#FFFFFF;}
</style>
<g id="XMLID_2_">
	<path id="XMLID_52_" class="st0" d="M21.9,50.4c-7.1,0-14.3,0-21.5,0c0-16.7,0-33.3,0-50c3,0,6,0,9,0C8.7,0.7,8.1,1,7.4,1.2
		C1.2,3.8-0.4,11.9,4.5,16.5c3.7-5.6,8.7-9.2,15.4-11C19.3,4.7,19,4,18.5,3.6c-1.7-1.2-3.4-2.2-5.2-3.2c8.3,0,16.7,0,25,0
		c-2.7,1.1-5.4,2.1-6.7,5.2c6.6,1.7,11.5,5.5,15.2,10.9c4.7-4.6,3.4-12.1-2.3-15c-0.8-0.4-1.6-0.8-2.4-1.2c2.7,0,5.5,0,8.2,0
		c0,16.7,0,33.3,0,50c-7,0-14.1,0-21.1,0c0.4-0.1,0.8-0.3,1.2-0.4c11.8-2.6,19.1-13.8,16.7-25.6C44.8,13.3,33.8,6,22.1,7.8
		C11.8,9.4,4.2,17.9,3.6,28.3C3.1,37.8,10,47,19.7,49.7C20.5,49.9,21.2,50.1,21.9,50.4z M45.3,43.5c-1.1,1.2-2.1,2.3-3.3,3.5
		c0.9,0.8,1.7,1.5,2.4,2.2c1.4,1.2,2.4,1.2,3.7-0.2c1.2-1.3,0.7-2.3-0.4-3.3C46.9,45,46.2,44.3,45.3,43.5z M5.7,43.1
		c-1.1,1.7-2.2,3.2-3,4.9c-0.1,0.3,1.6,2,2,1.9c1.6-0.6,3.1-1.7,4.8-2.7C8.1,45.7,7.1,44.6,5.7,43.1z"/>
	<path id="XMLID_49_" d="M21.9,50.4c-0.7-0.2-1.4-0.5-2.1-0.7C10,47,3.1,37.8,3.6,28.3C4.2,17.9,11.8,9.4,22.1,7.8
		C33.8,6,44.8,13.3,47.2,24.4c2.5,11.7-4.8,22.9-16.7,25.6c-0.4,0.1-0.8,0.3-1.2,0.4C26.8,50.4,24.3,50.4,21.9,50.4z M43.2,29
		c0-9.4-7.8-17.2-17.3-17.2c-9.5-0.1-17.7,7.8-17.7,17.1c0,9.4,7.9,17.2,17.5,17.2C35.2,46,43.1,38.3,43.2,29z"/>
	<path id="XMLID_48_" d="M13.3,0.4c1.7,1.1,3.5,2.1,5.2,3.2C19,4,19.3,4.7,19.9,5.5C13.3,7.3,8.2,11,4.5,16.5
		c-5-4.7-3.3-12.8,2.9-15.3C8.1,1,8.7,0.7,9.4,0.4C10.7,0.4,12,0.4,13.3,0.4z"/>
	<path id="XMLID_47_" d="M42.2,0.4c0.8,0.4,1.6,0.8,2.4,1.2c5.7,2.9,6.9,10.3,2.3,15c-3.7-5.4-8.6-9.2-15.2-10.9
		c1.3-3.1,4-4.1,6.7-5.2C39.6,0.4,40.9,0.4,42.2,0.4z"/>
	<path id="XMLID_46_" d="M45.3,43.5c0.9,0.8,1.7,1.5,2.4,2.2c1.1,1,1.6,2,0.4,3.3c-1.2,1.3-2.3,1.4-3.7,0.2
		c-0.8-0.7-1.5-1.4-2.4-2.2C43.2,45.8,44.2,44.7,45.3,43.5z"/>
	<path id="XMLID_45_" d="M5.7,43.1c1.4,1.5,2.4,2.5,3.8,4c-1.7,1-3.2,2.1-4.8,2.7c-0.4,0.1-2.1-1.6-2-1.9
		C3.5,46.3,4.6,44.8,5.7,43.1z"/>
	<path id="XMLID_42_" class="st0" d="M43.2,29c0,9.3-7.9,17.1-17.5,17.1c-9.6,0-17.6-7.8-17.5-17.2c0-9.3,8.2-17.2,17.7-17.1
		C35.4,11.8,43.2,19.6,43.2,29z M27.6,27.4c0-2.9,0-5.6,0-8.3c0-1.3-0.5-1.9-1.9-1.9c-1.2,0-2.1,0.3-2.1,1.7c0,3.4-0.1,6.9,0,10.3
		c0,0.6,1.1,1.6,1.6,1.6c4.7,0.1,9.5,0.1,14.2,0.1c1.4,0,2-0.9,1.6-2c-0.2-0.6-1.2-1.3-1.9-1.3C35.5,27.3,31.7,27.4,27.6,27.4z"/>
	<path id="XMLID_41_" d="M27.6,27.4c4,0,7.9-0.1,11.7,0.1c0.7,0,1.7,0.7,1.9,1.3c0.4,1.1-0.2,2-1.6,2c-4.7,0-9.5,0.1-14.2-0.1
		c-0.6,0-1.6-1-1.6-1.6c-0.1-3.4,0-6.9,0-10.3c0-1.4,0.9-1.7,2.1-1.7c1.3,0,1.9,0.6,1.9,1.9C27.6,21.8,27.6,24.5,27.6,27.4z"/>
</g>
</svg>
