<?xml version="1.0" encoding="utf-8"?>
<!-- Generator: Adobe Illustrator 19.0.0, SVG Export Plug-In . SVG Version: 6.00 Build 0)  -->
<svg version="1.1" id="Layer_1" xmlns="http://www.w3.org/2000/svg" xmlns:xlink="http://www.w3.org/1999/xlink" x="0px" y="0px"
	 viewBox="0 0 220 220" style="enable-background:new 0 0 220 220;" xml:space="preserve">
<style type="text/css">
	.st0{fill:#FFFFFF;}
</style>
<g>
	<path class="st0" d="M220.4,68.8c0,50.6,0,101.1,0,151.7c-73.3,0-146.7,0-220,0c0-10.5,0-20.9,0-31.4c0.1,0.2,0.3,0.3,0.3,0.5
		c2.6,11,10.3,17.1,21.5,17.1c40.5,0,81.1,0,121.6,0c12.6,0,21.5-8.9,21.6-21.4c0-18,0-35.9,0-53.9c0-0.6-0.1-1.2-0.1-2
		c-0.4,0.4-0.6,0.5-0.8,0.7c-6.2,6.6-12.5,13.2-18.7,19.9c-0.6,0.6-0.9,1.8-0.9,2.6c-0.1,10,0,19.9,0,29.9c0,3.2-0.4,3.6-3.6,3.6
		c-38.9,0-77.8,0-116.6,0c-3.1,0-3.5-0.4-3.5-3.6c0-34.7,0-69.3,0-104c0-0.8,0-1.5,0-2.4c9.1,0,17.9,0,26.7,0
		c8.7,0,14.6-5.8,14.6-14.5c0-8.1,0-16.2,0-24.3c0-0.8,0-1.5,0-2.3c0.5-0.1,0.8-0.1,1.1-0.1c26.2,0,52.4,0,78.6,0
		c2.2,0,2.8,0.7,2.8,3.1c0,11.1,0,22.2,0,33.3c0,0.7,0,1.5,0,2.2c0.2,0.1,0.4,0.1,0.6,0.2c0.7-0.8,1.4-1.5,1.9-2.4
		c0.8-1.2,1.5-2.5,2.4-3.6c3.8-4.6,7.4-9.3,11.4-13.7c3.3-3.4,4.9-7,4.3-11.8c-0.5-4,0.1-8.2-0.8-12.2c-2-9.5-10.4-15.7-20.6-15.8
		c-29.6,0-59.3,0.1-88.9-0.1c-5.7,0-10.2,1.8-14.2,5.8C29.2,31.8,17.1,43.4,5.3,55.2c-1.9,1.9-3.3,4.4-4.9,6.6c0-20.5,0-40.9,0-61.4
		c73.3,0,146.7,0,220,0c0,21.9,0,43.8,0,65.7c-0.7-0.8-1.4-1.6-2.2-2.3c-2.6-2.3-4.4-2.1-6.4,0.7c-1,1.5-2,3-3.1,4.4
		c-10.9,13.8-21.8,27.5-32.6,41.2c-0.7,0.8-1.5,1.7-1.7,2.6c-0.2,1.1-0.2,2.5,0.4,3.4c0.5,0.7,2,1.1,3,0.9c1.6-0.3,3.3-0.9,4.5-1.9
		c2.8-2.4,5.7-4.9,8-7.7C200.4,94.6,210.4,81.7,220.4,68.8z M152.8,82.3c-0.4,0.5-0.7,0.8-1,1.1c-13.7,16.9-26.9,34.3-38.4,52.7
		c-5.3,8.5-9.9,17.4-14.7,26.2c-1.1,2-1.6,4.4-2,6.7c-0.4,2.7,1.1,3.8,3.6,2.9c1.9-0.7,3.9-1.5,5.5-2.7c4.6-3.4,9.2-6.8,13.5-10.6
		c17.8-15.7,33.7-33.1,49.1-51c2-2.4,4-4.8,6.1-7.2C167.3,94.3,160.2,88.4,152.8,82.3z M179.8,94c0.3-0.2,0.4-0.2,0.5-0.3
		c8.4-10.6,16.9-21.1,25-31.9c2.6-3.4,4.7-7.4,6.1-11.5c2.4-6.7-3.8-15.2-10.9-15.5c-0.8,0-1.8-0.1-2.5,0.3c-2.7,1.5-5.8,2.7-8,4.8
		c-5.2,4.9-10.1,10.1-14.8,15.5c-5.9,6.6-11.4,13.5-17.2,20.4C165.3,82,172.5,87.9,179.8,94z M83,89.8c-12.7,0-25.3,0-38,0
		c-3.1,0-3.3,0.2-3.3,3.3c0,2.6,0,5.3,0,7.9c0,1.7,0.7,2.5,2.4,2.5c2.2,0,4.4,0,6.7,0c22.9,0,45.8,0,68.7,0c0.8,0,1.9-0.1,2.3-0.6
		c1.4-1.6,2.9-3.3,2.5-5.9c-0.2-1.3,0-2.7,0-4.1c0-2.9-0.3-3.2-3.2-3.2C108.3,89.8,95.6,89.8,83,89.8z M111.3,117.3
		c-4.2,0-8.2,0-12.1,0c-18.2,0-36.4,0-54.6,0c-2.7,0-3,0.3-3,2.9c0,2.8,0,5.6,0,8.4c0,1.7,0.7,2.5,2.4,2.5c19,0,37.9,0,56.9-0.1
		c0.6,0,1.5-0.5,1.9-1C105.7,126,108.4,121.8,111.3,117.3z M57.4,161.3c2.8,3,5.4,5.9,8.1,8.8c2.7,2.8,5.9,3.1,9,0.8
		c1.6-1.2,3.2-2.5,4.7-3.7c2.6-2.1,2.6-2.1,5.6-0.3c0.5,0.3,0.9,0.5,1.3,0.7c1.3-4.1,2.6-8,3.9-12c-1.5-0.9-3-1.9-4.5-2.8
		c-3.3-2-5.4-1.9-8.5,0.4c-2,1.5-4,3.1-6.1,4.7c-3.4-3.7-6.7-7.2-9.9-10.7c-3.8-4.1-8.5-3.5-11.1,1.5c-2.5,4.7-4.9,9.4-7.3,14.1
		c-1.8,3.6-0.9,7.2,2.2,8.9c3.3,1.7,6.8,0.5,8.8-3.2C54.9,166.1,56.1,163.8,57.4,161.3z M103.6,62.3c6,0,12,0,18,0
		c1.8,0,2.6-0.7,2.6-2.5c-0.1-2.9,0-5.9,0-8.8c0-1.7-0.7-2.5-2.4-2.5c-12.1,0-24.2,0-36.2,0c-1.8,0-2.6,0.7-2.6,2.5
		c0.1,2.8,0,5.6,0,8.4c0,2.5,0.4,2.9,2.9,2.9C91.7,62.3,97.7,62.3,103.6,62.3z"/>
	<path d="M0.4,61.9c1.6-2.2,2.9-4.7,4.9-6.6C17.1,43.4,29.2,31.8,41,19.9c4-4,8.5-5.8,14.2-5.8c29.6,0.1,59.3,0,88.9,0.1
		c10.2,0,18.6,6.2,20.6,15.8c0.8,3.9,0.3,8.1,0.8,12.2c0.6,4.8-1.1,8.4-4.3,11.8c-4.1,4.3-7.7,9.1-11.4,13.7
		c-0.9,1.1-1.5,2.4-2.4,3.6c-0.6,0.8-1.3,1.6-1.9,2.4c-0.2-0.1-0.4-0.1-0.6-0.2c0-0.7,0-1.5,0-2.2c0-11.1,0-22.2,0-33.3
		c0-2.4-0.6-3-2.8-3.1c-26.2,0-52.4,0-78.6,0c-0.3,0-0.5,0.1-1.1,0.1c0,0.8,0,1.6,0,2.3c0,8.1,0,16.2,0,24.3
		c0,8.7-5.9,14.5-14.6,14.5c-8.8,0-17.6,0-26.7,0c0,0.9,0,1.7,0,2.4c0,34.7,0,69.3,0,104c0,3.2,0.4,3.6,3.5,3.6
		c38.9,0,77.8,0,116.6,0c3.2,0,3.6-0.4,3.6-3.6c0-10,0-19.9,0-29.9c0-0.9,0.3-2,0.9-2.6c6.2-6.7,12.4-13.3,18.7-19.9
		c0.2-0.2,0.4-0.4,0.8-0.7c0.1,0.8,0.1,1.4,0.1,2c0,18,0,35.9,0,53.9c0,12.6-9,21.4-21.6,21.4c-40.5,0-81.1,0-121.6,0
		c-11.2,0-18.9-6.1-21.5-17.1c0-0.2-0.2-0.3-0.3-0.5C0.4,146.7,0.4,104.3,0.4,61.9z"/>
	<path d="M220.4,68.8c-10,12.9-20,25.9-30.2,38.7c-2.3,2.9-5.1,5.3-8,7.7c-1.2,1-2.9,1.6-4.5,1.9c-0.9,0.2-2.5-0.2-3-0.9
		c-0.6-0.8-0.7-2.3-0.4-3.4c0.2-1,1.1-1.8,1.7-2.6C187.1,96.5,198,82.7,208.8,69c1.1-1.4,2.1-2.9,3.1-4.4c2-2.8,3.8-3,6.4-0.7
		c0.8,0.7,1.4,1.5,2.2,2.3C220.4,67,220.4,67.9,220.4,68.8z"/>
	<path d="M152.8,82.3c7.3,6.1,14.5,12,21.9,18.1c-2.1,2.5-4.1,4.9-6.1,7.2c-15.4,17.9-31.4,35.4-49.1,51c-4.3,3.8-8.9,7.2-13.5,10.6
		c-1.6,1.2-3.6,2-5.5,2.7c-2.5,0.9-4-0.3-3.6-2.9c0.4-2.3,0.9-4.7,2-6.7c4.7-8.8,9.3-17.7,14.7-26.2c11.6-18.4,24.8-35.7,38.4-52.7
		C152.1,83.1,152.4,82.8,152.8,82.3z"/>
	<path d="M179.8,94c-7.3-6-14.5-12-21.8-18.1c5.8-6.9,11.4-13.8,17.2-20.4c4.7-5.4,9.6-10.6,14.8-15.5c2.2-2.1,5.3-3.3,8-4.8
		c0.7-0.4,1.7-0.4,2.5-0.3c7.2,0.3,13.4,8.8,10.9,15.5c-1.5,4-3.5,8-6.1,11.5c-8.1,10.8-16.7,21.3-25,31.9
		C180.2,93.8,180.1,93.8,179.8,94z"/>
	<path d="M83,89.8c12.7,0,25.3,0,38,0c3,0,3.2,0.2,3.2,3.2c0,1.4-0.2,2.8,0,4.1c0.5,2.5-1,4.2-2.5,5.9c-0.4,0.5-1.5,0.6-2.3,0.6
		c-22.9,0-45.8,0-68.7,0c-2.2,0-4.4,0-6.7,0c-1.7,0-2.5-0.8-2.4-2.5c0.1-2.6,0-5.3,0-7.9c0-3.1,0.2-3.3,3.3-3.3
		C57.6,89.8,70.3,89.8,83,89.8z"/>
	<path d="M111.3,117.3c-3,4.5-5.6,8.7-8.4,12.7c-0.4,0.5-1.2,1-1.9,1c-19,0.1-37.9,0-56.9,0.1c-1.7,0-2.5-0.7-2.4-2.5
		c0.1-2.8,0-5.6,0-8.4c0-2.6,0.3-2.9,3-2.9c18.2,0,36.4,0,54.6,0C103.2,117.3,107.1,117.3,111.3,117.3z"/>
	<path d="M57.4,161.3c-1.3,2.5-2.5,4.8-3.7,7.1c-2,3.7-5.5,5-8.8,3.2c-3.2-1.7-4.1-5.3-2.2-8.9c2.4-4.7,4.8-9.4,7.3-14.1
		c2.6-5,7.3-5.6,11.1-1.5c3.2,3.5,6.5,7,9.9,10.7c2.1-1.6,4.1-3.2,6.1-4.7c3.1-2.3,5.2-2.4,8.5-0.4c1.5,0.9,3,1.9,4.5,2.8
		c-1.3,4-2.6,7.9-3.9,12c-0.4-0.2-0.9-0.4-1.3-0.7c-2.9-1.8-2.9-1.8-5.6,0.3c-1.6,1.2-3.1,2.5-4.7,3.7c-3.1,2.3-6.3,2.1-9-0.8
		C62.8,167.2,60.2,164.3,57.4,161.3z"/>
	<path d="M103.6,62.3c-5.9,0-11.9,0-17.8,0c-2.5,0-2.8-0.4-2.9-2.9c0-2.8,0-5.6,0-8.4c0-1.8,0.8-2.5,2.6-2.5c12.1,0,24.2,0,36.2,0
		c1.7,0,2.5,0.7,2.4,2.5c0,2.9-0.1,5.9,0,8.8c0,1.8-0.8,2.6-2.6,2.5C115.6,62.3,109.6,62.3,103.6,62.3z"/>
</g>
</svg>
