<?xml version="1.0" encoding="utf-8"?>
<!-- Generator: Adobe Illustrator 19.0.0, SVG Export Plug-In . SVG Version: 6.00 Build 0)  -->
<svg version="1.1" id="Layer_1" xmlns="http://www.w3.org/2000/svg" xmlns:xlink="http://www.w3.org/1999/xlink" x="0px" y="0px"
	 viewBox="0 0 617 720" style="enable-background:new 0 0 617 720;" xml:space="preserve">
<path d="M428.8,597c0,21-6.9,39-20.6,53.9c-13.8,15-30.3,22.5-49.5,22.5H219.9c-57.8,0-107.2-22.3-148.2-67
	c-41-44.7-61.5-98.5-61.5-161.5V138.6c0-21.6,6.8-39.7,20.5-54.4C44.3,69.5,61,62.1,80.7,62.1c19.1,0,35.6,7.5,49.2,22.5
	c13.7,15,20.5,32.9,20.5,53.9v110.9h197.5c17.9,0,33.3,6.9,46.1,20.9c12.8,13.9,19.2,30.5,19.2,50c0,19.4-6.4,36.1-19.1,50
	c-12.8,13.9-28.1,20.8-46,20.8H150.4v53.7c0,21.1,6.7,38.9,20.2,53.7c13.5,14.7,29.9,22.1,49.2,22.1h138.8
	c19.3,0,35.8,7.5,49.6,22.5C421.9,558,428.8,576,428.8,597"/>
</svg>
