<?xml version="1.0" encoding="utf-8"?>
<!-- Generator: Adobe Illustrator 19.0.0, SVG Export Plug-In . SVG Version: 6.00 Build 0)  -->
<svg version="1.1" id="Layer_1" xmlns="http://www.w3.org/2000/svg" xmlns:xlink="http://www.w3.org/1999/xlink" x="0px" y="0px"
	 viewBox="0 0 300 300" style="enable-background:new 0 0 300 300;" xml:space="preserve">
<style type="text/css">
	.st0{fill:#FFFFFF;}
	.st1{fill:#29BFF0;}
	.st2{fill:#2CB2E7;}
</style>
<g id="XMLID_1_">
	<path id="XMLID_23_" class="st0" d="M150.7,300.9c-49.2,0-98.3,0-147.5,0c-2.1,0-2.7-0.3-2.7-2.6C0.6,199.9,0.6,101.5,0.5,3
		c0-2.2,0.5-2.5,2.6-2.5c98.4,0.1,196.8,0.1,295.2,0c2,0,2.6,0.2,2.6,2.5c-0.1,98.5-0.1,197,0,295.5c0,2.1-0.5,2.4-2.4,2.4
		C249.2,300.9,200,300.9,150.7,300.9z M88.9,207.9c3.1,1.3,6.5,0.9,10.1,2C76,227,50.5,234,21.5,231.2c1.1,0.7,1.4,1,1.8,1.2
		c22.9,14.3,48,21.7,74.9,22.6c14.3,0.5,28.4-1,42.3-4.4c12.1-2.9,23.5-7.6,34.6-13.2c14.6-7.5,27.1-17.5,38-29.6
		c11.7-12,20-26.2,26.9-41.3c9.6-20.9,14.1-43,13.5-66.1c-0.1-1.9,0.6-3,2.1-4.1c4.9-3.7,9.5-7.7,13.7-12.3c3.6-4,7.1-8.1,9.8-13
		c-9,3.6-18.3,6.2-28,7.3c10-7.2,17.5-16.2,21.5-28.6c-1.6,0.8-2.6,1.3-3.6,1.9c-8.6,4.7-17.7,8.1-27.2,10.3c-1.6,0.4-2.9,0.3-4.2-1
		c-12.4-12-27.3-17-44.4-14.5c-18,2.6-31.7,11.9-40.2,28.2c-5.5,10.6-7.1,22-4.9,33.7c0.4,1.9-0.2,2.3-2,2.4c-2.1,0.1-4-0.6-6-0.8
		c-8-0.6-15.8-2.1-23.4-4.3c-12.1-3.4-23.7-8-34.7-14.3C70.9,85,60.9,77.5,51.7,69c-3.9-3.6-7-7.8-10.4-11.8c-1.7-2-2.2-1.3-3.1,0.4
		c-3.1,6-4.9,12.4-5.6,19.2c-1.4,14.1,2.5,26.7,11,37.9c3.2,4.2,7.2,7.4,11.5,11.1c-6.9-0.5-13-1.9-18.9-4.5c-4.4-2-4.5-1.9-4.1,2.8
		c1.3,16.7,9.2,29.7,22.6,39.4c5.4,3.9,11.6,6.2,18.6,8.4c-8,2.2-15.4,1.4-22.9,1.1c3.4,10.3,9.5,18.7,18,25.3
		C74.5,203.1,81.3,206.5,88.9,207.9z"/>
	<path id="XMLID_22_" class="st1" d="M88.9,207.9c-7.7-1.3-14.4-4.8-20.5-9.5c-8.5-6.6-14.6-15-18-25.3c7.5,0.2,14.9,1.1,22.9-1.1
		c-7-2.1-13.2-4.5-18.6-8.4c-13.5-9.7-21.3-22.7-22.6-39.4c-0.4-4.7-0.3-4.8,4.1-2.8c5.8,2.6,12,4,18.9,4.5
		c-4.3-3.6-8.4-6.9-11.5-11.1c-8.5-11.3-12.3-23.8-11-37.9c0.7-6.8,2.5-13.1,5.6-19.2c0.9-1.8,1.4-2.5,3.1-0.4
		c3.4,4,6.5,8.2,10.4,11.8c9.2,8.5,19.2,16,30.1,22.3c10.9,6.3,22.6,10.9,34.7,14.3c7.7,2.1,15.5,3.7,23.4,4.3c2,0.1,3.9,0.9,6,0.8
		c1.8-0.1,2.3-0.5,2-2.4c-2.2-11.8-0.6-23.1,4.9-33.7c8.5-16.3,22.2-25.6,40.2-28.2c17.1-2.5,32,2.5,44.4,14.5
		c1.3,1.3,2.6,1.4,4.2,1c9.5-2.2,18.6-5.6,27.2-10.3c1-0.6,2-1,3.6-1.9c-4,12.4-11.5,21.4-21.5,28.6c9.7-1.1,18.9-3.6,28-7.3
		c-2.7,4.8-6.2,9-9.8,13c-4.1,4.6-8.7,8.6-13.7,12.3c-1.5,1.1-2.1,2.2-2.1,4.1c0.7,23.1-3.9,45.2-13.5,66.1
		c-6.9,15-15.2,29.3-26.9,41.3c-1.1-0.7-2.2-0.6-3.4-0.6c-39.2,0-78.5,0-117.7,0C90.9,207.2,89.7,206.8,88.9,207.9z"/>
	<path id="XMLID_21_" class="st2" d="M88.9,207.9c0.8-1,2-0.6,3-0.6c39.2,0,78.5,0,117.7,0c1.2,0,2.3-0.1,3.4,0.6
		c-10.9,12.1-23.4,22.2-38,29.6c-11.1,5.7-22.5,10.3-34.6,13.2c-13.9,3.4-28,4.9-42.3,4.4c-26.9-0.9-52-8.3-74.9-22.6
		c-0.4-0.2-0.8-0.5-1.8-1.2C50.5,234,76,227,99,209.8C95.4,208.8,92,209.2,88.9,207.9z"/>
</g>
</svg>
