<?xml version="1.0" encoding="utf-8"?>
<!-- Generator: Adobe Illustrator 19.0.0, SVG Export Plug-In . SVG Version: 6.00 Build 0)  -->
<svg version="1.1" id="Layer_1" xmlns="http://www.w3.org/2000/svg" xmlns:xlink="http://www.w3.org/1999/xlink" x="0px" y="0px"
	 viewBox="0 0 220 220" style="enable-background:new 0 0 220 220;" xml:space="preserve">
<style type="text/css">
	.st0{fill:#FFFFFF;}
</style>
<g>
	<path class="st0" d="M220.4,116.9c0,34.5,0,69,0,103.6c-73.3,0-146.7,0-220,0c0-26.6,0-53.3,0-79.9c0.1,0.3,0.3,0.7,0.4,1
		c2.1,9,9.1,14.7,18.3,14.8c5.4,0.1,10.7,0.1,16.1,0c5.7,0,10.7,1.9,15.1,5.2c16.8,12.7,31.3,27.8,45.7,43.1c4,7,16.7,8.7,24.2,3.7
		c6-4,8.6-9.7,8.6-16.8c0-54.1,0-108.3,0-162.4c0-0.9,0-1.9-0.1-2.8c-0.8-7.8-5.7-14.1-12.9-16c-7.5-1.9-14.1-0.6-19.8,5.7
		C82.6,30.9,68.4,45,52.8,57.5c-6,4.8-12.5,7.5-20.4,7c-4.3-0.3-8.6-0.1-12.9,0c-6.8,0.1-12.5,2.6-16.1,8.5c-1.4,2.2-2,4.8-3,7.3
		c0-26.6,0-53.3,0-79.9c73.3,0,146.7,0,220,0c0,34.5,0,69,0,103.6c-0.1-0.6-0.3-1.2-0.4-1.9c-2.6-28.4-15-51.5-36.8-69.8
		c-0.5-0.4-1-0.7-1.6-1.1c-3.4,5.1-6.7,10.1-10,15.1c19.7,17.1,30.4,38.2,30.4,64.2c0,26-10.8,47.1-30.4,64.1
		c3.4,5.1,6.7,10,9.9,14.9c0.3,0,0.4,0,0.4,0c0.4-0.3,0.8-0.6,1.2-0.9c18.9-15.7,30.8-35.5,35.5-59.6
		C219.5,125,219.9,120.9,220.4,116.9z M161.2,61.8c-3.4,5.1-6.7,10.1-10.2,15.2c9.3,9.2,14.4,20.2,14.4,33.4
		c0,13.1-5.1,24.1-14.4,33.4c3.4,5.2,6.8,10.2,10.2,15.2C191.4,133.5,191,86.9,161.2,61.8z"/>
	<path d="M0.4,80.4c1-2.4,1.6-5.1,3-7.3c3.7-5.9,9.3-8.5,16.1-8.5c4.3,0,8.6-0.2,12.9,0c7.8,0.5,14.3-2.2,20.4-7
		C68.4,45,82.6,30.9,96,16.1c5.7-6.3,12.2-7.6,19.8-5.7c7.3,1.9,12.1,8.2,12.9,16c0.1,0.9,0.1,1.9,0.1,2.8c0,54.1,0,108.3,0,162.4
		c0,7.1-2.6,12.8-8.6,16.8c-7.5,5-20.1,3.2-24.2-3.7c-14.4-15.3-28.9-30.4-45.7-43.1c-4.5-3.4-9.5-5.3-15.1-5.2
		c-5.4,0-10.7,0-16.1,0c-9.3-0.1-16.3-5.8-18.3-14.8c-0.1-0.3-0.2-0.7-0.4-1C0.4,120.5,0.4,100.4,0.4,80.4z"/>
	<path d="M220.4,116.9c-0.6,4-1,8.1-1.7,12.1c-4.6,24.1-16.6,43.9-35.5,59.6c-0.4,0.3-0.8,0.6-1.2,0.9c0,0-0.1,0-0.4,0
		c-3.2-4.9-6.6-9.8-9.9-14.9c19.6-16.9,30.4-38.1,30.4-64.1c0-26-10.7-47.1-30.4-64.2c3.3-5,6.6-9.9,10-15.1
		c0.6,0.4,1.1,0.7,1.6,1.1c21.8,18.2,34.2,41.4,36.8,69.8c0.1,0.6,0.2,1.2,0.4,1.9C220.4,108.3,220.4,112.6,220.4,116.9z"/>
	<path d="M161.2,61.8c29.8,25,30.1,71.7,0,97.2c-3.4-5-6.7-10.1-10.2-15.2c9.3-9.2,14.4-20.2,14.4-33.4c0-13.1-5.1-24.1-14.4-33.4
		C154.5,71.9,157.9,66.9,161.2,61.8z"/>
</g>
</svg>
