<?xml version="1.0" encoding="utf-8"?>
<!-- Generator: Adobe Illustrator 19.0.0, SVG Export Plug-In . SVG Version: 6.00 Build 0)  -->
<svg version="1.1" id="Layer_1" xmlns="http://www.w3.org/2000/svg" xmlns:xlink="http://www.w3.org/1999/xlink" x="0px" y="0px"
	 viewBox="0 0 300 300" style="enable-background:new 0 0 300 300;" xml:space="preserve">
<style type="text/css">
	.st0{fill:#FFFFFE;}
	.st1{fill:#E9473A;}
	.st2{fill:#B34C39;}
</style>
<g id="XMLID_1_">
	<path id="XMLID_173_" class="st0" d="M0.6,150.9c0-49.3,0-98.6-0.1-147.9c0-2,0.4-2.4,2.4-2.4c98.6,0.1,197.3,0.1,295.9,0
		c2,0,2.4,0.4,2.4,2.4c-0.1,98.6-0.1,197.3,0,295.9c0,2-0.4,2.4-2.4,2.4c-98.6-0.1-197.3-0.1-295.9,0c-2,0-2.4-0.4-2.4-2.4
		C0.6,249.5,0.6,200.2,0.6,150.9z M36.9,36.3L36.9,36.3c-0.2,0.2-0.4,0.4-0.6,0.6l0,0c-0.2,0.2-0.4,0.4-0.6,0.6l0,0
		c-0.7,0.4-1.2,0.9-1.4,1.6l0.1,0c-0.8,0.4-1.4,1-1.5,2c-6,6.7-9.5,14.6-11.3,23.4c-1.7,5.9-2.1,12.1-2.1,18.2
		c-0.1,45.4-0.1,90.8,0,136.2c0,5,0.2,10.1,1.6,15.1c1.2,9.9,4.9,18.7,11.8,26.1l-0.1-0.1l0.1,0.1l0,0.1c0.1,1,0.8,1.5,1.5,2l-0.1,0
		c0.3,0.7,0.7,1.2,1.4,1.6c0,0,0,0,0,0c0.2,0.2,0.4,0.4,0.6,0.6c0,0,0,0,0,0c0.2,0.2,0.4,0.4,0.6,0.6c0,0,0,0,0,0
		c0.2,0.2,0.4,0.4,0.6,0.6l0,0c0.3,0.7,0.9,1.2,1.6,1.4c0,0-0.1,0-0.1,0c0.3,0.3,0.6,0.5,0.9,0.8c0.8,1,2,1.4,3,2.2
		c2.8,2.2,5.7,4.3,9,5.7c0.7,0.7,1.6,1.1,2.6,1.1l0,0c2.8,1.5,5.8,2.3,8.8,2.8c0.4,0.1,0.7,0.1,1.1,0.2c7.6,1.9,15.4,2.2,23.2,2.3
		c39.6,0,79.2,0,118.8,0c2.7,0,5.5-0.1,8.2-0.1c0.6,0,1.2,0,1.8,0c7,0,14-0.5,20.9-2.3c2.6-0.2,5.2-0.9,7.6-1.9
		c5.9-2.6,11.5-5.8,16.6-9.9c0.3-0.3,0.6-0.6,0.9-0.8l-0.1,0c0.3-0.3,0.7-0.6,1-0.9l0,0c0.2-0.2,0.4-0.4,0.6-0.6c0,0,0,0,0,0
		c0.2-0.2,0.4-0.4,0.6-0.6l0,0c0.2-0.2,0.4-0.4,0.6-0.6l0,0c0.2-0.2,0.4-0.4,0.6-0.6l0,0c0.7-0.4,1.2-0.9,1.4-1.6l0,0.1
		c0.3-0.3,0.5-0.6,0.8-0.9c2.9-4.3,6.6-8.2,8.4-13.3c0.5-0.3,0.6-0.8,0.6-1.4l0,0c1.3-2.2,2-4.6,2.3-7.1c0.2-0.9,0.5-1.9,0.7-2.8
		c1.8-5.9,2.1-12.1,2.1-18.2c0.1-45.4,0.1-90.8,0-136.2c0-5-0.2-10.1-1.6-15.1c-0.4-1.4-1-2.8-1.1-4.2c-1.1-8.6-5.1-15.8-10.9-22.1
		c-0.1-0.5-0.2-1-0.8-1.3l0,0.1c0.1-0.4-0.2-0.7-0.5-0.8l0.1,0c-0.3-0.7-0.7-1.2-1.4-1.6c0,0,0,0,0,0c-0.2-0.2-0.4-0.4-0.6-0.6
		c0,0,0,0,0,0c-0.2-0.2-0.4-0.4-0.6-0.6c0,0,0,0,0,0c-0.2-0.2-0.4-0.4-0.6-0.6l0,0c-0.3-0.7-0.9-1.2-1.6-1.4l0,0
		c-0.1-0.4-0.3-0.6-0.8-0.5l0.1,0c-0.3-0.4-0.7-0.7-1.2-0.7c-1.7-2.1-4-3.7-6.3-4.9c-1.8-0.9-3-3.5-5.7-2.6
		c-0.2-0.8-0.6-1.4-1.6-1.2l0,0c-2.2-1.3-4.6-2-7.1-2.3c-0.8,0-1.7,0-2.5,0c-0.3-0.9-1-1-1.8-1.2c-5.5-1-11-1.6-16.6-1.6
		c-45.4-0.1-90.8-0.1-136.2,0c-6.1,0-12.3,0.4-18.2,2.1c-0.3,0.2-0.7,0.4-1,0.6c-3.3-0.5-6.1,1.1-8.9,2.4l0,0c-0.5,0-1.1,0-1.4,0.6
		c-1.3,0.6-2.7,1-3.9,1.9c-3.1,2.3-6.2,4.4-9.4,6.6c-0.3,0.3-0.6,0.5-0.9,0.8l0,0c-0.7,0.3-1.2,0.7-1.6,1.4c0,0,0,0,0,0
		C37.3,35.9,37.1,36.1,36.9,36.3z"/>
	<path id="XMLID_170_" class="st1" d="M268.1,41c5.8,6.3,9.8,13.5,10.9,22.1c0.2,1.4,0.8,2.8,1.1,4.2c-0.6,0.4-0.6,0.9-0.4,1.5
		c1.4,6.2,1.4,12.6,1.4,18.8c0.2,41.9,0.2,83.9,0,125.8c0,4.9-0.3,9.9-0.8,14.8c-0.3,2.8-1.6,5.6-0.7,8.5c-0.2,0.9-0.5,1.9-0.7,2.8
		c-1.5,2.1-2.2,4.5-2.3,7.1c0,0,0,0,0,0c-0.7,0.3-0.6,0.8-0.6,1.4c-1.8,5.1-5.5,8.9-8.4,13.3c-0.5,0.1-0.9,0.2-0.8,0.9
		c0,0,0-0.1,0-0.1c-1.1,0-1.4,0.7-1.4,1.6c0,0,0,0,0,0c-0.2,0.2-0.4,0.4-0.6,0.6c0,0,0,0,0,0c-0.2,0.2-0.4,0.4-0.6,0.6c0,0,0,0,0,0
		c-0.2,0.2-0.4,0.4-0.6,0.6c0,0,0,0,0,0c-0.2,0.2-0.4,0.4-0.6,0.6c0,0,0,0,0,0c-0.6,0-1,0.1-1,0.9c0,0,0.1,0,0.1,0
		c-0.7-0.1-0.8,0.4-0.9,0.8c-5.1,4.1-10.7,7.3-16.6,9.9c-2.4,1-4.9,1.7-7.6,1.9c-0.5-0.1-1-0.3-1.4-0.2c-6,0.9-11.9,1.6-18,1.5
		c-0.7,0-1.4,0.1-1.5,1c-0.6,0-1.2,0-1.8,0c-1-0.9-2.2-0.5-3.4-0.5c-41,0-81.9,0-122.9-0.1c-4.9,0-9.9-0.4-14.8-0.9
		c-3-0.3-6-1.5-9.1-0.7c-0.4-0.1-0.7-0.1-1.1-0.2c-2.7-1.7-5.7-2.5-8.8-2.8c0,0,0,0,0,0c-0.5-1.3-1.5-1.3-2.6-1.1
		c-3.3-1.4-6.2-3.5-9-5.7c-1-0.8-2.2-1.2-3-2.2c-0.1-0.5-0.2-0.9-0.9-0.8c0,0,0.1,0,0.1,0c0-1.1-0.7-1.4-1.6-1.4c0,0,0,0,0,0
		c-0.2-0.2-0.4-0.4-0.6-0.6c0,0,0,0,0,0c-0.2-0.2-0.4-0.4-0.6-0.6c0,0,0,0,0,0c-0.2-0.2-0.4-0.4-0.6-0.6c0,0,0,0,0,0
		c0-0.9-0.3-1.6-1.4-1.6c0,0,0.1,0,0.1,0c0-1-0.4-1.8-1.5-2c0,0,0-0.1,0-0.1c0,0,0-0.1,0-0.1c-6.8-7.4-10.5-16.2-11.8-26.1
		c0.6-0.4,0.6-0.9,0.4-1.5c-1.4-6.2-1.4-12.6-1.4-18.8c-0.2-41.9-0.2-83.9,0-125.8c0-4.7,0.3-9.5,0.8-14.2c0.3-3,1.5-6,0.7-9.1
		c1.7-8.8,5.3-16.7,11.3-23.4c1.1-0.2,1.5-1,1.5-2c0,0-0.1,0-0.1,0c1.1,0,1.4-0.7,1.4-1.6c0,0,0,0,0,0c0.2-0.2,0.4-0.4,0.6-0.6
		c0,0,0,0,0,0c0.2-0.2,0.4-0.4,0.6-0.6c0,0,0,0,0,0c0.2-0.2,0.4-0.4,0.6-0.6c0,0,0,0,0,0c0.9,0,1.6-0.3,1.6-1.4c0,0,0,0,0,0
		c0.7,0.1,0.8-0.3,0.9-0.8c3.1-2.2,6.3-4.3,9.4-6.6c1.2-0.9,2.6-1.2,3.9-1.8c0.6,0.1,1.1,0.1,1.4-0.6c0,0,0,0,0,0
		c3.2-0.1,5.9-1.6,8.9-2.4c0.3-0.2,0.7-0.4,1-0.6c0.4,0.6,0.9,0.4,1.6,0.3c7.7-1.4,15.5-1.8,23.2-1.9c41.1-0.1,82.2-0.1,123.3,0
		c8.2,0,16.5,0.6,24.6,2.2c0.8,0,1.7,0,2.5,0c2.1,1.5,4.5,2.2,7.1,2.3c0,0,0,0,0,0c0.2,0.8,0.8,1.1,1.6,1.2c2.6-0.9,3.9,1.7,5.7,2.6
		c2.3,1.2,4.6,2.7,6.3,4.9c0.2,0.6,0.7,0.7,1.2,0.7c0,0-0.1,0-0.1,0c0.1,0.4,0.4,0.5,0.8,0.5c0,0,0,0,0,0c0,1.1,0.7,1.4,1.6,1.4
		c0,0,0,0,0,0c0.2,0.2,0.4,0.4,0.6,0.6c0,0,0,0,0,0c0.2,0.2,0.4,0.4,0.6,0.6c0,0,0,0,0,0c0.2,0.2,0.4,0.4,0.6,0.6c0,0,0,0,0,0
		c0,0.9,0.3,1.6,1.4,1.6c0,0-0.1,0-0.1,0c-0.1,0.4,0.1,0.7,0.5,0.8c0,0,0-0.1,0-0.1C267.2,40.4,267.4,40.8,268.1,41z M150.5,91.9
		c-4,0-8,0-12,0c-16.6,0-33.2,0.1-49.7,1.3c-7.2,0.5-12.6,3.4-15.9,10.1c-2.5,5.1-4.2,10.5-5,16.1c-2.6,20.1-3,40.2-0.5,60.4
		c0.8,6.2,2,12.4,4.8,18c2.9,5.9,7.1,10.2,14.1,10.9c10.3,1,20.6,1.5,31,1.5c30.8,0.2,61.7,0.8,92.5-1c12-0.7,17.6-5,21.1-16.5
		c0.9-3.1,1.7-6.2,2.2-9.4c3.2-20.9,3.1-41.8,0.4-62.7c-0.9-6.5-2.4-12.9-5.8-18.6c-2.5-4.2-5.8-7.5-10.8-8.3
		c-3.8-0.6-7.7-0.9-11.6-1.1C187,91.6,168.8,91.9,150.5,91.9z"/>
	<path id="XMLID_169_" class="st2" d="M237.1,22.3c-8.1-1.7-16.4-2.2-24.6-2.2c-41.1-0.1-82.2-0.1-123.3,0c-7.8,0-15.5,0.5-23.2,1.9
		c-0.6,0.1-1.1,0.3-1.6-0.3c5.9-1.7,12.1-2.1,18.2-2.1c45.4-0.1,90.8-0.1,136.2,0c5.5,0,11.1,0.6,16.6,1.6
		C236.2,21.2,236.8,21.4,237.1,22.3z"/>
	<path id="XMLID_168_" class="st2" d="M21.6,64.4c0.8,3.1-0.4,6.1-0.7,9.1c-0.5,4.7-0.8,9.5-0.8,14.2c-0.2,41.9-0.2,83.9,0,125.8
		c0,6.3,0.1,12.6,1.4,18.8c0.1,0.6,0.1,1.2-0.4,1.5c-1.3-4.9-1.6-10-1.6-15.1c-0.1-45.4-0.1-90.8,0-136.2
		C19.5,76.5,19.8,70.3,21.6,64.4z"/>
	<path id="XMLID_167_" class="st2" d="M279.6,236.8c-0.9-2.9,0.4-5.7,0.7-8.5c0.6-4.9,0.8-9.9,0.8-14.8c0.2-41.9,0.2-83.9,0-125.8
		c0-6.3-0.1-12.6-1.4-18.8c-0.1-0.6-0.1-1.2,0.4-1.5c1.3,4.9,1.6,10,1.6,15.1c0.1,45.4,0.1,90.8,0,136.2
		C281.7,224.7,281.3,230.9,279.6,236.8z"/>
	<path id="XMLID_166_" class="st2" d="M64.4,279.6c3.1-0.8,6.1,0.4,9.1,0.7c4.9,0.4,9.9,0.9,14.8,0.9c41,0.1,81.9,0.1,122.9,0.1
		c1.1,0,2.4-0.4,3.4,0.5c-2.7,0-5.5,0.1-8.2,0.1c-39.6,0-79.2,0-118.8,0C79.8,281.8,72,281.5,64.4,279.6z"/>
	<path id="XMLID_165_" class="st2" d="M216.3,281.8c0.1-0.9,0.7-1.1,1.5-1c6,0.2,12-0.6,18-1.5c0.5-0.1,1,0.2,1.4,0.2
		C230.3,281.3,223.3,281.8,216.3,281.8z"/>
	<path id="XMLID_164_" class="st2" d="M63.4,22.2c-3,0.8-5.8,2.2-8.9,2.4C57.3,23.3,60.1,21.7,63.4,22.2z"/>
	<path id="XMLID_163_" class="st2" d="M54.5,276.6c3.1,0.4,6.1,1.1,8.8,2.8C60.2,278.9,57.2,278.1,54.5,276.6z"/>
	<path id="XMLID_162_" class="st2" d="M246.7,24.6c-2.6-0.1-5-0.8-7.1-2.3C242.1,22.6,244.5,23.3,246.7,24.6z"/>
	<path id="XMLID_161_" class="st2" d="M276.6,246.7c0.1-2.6,0.8-5,2.3-7.1C278.6,242.1,277.9,244.5,276.6,246.7z"/>
	<path id="XMLID_160_" class="st2" d="M32.8,260.2c1.1,0.2,1.5,0.9,1.5,2C33.6,261.7,32.9,261.2,32.8,260.2z"/>
	<path id="XMLID_159_" class="st2" d="M34.4,39c-0.1,1-0.4,1.8-1.5,2C32.9,40,33.6,39.5,34.4,39z"/>
	<path id="XMLID_158_" class="st2" d="M51.9,275.5c1.1-0.1,2.1-0.1,2.6,1.1C53.5,276.6,52.6,276.2,51.9,275.5z"/>
	<path id="XMLID_157_" class="st2" d="M248.3,25.8c-0.7-0.2-1.4-0.4-1.6-1.2C247.6,24.4,248,25,248.3,25.8z"/>
	<path id="XMLID_156_" class="st2" d="M261.4,33.9c-0.6,0-1,0-1.2-0.7C260.8,33.2,261.1,33.5,261.4,33.9z"/>
	<path id="XMLID_155_" class="st2" d="M34.3,262.1c1.1,0,1.4,0.6,1.4,1.6C35.1,263.4,34.6,262.8,34.3,262.1z"/>
	<path id="XMLID_154_" class="st2" d="M265.4,263.7c0-0.9,0.3-1.6,1.4-1.6C266.6,262.8,266.1,263.4,265.4,263.7z"/>
	<path id="XMLID_153_" class="st2" d="M39,34.3c0,1.1-0.6,1.4-1.6,1.4C37.8,35.1,38.3,34.6,39,34.3z"/>
	<path id="XMLID_152_" class="st2" d="M37.5,265.4c0.9,0,1.6,0.3,1.6,1.4C38.3,266.6,37.8,266.1,37.5,265.4z"/>
	<path id="XMLID_151_" class="st2" d="M266.9,39c-1.1,0-1.4-0.6-1.4-1.6C266.1,37.8,266.6,38.3,266.9,39z"/>
	<path id="XMLID_150_" class="st2" d="M268.1,41c-0.7-0.1-0.9-0.6-0.8-1.3C267.9,39.9,268,40.4,268.1,41z"/>
	<path id="XMLID_149_" class="st2" d="M263.7,35.7c-0.9,0-1.6-0.3-1.6-1.4C262.8,34.6,263.4,35.1,263.7,35.7z"/>
	<path id="XMLID_148_" class="st2" d="M35.7,37.5c0,0.9-0.3,1.6-1.4,1.6C34.6,38.3,35.1,37.8,35.7,37.5z"/>
	<path id="XMLID_147_" class="st2" d="M39.9,33.5c-0.1,0.5-0.2,0.9-0.9,0.8C39.3,34.1,39.6,33.8,39.9,33.5z"/>
	<path id="XMLID_146_" class="st2" d="M54.5,24.6c-0.3,0.7-0.8,0.6-1.4,0.6C53.4,24.6,53.9,24.5,54.5,24.6z"/>
	<path id="XMLID_145_" class="st2" d="M266.8,262.2c-0.1-0.7,0.3-0.8,0.8-0.9C267.4,261.6,267.1,261.9,266.8,262.2z"/>
	<path id="XMLID_144_" class="st2" d="M276,248c-0.1-0.6-0.1-1.1,0.6-1.4C276.6,247.2,276.6,247.7,276,248z"/>
	<path id="XMLID_143_" class="st2" d="M262.1,266.9c0-0.7,0.4-0.8,1-0.9C262.8,266.3,262.4,266.6,262.1,266.9z"/>
	<path id="XMLID_142_" class="st2" d="M39,266.8c0.7-0.1,0.8,0.3,0.9,0.8C39.6,267.4,39.3,267.1,39,266.8z"/>
	<path id="XMLID_141_" class="st2" d="M261.3,267.7c0.1-0.5,0.2-1,0.9-0.8C261.9,267.1,261.6,267.4,261.3,267.7z"/>
	<path id="XMLID_140_" class="st2" d="M262.1,34.4c-0.4,0.1-0.7-0.1-0.8-0.5C261.8,33.7,262,34,262.1,34.4z"/>
	<polygon id="XMLID_139_" class="st2" points="32.8,260 32.8,260 32.7,259.9 	"/>
	<path id="XMLID_138_" class="st2" d="M267.3,39.8c-0.4-0.1-0.6-0.3-0.5-0.8C267.2,39.1,267.4,39.4,267.3,39.8z"/>
	<path id="XMLID_137_" class="st2" d="M265.5,37.5c-0.2-0.2-0.4-0.4-0.6-0.6C265,37.1,265.3,37.3,265.5,37.5z"/>
	<path id="XMLID_136_" class="st2" d="M36.3,36.9c-0.2,0.2-0.4,0.4-0.6,0.6C35.9,37.3,36.1,37.1,36.3,36.9z"/>
	<path id="XMLID_135_" class="st2" d="M35.7,263.7c0.2,0.2,0.4,0.4,0.6,0.6C36.1,264.1,35.9,263.9,35.7,263.7z"/>
	<path id="XMLID_134_" class="st2" d="M264.8,264.3c0.2-0.2,0.4-0.4,0.6-0.6C265.3,263.9,265,264.1,264.8,264.3z"/>
	<path id="XMLID_133_" class="st2" d="M264.9,36.9c-0.2-0.2-0.4-0.4-0.6-0.6C264.5,36.5,264.7,36.7,264.9,36.9z"/>
	<path id="XMLID_132_" class="st2" d="M264.3,264.9c0.2-0.2,0.4-0.4,0.6-0.6C264.7,264.5,264.5,264.7,264.3,264.9z"/>
	<path id="XMLID_131_" class="st2" d="M36.9,264.8c0.2,0.2,0.4,0.4,0.6,0.6C37.3,265.3,37.1,265,36.9,264.8z"/>
	<path id="XMLID_130_" class="st2" d="M263.7,265.5c0.2-0.2,0.4-0.4,0.6-0.6C264.1,265,263.9,265.3,263.7,265.5z"/>
	<path id="XMLID_129_" class="st2" d="M263.1,266c0.2-0.2,0.4-0.4,0.6-0.6C263.5,265.6,263.3,265.8,263.1,266z"/>
	<path id="XMLID_128_" class="st2" d="M36.9,36.3c-0.2,0.2-0.4,0.4-0.6,0.6C36.5,36.7,36.7,36.5,36.9,36.3z"/>
	<path id="XMLID_127_" class="st2" d="M264.3,36.3c-0.2-0.2-0.4-0.4-0.6-0.6C263.9,35.9,264.1,36.1,264.3,36.3z"/>
	<path id="XMLID_126_" class="st2" d="M37.5,35.7c-0.2,0.2-0.4,0.4-0.6,0.6C37.1,36.1,37.3,35.9,37.5,35.7z"/>
	<path id="XMLID_125_" class="st2" d="M36.3,264.3c0.2,0.2,0.4,0.4,0.6,0.6C36.7,264.7,36.5,264.5,36.3,264.3z"/>
	<path id="XMLID_122_" class="st0" d="M150.5,91.9c18.3,0.1,36.5-0.2,54.7,0.8c3.9,0.2,7.8,0.5,11.6,1.1c5,0.8,8.3,4.1,10.8,8.3
		c3.4,5.7,5,12.1,5.8,18.6c2.7,20.9,2.8,41.8-0.4,62.7c-0.5,3.2-1.3,6.3-2.2,9.4c-3.5,11.5-9.1,15.8-21.1,16.5
		c-30.8,1.8-61.7,1.2-92.5,1c-10.3-0.1-20.7-0.6-31-1.5c-7-0.7-11.2-5-14.1-10.9c-2.8-5.7-4-11.8-4.8-18
		c-2.5-20.1-2.2-40.3,0.5-60.4c0.7-5.6,2.4-11,5-16.1c3.3-6.7,8.7-9.6,15.9-10.1c16.6-1.2,33.1-1.3,49.7-1.3
		C142.5,91.9,146.5,91.9,150.5,91.9z M134,119.9c-0.8,1.3-0.5,2.2-0.5,3.2c0,18.6,0,37.3,0,55.9c0,0.9-0.6,2.1,0.4,2.6
		c0.8,0.4,1.5-0.6,2.2-1.1c13.5-8.7,27.1-17.4,40.6-26.1c1.6-1,3.4-1.9,4.9-3.6C165.7,140.4,149.8,130.2,134,119.9z"/>
	<path id="XMLID_121_" class="st1" d="M134,119.9c15.9,10.3,31.7,20.5,47.7,30.9c-1.5,1.8-3.3,2.6-4.9,3.6
		c-13.5,8.7-27.1,17.5-40.6,26.1c-0.7,0.5-1.4,1.5-2.2,1.1c-1-0.5-0.4-1.7-0.4-2.6c0-18.6,0-37.3,0-55.9
		C133.5,122.1,133.2,121.1,134,119.9z"/>
</g>
</svg>
